<?xml version="1.0" encoding="UTF-8" standalone="no"?>
<!DOCTYPE svg PUBLIC "-//W3C//DTD SVG 1.1//EN"
 "http://www.w3.org/Graphics/SVG/1.1/DTD/svg11.dtd">
<!-- Generated by graphviz version 2.43.0 (0)
 -->
<!-- Title: Sector&#45;less network (with underground CO2 storage) Pages: 1 -->
<svg width="1853pt" height="993pt"
 viewBox="0.00 0.00 1853.00 992.58" xmlns="http://www.w3.org/2000/svg" xmlns:xlink="http://www.w3.org/1999/xlink">
<g id="graph0" class="graph" transform="scale(1 1) rotate(0) translate(4 988.58)">
<title>Sector&#45;less network (with underground CO2 storage)</title>
<g id="a_graph0"><a xlink:title="Network: Sector&#45;less network (with underground CO2 storage)&#10;Buses: 8 (out of 8)&#10;Generators: 6 (out of 6)&#10;Loads: 2 (out of 2)&#10;Stores: 4 (out of 4)&#10;Storage units: 2 (out of 2)&#10;Links: 3 (out of 3)&#10;Lines: 0 (out of 0)&#10;Snapshots: 1">
<text text-anchor="middle" x="922.5" y="-969.38" font-family="Times,serif" font-size="14.00">Sector&#45;less network (with underground CO2 storage)</text>
<text text-anchor="middle" x="922.5" y="-922.38" font-family="Times,serif" font-size="14.00"> &#160;&#160;&#160;&#160;&#160;&#160;&#160;&#160;&#160;&#160;</text>
</a>
</g>
<!-- p9 (bus) -->
<g id="node1" class="node">
<title>p9 (bus)</title>
<g id="a_node1"><a xlink:title="Bus: p9&#10;Carrier: AC&#10;Unit: &#10;Generators: 2&#10;Loads: 1&#10;Stores: 0&#10;Storage units: 1&#10;Incoming links: 1&#10;Outgoing links: 1&#10;Lines: 0&#10;&#10;Power time series: N/A ">
<polygon fill="none" stroke="transparent" stroke-width="7.3" points="1189,-376.5 951,-376.5 951,-354.5 1189,-354.5 1189,-376.5"/>
<polyline fill="none" stroke="black" stroke-width="7.3" points="951,-354.5 1189,-354.5 "/>
<text text-anchor="start" x="1065" y="-363.6" font-family="Courier New" font-size="8.00" fill="red">p9</text>
</a>
</g>
</g>
<!-- p10 (bus) -->
<g id="node5" class="node">
<title>p10 (bus)</title>
<g id="a_node5"><a xlink:title="Bus: p10&#10;Carrier: AC&#10;Unit: &#10;Generators: 2&#10;Loads: 1&#10;Stores: 0&#10;Storage units: 1&#10;Incoming links: 2&#10;Outgoing links: 0&#10;Lines: 0&#10;&#10;Power time series: N/A ">
<polygon fill="none" stroke="transparent" stroke-width="7.3" points="306,-213 68,-213 68,-191 306,-191 306,-213"/>
<polyline fill="none" stroke="black" stroke-width="7.3" points="68,-191 306,-191 "/>
<text text-anchor="start" x="180" y="-200.1" font-family="Courier New" font-size="8.00" fill="red">p10</text>
</a>
</g>
</g>
<!-- p9 (bus)&#45;&gt;p10 (bus) -->
<g id="edge15" class="edge">
<title>p9 (bus)&#45;&gt;p10 (bus)</title>
<g id="a_edge15"><a xlink:title="Link: p9||p10&#10;From: p9 (bus0)&#10;To: p10 (bus1)&#10;Carrier: &#10;Extendable nominal power: False&#10;Nominal power: 0.00 MW&#10;Efficiency: 1.00&#10;Capital cost: 0.00 currency/MW&#10;Marginal cost: 0.00 currency/MWh&#10;&#10;Optimised nominal power: 0.00 MW&#10;Power time series (p0): N/A MW&#10;Power time series (p1): N/A MW">
<path fill="none" stroke="black" stroke-width="1.5" d="M1031.64,-354.43C947.06,-332.22 752,-281 752,-281 752,-281 342,-245 342,-245 342,-245 281.31,-228.56 235.89,-216.25"/>
<polygon fill="black" stroke="black" stroke-width="1.5" points="224.13,-213.06 237.12,-210.99 229.98,-214.39 235.77,-215.96 235.71,-216.2 235.64,-216.44 229.85,-214.87 234.3,-221.41 224.13,-213.06 224.13,-213.06"/>
</a>
</g>
<text text-anchor="start" x="786" y="-283.6" font-family="Courier New" font-size="8.00" fill="red">p9||p10</text>
</g>
<!-- p9 AC (load) -->
<g id="node15" class="node">
<title>p9 AC (load)</title>
<g id="a_node15"><a xlink:title="Load: p9 AC&#10;Bus: p9&#10;Carrier: &#10;Power set: 0.00 ">
<polygon fill="none" stroke="black" stroke-width="2" points="1052,-159 1106,-223.5 998,-223.5 1052,-159"/>
<text text-anchor="start" x="1040.5" y="-200.1" font-family="Courier New" font-size="8.00" fill="red">p9 AC</text>
</a>
</g>
</g>
<!-- p9 (bus)&#45;&gt;p9 AC (load) -->
<g id="edge7" class="edge">
<title>p9 (bus)&#45;&gt;p9 AC (load)</title>
<path fill="none" stroke="black" stroke-width="1.5" d="M1068.87,-354.4C1065.97,-328.36 1058.2,-258.58 1054.3,-223.6"/>
</g>
<!-- p9 battery (storage unit) -->
<g id="node21" class="node">
<title>p9 battery (storage unit)</title>
<g id="a_node21"><a xlink:title="Storage unit: p9 battery&#10;Bus: p9&#10;Carrier: &#10;Extendable nominal power: False&#10;Nominal power: 0.00 &#10;Power set: 0.00 &#10;Charge cyclic state: False&#10;Capital cost: 0.00 currency/&#10;Marginal cost: 0.00 currency/h&#10;&#10;Optimised nominal power: 0.00 &#10;Power time series: N/A ">
<polygon fill="none" stroke="black" stroke-width="2" points="1312.28,-220 1205.25,-220 1177.72,-184 1284.75,-184 1312.28,-220"/>
<text text-anchor="start" x="1222" y="-200.1" font-family="Courier New" font-size="8.00" fill="red">p9 battery</text>
</a>
</g>
</g>
<!-- p9 (bus)&#45;&gt;p9 battery (storage unit) -->
<g id="edge13" class="edge">
<title>p9 (bus)&#45;&gt;p9 battery (storage unit)</title>
<path fill="none" stroke="black" stroke-width="1.5" d="M1089.97,-346.07C1121.34,-317.12 1182.2,-260.96 1217.62,-228.27"/>
<polygon fill="black" stroke="black" stroke-width="1.5" points="1080.95,-354.4 1086.1,-342.29 1085.19,-350.14 1089.6,-346.08 1089.77,-346.26 1089.94,-346.44 1085.53,-350.51 1093.43,-350.23 1080.95,-354.4 1080.95,-354.4"/>
<polygon fill="black" stroke="black" stroke-width="1.5" points="1226.47,-220.1 1221.31,-232.21 1222.23,-224.36 1217.82,-228.43 1217.65,-228.24 1217.48,-228.06 1221.89,-223.99 1213.99,-224.27 1226.47,-220.1 1226.47,-220.1"/>
</g>
<!-- p9 CCGT&#45;95CC_2030 (bus) -->
<g id="node2" class="node">
<title>p9 CCGT&#45;95CC_2030 (bus)</title>
<g id="a_node2"><a xlink:title="Bus: p9 CCGT&#45;95CC_2030&#10;Carrier: AC&#10;Unit: &#10;Generators: 1&#10;Loads: 0&#10;Stores: 0&#10;Storage units: 0&#10;Incoming links: 0&#10;Outgoing links: 3&#10;Lines: 0&#10;&#10;Power time series: N/A ">
<polygon fill="none" stroke="transparent" stroke-width="7.3" points="1535,-707.18 1297,-707.18 1297,-685.18 1535,-685.18 1535,-707.18"/>
<polyline fill="none" stroke="black" stroke-width="7.3" points="1297,-685.18 1535,-685.18 "/>
<text text-anchor="start" x="1377.5" y="-694.28" font-family="Courier New" font-size="8.00" fill="red">p9 CCGT&#45;95CC_2030</text>
</a>
</g>
</g>
<!-- p9 CCGT&#45;95CC_2030 (multi&#45;link) -->
<g id="node23" class="node">
<title>p9 CCGT&#45;95CC_2030 (multi&#45;link)</title>
<g id="a_node23"><a xlink:title="Multi&#45;link: p9 CCGT&#45;95CC_2030&#10;From: p9 CCGT&#45;95CC_2030 (bus0)&#10;To: p9 (bus1)&#10;To: p9 atmosphere (bus3)&#10;To: p9 co2 capture (bus2)&#10;Carrier: &#10;Extendable nominal energy: False&#10;Nominal power: 0.00 MW&#10;Capital cost: 0.00 currency/MW&#10;Marginal cost: 0.00 currency/MWh&#10;&#10;Optimised nominal power: 0.00 MW&#10;Power time series (p0): N/A MW">
<ellipse fill="black" stroke="black" cx="1416" cy="-525.5" rx="2.16" ry="2.16"/>
</a>
</g>
</g>
<!-- p9 CCGT&#45;95CC_2030 (bus)&#45;&gt;p9 CCGT&#45;95CC_2030 (multi&#45;link) -->
<g id="edge16" class="edge">
<title>p9 CCGT&#45;95CC_2030 (bus)&#45;&gt;p9 CCGT&#45;95CC_2030 (multi&#45;link)</title>
<g id="a_edge16"><a xlink:title="Multi&#45;link: p9 CCGT&#45;95CC_2030&#10;From: p9 CCGT&#45;95CC_2030 (bus0)&#10;To: p9 (bus1)&#10;To: p9 atmosphere (bus3)&#10;To: p9 co2 capture (bus2)&#10;Carrier: &#10;Extendable nominal power: False&#10;Nominal power: 0.00 MW&#10;Capital cost: 0.00 currency/MW&#10;Marginal cost: 0.00 currency/MWh&#10;&#10;Optimised nominal power: 0.00 MW&#10;Power time series (p0): N/A MW">
<path fill="none" stroke="black" stroke-width="1.5" d="M1416,-685.13C1416,-651.09 1416,-541.45 1416,-527.88"/>
</a>
</g>
<text text-anchor="start" x="1416" y="-603.6" font-family="Courier New" font-size="8.00" fill="red">p9 CCGT&#45;95CC_2030</text>
</g>
<!-- p9 co2 capture (bus) -->
<g id="node3" class="node">
<title>p9 co2 capture (bus)</title>
<g id="a_node3"><a xlink:title="Bus: p9 co2 capture&#10;Carrier: AC&#10;Unit: &#10;Generators: 0&#10;Loads: 0&#10;Stores: 1&#10;Storage units: 0&#10;Incoming links: 1&#10;Outgoing links: 0&#10;Lines: 0&#10;&#10;Power time series: N/A ">
<polygon fill="none" stroke="transparent" stroke-width="7.3" points="1535,-376.5 1297,-376.5 1297,-354.5 1535,-354.5 1535,-376.5"/>
<polyline fill="none" stroke="black" stroke-width="7.3" points="1297,-354.5 1535,-354.5 "/>
<text text-anchor="start" x="1384" y="-363.6" font-family="Courier New" font-size="8.00" fill="red">p9 co2 capture</text>
</a>
</g>
</g>
<!-- p9 co2 storage (store) -->
<g id="node17" class="node">
<title>p9 co2 storage (store)</title>
<g id="a_node17"><a xlink:title="Store: p9 co2 storage&#10;Bus: p9 co2 capture&#10;Carrier: &#10;Extendable nominal energy: False&#10;Nominal energy: 0.00 h&#10;Power set: 0.00 &#10;Cyclic energy: False&#10;Capital cost: 0.00 currency/&#10;Marginal cost: 0.00 currency/h&#10;&#10;Optimised nominal energy: 0.00 h&#10;Energy time series: N/A h&#10;Power time series: N/A ">
<polygon fill="none" stroke="black" stroke-width="2" points="1485.5,-220 1384.5,-220 1384.5,-184 1485.5,-184 1485.5,-220"/>
<text text-anchor="start" x="1403" y="-200.1" font-family="Courier New" font-size="8.00" fill="red">p9 co2 storage</text>
</a>
</g>
</g>
<!-- p9 co2 capture (bus)&#45;&gt;p9 co2 storage (store) -->
<g id="edge9" class="edge">
<title>p9 co2 capture (bus)&#45;&gt;p9 co2 storage (store)</title>
<path fill="none" stroke="black" stroke-width="1.5" d="M1418.61,-342.27C1421.99,-313.61 1427.86,-263.68 1431.58,-232.04"/>
<polygon fill="black" stroke="black" stroke-width="1.5" points="1417.19,-354.4 1413.23,-341.85 1417.64,-348.41 1418.34,-342.45 1418.59,-342.48 1418.84,-342.51 1418.14,-348.47 1423.95,-343.11 1417.19,-354.4 1417.19,-354.4"/>
<polygon fill="black" stroke="black" stroke-width="1.5" points="1432.99,-220.1 1436.95,-232.65 1432.53,-226.09 1431.83,-232.05 1431.59,-232.02 1431.34,-231.99 1432.04,-226.03 1426.22,-231.39 1432.99,-220.1 1432.99,-220.1"/>
</g>
<!-- p9 atmosphere (bus) -->
<g id="node4" class="node">
<title>p9 atmosphere (bus)</title>
<g id="a_node4"><a xlink:title="Bus: p9 atmosphere&#10;Carrier: AC&#10;Unit: &#10;Generators: 0&#10;Loads: 0&#10;Stores: 1&#10;Storage units: 0&#10;Incoming links: 1&#10;Outgoing links: 0&#10;Lines: 0&#10;&#10;Power time series: N/A ">
<polygon fill="none" stroke="transparent" stroke-width="7.3" points="1845,-376.5 1607,-376.5 1607,-354.5 1845,-354.5 1845,-376.5"/>
<polyline fill="none" stroke="black" stroke-width="7.3" points="1607,-354.5 1845,-354.5 "/>
<text text-anchor="start" x="1696.5" y="-363.6" font-family="Courier New" font-size="8.00" fill="red">p9 atmosphere</text>
</a>
</g>
</g>
<!-- p9 atmosphere (store) -->
<g id="node18" class="node">
<title>p9 atmosphere (store)</title>
<g id="a_node18"><a xlink:title="Store: p9 atmosphere&#10;Bus: p9 atmosphere&#10;Carrier: &#10;Extendable nominal energy: False&#10;Nominal energy: 0.00 h&#10;Power set: 0.00 &#10;Cyclic energy: False&#10;Capital cost: 0.00 currency/&#10;Marginal cost: 0.00 currency/h&#10;&#10;Optimised nominal energy: 0.00 h&#10;Energy time series: N/A h&#10;Power time series: N/A ">
<polygon fill="none" stroke="black" stroke-width="2" points="1776.5,-220 1675.5,-220 1675.5,-184 1776.5,-184 1776.5,-220"/>
<text text-anchor="start" x="1696.5" y="-200.1" font-family="Courier New" font-size="8.00" fill="red">p9 atmosphere</text>
</a>
</g>
</g>
<!-- p9 atmosphere (bus)&#45;&gt;p9 atmosphere (store) -->
<g id="edge10" class="edge">
<title>p9 atmosphere (bus)&#45;&gt;p9 atmosphere (store)</title>
<path fill="none" stroke="black" stroke-width="1.5" d="M1726,-342.27C1726,-313.73 1726,-264.12 1726,-232.46"/>
<polygon fill="black" stroke="black" stroke-width="1.5" points="1726,-354.4 1720.6,-342.4 1725.75,-348.4 1725.75,-342.4 1726,-342.4 1726.25,-342.4 1726.25,-348.4 1731.4,-342.4 1726,-354.4 1726,-354.4"/>
<polygon fill="black" stroke="black" stroke-width="1.5" points="1726,-220.1 1731.4,-232.1 1726.25,-226.1 1726.25,-232.1 1726,-232.1 1725.75,-232.1 1725.75,-226.1 1720.6,-232.1 1726,-220.1 1726,-220.1"/>
</g>
<!-- p10 AC (load) -->
<g id="node16" class="node">
<title>p10 AC (load)</title>
<g id="a_node16"><a xlink:title="Load: p10 AC&#10;Bus: p10&#10;Carrier: &#10;Power set: 0.00 ">
<polygon fill="none" stroke="black" stroke-width="2" points="54,0 108,-64.5 0,-64.5 54,0"/>
<text text-anchor="start" x="40" y="-41.1" font-family="Courier New" font-size="8.00" fill="red">p10 AC</text>
</a>
</g>
</g>
<!-- p10 (bus)&#45;&gt;p10 AC (load) -->
<g id="edge8" class="edge">
<title>p10 (bus)&#45;&gt;p10 AC (load)</title>
<path fill="none" stroke="black" stroke-width="1.5" d="M178.27,-190.7C156.66,-165.18 100.31,-98.67 71.51,-64.67"/>
</g>
<!-- p10 battery (storage unit) -->
<g id="node22" class="node">
<title>p10 battery (storage unit)</title>
<g id="a_node22"><a xlink:title="Storage unit: p10 battery&#10;Bus: p10&#10;Carrier: &#10;Extendable nominal power: False&#10;Nominal power: 0.00 &#10;Power set: 0.00 &#10;Charge cyclic state: False&#10;Capital cost: 0.00 currency/&#10;Marginal cost: 0.00 currency/h&#10;&#10;Optimised nominal power: 0.00 &#10;Power time series: N/A ">
<polygon fill="none" stroke="black" stroke-width="2" points="314.28,-61 207.25,-61 179.72,-25 286.75,-25 314.28,-61"/>
<text text-anchor="start" x="222" y="-41.1" font-family="Courier New" font-size="8.00" fill="red">p10 battery</text>
</a>
</g>
</g>
<!-- p10 (bus)&#45;&gt;p10 battery (storage unit) -->
<g id="edge14" class="edge">
<title>p10 (bus)&#45;&gt;p10 battery (storage unit)</title>
<path fill="none" stroke="black" stroke-width="1.5" d="M195.28,-179.32C205.91,-151.51 224.37,-103.21 236.12,-72.47"/>
<polygon fill="black" stroke="black" stroke-width="1.5" points="190.94,-190.7 190.18,-177.56 192.85,-185 194.99,-179.4 195.22,-179.49 195.45,-179.58 193.31,-185.18 200.26,-181.42 190.94,-190.7 190.94,-190.7"/>
<polygon fill="black" stroke="black" stroke-width="1.5" points="240.41,-61.24 241.17,-74.38 238.5,-66.94 236.36,-72.54 236.13,-72.45 235.89,-72.36 238.04,-66.76 231.08,-70.52 240.41,-61.24 240.41,-61.24"/>
</g>
<!-- p10 CCGT&#45;95CC_2030 (bus) -->
<g id="node6" class="node">
<title>p10 CCGT&#45;95CC_2030 (bus)</title>
<g id="a_node6"><a xlink:title="Bus: p10 CCGT&#45;95CC_2030&#10;Carrier: AC&#10;Unit: &#10;Generators: 1&#10;Loads: 0&#10;Stores: 0&#10;Storage units: 0&#10;Incoming links: 0&#10;Outgoing links: 3&#10;Lines: 0&#10;&#10;Power time series: N/A ">
<polygon fill="none" stroke="transparent" stroke-width="7.3" points="616,-536.5 378,-536.5 378,-514.5 616,-514.5 616,-536.5"/>
<polyline fill="none" stroke="black" stroke-width="7.3" points="378,-514.5 616,-514.5 "/>
<text text-anchor="start" x="456" y="-523.6" font-family="Courier New" font-size="8.00" fill="red">p10 CCGT&#45;95CC_2030</text>
</a>
</g>
</g>
<!-- p10 CCGT&#45;95CC_2030 (multi&#45;link) -->
<g id="node24" class="node">
<title>p10 CCGT&#45;95CC_2030 (multi&#45;link)</title>
<g id="a_node24"><a xlink:title="Multi&#45;link: p10 CCGT&#45;95CC_2030&#10;From: p10 CCGT&#45;95CC_2030 (bus0)&#10;To: p10 (bus1)&#10;To: p10 atmosphere (bus3)&#10;To: p10 co2 capture (bus2)&#10;Carrier: &#10;Extendable nominal energy: False&#10;Nominal power: 0.00 MW&#10;Capital cost: 0.00 currency/MW&#10;Marginal cost: 0.00 currency/MWh&#10;&#10;Optimised nominal power: 0.00 MW&#10;Power time series (p0): N/A MW">
<ellipse fill="black" stroke="black" cx="497" cy="-365.5" rx="2.16" ry="2.16"/>
</a>
</g>
</g>
<!-- p10 CCGT&#45;95CC_2030 (bus)&#45;&gt;p10 CCGT&#45;95CC_2030 (multi&#45;link) -->
<g id="edge17" class="edge">
<title>p10 CCGT&#45;95CC_2030 (bus)&#45;&gt;p10 CCGT&#45;95CC_2030 (multi&#45;link)</title>
<g id="a_edge17"><a xlink:title="Multi&#45;link: p10 CCGT&#45;95CC_2030&#10;From: p10 CCGT&#45;95CC_2030 (bus0)&#10;To: p10 (bus1)&#10;To: p10 atmosphere (bus3)&#10;To: p10 co2 capture (bus2)&#10;Carrier: &#10;Extendable nominal power: False&#10;Nominal power: 0.00 MW&#10;Capital cost: 0.00 currency/MW&#10;Marginal cost: 0.00 currency/MWh&#10;&#10;Optimised nominal power: 0.00 MW&#10;Power time series (p0): N/A MW">
<path fill="none" stroke="black" stroke-width="1.5" d="M497,-514.13C497,-481.18 497,-380.26 497,-367.77"/>
</a>
</g>
<text text-anchor="start" x="497" y="-443.6" font-family="Courier New" font-size="8.00" fill="red">p10 CCGT&#45;95CC_2030</text>
</g>
<!-- p10 co2 capture (bus) -->
<g id="node7" class="node">
<title>p10 co2 capture (bus)</title>
<g id="a_node7"><a xlink:title="Bus: p10 co2 capture&#10;Carrier: AC&#10;Unit: &#10;Generators: 0&#10;Loads: 0&#10;Stores: 1&#10;Storage units: 0&#10;Incoming links: 1&#10;Outgoing links: 0&#10;Lines: 0&#10;&#10;Power time series: N/A ">
<polygon fill="none" stroke="transparent" stroke-width="7.3" points="616,-213 378,-213 378,-191 616,-191 616,-213"/>
<polyline fill="none" stroke="black" stroke-width="7.3" points="378,-191 616,-191 "/>
<text text-anchor="start" x="463" y="-200.1" font-family="Courier New" font-size="8.00" fill="red">p10 co2 capture</text>
</a>
</g>
</g>
<!-- p10 co2 storage (store) -->
<g id="node19" class="node">
<title>p10 co2 storage (store)</title>
<g id="a_node19"><a xlink:title="Store: p10 co2 storage&#10;Bus: p10 co2 capture&#10;Carrier: &#10;Extendable nominal energy: False&#10;Nominal energy: 0.00 h&#10;Power set: 0.00 &#10;Cyclic energy: False&#10;Capital cost: 0.00 currency/&#10;Marginal cost: 0.00 currency/h&#10;&#10;Optimised nominal energy: 0.00 h&#10;Energy time series: N/A h&#10;Power time series: N/A ">
<polygon fill="none" stroke="black" stroke-width="2" points="547.5,-61 446.5,-61 446.5,-25 547.5,-25 547.5,-61"/>
<text text-anchor="start" x="463" y="-41.1" font-family="Courier New" font-size="8.00" fill="red">p10 co2 storage</text>
</a>
</g>
</g>
<!-- p10 co2 capture (bus)&#45;&gt;p10 co2 storage (store) -->
<g id="edge11" class="edge">
<title>p10 co2 capture (bus)&#45;&gt;p10 co2 storage (store)</title>
<path fill="none" stroke="black" stroke-width="1.5" d="M497,-178.48C497,-150.88 497,-104.05 497,-73.58"/>
<polygon fill="black" stroke="black" stroke-width="1.5" points="497,-190.7 491.6,-178.7 496.75,-184.7 496.75,-178.7 497,-178.7 497.25,-178.7 497.25,-184.7 502.4,-178.7 497,-190.7 497,-190.7"/>
<polygon fill="black" stroke="black" stroke-width="1.5" points="497,-61.24 502.4,-73.24 497.25,-67.24 497.25,-73.24 497,-73.24 496.75,-73.24 496.75,-67.24 491.6,-73.24 497,-61.24 497,-61.24"/>
</g>
<!-- p10 atmosphere (bus) -->
<g id="node8" class="node">
<title>p10 atmosphere (bus)</title>
<g id="a_node8"><a xlink:title="Bus: p10 atmosphere&#10;Carrier: AC&#10;Unit: &#10;Generators: 0&#10;Loads: 0&#10;Stores: 1&#10;Storage units: 0&#10;Incoming links: 1&#10;Outgoing links: 0&#10;Lines: 0&#10;&#10;Power time series: N/A ">
<polygon fill="none" stroke="transparent" stroke-width="7.3" points="926,-213 688,-213 688,-191 926,-191 926,-213"/>
<polyline fill="none" stroke="black" stroke-width="7.3" points="688,-191 926,-191 "/>
<text text-anchor="start" x="775" y="-200.1" font-family="Courier New" font-size="8.00" fill="red">p10 atmosphere</text>
</a>
</g>
</g>
<!-- p10 atmosphere (store) -->
<g id="node20" class="node">
<title>p10 atmosphere (store)</title>
<g id="a_node20"><a xlink:title="Store: p10 atmosphere&#10;Bus: p10 atmosphere&#10;Carrier: &#10;Extendable nominal energy: False&#10;Nominal energy: 0.00 h&#10;Power set: 0.00 &#10;Cyclic energy: False&#10;Capital cost: 0.00 currency/&#10;Marginal cost: 0.00 currency/h&#10;&#10;Optimised nominal energy: 0.00 h&#10;Energy time series: N/A h&#10;Power time series: N/A ">
<polygon fill="none" stroke="black" stroke-width="2" points="857.5,-61 756.5,-61 756.5,-25 857.5,-25 857.5,-61"/>
<text text-anchor="start" x="775" y="-41.1" font-family="Courier New" font-size="8.00" fill="red">p10 atmosphere</text>
</a>
</g>
</g>
<!-- p10 atmosphere (bus)&#45;&gt;p10 atmosphere (store) -->
<g id="edge12" class="edge">
<title>p10 atmosphere (bus)&#45;&gt;p10 atmosphere (store)</title>
<path fill="none" stroke="black" stroke-width="1.5" d="M807,-178.48C807,-150.88 807,-104.05 807,-73.58"/>
<polygon fill="black" stroke="black" stroke-width="1.5" points="807,-190.7 801.6,-178.7 806.75,-184.7 806.75,-178.7 807,-178.7 807.25,-178.7 807.25,-184.7 812.4,-178.7 807,-190.7 807,-190.7"/>
<polygon fill="black" stroke="black" stroke-width="1.5" points="807,-61.24 812.4,-73.24 807.25,-67.24 807.25,-73.24 807,-73.24 806.75,-73.24 806.75,-67.24 801.6,-73.24 807,-61.24 807,-61.24"/>
</g>
<!-- p9 onwind (generator) -->
<g id="node9" class="node">
<title>p9 onwind (generator)</title>
<g id="a_node9"><a xlink:title="Generator: p9 onwind&#10;Bus: p9&#10;Carrier: &#10;Extendable nominal power: False&#10;Nominal power: 0.00 &#10;Power set: 0.00 &#10;Efficiency: 1.00&#10;Capital cost: 0.00 currency/&#10;Marginal cost: 0.00 currency/h&#10;&#10;Optimised nominal power: 0.00 &#10;Power time series: N/A ">
<ellipse fill="none" stroke="black" stroke-width="2" cx="929" cy="-525.5" rx="39.5" ry="39.5"/>
<text text-anchor="start" x="908.5" y="-523.6" font-family="Courier New" font-size="8.00" fill="red">p9 onwind</text>
</a>
</g>
</g>
<!-- p9 onwind (generator)&#45;&gt;p9 (bus) -->
<g id="edge1" class="edge">
<title>p9 onwind (generator)&#45;&gt;p9 (bus)</title>
<path fill="none" stroke="black" stroke-width="1.5" d="M954.86,-495.52C986.82,-459.71 1039.57,-400.59 1060.77,-376.85"/>
</g>
<!-- p9 solar (generator) -->
<g id="node10" class="node">
<title>p9 solar (generator)</title>
<g id="a_node10"><a xlink:title="Generator: p9 solar&#10;Bus: p9&#10;Carrier: &#10;Extendable nominal power: False&#10;Nominal power: 0.00 &#10;Power set: 0.00 &#10;Efficiency: 1.00&#10;Capital cost: 0.00 currency/&#10;Marginal cost: 0.00 currency/h&#10;&#10;Optimised nominal power: 0.00 &#10;Power time series: N/A ">
<ellipse fill="none" stroke="black" stroke-width="2" cx="1080" cy="-525.5" rx="39.5" ry="39.5"/>
<text text-anchor="start" x="1061.5" y="-523.6" font-family="Courier New" font-size="8.00" fill="red">p9 solar</text>
</a>
</g>
</g>
<!-- p9 solar (generator)&#45;&gt;p9 (bus) -->
<g id="edge2" class="edge">
<title>p9 solar (generator)&#45;&gt;p9 (bus)</title>
<path fill="none" stroke="black" stroke-width="1.5" d="M1077.55,-485.85C1075.26,-449.67 1072,-398.06 1070.63,-376.53"/>
</g>
<!-- p9 CCGT&#45;95CC_2030 (generator) -->
<g id="node11" class="node">
<title>p9 CCGT&#45;95CC_2030 (generator)</title>
<g id="a_node11"><a xlink:title="Generator: p9 CCGT&#45;95CC_2030&#10;Bus: p9 CCGT&#45;95CC_2030&#10;Carrier: &#10;Extendable nominal power: False&#10;Nominal power: 0.00 &#10;Power set: 0.00 &#10;Efficiency: 1.00&#10;Capital cost: 0.00 currency/&#10;Marginal cost: 0.00 currency/h&#10;&#10;Optimised nominal power: 0.00 &#10;Power time series: N/A ">
<ellipse fill="none" stroke="black" stroke-width="2" cx="1416" cy="-866.97" rx="47.73" ry="47.73"/>
<text text-anchor="start" x="1377.5" y="-865.07" font-family="Courier New" font-size="8.00" fill="red">p9 CCGT&#45;95CC_2030</text>
</a>
</g>
</g>
<!-- p9 CCGT&#45;95CC_2030 (generator)&#45;&gt;p9 CCGT&#45;95CC_2030 (bus) -->
<g id="edge3" class="edge">
<title>p9 CCGT&#45;95CC_2030 (generator)&#45;&gt;p9 CCGT&#45;95CC_2030 (bus)</title>
<path fill="none" stroke="black" stroke-width="1.5" d="M1416,-818.95C1416,-780.52 1416,-729.12 1416,-707.47"/>
</g>
<!-- p10 onwind (generator) -->
<g id="node12" class="node">
<title>p10 onwind (generator)</title>
<g id="a_node12"><a xlink:title="Generator: p10 onwind&#10;Bus: p10&#10;Carrier: &#10;Extendable nominal power: False&#10;Nominal power: 0.00 &#10;Power set: 0.00 &#10;Efficiency: 1.00&#10;Capital cost: 0.00 currency/&#10;Marginal cost: 0.00 currency/h&#10;&#10;Optimised nominal power: 0.00 &#10;Power time series: N/A ">
<ellipse fill="none" stroke="black" stroke-width="2" cx="46" cy="-365.5" rx="39.5" ry="39.5"/>
<text text-anchor="start" x="23" y="-363.6" font-family="Courier New" font-size="8.00" fill="red">p10 onwind</text>
</a>
</g>
</g>
<!-- p10 onwind (generator)&#45;&gt;p10 (bus) -->
<g id="edge4" class="edge">
<title>p10 onwind (generator)&#45;&gt;p10 (bus)</title>
<path fill="none" stroke="black" stroke-width="1.5" d="M71.53,-335.25C103.6,-298.53 156.95,-237.42 178.03,-213.27"/>
</g>
<!-- p10 solar (generator) -->
<g id="node13" class="node">
<title>p10 solar (generator)</title>
<g id="a_node13"><a xlink:title="Generator: p10 solar&#10;Bus: p10&#10;Carrier: &#10;Extendable nominal power: False&#10;Nominal power: 0.00 &#10;Power set: 0.00 &#10;Efficiency: 1.00&#10;Capital cost: 0.00 currency/&#10;Marginal cost: 0.00 currency/h&#10;&#10;Optimised nominal power: 0.00 &#10;Power time series: N/A ">
<ellipse fill="none" stroke="black" stroke-width="2" cx="197" cy="-365.5" rx="39.5" ry="39.5"/>
<text text-anchor="start" x="176.5" y="-363.6" font-family="Courier New" font-size="8.00" fill="red">p10 solar</text>
</a>
</g>
</g>
<!-- p10 solar (generator)&#45;&gt;p10 (bus) -->
<g id="edge5" class="edge">
<title>p10 solar (generator)&#45;&gt;p10 (bus)</title>
<path fill="none" stroke="black" stroke-width="1.5" d="M194.6,-325.82C192.31,-288.68 188.99,-235.06 187.62,-213.03"/>
</g>
<!-- p10 CCGT&#45;95CC_2030 (generator) -->
<g id="node14" class="node">
<title>p10 CCGT&#45;95CC_2030 (generator)</title>
<g id="a_node14"><a xlink:title="Generator: p10 CCGT&#45;95CC_2030&#10;Bus: p10 CCGT&#45;95CC_2030&#10;Carrier: &#10;Extendable nominal power: False&#10;Nominal power: 0.00 &#10;Power set: 0.00 &#10;Efficiency: 1.00&#10;Capital cost: 0.00 currency/&#10;Marginal cost: 0.00 currency/h&#10;&#10;Optimised nominal power: 0.00 &#10;Power time series: N/A ">
<ellipse fill="none" stroke="black" stroke-width="2" cx="497" cy="-696.18" rx="50.35" ry="50.35"/>
<text text-anchor="start" x="456" y="-694.28" font-family="Courier New" font-size="8.00" fill="red">p10 CCGT&#45;95CC_2030</text>
</a>
</g>
</g>
<!-- p10 CCGT&#45;95CC_2030 (generator)&#45;&gt;p10 CCGT&#45;95CC_2030 (bus) -->
<g id="edge6" class="edge">
<title>p10 CCGT&#45;95CC_2030 (generator)&#45;&gt;p10 CCGT&#45;95CC_2030 (bus)</title>
<path fill="none" stroke="black" stroke-width="1.5" d="M497,-645.93C497,-607.62 497,-557.55 497,-536.5"/>
</g>
<!-- p9 CCGT&#45;95CC_2030 (multi&#45;link)&#45;&gt;p9 (bus) -->
<g id="edge18" class="edge">
<title>p9 CCGT&#45;95CC_2030 (multi&#45;link)&#45;&gt;p9 (bus)</title>
<g id="a_edge18"><a xlink:title="Multi&#45;link: p9 CCGT&#45;95CC_2030&#10;From: p9 CCGT&#45;95CC_2030 (bus0)&#10;To: p9 (bus1)&#10;Carrier: &#10;Extendable nominal power: False&#10;Nominal power: 0.00 MW&#10;Efficiency: 1.00&#10;Capital cost: 0.00 currency/MW&#10;Marginal cost: 0.00 currency/MWh&#10;&#10;Optimised nominal power: 0.00 MW&#10;Power time series (p0): N/A MW&#10;Power time series (p1): N/A MW">
<path fill="none" stroke="black" stroke-width="1.5" d="M1414.46,-523.8C1394.46,-514.66 1185.34,-419.17 1103.03,-381.58"/>
<polygon fill="black" stroke="black" stroke-width="1.5" points="1092.06,-376.57 1105.22,-376.65 1097.62,-378.84 1103.08,-381.33 1102.98,-381.56 1102.87,-381.79 1097.42,-379.29 1100.74,-386.47 1092.06,-376.57 1092.06,-376.57"/>
</a>
</g>
<text text-anchor="start" x="1243" y="-443.6" font-family="Courier New" font-size="8.00" fill="red">p9 CCGT&#45;95CC_2030</text>
</g>
<!-- p9 CCGT&#45;95CC_2030 (multi&#45;link)&#45;&gt;p9 co2 capture (bus) -->
<g id="edge20" class="edge">
<title>p9 CCGT&#45;95CC_2030 (multi&#45;link)&#45;&gt;p9 co2 capture (bus)</title>
<g id="a_edge20"><a xlink:title="Multi&#45;link: p9 CCGT&#45;95CC_2030&#10;From: p9 CCGT&#45;95CC_2030 (bus0)&#10;To: p9 co2 capture (bus2)&#10;Carrier: &#10;Extendable nominal power: False&#10;Nominal power: 0.00 MW&#10;Efficiency: 1.00&#10;Capital cost: 0.00 currency/MW&#10;Marginal cost: 0.00 currency/MWh&#10;&#10;Optimised nominal power: 0.00 MW&#10;Power time series (p0): N/A MW&#10;Power time series (p2): N/A MW">
<path fill="none" stroke="black" stroke-width="1.5" d="M1416,-523.13C1416,-511.56 1416,-429.37 1416,-388.9"/>
<polygon fill="black" stroke="black" stroke-width="1.5" points="1416,-376.72 1421.4,-388.72 1416.25,-382.72 1416.25,-388.72 1416,-388.72 1415.75,-388.72 1415.75,-382.72 1410.6,-388.72 1416,-376.72 1416,-376.72"/>
</a>
</g>
<text text-anchor="start" x="1416" y="-443.6" font-family="Courier New" font-size="8.00" fill="red">p9 CCGT&#45;95CC_2030</text>
</g>
<!-- p9 CCGT&#45;95CC_2030 (multi&#45;link)&#45;&gt;p9 atmosphere (bus) -->
<g id="edge19" class="edge">
<title>p9 CCGT&#45;95CC_2030 (multi&#45;link)&#45;&gt;p9 atmosphere (bus)</title>
<g id="a_edge19"><a xlink:title="Multi&#45;link: p9 CCGT&#45;95CC_2030&#10;From: p9 CCGT&#45;95CC_2030 (bus0)&#10;To: p9 atmosphere (bus3)&#10;Carrier: &#10;Extendable nominal power: False&#10;Nominal power: 0.00 MW&#10;Efficiency: 1.00&#10;Capital cost: 0.00 currency/MW&#10;Marginal cost: 0.00 currency/MWh&#10;&#10;Optimised nominal power: 0.00 MW&#10;Power time series (p0): N/A MW&#10;Power time series (p3): N/A MW">
<path fill="none" stroke="black" stroke-width="1.5" d="M1417.38,-523.8C1435.21,-514.71 1620.75,-420.15 1695.27,-382.16"/>
<polygon fill="black" stroke="black" stroke-width="1.5" points="1706.23,-376.57 1697.99,-386.84 1701,-379.52 1695.65,-382.25 1695.54,-382.02 1695.43,-381.8 1700.77,-379.08 1693.09,-377.21 1706.23,-376.57 1706.23,-376.57"/>
</a>
</g>
<text text-anchor="start" x="1571" y="-443.6" font-family="Courier New" font-size="8.00" fill="red">p9 CCGT&#45;95CC_2030</text>
</g>
<!-- p10 CCGT&#45;95CC_2030 (multi&#45;link)&#45;&gt;p10 (bus) -->
<g id="edge21" class="edge">
<title>p10 CCGT&#45;95CC_2030 (multi&#45;link)&#45;&gt;p10 (bus)</title>
<g id="a_edge21"><a xlink:title="Multi&#45;link: p10 CCGT&#45;95CC_2030&#10;From: p10 CCGT&#45;95CC_2030 (bus0)&#10;To: p10 (bus1)&#10;Carrier: &#10;Extendable nominal power: False&#10;Nominal power: 0.00 MW&#10;Efficiency: 1.00&#10;Capital cost: 0.00 currency/MW&#10;Marginal cost: 0.00 currency/MWh&#10;&#10;Optimised nominal power: 0.00 MW&#10;Power time series (p0): N/A MW&#10;Power time series (p1): N/A MW">
<path fill="none" stroke="black" stroke-width="1.5" d="M495.62,-363.78C477.75,-354.47 291.39,-257.38 217.21,-218.74"/>
<polygon fill="black" stroke="black" stroke-width="1.5" points="206.31,-213.06 219.45,-213.82 211.75,-215.61 217.07,-218.39 216.96,-218.61 216.84,-218.83 211.52,-216.06 214.46,-223.4 206.31,-213.06 206.31,-213.06"/>
</a>
</g>
<text text-anchor="start" x="352" y="-283.6" font-family="Courier New" font-size="8.00" fill="red">p10 CCGT&#45;95CC_2030</text>
</g>
<!-- p10 CCGT&#45;95CC_2030 (multi&#45;link)&#45;&gt;p10 co2 capture (bus) -->
<g id="edge23" class="edge">
<title>p10 CCGT&#45;95CC_2030 (multi&#45;link)&#45;&gt;p10 co2 capture (bus)</title>
<g id="a_edge23"><a xlink:title="Multi&#45;link: p10 CCGT&#45;95CC_2030&#10;From: p10 CCGT&#45;95CC_2030 (bus0)&#10;To: p10 co2 capture (bus2)&#10;Carrier: &#10;Extendable nominal power: False&#10;Nominal power: 0.00 MW&#10;Efficiency: 1.00&#10;Capital cost: 0.00 currency/MW&#10;Marginal cost: 0.00 currency/MWh&#10;&#10;Optimised nominal power: 0.00 MW&#10;Power time series (p0): N/A MW&#10;Power time series (p2): N/A MW">
<path fill="none" stroke="black" stroke-width="1.5" d="M497,-363.1C497,-351.25 497,-266.89 497,-225.63"/>
<polygon fill="black" stroke="black" stroke-width="1.5" points="497,-213.45 502.4,-225.45 497.25,-219.45 497.25,-225.45 497,-225.45 496.75,-225.45 496.75,-219.45 491.6,-225.45 497,-213.45 497,-213.45"/>
</a>
</g>
<text text-anchor="start" x="497" y="-283.6" font-family="Courier New" font-size="8.00" fill="red">p10 CCGT&#45;95CC_2030</text>
</g>
<!-- p10 CCGT&#45;95CC_2030 (multi&#45;link)&#45;&gt;p10 atmosphere (bus) -->
<g id="edge22" class="edge">
<title>p10 CCGT&#45;95CC_2030 (multi&#45;link)&#45;&gt;p10 atmosphere (bus)</title>
<g id="a_edge22"><a xlink:title="Multi&#45;link: p10 CCGT&#45;95CC_2030&#10;From: p10 CCGT&#45;95CC_2030 (bus0)&#10;To: p10 atmosphere (bus3)&#10;Carrier: &#10;Extendable nominal power: False&#10;Nominal power: 0.00 MW&#10;Efficiency: 1.00&#10;Capital cost: 0.00 currency/MW&#10;Marginal cost: 0.00 currency/MWh&#10;&#10;Optimised nominal power: 0.00 MW&#10;Power time series (p0): N/A MW&#10;Power time series (p3): N/A MW">
<path fill="none" stroke="black" stroke-width="1.5" d="M498.38,-363.78C516.25,-354.47 702.61,-257.38 776.79,-218.74"/>
<polygon fill="black" stroke="black" stroke-width="1.5" points="787.69,-213.06 779.54,-223.4 782.48,-216.06 777.16,-218.83 777.04,-218.61 776.93,-218.39 782.25,-215.61 774.55,-213.82 787.69,-213.06 787.69,-213.06"/>
</a>
</g>
<text text-anchor="start" x="652" y="-283.6" font-family="Courier New" font-size="8.00" fill="red">p10 CCGT&#45;95CC_2030</text>
</g>
</g>
</svg>
