<?xml version="1.0" encoding="UTF-8" standalone="no"?>
<!DOCTYPE svg PUBLIC "-//W3C//DTD SVG 1.1//EN"
 "http://www.w3.org/Graphics/SVG/1.1/DTD/svg11.dtd">
<!-- Generated by graphviz version 2.43.0 (0)
 -->
<!-- Title: Sector&#45;based network (with underground CO2 storage and CO2 transport) Pages: 1 -->
<svg width="1893pt" height="614pt"
 viewBox="0.00 0.00 1893.00 614.32" xmlns="http://www.w3.org/2000/svg" xmlns:xlink="http://www.w3.org/1999/xlink">
<g id="graph0" class="graph" transform="scale(1 1) rotate(0) translate(4 610.32)">
<title>Sector&#45;based network (with underground CO2 storage and CO2 transport)</title>
<g id="a_graph0"><a xlink:title="Network: Sector&#45;based network (with underground CO2 storage and CO2 transport)&#10;Buses: 7 (out of 7)&#10;Generators: 0 (out of 0)&#10;Loads: 2 (out of 2)&#10;Stores: 3 (out of 3)&#10;Storage units: 2 (out of 2)&#10;Links: 6 (out of 6)&#10;Lines: 0 (out of 0)&#10;Snapshots: 1">
<text text-anchor="middle" x="942.5" y="-591.12" font-family="Times,serif" font-size="14.00">Sector&#45;based network (with underground CO2 storage and CO2 transport)</text>
<text text-anchor="middle" x="942.5" y="-544.12" font-family="Times,serif" font-size="14.00"> &#160;&#160;&#160;&#160;&#160;&#160;&#160;&#160;&#160;&#160;</text>
</a>
</g>
<!-- CA gas (bus) -->
<g id="node1" class="node">
<title>CA gas (bus)</title>
<g id="a_node1"><a xlink:title="Bus: CA gas&#10;Carrier: AC&#10;Unit: &#10;Generators: 0&#10;Loads: 0&#10;Stores: 0&#10;Storage units: 0&#10;Incoming links: 0&#10;Outgoing links: 14&#10;Lines: 0&#10;&#10;Power time series: N/A ">
<polygon fill="none" stroke="transparent" stroke-width="7.3" points="1156,-536.32 918,-536.32 918,-514.32 1156,-514.32 1156,-536.32"/>
<polyline fill="none" stroke="black" stroke-width="7.3" points="918,-514.32 1156,-514.32 "/>
<text text-anchor="start" x="1023" y="-523.42" font-family="Courier New" font-size="8.00" fill="red">CA gas</text>
</a>
</g>
</g>
<!-- p9 OCGT (multi&#45;link) -->
<g id="node15" class="node">
<title>p9 OCGT (multi&#45;link)</title>
<g id="a_node15"><a xlink:title="Multi&#45;link: p9 OCGT&#10;From: CA gas (bus0)&#10;To: p9 (bus1)&#10;To: CA gas&#45;ch4 (bus3)&#10;To: CA pwr&#45;co2 (bus2)&#10;Carrier: &#10;Extendable nominal energy: False&#10;Nominal power: 0.00 MW&#10;Capital cost: 0.00 currency/MW&#10;Marginal cost: 0.00 currency/MWh&#10;&#10;Optimised nominal power: 0.00 MW&#10;Power time series (p0): N/A MW">
<ellipse fill="black" stroke="black" cx="299" cy="-431.16" rx="2.16" ry="2.16"/>
</a>
</g>
</g>
<!-- CA gas (bus)&#45;&gt;p9 OCGT (multi&#45;link) -->
<g id="edge10" class="edge">
<title>CA gas (bus)&#45;&gt;p9 OCGT (multi&#45;link)</title>
<g id="a_edge10"><a xlink:title="Multi&#45;link: p9 OCGT&#10;From: CA gas (bus0)&#10;To: p9 (bus1)&#10;To: CA gas&#45;ch4 (bus3)&#10;To: CA pwr&#45;co2 (bus2)&#10;Carrier: &#10;Extendable nominal power: False&#10;Nominal power: 0.00 MW&#10;Capital cost: 0.00 currency/MW&#10;Marginal cost: 0.00 currency/MWh&#10;&#10;Optimised nominal power: 0.00 MW&#10;Power time series (p0): N/A MW">
<path fill="none" stroke="black" stroke-width="1.5" d="M956.62,-514.28C772.81,-491.33 335.01,-436.66 301.09,-432.42"/>
</a>
</g>
<text text-anchor="start" x="668" y="-471.92" font-family="Courier New" font-size="8.00" fill="red">p9 OCGT</text>
</g>
<!-- p9 CCGT&#45;95CC_2030 (multi&#45;link) -->
<g id="node16" class="node">
<title>p9 CCGT&#45;95CC_2030 (multi&#45;link)</title>
<g id="a_node16"><a xlink:title="Multi&#45;link: p9 CCGT&#45;95CC_2030&#10;From: CA gas (bus0)&#10;To: p9 (bus1)&#10;To: CA gas&#45;ch4 (bus3)&#10;To: CA pwr&#45;co2 (bus2)&#10;To: p9 co2 capture (bus4)&#10;Carrier: &#10;Extendable nominal energy: False&#10;Nominal power: 0.00 MW&#10;Capital cost: 0.00 currency/MW&#10;Marginal cost: 0.00 currency/MWh&#10;&#10;Optimised nominal power: 0.00 MW&#10;Power time series (p0): N/A MW">
<ellipse fill="black" stroke="black" cx="725" cy="-431.16" rx="2.16" ry="2.16"/>
</a>
</g>
</g>
<!-- CA gas (bus)&#45;&gt;p9 CCGT&#45;95CC_2030 (multi&#45;link) -->
<g id="edge11" class="edge">
<title>CA gas (bus)&#45;&gt;p9 CCGT&#45;95CC_2030 (multi&#45;link)</title>
<g id="a_edge11"><a xlink:title="Multi&#45;link: p9 CCGT&#45;95CC_2030&#10;From: CA gas (bus0)&#10;To: p9 (bus1)&#10;To: CA gas&#45;ch4 (bus3)&#10;To: CA pwr&#45;co2 (bus2)&#10;To: p9 co2 capture (bus4)&#10;Carrier: &#10;Extendable nominal power: False&#10;Nominal power: 0.00 MW&#10;Capital cost: 0.00 currency/MW&#10;Marginal cost: 0.00 currency/MWh&#10;&#10;Optimised nominal power: 0.00 MW&#10;Power time series (p0): N/A MW">
<path fill="none" stroke="black" stroke-width="1.5" d="M1003.02,-514.28C926.58,-491.7 746.22,-438.43 726.72,-432.67"/>
</a>
</g>
<text text-anchor="start" x="881" y="-471.92" font-family="Courier New" font-size="8.00" fill="red">p9 CCGT&#45;95CC_2030</text>
</g>
<!-- p10 OCGT (multi&#45;link) -->
<g id="node17" class="node">
<title>p10 OCGT (multi&#45;link)</title>
<g id="a_node17"><a xlink:title="Multi&#45;link: p10 OCGT&#10;From: CA gas (bus0)&#10;To: p10 (bus1)&#10;To: CA gas&#45;ch4 (bus3)&#10;To: CA pwr&#45;co2 (bus2)&#10;Carrier: &#10;Extendable nominal energy: False&#10;Nominal power: 0.00 MW&#10;Capital cost: 0.00 currency/MW&#10;Marginal cost: 0.00 currency/MWh&#10;&#10;Optimised nominal power: 0.00 MW&#10;Power time series (p0): N/A MW">
<ellipse fill="black" stroke="black" cx="1116" cy="-431.16" rx="2.16" ry="2.16"/>
</a>
</g>
</g>
<!-- CA gas (bus)&#45;&gt;p10 OCGT (multi&#45;link) -->
<g id="edge12" class="edge">
<title>CA gas (bus)&#45;&gt;p10 OCGT (multi&#45;link)</title>
<g id="a_edge12"><a xlink:title="Multi&#45;link: p10 OCGT&#10;From: CA gas (bus0)&#10;To: p10 (bus1)&#10;To: CA gas&#45;ch4 (bus3)&#10;To: CA pwr&#45;co2 (bus2)&#10;Carrier: &#10;Extendable nominal power: False&#10;Nominal power: 0.00 MW&#10;Capital cost: 0.00 currency/MW&#10;Marginal cost: 0.00 currency/MWh&#10;&#10;Optimised nominal power: 0.00 MW&#10;Power time series (p0): N/A MW">
<path fill="none" stroke="black" stroke-width="1.5" d="M1045.76,-514.11C1064.72,-491.98 1108.42,-441.01 1115.13,-433.18"/>
</a>
</g>
<text text-anchor="start" x="1083" y="-471.92" font-family="Courier New" font-size="8.00" fill="red">p10 OCGT</text>
</g>
<!-- p10 CCGT&#45;95CC_2030 (multi&#45;link) -->
<g id="node18" class="node">
<title>p10 CCGT&#45;95CC_2030 (multi&#45;link)</title>
<g id="a_node18"><a xlink:title="Multi&#45;link: p10 CCGT&#45;95CC_2030&#10;From: CA gas (bus0)&#10;To: p10 (bus1)&#10;To: CA gas&#45;ch4 (bus3)&#10;To: CA pwr&#45;co2 (bus2)&#10;To: p10 co2 capture (bus4)&#10;Carrier: &#10;Extendable nominal energy: False&#10;Nominal power: 0.00 MW&#10;Capital cost: 0.00 currency/MW&#10;Marginal cost: 0.00 currency/MWh&#10;&#10;Optimised nominal power: 0.00 MW&#10;Power time series (p0): N/A MW">
<ellipse fill="black" stroke="black" cx="1494" cy="-431.16" rx="2.16" ry="2.16"/>
</a>
</g>
</g>
<!-- CA gas (bus)&#45;&gt;p10 CCGT&#45;95CC_2030 (multi&#45;link) -->
<g id="edge13" class="edge">
<title>CA gas (bus)&#45;&gt;p10 CCGT&#45;95CC_2030 (multi&#45;link)</title>
<g id="a_edge13"><a xlink:title="Multi&#45;link: p10 CCGT&#45;95CC_2030&#10;From: CA gas (bus0)&#10;To: p10 (bus1)&#10;To: CA gas&#45;ch4 (bus3)&#10;To: CA pwr&#45;co2 (bus2)&#10;To: p10 co2 capture (bus4)&#10;Carrier: &#10;Extendable nominal power: False&#10;Nominal power: 0.00 MW&#10;Capital cost: 0.00 currency/MW&#10;Marginal cost: 0.00 currency/MWh&#10;&#10;Optimised nominal power: 0.00 MW&#10;Power time series (p0): N/A MW">
<path fill="none" stroke="black" stroke-width="1.5" d="M1086.78,-514.28C1199.67,-491.52 1467.3,-437.54 1492.14,-432.53"/>
</a>
</g>
<text text-anchor="start" x="1306" y="-471.92" font-family="Courier New" font-size="8.00" fill="red">p10 CCGT&#45;95CC_2030</text>
</g>
<!-- CA pwr&#45;co2 (bus) -->
<g id="node2" class="node">
<title>CA pwr&#45;co2 (bus)</title>
<g id="a_node2"><a xlink:title="Bus: CA pwr&#45;co2&#10;Carrier: AC&#10;Unit: &#10;Generators: 0&#10;Loads: 0&#10;Stores: 1&#10;Storage units: 0&#10;Incoming links: 4&#10;Outgoing links: 0&#10;Lines: 0&#10;&#10;Power time series: N/A ">
<polygon fill="none" stroke="transparent" stroke-width="7.3" points="616,-348 378,-348 378,-326 616,-326 616,-348"/>
<polyline fill="none" stroke="black" stroke-width="7.3" points="378,-326 616,-326 "/>
<text text-anchor="start" x="474" y="-335.1" font-family="Courier New" font-size="8.00" fill="red">CA pwr&#45;co2</text>
</a>
</g>
</g>
<!-- CA pwr&#45;co2 (store) -->
<g id="node10" class="node">
<title>CA pwr&#45;co2 (store)</title>
<g id="a_node10"><a xlink:title="Store: CA pwr&#45;co2&#10;Bus: CA pwr&#45;co2&#10;Carrier: &#10;Extendable nominal energy: False&#10;Nominal energy: 0.00 h&#10;Power set: 0.00 &#10;Cyclic energy: False&#10;Capital cost: 0.00 currency/&#10;Marginal cost: 0.00 currency/h&#10;&#10;Optimised nominal energy: 0.00 h&#10;Energy time series: N/A h&#10;Power time series: N/A ">
<polygon fill="none" stroke="black" stroke-width="2" points="547.5,-220 446.5,-220 446.5,-184 547.5,-184 547.5,-220"/>
<text text-anchor="start" x="474" y="-200.1" font-family="Courier New" font-size="8.00" fill="red">CA pwr&#45;co2</text>
</a>
</g>
</g>
<!-- CA pwr&#45;co2 (bus)&#45;&gt;CA pwr&#45;co2 (store) -->
<g id="edge3" class="edge">
<title>CA pwr&#45;co2 (bus)&#45;&gt;CA pwr&#45;co2 (store)</title>
<path fill="none" stroke="black" stroke-width="1.5" d="M497,-313.52C497,-291.23 497,-256.95 497,-232.48"/>
<polygon fill="black" stroke="black" stroke-width="1.5" points="497,-325.56 491.6,-313.56 496.75,-319.56 496.75,-313.56 497,-313.56 497.25,-313.56 497.25,-319.56 502.4,-313.56 497,-325.56 497,-325.56"/>
<polygon fill="black" stroke="black" stroke-width="1.5" points="497,-220.37 502.4,-232.37 497.25,-226.37 497.25,-232.37 497,-232.37 496.75,-232.37 496.75,-226.37 491.6,-232.37 497,-220.37 497,-220.37"/>
</g>
<!-- CA gas&#45;ch4 (bus) -->
<g id="node3" class="node">
<title>CA gas&#45;ch4 (bus)</title>
<g id="a_node3"><a xlink:title="Bus: CA gas&#45;ch4&#10;Carrier: AC&#10;Unit: &#10;Generators: 0&#10;Loads: 0&#10;Stores: 0&#10;Storage units: 0&#10;Incoming links: 4&#10;Outgoing links: 0&#10;Lines: 0&#10;&#10;Power time series: N/A ">
<polygon fill="none" stroke="transparent" stroke-width="7.3" points="1236,-348 998,-348 998,-326 1236,-326 1236,-348"/>
<polyline fill="none" stroke="black" stroke-width="7.3" points="998,-326 1236,-326 "/>
<text text-anchor="start" x="1094" y="-335.1" font-family="Courier New" font-size="8.00" fill="red">CA gas&#45;ch4</text>
</a>
</g>
</g>
<!-- p9 (bus) -->
<g id="node4" class="node">
<title>p9 (bus)</title>
<g id="a_node4"><a xlink:title="Bus: p9&#10;Carrier: AC&#10;Unit: &#10;Generators: 0&#10;Loads: 1&#10;Stores: 0&#10;Storage units: 1&#10;Incoming links: 2&#10;Outgoing links: 1&#10;Lines: 0&#10;&#10;Power time series: N/A ">
<polygon fill="none" stroke="transparent" stroke-width="7.3" points="306,-348 68,-348 68,-326 306,-326 306,-348"/>
<polyline fill="none" stroke="black" stroke-width="7.3" points="68,-326 306,-326 "/>
<text text-anchor="start" x="182" y="-335.1" font-family="Courier New" font-size="8.00" fill="red">p9</text>
</a>
</g>
</g>
<!-- p10 (bus) -->
<g id="node6" class="node">
<title>p10 (bus)</title>
<g id="a_node6"><a xlink:title="Bus: p10&#10;Carrier: AC&#10;Unit: &#10;Generators: 0&#10;Loads: 1&#10;Stores: 0&#10;Storage units: 1&#10;Incoming links: 3&#10;Outgoing links: 0&#10;Lines: 0&#10;&#10;Power time series: N/A ">
<polygon fill="none" stroke="transparent" stroke-width="7.3" points="1492,-213 1254,-213 1254,-191 1492,-191 1492,-213"/>
<polyline fill="none" stroke="black" stroke-width="7.3" points="1254,-191 1492,-191 "/>
<text text-anchor="start" x="1366" y="-200.1" font-family="Courier New" font-size="8.00" fill="red">p10</text>
</a>
</g>
</g>
<!-- p9 (bus)&#45;&gt;p10 (bus) -->
<g id="edge8" class="edge">
<title>p9 (bus)&#45;&gt;p10 (bus)</title>
<g id="a_edge8"><a xlink:title="Link: p9||p10&#10;From: p9 (bus0)&#10;To: p10 (bus1)&#10;Carrier: &#10;Extendable nominal power: False&#10;Nominal power: 0.00 MW&#10;Efficiency: 1.00&#10;Capital cost: 0.00 currency/MW&#10;Marginal cost: 0.00 currency/MWh&#10;&#10;Optimised nominal power: 0.00 MW&#10;Power time series (p0): N/A MW&#10;Power time series (p1): N/A MW">
<path fill="none" stroke="black" stroke-width="1.5" d="M276.63,-325.95C493.09,-301.67 1043.31,-239.97 1271.47,-214.39"/>
<polygon fill="black" stroke="black" stroke-width="1.5" points="1283.73,-213.01 1272.41,-219.71 1277.8,-213.93 1271.83,-214.6 1271.81,-214.35 1271.78,-214.1 1277.74,-213.43 1271.2,-208.98 1283.73,-213.01 1283.73,-213.01"/>
</a>
</g>
<text text-anchor="start" x="674" y="-283.6" font-family="Courier New" font-size="8.00" fill="red">p9||p10</text>
</g>
<!-- p9 AC (load) -->
<g id="node8" class="node">
<title>p9 AC (load)</title>
<g id="a_node8"><a xlink:title="Load: p9 AC&#10;Bus: p9&#10;Carrier: &#10;Power set: 0.00 ">
<polygon fill="none" stroke="black" stroke-width="2" points="54,-159 108,-223.5 0,-223.5 54,-159"/>
<text text-anchor="start" x="42.5" y="-200.1" font-family="Courier New" font-size="8.00" fill="red">p9 AC</text>
</a>
</g>
</g>
<!-- p9 (bus)&#45;&gt;p9 AC (load) -->
<g id="edge1" class="edge">
<title>p9 (bus)&#45;&gt;p9 AC (load)</title>
<path fill="none" stroke="black" stroke-width="1.5" d="M176.56,-325.56C154.64,-303.64 103.45,-252.45 74.64,-223.64"/>
</g>
<!-- p9 battery (storage unit) -->
<g id="node13" class="node">
<title>p9 battery (storage unit)</title>
<g id="a_node13"><a xlink:title="Storage unit: p9 battery&#10;Bus: p9&#10;Carrier: &#10;Extendable nominal power: False&#10;Nominal power: 0.00 &#10;Power set: 0.00 &#10;Charge cyclic state: False&#10;Capital cost: 0.00 currency/&#10;Marginal cost: 0.00 currency/h&#10;&#10;Optimised nominal power: 0.00 &#10;Power time series: N/A ">
<polygon fill="none" stroke="black" stroke-width="2" points="314.28,-220 207.25,-220 179.72,-184 286.75,-184 314.28,-220"/>
<text text-anchor="start" x="224" y="-200.1" font-family="Courier New" font-size="8.00" fill="red">p9 battery</text>
</a>
</g>
</g>
<!-- p9 (bus)&#45;&gt;p9 battery (storage unit) -->
<g id="edge6" class="edge">
<title>p9 (bus)&#45;&gt;p9 battery (storage unit)</title>
<path fill="none" stroke="black" stroke-width="1.5" d="M196.66,-314.6C206.81,-292.09 222.84,-256.55 234.08,-231.64"/>
<polygon fill="black" stroke="black" stroke-width="1.5" points="191.71,-325.56 191.72,-312.4 193.95,-319.99 196.41,-314.52 196.64,-314.63 196.87,-314.73 194.4,-320.2 201.57,-316.85 191.71,-325.56 191.71,-325.56"/>
<polygon fill="black" stroke="black" stroke-width="1.5" points="239.16,-220.37 239.15,-233.53 236.92,-225.94 234.46,-231.41 234.23,-231.31 234,-231.21 236.47,-225.74 229.31,-229.09 239.16,-220.37 239.16,-220.37"/>
</g>
<!-- p9 co2 capture (bus) -->
<g id="node5" class="node">
<title>p9 co2 capture (bus)</title>
<g id="a_node5"><a xlink:title="Bus: p9 co2 capture&#10;Carrier: AC&#10;Unit: &#10;Generators: 0&#10;Loads: 0&#10;Stores: 1&#10;Storage units: 0&#10;Incoming links: 2&#10;Outgoing links: 1&#10;Lines: 0&#10;&#10;Power time series: N/A ">
<polygon fill="none" stroke="transparent" stroke-width="7.3" points="926,-348 688,-348 688,-326 926,-326 926,-348"/>
<polyline fill="none" stroke="black" stroke-width="7.3" points="688,-326 926,-326 "/>
<text text-anchor="start" x="775" y="-335.1" font-family="Courier New" font-size="8.00" fill="red">p9 co2 capture</text>
</a>
</g>
</g>
<!-- p10 co2 capture (bus) -->
<g id="node7" class="node">
<title>p10 co2 capture (bus)</title>
<g id="a_node7"><a xlink:title="Bus: p10 co2 capture&#10;Carrier: AC&#10;Unit: &#10;Generators: 0&#10;Loads: 0&#10;Stores: 1&#10;Storage units: 0&#10;Incoming links: 2&#10;Outgoing links: 1&#10;Lines: 0&#10;&#10;Power time series: N/A ">
<polygon fill="none" stroke="transparent" stroke-width="7.3" points="1885,-213 1647,-213 1647,-191 1885,-191 1885,-213"/>
<polyline fill="none" stroke="black" stroke-width="7.3" points="1647,-191 1885,-191 "/>
<text text-anchor="start" x="1732" y="-200.1" font-family="Courier New" font-size="8.00" fill="red">p10 co2 capture</text>
</a>
</g>
</g>
<!-- p9 co2 capture (bus)&#45;&gt;p10 co2 capture (bus) -->
<g id="edge9" class="edge">
<title>p9 co2 capture (bus)&#45;&gt;p10 co2 capture (bus)</title>
<g id="a_edge9"><a xlink:title="Bidirectional link: p9||p10 co2 transport&#10;From: p9 co2 capture (bus0)&#10;To: p10 co2 capture (bus1)&#10;Carrier: &#10;Extendable nominal power: False&#10;Nominal power: 0.00 MW&#10;Efficiency: 1.00&#10;Capital cost: 0.00 currency/MW&#10;Marginal cost: 0.00 currency/MWh&#10;&#10;Optimised nominal power: 0.00 MW&#10;Power time series (p0): N/A MW&#10;Power time series (p1): N/A MW">
<path fill="none" stroke="black" stroke-width="1.5" d="M898.72,-324.42C1092.94,-299.91 1528,-245 1528,-245 1528,-245 1627.1,-227.51 1697.41,-215.1"/>
<polygon fill="black" stroke="black" stroke-width="1.5" points="886.57,-325.96 897.8,-319.1 892.49,-324.96 898.44,-324.21 898.47,-324.45 898.5,-324.7 892.55,-325.45 899.15,-329.81 886.57,-325.96 886.57,-325.96"/>
<polygon fill="black" stroke="black" stroke-width="1.5" points="1709.3,-213.01 1698.42,-220.41 1703.43,-214.3 1697.52,-215.34 1697.48,-215.09 1697.43,-214.85 1703.34,-213.8 1696.54,-209.77 1709.3,-213.01 1709.3,-213.01"/>
</a>
</g>
<text text-anchor="start" x="1232" y="-283.6" font-family="Courier New" font-size="8.00" fill="red">p9||p10 co2 transport</text>
</g>
<!-- p9 co2 storage (store) -->
<g id="node11" class="node">
<title>p9 co2 storage (store)</title>
<g id="a_node11"><a xlink:title="Store: p9 co2 storage&#10;Bus: p9 co2 capture&#10;Carrier: &#10;Extendable nominal energy: False&#10;Nominal energy: 0.00 h&#10;Power set: 0.00 &#10;Cyclic energy: False&#10;Capital cost: 0.00 currency/&#10;Marginal cost: 0.00 currency/h&#10;&#10;Optimised nominal energy: 0.00 h&#10;Energy time series: N/A h&#10;Power time series: N/A ">
<polygon fill="none" stroke="black" stroke-width="2" points="857.5,-220 756.5,-220 756.5,-184 857.5,-184 857.5,-220"/>
<text text-anchor="start" x="775" y="-200.1" font-family="Courier New" font-size="8.00" fill="red">p9 co2 storage</text>
</a>
</g>
</g>
<!-- p9 co2 capture (bus)&#45;&gt;p9 co2 storage (store) -->
<g id="edge4" class="edge">
<title>p9 co2 capture (bus)&#45;&gt;p9 co2 storage (store)</title>
<path fill="none" stroke="black" stroke-width="1.5" d="M807,-313.52C807,-291.23 807,-256.95 807,-232.48"/>
<polygon fill="black" stroke="black" stroke-width="1.5" points="807,-325.56 801.6,-313.56 806.75,-319.56 806.75,-313.56 807,-313.56 807.25,-313.56 807.25,-319.56 812.4,-313.56 807,-325.56 807,-325.56"/>
<polygon fill="black" stroke="black" stroke-width="1.5" points="807,-220.37 812.4,-232.37 807.25,-226.37 807.25,-232.37 807,-232.37 806.75,-232.37 806.75,-226.37 801.6,-232.37 807,-220.37 807,-220.37"/>
</g>
<!-- p10 AC (load) -->
<g id="node9" class="node">
<title>p10 AC (load)</title>
<g id="a_node9"><a xlink:title="Load: p10 AC&#10;Bus: p10&#10;Carrier: &#10;Power set: 0.00 ">
<polygon fill="none" stroke="black" stroke-width="2" points="1469,0 1523,-64.5 1415,-64.5 1469,0"/>
<text text-anchor="start" x="1455" y="-41.1" font-family="Courier New" font-size="8.00" fill="red">p10 AC</text>
</a>
</g>
</g>
<!-- p10 (bus)&#45;&gt;p10 AC (load) -->
<g id="edge2" class="edge">
<title>p10 (bus)&#45;&gt;p10 AC (load)</title>
<path fill="none" stroke="black" stroke-width="1.5" d="M1379.3,-190.7C1394.9,-165.18 1435.57,-98.67 1456.36,-64.67"/>
</g>
<!-- p10 battery (storage unit) -->
<g id="node14" class="node">
<title>p10 battery (storage unit)</title>
<g id="a_node14"><a xlink:title="Storage unit: p10 battery&#10;Bus: p10&#10;Carrier: &#10;Extendable nominal power: False&#10;Nominal power: 0.00 &#10;Power set: 0.00 &#10;Charge cyclic state: False&#10;Capital cost: 0.00 currency/&#10;Marginal cost: 0.00 currency/h&#10;&#10;Optimised nominal power: 0.00 &#10;Power time series: N/A ">
<polygon fill="none" stroke="black" stroke-width="2" points="1343.28,-61 1236.25,-61 1208.72,-25 1315.75,-25 1343.28,-61"/>
<text text-anchor="start" x="1251" y="-41.1" font-family="Courier New" font-size="8.00" fill="red">p10 battery</text>
</a>
</g>
</g>
<!-- p10 (bus)&#45;&gt;p10 battery (storage unit) -->
<g id="edge7" class="edge">
<title>p10 (bus)&#45;&gt;p10 battery (storage unit)</title>
<path fill="none" stroke="black" stroke-width="1.5" d="M1360.12,-180.15C1342.9,-152.28 1312.31,-102.77 1293.15,-71.76"/>
<polygon fill="black" stroke="black" stroke-width="1.5" points="1366.64,-190.7 1355.73,-183.33 1363.27,-185.73 1360.12,-180.62 1360.33,-180.49 1360.54,-180.36 1363.69,-185.46 1364.92,-177.65 1366.64,-190.7 1366.64,-190.7"/>
<polygon fill="black" stroke="black" stroke-width="1.5" points="1286.65,-61.24 1297.55,-68.61 1290.02,-66.21 1293.17,-71.32 1292.96,-71.45 1292.75,-71.58 1289.59,-66.48 1288.37,-74.29 1286.65,-61.24 1286.65,-61.24"/>
</g>
<!-- p10 co2 storage (store) -->
<g id="node12" class="node">
<title>p10 co2 storage (store)</title>
<g id="a_node12"><a xlink:title="Store: p10 co2 storage&#10;Bus: p10 co2 capture&#10;Carrier: &#10;Extendable nominal energy: False&#10;Nominal energy: 0.00 h&#10;Power set: 0.00 &#10;Cyclic energy: False&#10;Capital cost: 0.00 currency/&#10;Marginal cost: 0.00 currency/h&#10;&#10;Optimised nominal energy: 0.00 h&#10;Energy time series: N/A h&#10;Power time series: N/A ">
<polygon fill="none" stroke="black" stroke-width="2" points="1816.5,-61 1715.5,-61 1715.5,-25 1816.5,-25 1816.5,-61"/>
<text text-anchor="start" x="1732" y="-41.1" font-family="Courier New" font-size="8.00" fill="red">p10 co2 storage</text>
</a>
</g>
</g>
<!-- p10 co2 capture (bus)&#45;&gt;p10 co2 storage (store) -->
<g id="edge5" class="edge">
<title>p10 co2 capture (bus)&#45;&gt;p10 co2 storage (store)</title>
<path fill="none" stroke="black" stroke-width="1.5" d="M1766,-178.48C1766,-150.88 1766,-104.05 1766,-73.58"/>
<polygon fill="black" stroke="black" stroke-width="1.5" points="1766,-190.7 1760.6,-178.7 1765.75,-184.7 1765.75,-178.7 1766,-178.7 1766.25,-178.7 1766.25,-184.7 1771.4,-178.7 1766,-190.7 1766,-190.7"/>
<polygon fill="black" stroke="black" stroke-width="1.5" points="1766,-61.24 1771.4,-73.24 1766.25,-67.24 1766.25,-73.24 1766,-73.24 1765.75,-73.24 1765.75,-67.24 1760.6,-73.24 1766,-61.24 1766,-61.24"/>
</g>
<!-- p9 OCGT (multi&#45;link)&#45;&gt;CA pwr&#45;co2 (bus) -->
<g id="edge16" class="edge">
<title>p9 OCGT (multi&#45;link)&#45;&gt;CA pwr&#45;co2 (bus)</title>
<g id="a_edge16"><a xlink:title="Multi&#45;link: p9 OCGT&#10;From: CA gas (bus0)&#10;To: CA pwr&#45;co2 (bus2)&#10;Carrier: &#10;Extendable nominal power: False&#10;Nominal power: 0.00 MW&#10;Efficiency: 1.00&#10;Capital cost: 0.00 currency/MW&#10;Marginal cost: 0.00 currency/MWh&#10;&#10;Optimised nominal power: 0.00 MW&#10;Power time series (p0): N/A MW&#10;Power time series (p2): N/A MW">
<path fill="none" stroke="black" stroke-width="1.5" d="M297.33,-429.63C282.99,-425.12 181,-393 181,-393 181,-393 181,-384 181,-384 181,-384 322.4,-363.42 416.02,-349.79"/>
<polygon fill="black" stroke="black" stroke-width="1.5" points="428.04,-348.04 416.95,-355.11 422.14,-349.15 416.2,-350.01 416.17,-349.77 416.13,-349.52 422.07,-348.66 415.39,-344.42 428.04,-348.04 428.04,-348.04"/>
</a>
</g>
<text text-anchor="start" x="181" y="-386.6" font-family="Courier New" font-size="8.00" fill="red">p9 OCGT</text>
</g>
<!-- p9 OCGT (multi&#45;link)&#45;&gt;CA gas&#45;ch4 (bus) -->
<g id="edge15" class="edge">
<title>p9 OCGT (multi&#45;link)&#45;&gt;CA gas&#45;ch4 (bus)</title>
<g id="a_edge15"><a xlink:title="Multi&#45;link: p9 OCGT&#10;From: CA gas (bus0)&#10;To: CA gas&#45;ch4 (bus3)&#10;Carrier: &#10;Extendable nominal power: False&#10;Nominal power: 0.00 MW&#10;Efficiency: 1.00&#10;Capital cost: 0.00 currency/MW&#10;Marginal cost: 0.00 currency/MWh&#10;&#10;Optimised nominal power: 0.00 MW&#10;Power time series (p0): N/A MW&#10;Power time series (p3): N/A MW">
<path fill="none" stroke="black" stroke-width="1.5" d="M301.25,-429.99C337.61,-427.31 803,-393 803,-393 803,-393 955.23,-366.34 1047.7,-350.14"/>
<polygon fill="black" stroke="black" stroke-width="1.5" points="1059.77,-348.02 1048.88,-355.41 1053.91,-349.31 1048,-350.34 1047.95,-350.09 1047.91,-349.85 1053.82,-348.81 1047.02,-344.78 1059.77,-348.02 1059.77,-348.02"/>
</a>
</g>
<text text-anchor="start" x="848" y="-386.6" font-family="Courier New" font-size="8.00" fill="red">p9 OCGT</text>
</g>
<!-- p9 OCGT (multi&#45;link)&#45;&gt;p9 (bus) -->
<g id="edge14" class="edge">
<title>p9 OCGT (multi&#45;link)&#45;&gt;p9 (bus)</title>
<g id="a_edge14"><a xlink:title="Multi&#45;link: p9 OCGT&#10;From: CA gas (bus0)&#10;To: p9 (bus1)&#10;Carrier: &#10;Extendable nominal power: False&#10;Nominal power: 0.00 MW&#10;Efficiency: 1.00&#10;Capital cost: 0.00 currency/MW&#10;Marginal cost: 0.00 currency/MWh&#10;&#10;Optimised nominal power: 0.00 MW&#10;Power time series (p0): N/A MW&#10;Power time series (p1): N/A MW">
<path fill="none" stroke="black" stroke-width="1.5" d="M297.04,-429.84C274.85,-426.21 72,-393 72,-393 72,-393 72,-384 72,-384 72,-384 116.74,-366.1 150.41,-352.64"/>
<polygon fill="black" stroke="black" stroke-width="1.5" points="161.76,-348.09 152.63,-357.57 156.28,-350.56 150.71,-352.78 150.62,-352.55 150.53,-352.32 156.1,-350.09 148.62,-347.54 161.76,-348.09 161.76,-348.09"/>
</a>
</g>
<text text-anchor="start" x="72" y="-386.6" font-family="Courier New" font-size="8.00" fill="red">p9 OCGT</text>
</g>
<!-- p9 CCGT&#45;95CC_2030 (multi&#45;link)&#45;&gt;CA pwr&#45;co2 (bus) -->
<g id="edge19" class="edge">
<title>p9 CCGT&#45;95CC_2030 (multi&#45;link)&#45;&gt;CA pwr&#45;co2 (bus)</title>
<g id="a_edge19"><a xlink:title="Multi&#45;link: p9 CCGT&#45;95CC_2030&#10;From: CA gas (bus0)&#10;To: CA pwr&#45;co2 (bus2)&#10;Carrier: &#10;Extendable nominal power: False&#10;Nominal power: 0.00 MW&#10;Efficiency: 1.00&#10;Capital cost: 0.00 currency/MW&#10;Marginal cost: 0.00 currency/MWh&#10;&#10;Optimised nominal power: 0.00 MW&#10;Power time series (p0): N/A MW&#10;Power time series (p2): N/A MW">
<path fill="none" stroke="black" stroke-width="1.5" d="M723.21,-429.92C699.27,-426.76 444,-393 444,-393 444,-393 444,-384 444,-384 444,-384 461.24,-369.04 476.06,-356.18"/>
<polygon fill="black" stroke="black" stroke-width="1.5" points="485.24,-348.21 479.71,-360.15 480.87,-352.33 476.34,-356.26 476.17,-356.07 476.01,-355.89 480.54,-351.95 472.64,-352 485.24,-348.21 485.24,-348.21"/>
</a>
</g>
<text text-anchor="start" x="444" y="-386.6" font-family="Courier New" font-size="8.00" fill="red">p9 CCGT&#45;95CC_2030</text>
</g>
<!-- p9 CCGT&#45;95CC_2030 (multi&#45;link)&#45;&gt;CA gas&#45;ch4 (bus) -->
<g id="edge18" class="edge">
<title>p9 CCGT&#45;95CC_2030 (multi&#45;link)&#45;&gt;CA gas&#45;ch4 (bus)</title>
<g id="a_edge18"><a xlink:title="Multi&#45;link: p9 CCGT&#45;95CC_2030&#10;From: CA gas (bus0)&#10;To: CA gas&#45;ch4 (bus3)&#10;Carrier: &#10;Extendable nominal power: False&#10;Nominal power: 0.00 MW&#10;Efficiency: 1.00&#10;Capital cost: 0.00 currency/MW&#10;Marginal cost: 0.00 currency/MWh&#10;&#10;Optimised nominal power: 0.00 MW&#10;Power time series (p0): N/A MW&#10;Power time series (p3): N/A MW">
<path fill="none" stroke="black" stroke-width="1.5" d="M727.1,-429.74C747.64,-425.66 912,-393 912,-393 912,-393 1007.11,-367.48 1067.77,-351.21"/>
<polygon fill="black" stroke="black" stroke-width="1.5" points="1079.4,-348.09 1069.21,-356.41 1073.67,-349.88 1067.87,-351.44 1067.81,-351.2 1067.74,-350.96 1073.54,-349.4 1066.41,-345.98 1079.4,-348.09 1079.4,-348.09"/>
</a>
</g>
<text text-anchor="start" x="941" y="-386.6" font-family="Courier New" font-size="8.00" fill="red">p9 CCGT&#45;95CC_2030</text>
</g>
<!-- p9 CCGT&#45;95CC_2030 (multi&#45;link)&#45;&gt;p9 (bus) -->
<g id="edge17" class="edge">
<title>p9 CCGT&#45;95CC_2030 (multi&#45;link)&#45;&gt;p9 (bus)</title>
<g id="a_edge17"><a xlink:title="Multi&#45;link: p9 CCGT&#45;95CC_2030&#10;From: CA gas (bus0)&#10;To: p9 (bus1)&#10;Carrier: &#10;Extendable nominal power: False&#10;Nominal power: 0.00 MW&#10;Efficiency: 1.00&#10;Capital cost: 0.00 currency/MW&#10;Marginal cost: 0.00 currency/MWh&#10;&#10;Optimised nominal power: 0.00 MW&#10;Power time series (p0): N/A MW&#10;Power time series (p1): N/A MW">
<path fill="none" stroke="black" stroke-width="1.5" d="M722.98,-429.96C693.38,-427.04 349,-393 349,-393 349,-393 276.32,-368.33 228.32,-352.03"/>
<polygon fill="black" stroke="black" stroke-width="1.5" points="216.71,-348.09 229.81,-346.83 222.48,-349.78 228.16,-351.71 228.08,-351.95 228,-352.18 222.31,-350.25 226.34,-357.06 216.71,-348.09 216.71,-348.09"/>
</a>
</g>
<text text-anchor="start" x="349" y="-386.6" font-family="Courier New" font-size="8.00" fill="red">p9 CCGT&#45;95CC_2030</text>
</g>
<!-- p9 CCGT&#45;95CC_2030 (multi&#45;link)&#45;&gt;p9 co2 capture (bus) -->
<g id="edge20" class="edge">
<title>p9 CCGT&#45;95CC_2030 (multi&#45;link)&#45;&gt;p9 co2 capture (bus)</title>
<g id="a_edge20"><a xlink:title="Multi&#45;link: p9 CCGT&#45;95CC_2030&#10;From: CA gas (bus0)&#10;To: p9 co2 capture (bus4)&#10;Carrier: &#10;Extendable nominal power: False&#10;Nominal power: 0.00 MW&#10;Efficiency: 1.00&#10;Capital cost: 0.00 currency/MW&#10;Marginal cost: 0.00 currency/MWh&#10;&#10;Optimised nominal power: 0.00 MW&#10;Power time series (p0): N/A MW&#10;Power time series (p4): N/A MW">
<path fill="none" stroke="black" stroke-width="1.5" d="M724.57,-428.92C722.31,-422.48 712,-393 712,-393 712,-393 712,-384 712,-384 712,-384 747.48,-366.82 775.07,-353.46"/>
<polygon fill="black" stroke="black" stroke-width="1.5" points="785.92,-348.21 777.47,-358.3 780.63,-351.05 775.22,-353.66 775.12,-353.44 775.01,-353.21 780.41,-350.6 772.76,-348.58 785.92,-348.21 785.92,-348.21"/>
</a>
</g>
<text text-anchor="start" x="712" y="-386.6" font-family="Courier New" font-size="8.00" fill="red">p9 CCGT&#45;95CC_2030</text>
</g>
<!-- p10 OCGT (multi&#45;link)&#45;&gt;CA pwr&#45;co2 (bus) -->
<g id="edge23" class="edge">
<title>p10 OCGT (multi&#45;link)&#45;&gt;CA pwr&#45;co2 (bus)</title>
<g id="a_edge23"><a xlink:title="Multi&#45;link: p10 OCGT&#10;From: CA gas (bus0)&#10;To: CA pwr&#45;co2 (bus2)&#10;Carrier: &#10;Extendable nominal power: False&#10;Nominal power: 0.00 MW&#10;Efficiency: 1.00&#10;Capital cost: 0.00 currency/MW&#10;Marginal cost: 0.00 currency/MWh&#10;&#10;Optimised nominal power: 0.00 MW&#10;Power time series (p0): N/A MW&#10;Power time series (p2): N/A MW">
<path fill="none" stroke="black" stroke-width="1.5" d="M1113.95,-429.99C1080.84,-427.31 657,-393 657,-393 657,-393 585.22,-368.33 537.81,-352.03"/>
<polygon fill="black" stroke="black" stroke-width="1.5" points="526.35,-348.09 539.45,-346.88 532.1,-349.8 537.78,-351.75 537.69,-351.99 537.61,-352.23 531.94,-350.27 535.94,-357.1 526.35,-348.09 526.35,-348.09"/>
</a>
</g>
<text text-anchor="start" x="657" y="-386.6" font-family="Courier New" font-size="8.00" fill="red">p10 OCGT</text>
</g>
<!-- p10 OCGT (multi&#45;link)&#45;&gt;CA gas&#45;ch4 (bus) -->
<g id="edge22" class="edge">
<title>p10 OCGT (multi&#45;link)&#45;&gt;CA gas&#45;ch4 (bus)</title>
<g id="a_edge22"><a xlink:title="Multi&#45;link: p10 OCGT&#10;From: CA gas (bus0)&#10;To: CA gas&#45;ch4 (bus3)&#10;Carrier: &#10;Extendable nominal power: False&#10;Nominal power: 0.00 MW&#10;Efficiency: 1.00&#10;Capital cost: 0.00 currency/MW&#10;Marginal cost: 0.00 currency/MWh&#10;&#10;Optimised nominal power: 0.00 MW&#10;Power time series (p0): N/A MW&#10;Power time series (p3): N/A MW">
<path fill="none" stroke="black" stroke-width="1.5" d="M1116.01,-428.86C1116.09,-421.51 1116.49,-384.72 1116.76,-360.26"/>
<polygon fill="black" stroke="black" stroke-width="1.5" points="1116.89,-348.21 1122.16,-360.27 1117.07,-354.21 1117.01,-360.21 1116.76,-360.21 1116.51,-360.21 1116.57,-354.21 1111.36,-360.15 1116.89,-348.21 1116.89,-348.21"/>
</a>
</g>
<text text-anchor="start" x="1116" y="-386.6" font-family="Courier New" font-size="8.00" fill="red">p10 OCGT</text>
</g>
<!-- p10 OCGT (multi&#45;link)&#45;&gt;p10 (bus) -->
<g id="edge21" class="edge">
<title>p10 OCGT (multi&#45;link)&#45;&gt;p10 (bus)</title>
<g id="a_edge21"><a xlink:title="Multi&#45;link: p10 OCGT&#10;From: CA gas (bus0)&#10;To: p10 (bus1)&#10;Carrier: &#10;Extendable nominal power: False&#10;Nominal power: 0.00 MW&#10;Efficiency: 1.00&#10;Capital cost: 0.00 currency/MW&#10;Marginal cost: 0.00 currency/MWh&#10;&#10;Optimised nominal power: 0.00 MW&#10;Power time series (p0): N/A MW&#10;Power time series (p1): N/A MW">
<path fill="none" stroke="black" stroke-width="1.5" d="M1117.87,-429.84C1138.98,-426.21 1332,-393 1332,-393 1332,-393 1357.41,-275.26 1368.22,-225.15"/>
<polygon fill="black" stroke="black" stroke-width="1.5" points="1370.8,-213.22 1373.54,-226.08 1369.77,-219.13 1368.51,-225 1368.26,-224.95 1368.02,-224.89 1369.29,-219.03 1362.99,-223.81 1370.8,-213.22 1370.8,-213.22"/>
</a>
</g>
<text text-anchor="start" x="1346" y="-335.1" font-family="Courier New" font-size="8.00" fill="red">p10 OCGT</text>
</g>
<!-- p10 CCGT&#45;95CC_2030 (multi&#45;link)&#45;&gt;CA pwr&#45;co2 (bus) -->
<g id="edge26" class="edge">
<title>p10 CCGT&#45;95CC_2030 (multi&#45;link)&#45;&gt;CA pwr&#45;co2 (bus)</title>
<g id="a_edge26"><a xlink:title="Multi&#45;link: p10 CCGT&#45;95CC_2030&#10;From: CA gas (bus0)&#10;To: CA pwr&#45;co2 (bus2)&#10;Carrier: &#10;Extendable nominal power: False&#10;Nominal power: 0.00 MW&#10;Efficiency: 1.00&#10;Capital cost: 0.00 currency/MW&#10;Marginal cost: 0.00 currency/MWh&#10;&#10;Optimised nominal power: 0.00 MW&#10;Power time series (p0): N/A MW&#10;Power time series (p2): N/A MW">
<path fill="none" stroke="black" stroke-width="1.5" d="M1491.94,-429.87C1464.43,-425.93 1171,-384 1171,-384 1171,-384 824.58,-360.36 628.45,-346.97"/>
<polygon fill="black" stroke="black" stroke-width="1.5" points="616.33,-346.14 628.67,-341.57 622.34,-346.3 628.32,-346.71 628.31,-346.96 628.29,-347.21 622.3,-346.8 627.94,-352.35 616.33,-346.14 616.33,-346.14"/>
</a>
</g>
<text text-anchor="start" x="1232" y="-386.6" font-family="Courier New" font-size="8.00" fill="red">p10 CCGT&#45;95CC_2030</text>
</g>
<!-- p10 CCGT&#45;95CC_2030 (multi&#45;link)&#45;&gt;CA gas&#45;ch4 (bus) -->
<g id="edge25" class="edge">
<title>p10 CCGT&#45;95CC_2030 (multi&#45;link)&#45;&gt;CA gas&#45;ch4 (bus)</title>
<g id="a_edge25"><a xlink:title="Multi&#45;link: p10 CCGT&#45;95CC_2030&#10;From: CA gas (bus0)&#10;To: CA gas&#45;ch4 (bus3)&#10;Carrier: &#10;Extendable nominal power: False&#10;Nominal power: 0.00 MW&#10;Efficiency: 1.00&#10;Capital cost: 0.00 currency/MW&#10;Marginal cost: 0.00 currency/MWh&#10;&#10;Optimised nominal power: 0.00 MW&#10;Power time series (p0): N/A MW&#10;Power time series (p3): N/A MW">
<path fill="none" stroke="black" stroke-width="1.5" d="M1492.45,-429.64C1477.29,-424.57 1356,-384 1356,-384 1356,-384 1251.87,-363.96 1181.08,-350.33"/>
<polygon fill="black" stroke="black" stroke-width="1.5" points="1169.15,-348.04 1181.96,-345 1175.09,-348.93 1180.99,-350.06 1180.94,-350.31 1180.89,-350.55 1175,-349.42 1179.92,-355.61 1169.15,-348.04 1169.15,-348.04"/>
</a>
</g>
<text text-anchor="start" x="1382" y="-386.6" font-family="Courier New" font-size="8.00" fill="red">p10 CCGT&#45;95CC_2030</text>
</g>
<!-- p10 CCGT&#45;95CC_2030 (multi&#45;link)&#45;&gt;p10 (bus) -->
<g id="edge24" class="edge">
<title>p10 CCGT&#45;95CC_2030 (multi&#45;link)&#45;&gt;p10 (bus)</title>
<g id="a_edge24"><a xlink:title="Multi&#45;link: p10 CCGT&#45;95CC_2030&#10;From: CA gas (bus0)&#10;To: p10 (bus1)&#10;Carrier: &#10;Extendable nominal power: False&#10;Nominal power: 0.00 MW&#10;Efficiency: 1.00&#10;Capital cost: 0.00 currency/MW&#10;Marginal cost: 0.00 currency/MWh&#10;&#10;Optimised nominal power: 0.00 MW&#10;Power time series (p0): N/A MW&#10;Power time series (p1): N/A MW">
<path fill="none" stroke="black" stroke-width="1.5" d="M1493.7,-429.02C1491.86,-421.91 1482,-384 1482,-384 1482,-384 1413.92,-270.95 1385.37,-223.54"/>
<polygon fill="black" stroke="black" stroke-width="1.5" points="1379.17,-213.25 1389.99,-220.74 1382.48,-218.26 1385.58,-223.4 1385.36,-223.53 1385.15,-223.66 1382.05,-218.52 1380.74,-226.32 1379.17,-213.25 1379.17,-213.25"/>
</a>
</g>
<text text-anchor="start" x="1459" y="-335.1" font-family="Courier New" font-size="8.00" fill="red">p10 CCGT&#45;95CC_2030</text>
</g>
<!-- p10 CCGT&#45;95CC_2030 (multi&#45;link)&#45;&gt;p10 co2 capture (bus) -->
<g id="edge27" class="edge">
<title>p10 CCGT&#45;95CC_2030 (multi&#45;link)&#45;&gt;p10 co2 capture (bus)</title>
<g id="a_edge27"><a xlink:title="Multi&#45;link: p10 CCGT&#45;95CC_2030&#10;From: CA gas (bus0)&#10;To: p10 co2 capture (bus4)&#10;Carrier: &#10;Extendable nominal power: False&#10;Nominal power: 0.00 MW&#10;Efficiency: 1.00&#10;Capital cost: 0.00 currency/MW&#10;Marginal cost: 0.00 currency/MWh&#10;&#10;Optimised nominal power: 0.00 MW&#10;Power time series (p0): N/A MW&#10;Power time series (p4): N/A MW">
<path fill="none" stroke="black" stroke-width="1.5" d="M1495.21,-429.15C1511.3,-415.71 1682.98,-272.33 1744.35,-221.08"/>
<polygon fill="black" stroke="black" stroke-width="1.5" points="1753.84,-213.16 1748.09,-224.99 1749.39,-217.19 1744.79,-221.04 1744.63,-220.85 1744.47,-220.66 1749.07,-216.81 1741.17,-216.7 1753.84,-213.16 1753.84,-213.16"/>
</a>
</g>
<text text-anchor="start" x="1616" y="-335.1" font-family="Courier New" font-size="8.00" fill="red">p10 CCGT&#45;95CC_2030</text>
</g>
</g>
</svg>
