<?xml version="1.0" encoding="UTF-8" standalone="no"?>
<!DOCTYPE svg PUBLIC "-//W3C//DTD SVG 1.1//EN"
 "http://www.w3.org/Graphics/SVG/1.1/DTD/svg11.dtd">
<!-- Generated by graphviz version 2.43.0 (0)
 -->
<!-- Title: Sector&#45;based network (with underground CO2 storage and CO2 transport and DAC state&#45;based) Pages: 1 -->
<svg width="1693pt" height="848pt"
 viewBox="0.00 0.00 1693.00 848.32" xmlns="http://www.w3.org/2000/svg" xmlns:xlink="http://www.w3.org/1999/xlink">
<g id="graph0" class="graph" transform="scale(1 1) rotate(0) translate(4 844.32)">
<title>Sector&#45;based network (with underground CO2 storage and CO2 transport and DAC state&#45;based)</title>
<g id="a_graph0"><a xlink:title="Network: Sector&#45;based network (with underground CO2 storage and CO2 transport and DAC state&#45;based)&#10;Buses: 8 (out of 8)&#10;Generators: 0 (out of 0)&#10;Loads: 2 (out of 2)&#10;Stores: 3 (out of 3)&#10;Storage units: 2 (out of 2)&#10;Links: 10 (out of 10)&#10;Lines: 0 (out of 0)&#10;Snapshots: 1">
<text text-anchor="middle" x="842.5" y="-825.12" font-family="Times,serif" font-size="14.00">Sector&#45;based network (with underground CO2 storage and CO2 transport and DAC state&#45;based)</text>
<text text-anchor="middle" x="842.5" y="-778.12" font-family="Times,serif" font-size="14.00"> &#160;&#160;&#160;&#160;&#160;&#160;&#160;&#160;&#160;&#160;</text>
</a>
</g>
<!-- CA gas (bus) -->
<g id="node1" class="node">
<title>CA gas (bus)</title>
<g id="a_node1"><a xlink:title="Bus: CA gas&#10;Carrier: AC&#10;Unit: &#10;Generators: 0&#10;Loads: 0&#10;Stores: 0&#10;Storage units: 0&#10;Incoming links: 0&#10;Outgoing links: 14&#10;Lines: 0&#10;&#10;Power time series: N/A ">
<polygon fill="none" stroke="transparent" stroke-width="7.3" points="788,-770.32 550,-770.32 550,-748.32 788,-748.32 788,-770.32"/>
<polyline fill="none" stroke="black" stroke-width="7.3" points="550,-748.32 788,-748.32 "/>
<text text-anchor="start" x="655" y="-757.42" font-family="Courier New" font-size="8.00" fill="red">CA gas</text>
</a>
</g>
</g>
<!-- p9 OCGT (multi&#45;link) -->
<g id="node16" class="node">
<title>p9 OCGT (multi&#45;link)</title>
<g id="a_node16"><a xlink:title="Multi&#45;link: p9 OCGT&#10;From: CA gas (bus0)&#10;To: p9 (bus1)&#10;To: CA gas&#45;ch4 (bus3)&#10;To: CA pwr atmosphere (bus2)&#10;Carrier: &#10;Extendable nominal energy: False&#10;Nominal power: 0.00 MW&#10;Capital cost: 0.00 currency/MW&#10;Marginal cost: 0.00 currency/MWh&#10;&#10;Optimised nominal power: 0.00 MW&#10;Power time series (p0): N/A MW">
<ellipse fill="black" stroke="black" cx="547" cy="-665.16" rx="2.16" ry="2.16"/>
</a>
</g>
</g>
<!-- CA gas (bus)&#45;&gt;p9 OCGT (multi&#45;link) -->
<g id="edge12" class="edge">
<title>CA gas (bus)&#45;&gt;p9 OCGT (multi&#45;link)</title>
<g id="a_edge12"><a xlink:title="Multi&#45;link: p9 OCGT&#10;From: CA gas (bus0)&#10;To: p9 (bus1)&#10;To: CA gas&#45;ch4 (bus3)&#10;To: CA pwr atmosphere (bus2)&#10;Carrier: &#10;Extendable nominal power: False&#10;Nominal power: 0.00 MW&#10;Capital cost: 0.00 currency/MW&#10;Marginal cost: 0.00 currency/MWh&#10;&#10;Optimised nominal power: 0.00 MW&#10;Power time series (p0): N/A MW">
<path fill="none" stroke="black" stroke-width="1.5" d="M655.48,-748.11C626.2,-725.98 558.71,-675.01 548.35,-667.18"/>
</a>
</g>
<text text-anchor="start" x="608" y="-705.92" font-family="Courier New" font-size="8.00" fill="red">p9 OCGT</text>
</g>
<!-- p9 CCGT&#45;95CC_2030 (multi&#45;link) -->
<g id="node17" class="node">
<title>p9 CCGT&#45;95CC_2030 (multi&#45;link)</title>
<g id="a_node17"><a xlink:title="Multi&#45;link: p9 CCGT&#45;95CC_2030&#10;From: CA gas (bus0)&#10;To: p9 (bus1)&#10;To: CA gas&#45;ch4 (bus3)&#10;To: CA pwr atmosphere (bus2)&#10;To: p9 co2 capture (bus4)&#10;Carrier: &#10;Extendable nominal energy: False&#10;Nominal power: 0.00 MW&#10;Capital cost: 0.00 currency/MW&#10;Marginal cost: 0.00 currency/MWh&#10;&#10;Optimised nominal power: 0.00 MW&#10;Power time series (p0): N/A MW">
<ellipse fill="black" stroke="black" cx="187" cy="-665.16" rx="2.16" ry="2.16"/>
</a>
</g>
</g>
<!-- CA gas (bus)&#45;&gt;p9 CCGT&#45;95CC_2030 (multi&#45;link) -->
<g id="edge13" class="edge">
<title>CA gas (bus)&#45;&gt;p9 CCGT&#45;95CC_2030 (multi&#45;link)</title>
<g id="a_edge13"><a xlink:title="Multi&#45;link: p9 CCGT&#45;95CC_2030&#10;From: CA gas (bus0)&#10;To: p9 (bus1)&#10;To: CA gas&#45;ch4 (bus3)&#10;To: CA pwr atmosphere (bus2)&#10;To: p9 co2 capture (bus4)&#10;Carrier: &#10;Extendable nominal power: False&#10;Nominal power: 0.00 MW&#10;Capital cost: 0.00 currency/MW&#10;Marginal cost: 0.00 currency/MWh&#10;&#10;Optimised nominal power: 0.00 MW&#10;Power time series (p0): N/A MW">
<path fill="none" stroke="black" stroke-width="1.5" d="M616.5,-748.28C497.43,-725.52 215.16,-671.54 188.96,-666.53"/>
</a>
</g>
<text text-anchor="start" x="428" y="-705.92" font-family="Courier New" font-size="8.00" fill="red">p9 CCGT&#45;95CC_2030</text>
</g>
<!-- p10 OCGT (multi&#45;link) -->
<g id="node18" class="node">
<title>p10 OCGT (multi&#45;link)</title>
<g id="a_node18"><a xlink:title="Multi&#45;link: p10 OCGT&#10;From: CA gas (bus0)&#10;To: p10 (bus1)&#10;To: CA gas&#45;ch4 (bus3)&#10;To: CA pwr atmosphere (bus2)&#10;Carrier: &#10;Extendable nominal energy: False&#10;Nominal power: 0.00 MW&#10;Capital cost: 0.00 currency/MW&#10;Marginal cost: 0.00 currency/MWh&#10;&#10;Optimised nominal power: 0.00 MW&#10;Power time series (p0): N/A MW">
<ellipse fill="black" stroke="black" cx="906" cy="-665.16" rx="2.16" ry="2.16"/>
</a>
</g>
</g>
<!-- CA gas (bus)&#45;&gt;p10 OCGT (multi&#45;link) -->
<g id="edge14" class="edge">
<title>CA gas (bus)&#45;&gt;p10 OCGT (multi&#45;link)</title>
<g id="a_edge14"><a xlink:title="Multi&#45;link: p10 OCGT&#10;From: CA gas (bus0)&#10;To: p10 (bus1)&#10;To: CA gas&#45;ch4 (bus3)&#10;To: CA pwr atmosphere (bus2)&#10;Carrier: &#10;Extendable nominal power: False&#10;Nominal power: 0.00 MW&#10;Capital cost: 0.00 currency/MW&#10;Marginal cost: 0.00 currency/MWh&#10;&#10;Optimised nominal power: 0.00 MW&#10;Power time series (p0): N/A MW">
<path fill="none" stroke="black" stroke-width="1.5" d="M694.81,-748.28C752.4,-725.89 887.62,-673.31 904.3,-666.82"/>
</a>
</g>
<text text-anchor="start" x="808" y="-705.92" font-family="Courier New" font-size="8.00" fill="red">p10 OCGT</text>
</g>
<!-- p10 CCGT&#45;95CC_2030 (multi&#45;link) -->
<g id="node19" class="node">
<title>p10 CCGT&#45;95CC_2030 (multi&#45;link)</title>
<g id="a_node19"><a xlink:title="Multi&#45;link: p10 CCGT&#45;95CC_2030&#10;From: CA gas (bus0)&#10;To: p10 (bus1)&#10;To: CA gas&#45;ch4 (bus3)&#10;To: CA pwr atmosphere (bus2)&#10;To: p10 co2 capture (bus4)&#10;Carrier: &#10;Extendable nominal energy: False&#10;Nominal power: 0.00 MW&#10;Capital cost: 0.00 currency/MW&#10;Marginal cost: 0.00 currency/MWh&#10;&#10;Optimised nominal power: 0.00 MW&#10;Power time series (p0): N/A MW">
<ellipse fill="black" stroke="black" cx="1288" cy="-665.16" rx="2.16" ry="2.16"/>
</a>
</g>
</g>
<!-- CA gas (bus)&#45;&gt;p10 CCGT&#45;95CC_2030 (multi&#45;link) -->
<g id="edge15" class="edge">
<title>CA gas (bus)&#45;&gt;p10 CCGT&#45;95CC_2030 (multi&#45;link)</title>
<g id="a_edge15"><a xlink:title="Multi&#45;link: p10 CCGT&#45;95CC_2030&#10;From: CA gas (bus0)&#10;To: p10 (bus1)&#10;To: CA gas&#45;ch4 (bus3)&#10;To: CA pwr atmosphere (bus2)&#10;To: p10 co2 capture (bus4)&#10;Carrier: &#10;Extendable nominal power: False&#10;Nominal power: 0.00 MW&#10;Capital cost: 0.00 currency/MW&#10;Marginal cost: 0.00 currency/MWh&#10;&#10;Optimised nominal power: 0.00 MW&#10;Power time series (p0): N/A MW">
<path fill="none" stroke="black" stroke-width="1.5" d="M736.42,-748.28C889.96,-725.42 1254.81,-671.1 1285.88,-666.48"/>
</a>
</g>
<text text-anchor="start" x="1033" y="-705.92" font-family="Courier New" font-size="8.00" fill="red">p10 CCGT&#45;95CC_2030</text>
</g>
<!-- CA pwr&#45;co2 (bus) -->
<g id="node2" class="node">
<title>CA pwr&#45;co2 (bus)</title>
<g id="a_node2"><a xlink:title="Bus: CA pwr&#45;co2&#10;Carrier: AC&#10;Unit: &#10;Generators: 0&#10;Loads: 0&#10;Stores: 1&#10;Storage units: 0&#10;Incoming links: 2&#10;Outgoing links: 0&#10;Lines: 0&#10;&#10;Power time series: N/A ">
<polygon fill="none" stroke="transparent" stroke-width="7.3" points="974,-447 736,-447 736,-425 974,-425 974,-447"/>
<polyline fill="none" stroke="black" stroke-width="7.3" points="736,-425 974,-425 "/>
<text text-anchor="start" x="832" y="-434.1" font-family="Courier New" font-size="8.00" fill="red">CA pwr&#45;co2</text>
</a>
</g>
</g>
<!-- CA pwr&#45;co2 (store) -->
<g id="node11" class="node">
<title>CA pwr&#45;co2 (store)</title>
<g id="a_node11"><a xlink:title="Store: CA pwr&#45;co2&#10;Bus: CA pwr&#45;co2&#10;Carrier: &#10;Extendable nominal energy: False&#10;Nominal energy: 0.00 h&#10;Power set: 0.00 &#10;Cyclic energy: False&#10;Capital cost: 0.00 currency/&#10;Marginal cost: 0.00 currency/h&#10;&#10;Optimised nominal energy: 0.00 h&#10;Energy time series: N/A h&#10;Power time series: N/A ">
<polygon fill="none" stroke="black" stroke-width="2" points="905.5,-287 804.5,-287 804.5,-251 905.5,-251 905.5,-287"/>
<text text-anchor="start" x="832" y="-267.1" font-family="Courier New" font-size="8.00" fill="red">CA pwr&#45;co2</text>
</a>
</g>
</g>
<!-- CA pwr&#45;co2 (bus)&#45;&gt;CA pwr&#45;co2 (store) -->
<g id="edge3" class="edge">
<title>CA pwr&#45;co2 (bus)&#45;&gt;CA pwr&#45;co2 (store)</title>
<path fill="none" stroke="black" stroke-width="1.5" d="M855,-412.26C855,-382.87 855,-331.68 855,-299.38"/>
<polygon fill="black" stroke="black" stroke-width="1.5" points="855,-424.68 849.6,-412.68 854.75,-418.68 854.75,-412.68 855,-412.68 855.25,-412.68 855.25,-418.68 860.4,-412.68 855,-424.68 855,-424.68"/>
<polygon fill="black" stroke="black" stroke-width="1.5" points="855,-287.21 860.4,-299.21 855.25,-293.21 855.25,-299.21 855,-299.21 854.75,-299.21 854.75,-293.21 849.6,-299.21 855,-287.21 855,-287.21"/>
</g>
<!-- CA gas&#45;ch4 (bus) -->
<g id="node3" class="node">
<title>CA gas&#45;ch4 (bus)</title>
<g id="a_node3"><a xlink:title="Bus: CA gas&#45;ch4&#10;Carrier: AC&#10;Unit: &#10;Generators: 0&#10;Loads: 0&#10;Stores: 0&#10;Storage units: 0&#10;Incoming links: 4&#10;Outgoing links: 0&#10;Lines: 0&#10;&#10;Power time series: N/A ">
<polygon fill="none" stroke="transparent" stroke-width="7.3" points="1028,-582 790,-582 790,-560 1028,-560 1028,-582"/>
<polyline fill="none" stroke="black" stroke-width="7.3" points="790,-560 1028,-560 "/>
<text text-anchor="start" x="886" y="-569.1" font-family="Courier New" font-size="8.00" fill="red">CA gas&#45;ch4</text>
</a>
</g>
</g>
<!-- p9 (bus) -->
<g id="node4" class="node">
<title>p9 (bus)</title>
<g id="a_node4"><a xlink:title="Bus: p9&#10;Carrier: AC&#10;Unit: &#10;Generators: 0&#10;Loads: 1&#10;Stores: 0&#10;Storage units: 1&#10;Incoming links: 2&#10;Outgoing links: 2&#10;Lines: 0&#10;&#10;Power time series: N/A ">
<polygon fill="none" stroke="transparent" stroke-width="7.3" points="403,-582 165,-582 165,-560 403,-560 403,-582"/>
<polyline fill="none" stroke="black" stroke-width="7.3" points="165,-560 403,-560 "/>
<text text-anchor="start" x="279" y="-569.1" font-family="Courier New" font-size="8.00" fill="red">p9</text>
</a>
</g>
</g>
<!-- p10 (bus) -->
<g id="node6" class="node">
<title>p10 (bus)</title>
<g id="a_node6"><a xlink:title="Bus: p10&#10;Carrier: AC&#10;Unit: &#10;Generators: 0&#10;Loads: 1&#10;Stores: 0&#10;Storage units: 1&#10;Incoming links: 3&#10;Outgoing links: 1&#10;Lines: 0&#10;&#10;Power time series: N/A ">
<polygon fill="none" stroke="transparent" stroke-width="7.3" points="1290,-447 1052,-447 1052,-425 1290,-425 1290,-447"/>
<polyline fill="none" stroke="black" stroke-width="7.3" points="1052,-425 1290,-425 "/>
<text text-anchor="start" x="1164" y="-434.1" font-family="Courier New" font-size="8.00" fill="red">p10</text>
</a>
</g>
</g>
<!-- p9 (bus)&#45;&gt;p10 (bus) -->
<g id="edge8" class="edge">
<title>p9 (bus)&#45;&gt;p10 (bus)</title>
<g id="a_edge8"><a xlink:title="Link: p9||p10&#10;From: p9 (bus0)&#10;To: p10 (bus1)&#10;Carrier: &#10;Extendable nominal power: False&#10;Nominal power: 0.00 MW&#10;Efficiency: 1.00&#10;Capital cost: 0.00 currency/MW&#10;Marginal cost: 0.00 currency/MWh&#10;&#10;Optimised nominal power: 0.00 MW&#10;Power time series (p0): N/A MW&#10;Power time series (p1): N/A MW">
<path fill="none" stroke="black" stroke-width="1.5" d="M395.85,-559.99C547.05,-546.46 798,-524 798,-524 798,-524 1010,-479 1010,-479 1010,-479 1073.57,-462.42 1120.82,-450.09"/>
<polygon fill="black" stroke="black" stroke-width="1.5" points="1132.44,-447.06 1122.19,-455.31 1126.69,-448.82 1120.89,-450.33 1120.83,-450.09 1120.76,-449.85 1126.57,-448.33 1119.46,-444.86 1132.44,-447.06 1132.44,-447.06"/>
</a>
</g>
<text text-anchor="start" x="838" y="-517.6" font-family="Courier New" font-size="8.00" fill="red">p9||p10</text>
</g>
<!-- p9 AC (load) -->
<g id="node9" class="node">
<title>p9 AC (load)</title>
<g id="a_node9"><a xlink:title="Load: p9 AC&#10;Bus: p9&#10;Carrier: &#10;Power set: 0.00 ">
<polygon fill="none" stroke="black" stroke-width="2" points="90,-393 144,-457.5 36,-457.5 90,-393"/>
<text text-anchor="start" x="78.5" y="-434.1" font-family="Courier New" font-size="8.00" fill="red">p9 AC</text>
</a>
</g>
</g>
<!-- p9 (bus)&#45;&gt;p9 AC (load) -->
<g id="edge1" class="edge">
<title>p9 (bus)&#45;&gt;p9 AC (load)</title>
<path fill="none" stroke="black" stroke-width="1.5" d="M269.1,-559.78C237.34,-538.01 162.43,-486.65 120.24,-457.73"/>
</g>
<!-- p9 battery (storage unit) -->
<g id="node14" class="node">
<title>p9 battery (storage unit)</title>
<g id="a_node14"><a xlink:title="Storage unit: p9 battery&#10;Bus: p9&#10;Carrier: &#10;Extendable nominal power: False&#10;Nominal power: 0.00 &#10;Power set: 0.00 &#10;Charge cyclic state: False&#10;Capital cost: 0.00 currency/&#10;Marginal cost: 0.00 currency/h&#10;&#10;Optimised nominal power: 0.00 &#10;Power time series: N/A ">
<polygon fill="none" stroke="black" stroke-width="2" points="350.28,-454 243.25,-454 215.72,-418 322.75,-418 350.28,-454"/>
<text text-anchor="start" x="260" y="-434.1" font-family="Courier New" font-size="8.00" fill="red">p9 battery</text>
</a>
</g>
</g>
<!-- p9 (bus)&#45;&gt;p9 battery (storage unit) -->
<g id="edge6" class="edge">
<title>p9 (bus)&#45;&gt;p9 battery (storage unit)</title>
<path fill="none" stroke="black" stroke-width="1.5" d="M283.83,-547.52C283.66,-525.23 283.41,-490.95 283.22,-466.48"/>
<polygon fill="black" stroke="black" stroke-width="1.5" points="283.92,-559.56 278.43,-547.6 283.63,-553.57 283.58,-547.57 283.83,-547.56 284.08,-547.56 284.13,-553.56 289.23,-547.52 283.92,-559.56 283.92,-559.56"/>
<polygon fill="black" stroke="black" stroke-width="1.5" points="283.13,-454.37 288.62,-466.33 283.43,-460.37 283.47,-466.37 283.22,-466.37 282.97,-466.37 282.93,-460.37 277.82,-466.41 283.13,-454.37 283.13,-454.37"/>
</g>
<!-- p9 pwr dac (multi&#45;link) -->
<g id="node20" class="node">
<title>p9 pwr dac (multi&#45;link)</title>
<g id="a_node20"><a xlink:title="Multi&#45;link: p9 pwr dac&#10;From: CA pwr atmosphere (bus0)&#10;To: p9 (bus1)&#10;To: p9 co2 capture (bus2)&#10;Carrier: &#10;Extendable nominal energy: False&#10;Nominal power: 0.00 MW&#10;Capital cost: 0.00 currency/MW&#10;Marginal cost: 0.00 currency/MWh&#10;&#10;Optimised nominal power: 0.00 MW&#10;Power time series (p0): N/A MW">
<ellipse fill="black" stroke="black" cx="444" cy="-436" rx="2.16" ry="2.16"/>
</a>
</g>
</g>
<!-- p9 (bus)&#45;&gt;p9 pwr dac (multi&#45;link) -->
<g id="edge32" class="edge">
<title>p9 (bus)&#45;&gt;p9 pwr dac (multi&#45;link)</title>
<g id="a_edge32"><a xlink:title="Multi&#45;link: p9 pwr dac (inverted)&#10;From: p9 (bus1)&#10;To: CA pwr atmosphere (bus0)&#10;Carrier: &#10;Extendable nominal power: False&#10;Nominal power: 0.00 MW&#10;Efficiency: 1.00&#10;Capital cost: 0.00 currency/MW&#10;Marginal cost: 0.00 currency/MWh&#10;&#10;Optimised nominal power: 0.00 MW&#10;Power time series (p1): N/A MW&#10;Power time series (p0): N/A MW">
<path fill="none" stroke="black" stroke-width="1.5" d="M296.29,-559.78C326.61,-534.58 404.6,-469.75 433.24,-445.94"/>
<polygon fill="black" stroke="black" stroke-width="1.5" points="442.75,-438.04 436.98,-449.86 438.3,-442.06 433.68,-445.9 433.52,-445.71 433.36,-445.52 437.98,-441.68 430.07,-441.56 442.75,-438.04 442.75,-438.04"/>
</a>
</g>
<text text-anchor="start" x="350" y="-517.6" font-family="Courier New" font-size="8.00" fill="red">p9 pwr dac</text>
</g>
<!-- p9 co2 capture (bus) -->
<g id="node5" class="node">
<title>p9 co2 capture (bus)</title>
<g id="a_node5"><a xlink:title="Bus: p9 co2 capture&#10;Carrier: AC&#10;Unit: &#10;Generators: 0&#10;Loads: 0&#10;Stores: 1&#10;Storage units: 0&#10;Incoming links: 3&#10;Outgoing links: 1&#10;Lines: 0&#10;&#10;Power time series: N/A ">
<polygon fill="none" stroke="transparent" stroke-width="7.3" points="563,-280 325,-280 325,-258 563,-258 563,-280"/>
<polyline fill="none" stroke="black" stroke-width="7.3" points="325,-258 563,-258 "/>
<text text-anchor="start" x="412" y="-267.1" font-family="Courier New" font-size="8.00" fill="red">p9 co2 capture</text>
</a>
</g>
</g>
<!-- p10 co2 capture (bus) -->
<g id="node7" class="node">
<title>p10 co2 capture (bus)</title>
<g id="a_node7"><a xlink:title="Bus: p10 co2 capture&#10;Carrier: AC&#10;Unit: &#10;Generators: 0&#10;Loads: 0&#10;Stores: 1&#10;Storage units: 0&#10;Incoming links: 3&#10;Outgoing links: 1&#10;Lines: 0&#10;&#10;Power time series: N/A ">
<polygon fill="none" stroke="transparent" stroke-width="7.3" points="1139,-138 901,-138 901,-116 1139,-116 1139,-138"/>
<polyline fill="none" stroke="black" stroke-width="7.3" points="901,-116 1139,-116 "/>
<text text-anchor="start" x="986" y="-125.1" font-family="Courier New" font-size="8.00" fill="red">p10 co2 capture</text>
</a>
</g>
</g>
<!-- p9 co2 capture (bus)&#45;&gt;p10 co2 capture (bus) -->
<g id="edge9" class="edge">
<title>p9 co2 capture (bus)&#45;&gt;p10 co2 capture (bus)</title>
<g id="a_edge9"><a xlink:title="Bidirectional link: p9||p10 co2 transport&#10;From: p9 co2 capture (bus0)&#10;To: p10 co2 capture (bus1)&#10;Carrier: &#10;Extendable nominal power: False&#10;Nominal power: 0.00 MW&#10;Efficiency: 1.00&#10;Capital cost: 0.00 currency/MW&#10;Marginal cost: 0.00 currency/MWh&#10;&#10;Optimised nominal power: 0.00 MW&#10;Power time series (p0): N/A MW&#10;Power time series (p1): N/A MW">
<path fill="none" stroke="black" stroke-width="1.5" d="M497.25,-255.06C606.99,-228.38 857.18,-167.57 966.84,-140.92"/>
<polygon fill="black" stroke="black" stroke-width="1.5" points="485.42,-257.93 495.81,-249.85 491.2,-256.27 497.03,-254.85 497.09,-255.1 497.14,-255.34 491.31,-256.76 498.36,-260.34 485.42,-257.93 485.42,-257.93"/>
<polygon fill="black" stroke="black" stroke-width="1.5" points="978.56,-138.07 968.18,-146.15 972.79,-139.73 966.96,-141.15 966.9,-140.91 966.85,-140.66 972.68,-139.25 965.63,-135.66 978.56,-138.07 978.56,-138.07"/>
</a>
</g>
<text text-anchor="start" x="800" y="-183.6" font-family="Courier New" font-size="8.00" fill="red">p9||p10 co2 transport</text>
</g>
<!-- p9 co2 storage (store) -->
<g id="node12" class="node">
<title>p9 co2 storage (store)</title>
<g id="a_node12"><a xlink:title="Store: p9 co2 storage&#10;Bus: p9 co2 capture&#10;Carrier: &#10;Extendable nominal energy: False&#10;Nominal energy: 0.00 h&#10;Power set: 0.00 &#10;Cyclic energy: False&#10;Capital cost: 0.00 currency/&#10;Marginal cost: 0.00 currency/h&#10;&#10;Optimised nominal energy: 0.00 h&#10;Energy time series: N/A h&#10;Power time series: N/A ">
<polygon fill="none" stroke="black" stroke-width="2" points="494.5,-145 393.5,-145 393.5,-109 494.5,-109 494.5,-145"/>
<text text-anchor="start" x="412" y="-125.1" font-family="Courier New" font-size="8.00" fill="red">p9 co2 storage</text>
</a>
</g>
</g>
<!-- p9 co2 capture (bus)&#45;&gt;p9 co2 storage (store) -->
<g id="edge4" class="edge">
<title>p9 co2 capture (bus)&#45;&gt;p9 co2 storage (store)</title>
<path fill="none" stroke="black" stroke-width="1.5" d="M444,-245.61C444,-221.69 444,-183.68 444,-157.38"/>
<polygon fill="black" stroke="black" stroke-width="1.5" points="444,-257.93 438.6,-245.93 443.75,-251.93 443.75,-245.93 444,-245.93 444.25,-245.93 444.25,-251.93 449.4,-245.93 444,-257.93 444,-257.93"/>
<polygon fill="black" stroke="black" stroke-width="1.5" points="444,-145.17 449.4,-157.17 444.25,-151.17 444.25,-157.17 444,-157.17 443.75,-157.17 443.75,-151.17 438.6,-157.17 444,-145.17 444,-145.17"/>
</g>
<!-- p10 AC (load) -->
<g id="node10" class="node">
<title>p10 AC (load)</title>
<g id="a_node10"><a xlink:title="Load: p10 AC&#10;Bus: p10&#10;Carrier: &#10;Power set: 0.00 ">
<polygon fill="none" stroke="black" stroke-width="2" points="1168,-226 1222,-290.5 1114,-290.5 1168,-226"/>
<text text-anchor="start" x="1154" y="-267.1" font-family="Courier New" font-size="8.00" fill="red">p10 AC</text>
</a>
</g>
</g>
<!-- p10 (bus)&#45;&gt;p10 AC (load) -->
<g id="edge2" class="edge">
<title>p10 (bus)&#45;&gt;p10 AC (load)</title>
<path fill="none" stroke="black" stroke-width="1.5" d="M1170.81,-424.68C1170.33,-398.01 1169.03,-326.41 1168.38,-290.76"/>
</g>
<!-- p10 battery (storage unit) -->
<g id="node15" class="node">
<title>p10 battery (storage unit)</title>
<g id="a_node15"><a xlink:title="Storage unit: p10 battery&#10;Bus: p10&#10;Carrier: &#10;Extendable nominal power: False&#10;Nominal power: 0.00 &#10;Power set: 0.00 &#10;Charge cyclic state: False&#10;Capital cost: 0.00 currency/&#10;Marginal cost: 0.00 currency/h&#10;&#10;Optimised nominal power: 0.00 &#10;Power time series: N/A ">
<polygon fill="none" stroke="black" stroke-width="2" points="1428.28,-287 1321.25,-287 1293.72,-251 1400.75,-251 1428.28,-287"/>
<text text-anchor="start" x="1336" y="-267.1" font-family="Courier New" font-size="8.00" fill="red">p10 battery</text>
</a>
</g>
</g>
<!-- p10 (bus)&#45;&gt;p10 battery (storage unit) -->
<g id="edge7" class="edge">
<title>p10 (bus)&#45;&gt;p10 battery (storage unit)</title>
<path fill="none" stroke="black" stroke-width="1.5" d="M1191.92,-416.83C1226.03,-387.21 1293.66,-328.48 1332.25,-294.97"/>
<polygon fill="black" stroke="black" stroke-width="1.5" points="1182.6,-424.93 1188.12,-412.98 1186.97,-420.8 1191.5,-416.87 1191.66,-417.06 1191.82,-417.25 1187.29,-421.18 1195.2,-421.14 1182.6,-424.93 1182.6,-424.93"/>
<polygon fill="black" stroke="black" stroke-width="1.5" points="1341.4,-287.02 1335.88,-298.97 1337.03,-291.14 1332.5,-295.08 1332.34,-294.89 1332.17,-294.7 1336.7,-290.77 1328.8,-290.81 1341.4,-287.02 1341.4,-287.02"/>
</g>
<!-- p10 pwr dac (multi&#45;link) -->
<g id="node21" class="node">
<title>p10 pwr dac (multi&#45;link)</title>
<g id="a_node21"><a xlink:title="Multi&#45;link: p10 pwr dac&#10;From: CA pwr atmosphere (bus0)&#10;To: p10 (bus1)&#10;To: p10 co2 capture (bus2)&#10;Carrier: &#10;Extendable nominal energy: False&#10;Nominal power: 0.00 MW&#10;Capital cost: 0.00 currency/MW&#10;Marginal cost: 0.00 currency/MWh&#10;&#10;Optimised nominal power: 0.00 MW&#10;Power time series (p0): N/A MW">
<ellipse fill="black" stroke="black" cx="1020" cy="-269" rx="2.16" ry="2.16"/>
</a>
</g>
</g>
<!-- p10 (bus)&#45;&gt;p10 pwr dac (multi&#45;link) -->
<g id="edge34" class="edge">
<title>p10 (bus)&#45;&gt;p10 pwr dac (multi&#45;link)</title>
<g id="a_edge34"><a xlink:title="Multi&#45;link: p10 pwr dac (inverted)&#10;From: p10 (bus1)&#10;To: CA pwr atmosphere (bus0)&#10;Carrier: &#10;Extendable nominal power: False&#10;Nominal power: 0.00 MW&#10;Efficiency: 1.00&#10;Capital cost: 0.00 currency/MW&#10;Marginal cost: 0.00 currency/MWh&#10;&#10;Optimised nominal power: 0.00 MW&#10;Power time series (p1): N/A MW&#10;Power time series (p0): N/A MW">
<path fill="none" stroke="black" stroke-width="1.5" d="M1161.55,-424.68C1134.44,-395.05 1056.56,-309.94 1029.44,-280.32"/>
<polygon fill="black" stroke="black" stroke-width="1.5" points="1021.23,-271.34 1033.31,-276.55 1025.46,-275.6 1029.51,-280.02 1029.33,-280.19 1029.14,-280.36 1025.09,-275.94 1025.34,-283.84 1021.23,-271.34 1021.23,-271.34"/>
</a>
</g>
<text text-anchor="start" x="1095" y="-350.6" font-family="Courier New" font-size="8.00" fill="red">p10 pwr dac</text>
</g>
<!-- p10 co2 storage (store) -->
<g id="node13" class="node">
<title>p10 co2 storage (store)</title>
<g id="a_node13"><a xlink:title="Store: p10 co2 storage&#10;Bus: p10 co2 capture&#10;Carrier: &#10;Extendable nominal energy: False&#10;Nominal energy: 0.00 h&#10;Power set: 0.00 &#10;Cyclic energy: False&#10;Capital cost: 0.00 currency/&#10;Marginal cost: 0.00 currency/h&#10;&#10;Optimised nominal energy: 0.00 h&#10;Energy time series: N/A h&#10;Power time series: N/A ">
<polygon fill="none" stroke="black" stroke-width="2" points="1070.5,-36 969.5,-36 969.5,0 1070.5,0 1070.5,-36"/>
<text text-anchor="start" x="986" y="-16.1" font-family="Courier New" font-size="8.00" fill="red">p10 co2 storage</text>
</a>
</g>
</g>
<!-- p10 co2 capture (bus)&#45;&gt;p10 co2 storage (store) -->
<g id="edge5" class="edge">
<title>p10 co2 capture (bus)&#45;&gt;p10 co2 storage (store)</title>
<path fill="none" stroke="black" stroke-width="1.5" d="M1020,-103.47C1020,-87.36 1020,-65.52 1020,-48.08"/>
<polygon fill="black" stroke="black" stroke-width="1.5" points="1020,-115.74 1014.6,-103.74 1019.75,-109.74 1019.75,-103.74 1020,-103.74 1020.25,-103.74 1020.25,-109.74 1025.4,-103.74 1020,-115.74 1020,-115.74"/>
<polygon fill="black" stroke="black" stroke-width="1.5" points="1020,-36.04 1025.4,-48.04 1020.25,-42.04 1020.25,-48.04 1020,-48.04 1019.75,-48.04 1019.75,-42.04 1014.6,-48.04 1020,-36.04 1020,-36.04"/>
</g>
<!-- CA pwr atmosphere (bus) -->
<g id="node8" class="node">
<title>CA pwr atmosphere (bus)</title>
<g id="a_node8"><a xlink:title="Bus: CA pwr atmosphere&#10;Carrier: AC&#10;Unit: &#10;Generators: 0&#10;Loads: 0&#10;Stores: 0&#10;Storage units: 0&#10;Incoming links: 6&#10;Outgoing links: 4&#10;Lines: 0&#10;&#10;Power time series: N/A ">
<polygon fill="none" stroke="transparent" stroke-width="7.3" points="717,-582 479,-582 479,-560 717,-560 717,-582"/>
<polyline fill="none" stroke="black" stroke-width="7.3" points="479,-560 717,-560 "/>
<text text-anchor="start" x="559.5" y="-569.1" font-family="Courier New" font-size="8.00" fill="red">CA pwr atmosphere</text>
</a>
</g>
</g>
<!-- CA pwr atmosphere (bus)&#45;&gt;CA pwr&#45;co2 (bus) -->
<g id="edge10" class="edge">
<title>CA pwr atmosphere (bus)&#45;&gt;CA pwr&#45;co2 (bus)</title>
<g id="a_edge10"><a xlink:title="Link: p9 pwr atmosphere&#10;From: CA pwr atmosphere (bus0)&#10;To: CA pwr&#45;co2 (bus1)&#10;Carrier: &#10;Extendable nominal power: False&#10;Nominal power: 0.00 MW&#10;Efficiency: 1.00&#10;Capital cost: 0.00 currency/MW&#10;Marginal cost: 0.00 currency/MWh&#10;&#10;Optimised nominal power: 0.00 MW&#10;Power time series (p0): N/A MW&#10;Power time series (p1): N/A MW">
<path fill="none" stroke="black" stroke-width="1.5" d="M617.74,-559.78C662.42,-536.66 771.53,-480.2 824.77,-452.64"/>
<polygon fill="black" stroke="black" stroke-width="1.5" points="835.54,-447.07 827.37,-457.38 830.33,-450.05 825,-452.81 824.89,-452.58 824.77,-452.36 830.1,-449.6 822.41,-447.79 835.54,-447.07 835.54,-447.07"/>
</a>
</g>
<text text-anchor="start" x="703" y="-517.6" font-family="Courier New" font-size="8.00" fill="red">p9 pwr atmosphere</text>
</g>
<!-- CA pwr atmosphere (bus)&#45;&gt;CA pwr&#45;co2 (bus) -->
<g id="edge11" class="edge">
<title>CA pwr atmosphere (bus)&#45;&gt;CA pwr&#45;co2 (bus)</title>
<g id="a_edge11"><a xlink:title="Link: p10 pwr atmosphere&#10;From: CA pwr atmosphere (bus0)&#10;To: CA pwr&#45;co2 (bus1)&#10;Carrier: &#10;Extendable nominal power: False&#10;Nominal power: 0.00 MW&#10;Efficiency: 1.00&#10;Capital cost: 0.00 currency/MW&#10;Marginal cost: 0.00 currency/MWh&#10;&#10;Optimised nominal power: 0.00 MW&#10;Power time series (p0): N/A MW&#10;Power time series (p1): N/A MW">
<path fill="none" stroke="black" stroke-width="1.5" d="M665.87,-559.96C757.37,-546.43 909,-524 909,-524 909,-524 909,-515 909,-515 909,-515 884.93,-480.23 868.93,-457.12"/>
<polygon fill="black" stroke="black" stroke-width="1.5" points="862.06,-447.2 873.33,-453.99 865.68,-451.99 869.1,-456.92 868.89,-457.06 868.68,-457.21 865.27,-452.27 864.45,-460.14 862.06,-447.2 862.06,-447.2"/>
</a>
</g>
<text text-anchor="start" x="909" y="-517.6" font-family="Courier New" font-size="8.00" fill="red">p10 pwr atmosphere</text>
</g>
<!-- CA pwr atmosphere (bus)&#45;&gt;p9 pwr dac (multi&#45;link) -->
<g id="edge16" class="edge">
<title>CA pwr atmosphere (bus)&#45;&gt;p9 pwr dac (multi&#45;link)</title>
<g id="a_edge16"><a xlink:title="Multi&#45;link: p9 pwr dac&#10;From: CA pwr atmosphere (bus0)&#10;To: p9 (bus1)&#10;To: p9 co2 capture (bus2)&#10;Carrier: &#10;Extendable nominal power: False&#10;Nominal power: 0.00 MW&#10;Capital cost: 0.00 currency/MW&#10;Marginal cost: 0.00 currency/MWh&#10;&#10;Optimised nominal power: 0.00 MW&#10;Power time series (p0): N/A MW">
<path fill="none" stroke="black" stroke-width="1.5" d="M577.8,-559.79C550.99,-546.24 507,-524 507,-524 507,-524 452.55,-448.8 444.89,-438.23"/>
</a>
</g>
<text text-anchor="start" x="507" y="-517.6" font-family="Courier New" font-size="8.00" fill="red">p9 pwr dac</text>
</g>
<!-- CA pwr atmosphere (bus)&#45;&gt;p10 pwr dac (multi&#45;link) -->
<g id="edge17" class="edge">
<title>CA pwr atmosphere (bus)&#45;&gt;p10 pwr dac (multi&#45;link)</title>
<g id="a_edge17"><a xlink:title="Multi&#45;link: p10 pwr dac&#10;From: CA pwr atmosphere (bus0)&#10;To: p10 (bus1)&#10;To: p10 co2 capture (bus2)&#10;Carrier: &#10;Extendable nominal power: False&#10;Nominal power: 0.00 MW&#10;Capital cost: 0.00 currency/MW&#10;Marginal cost: 0.00 currency/MWh&#10;&#10;Optimised nominal power: 0.00 MW&#10;Power time series (p0): N/A MW">
<path fill="none" stroke="black" stroke-width="1.5" d="M600.94,-559.98C611.95,-522.53 650,-393 650,-393 650,-393 942,-312 942,-312 942,-312 1008.29,-276.31 1018.65,-270.73"/>
</a>
</g>
<text text-anchor="start" x="650" y="-434.1" font-family="Courier New" font-size="8.00" fill="red">p10 pwr dac</text>
</g>
<!-- p9 OCGT (multi&#45;link)&#45;&gt;CA gas&#45;ch4 (bus) -->
<g id="edge19" class="edge">
<title>p9 OCGT (multi&#45;link)&#45;&gt;CA gas&#45;ch4 (bus)</title>
<g id="a_edge19"><a xlink:title="Multi&#45;link: p9 OCGT&#10;From: CA gas (bus0)&#10;To: CA gas&#45;ch4 (bus3)&#10;Carrier: &#10;Extendable nominal power: False&#10;Nominal power: 0.00 MW&#10;Efficiency: 1.00&#10;Capital cost: 0.00 currency/MW&#10;Marginal cost: 0.00 currency/MWh&#10;&#10;Optimised nominal power: 0.00 MW&#10;Power time series (p0): N/A MW&#10;Power time series (p3): N/A MW">
<path fill="none" stroke="black" stroke-width="1.5" d="M548.76,-663.84C568.7,-660.21 751,-627 751,-627 751,-627 821.58,-602.43 868.4,-586.13"/>
<polygon fill="black" stroke="black" stroke-width="1.5" points="880.02,-582.09 870.46,-591.13 874.44,-584.3 868.77,-586.27 868.69,-586.03 868.61,-585.8 874.27,-583.82 866.91,-580.93 880.02,-582.09 880.02,-582.09"/>
</a>
</g>
<text text-anchor="start" x="773" y="-620.6" font-family="Courier New" font-size="8.00" fill="red">p9 OCGT</text>
</g>
<!-- p9 OCGT (multi&#45;link)&#45;&gt;p9 (bus) -->
<g id="edge18" class="edge">
<title>p9 OCGT (multi&#45;link)&#45;&gt;p9 (bus)</title>
<g id="a_edge18"><a xlink:title="Multi&#45;link: p9 OCGT&#10;From: CA gas (bus0)&#10;To: p9 (bus1)&#10;Carrier: &#10;Extendable nominal power: False&#10;Nominal power: 0.00 MW&#10;Efficiency: 1.00&#10;Capital cost: 0.00 currency/MW&#10;Marginal cost: 0.00 currency/MWh&#10;&#10;Optimised nominal power: 0.00 MW&#10;Power time series (p0): N/A MW&#10;Power time series (p1): N/A MW">
<path fill="none" stroke="black" stroke-width="1.5" d="M545.2,-663.74C527.62,-659.66 387,-627 387,-627 387,-627 344.25,-604.17 313.83,-587.93"/>
<polygon fill="black" stroke="black" stroke-width="1.5" points="302.89,-582.09 316.02,-582.98 308.3,-584.69 313.59,-587.52 313.48,-587.74 313.36,-587.96 308.07,-585.13 310.93,-592.5 302.89,-582.09 302.89,-582.09"/>
</a>
</g>
<text text-anchor="start" x="387" y="-620.6" font-family="Courier New" font-size="8.00" fill="red">p9 OCGT</text>
</g>
<!-- p9 OCGT (multi&#45;link)&#45;&gt;CA pwr atmosphere (bus) -->
<g id="edge20" class="edge">
<title>p9 OCGT (multi&#45;link)&#45;&gt;CA pwr atmosphere (bus)</title>
<g id="a_edge20"><a xlink:title="Multi&#45;link: p9 OCGT&#10;From: CA gas (bus0)&#10;To: CA pwr atmosphere (bus2)&#10;Carrier: &#10;Extendable nominal power: False&#10;Nominal power: 0.00 MW&#10;Efficiency: 1.00&#10;Capital cost: 0.00 currency/MW&#10;Marginal cost: 0.00 currency/MWh&#10;&#10;Optimised nominal power: 0.00 MW&#10;Power time series (p0): N/A MW&#10;Power time series (p2): N/A MW">
<path fill="none" stroke="black" stroke-width="1.5" d="M545.45,-663.63C532.08,-659.12 437,-627 437,-627 437,-627 437,-618 437,-618 437,-618 503.52,-598.99 551.05,-585.42"/>
<polygon fill="black" stroke="black" stroke-width="1.5" points="562.67,-582.09 552.61,-590.58 556.97,-583.98 551.2,-585.63 551.13,-585.39 551.06,-585.15 556.83,-583.5 549.65,-580.2 562.67,-582.09 562.67,-582.09"/>
</a>
</g>
<text text-anchor="start" x="437" y="-620.6" font-family="Courier New" font-size="8.00" fill="red">p9 OCGT</text>
</g>
<!-- p9 CCGT&#45;95CC_2030 (multi&#45;link)&#45;&gt;CA gas&#45;ch4 (bus) -->
<g id="edge22" class="edge">
<title>p9 CCGT&#45;95CC_2030 (multi&#45;link)&#45;&gt;CA gas&#45;ch4 (bus)</title>
<g id="a_edge22"><a xlink:title="Multi&#45;link: p9 CCGT&#45;95CC_2030&#10;From: CA gas (bus0)&#10;To: CA gas&#45;ch4 (bus3)&#10;Carrier: &#10;Extendable nominal power: False&#10;Nominal power: 0.00 MW&#10;Efficiency: 1.00&#10;Capital cost: 0.00 currency/MW&#10;Marginal cost: 0.00 currency/MWh&#10;&#10;Optimised nominal power: 0.00 MW&#10;Power time series (p0): N/A MW&#10;Power time series (p3): N/A MW">
<path fill="none" stroke="black" stroke-width="1.5" d="M188.83,-663.99C218.41,-661.31 597,-627 597,-627 597,-627 748.26,-600.34 840.14,-584.14"/>
<polygon fill="black" stroke="black" stroke-width="1.5" points="852.14,-582.02 841.26,-589.43 846.27,-583.31 840.36,-584.35 840.32,-584.11 840.28,-583.86 846.18,-582.82 839.38,-578.79 852.14,-582.02 852.14,-582.02"/>
</a>
</g>
<text text-anchor="start" x="642" y="-620.6" font-family="Courier New" font-size="8.00" fill="red">p9 CCGT&#45;95CC_2030</text>
</g>
<!-- p9 CCGT&#45;95CC_2030 (multi&#45;link)&#45;&gt;p9 (bus) -->
<g id="edge21" class="edge">
<title>p9 CCGT&#45;95CC_2030 (multi&#45;link)&#45;&gt;p9 (bus)</title>
<g id="a_edge21"><a xlink:title="Multi&#45;link: p9 CCGT&#45;95CC_2030&#10;From: CA gas (bus0)&#10;To: p9 (bus1)&#10;Carrier: &#10;Extendable nominal power: False&#10;Nominal power: 0.00 MW&#10;Efficiency: 1.00&#10;Capital cost: 0.00 currency/MW&#10;Marginal cost: 0.00 currency/MWh&#10;&#10;Optimised nominal power: 0.00 MW&#10;Power time series (p0): N/A MW&#10;Power time series (p1): N/A MW">
<path fill="none" stroke="black" stroke-width="1.5" d="M185.12,-663.74C166.78,-659.66 20,-627 20,-627 20,-627 20,-618 20,-618 20,-618 135.97,-597.79 214.19,-584.16"/>
<polygon fill="black" stroke="black" stroke-width="1.5" points="226.39,-582.04 215.5,-589.42 220.52,-583.31 214.61,-584.34 214.57,-584.1 214.53,-583.85 220.44,-582.82 213.64,-578.78 226.39,-582.04 226.39,-582.04"/>
</a>
</g>
<text text-anchor="start" x="20" y="-620.6" font-family="Courier New" font-size="8.00" fill="red">p9 CCGT&#45;95CC_2030</text>
</g>
<!-- p9 CCGT&#45;95CC_2030 (multi&#45;link)&#45;&gt;p9 co2 capture (bus) -->
<g id="edge24" class="edge">
<title>p9 CCGT&#45;95CC_2030 (multi&#45;link)&#45;&gt;p9 co2 capture (bus)</title>
<g id="a_edge24"><a xlink:title="Multi&#45;link: p9 CCGT&#45;95CC_2030&#10;From: CA gas (bus0)&#10;To: p9 co2 capture (bus4)&#10;Carrier: &#10;Extendable nominal power: False&#10;Nominal power: 0.00 MW&#10;Efficiency: 1.00&#10;Capital cost: 0.00 currency/MW&#10;Marginal cost: 0.00 currency/MWh&#10;&#10;Optimised nominal power: 0.00 MW&#10;Power time series (p0): N/A MW&#10;Power time series (p4): N/A MW">
<path fill="none" stroke="black" stroke-width="1.5" d="M184.92,-663.74C164.6,-659.66 2,-627 2,-627 2,-627 0,-479 0,-479 0,-479 0,-393 0,-393 0,-393 280.79,-315.21 395.78,-283.36"/>
<polygon fill="black" stroke="black" stroke-width="1.5" points="407.67,-280.07 397.54,-288.47 401.95,-281.91 396.17,-283.51 396.1,-283.27 396.03,-283.03 401.82,-281.43 394.66,-278.07 407.67,-280.07 407.67,-280.07"/>
</a>
</g>
<text text-anchor="start" x="1" y="-517.6" font-family="Courier New" font-size="8.00" fill="red">p9 CCGT&#45;95CC_2030</text>
</g>
<!-- p9 CCGT&#45;95CC_2030 (multi&#45;link)&#45;&gt;CA pwr atmosphere (bus) -->
<g id="edge23" class="edge">
<title>p9 CCGT&#45;95CC_2030 (multi&#45;link)&#45;&gt;CA pwr atmosphere (bus)</title>
<g id="a_edge23"><a xlink:title="Multi&#45;link: p9 CCGT&#45;95CC_2030&#10;From: CA gas (bus0)&#10;To: CA pwr atmosphere (bus2)&#10;Carrier: &#10;Extendable nominal power: False&#10;Nominal power: 0.00 MW&#10;Efficiency: 1.00&#10;Capital cost: 0.00 currency/MW&#10;Marginal cost: 0.00 currency/MWh&#10;&#10;Optimised nominal power: 0.00 MW&#10;Power time series (p0): N/A MW&#10;Power time series (p2): N/A MW">
<path fill="none" stroke="black" stroke-width="1.5" d="M188.58,-663.36C200.66,-657.23 278,-618 278,-618 278,-618 421.48,-597.38 516.29,-583.75"/>
<polygon fill="black" stroke="black" stroke-width="1.5" points="528.17,-582.04 517.06,-589.09 522.27,-583.14 516.33,-583.99 516.29,-583.75 516.26,-583.5 522.2,-582.64 515.52,-578.4 528.17,-582.04 528.17,-582.04"/>
</a>
</g>
<text text-anchor="start" x="278" y="-620.6" font-family="Courier New" font-size="8.00" fill="red">p9 CCGT&#45;95CC_2030</text>
</g>
<!-- p10 OCGT (multi&#45;link)&#45;&gt;CA gas&#45;ch4 (bus) -->
<g id="edge26" class="edge">
<title>p10 OCGT (multi&#45;link)&#45;&gt;CA gas&#45;ch4 (bus)</title>
<g id="a_edge26"><a xlink:title="Multi&#45;link: p10 OCGT&#10;From: CA gas (bus0)&#10;To: CA gas&#45;ch4 (bus3)&#10;Carrier: &#10;Extendable nominal power: False&#10;Nominal power: 0.00 MW&#10;Efficiency: 1.00&#10;Capital cost: 0.00 currency/MW&#10;Marginal cost: 0.00 currency/MWh&#10;&#10;Optimised nominal power: 0.00 MW&#10;Power time series (p0): N/A MW&#10;Power time series (p3): N/A MW">
<path fill="none" stroke="black" stroke-width="1.5" d="M906.04,-662.86C906.28,-655.51 907.48,-618.72 908.28,-594.26"/>
<polygon fill="black" stroke="black" stroke-width="1.5" points="908.67,-582.21 913.67,-594.38 908.72,-588.22 908.53,-594.21 908.28,-594.21 908.03,-594.2 908.22,-588.2 902.88,-594.03 908.67,-582.21 908.67,-582.21"/>
</a>
</g>
<text text-anchor="start" x="907" y="-620.6" font-family="Courier New" font-size="8.00" fill="red">p10 OCGT</text>
</g>
<!-- p10 OCGT (multi&#45;link)&#45;&gt;p10 (bus) -->
<g id="edge25" class="edge">
<title>p10 OCGT (multi&#45;link)&#45;&gt;p10 (bus)</title>
<g id="a_edge25"><a xlink:title="Multi&#45;link: p10 OCGT&#10;From: CA gas (bus0)&#10;To: p10 (bus1)&#10;Carrier: &#10;Extendable nominal power: False&#10;Nominal power: 0.00 MW&#10;Efficiency: 1.00&#10;Capital cost: 0.00 currency/MW&#10;Marginal cost: 0.00 currency/MWh&#10;&#10;Optimised nominal power: 0.00 MW&#10;Power time series (p0): N/A MW&#10;Power time series (p1): N/A MW">
<path fill="none" stroke="black" stroke-width="1.5" d="M907.88,-663.84C929.19,-660.21 1124,-627 1124,-627 1124,-627 1153.13,-509.26 1165.52,-459.15"/>
<polygon fill="black" stroke="black" stroke-width="1.5" points="1168.47,-447.22 1170.83,-460.16 1167.27,-453.1 1165.83,-458.92 1165.59,-458.86 1165.35,-458.8 1166.79,-452.98 1160.35,-457.57 1168.47,-447.22 1168.47,-447.22"/>
</a>
</g>
<text text-anchor="start" x="1140" y="-569.1" font-family="Courier New" font-size="8.00" fill="red">p10 OCGT</text>
</g>
<!-- p10 OCGT (multi&#45;link)&#45;&gt;CA pwr atmosphere (bus) -->
<g id="edge27" class="edge">
<title>p10 OCGT (multi&#45;link)&#45;&gt;CA pwr atmosphere (bus)</title>
<g id="a_edge27"><a xlink:title="Multi&#45;link: p10 OCGT&#10;From: CA gas (bus0)&#10;To: CA pwr atmosphere (bus2)&#10;Carrier: &#10;Extendable nominal power: False&#10;Nominal power: 0.00 MW&#10;Efficiency: 1.00&#10;Capital cost: 0.00 currency/MW&#10;Marginal cost: 0.00 currency/MWh&#10;&#10;Optimised nominal power: 0.00 MW&#10;Power time series (p0): N/A MW&#10;Power time series (p2): N/A MW">
<path fill="none" stroke="black" stroke-width="1.5" d="M904.06,-663.96C875.73,-661.04 546,-627 546,-627 546,-627 546,-618 546,-618 546,-618 562.92,-603.04 577.45,-590.18"/>
<polygon fill="black" stroke="black" stroke-width="1.5" points="586.46,-582.21 581.05,-594.2 582.13,-586.37 577.64,-590.35 577.47,-590.16 577.31,-589.97 581.8,-586 573.89,-586.12 586.46,-582.21 586.46,-582.21"/>
</a>
</g>
<text text-anchor="start" x="546" y="-620.6" font-family="Courier New" font-size="8.00" fill="red">p10 OCGT</text>
</g>
<!-- p10 CCGT&#45;95CC_2030 (multi&#45;link)&#45;&gt;CA gas&#45;ch4 (bus) -->
<g id="edge29" class="edge">
<title>p10 CCGT&#45;95CC_2030 (multi&#45;link)&#45;&gt;CA gas&#45;ch4 (bus)</title>
<g id="a_edge29"><a xlink:title="Multi&#45;link: p10 CCGT&#45;95CC_2030&#10;From: CA gas (bus0)&#10;To: CA gas&#45;ch4 (bus3)&#10;Carrier: &#10;Extendable nominal power: False&#10;Nominal power: 0.00 MW&#10;Efficiency: 1.00&#10;Capital cost: 0.00 currency/MW&#10;Marginal cost: 0.00 currency/MWh&#10;&#10;Optimised nominal power: 0.00 MW&#10;Power time series (p0): N/A MW&#10;Power time series (p3): N/A MW">
<path fill="none" stroke="black" stroke-width="1.5" d="M1286.45,-663.64C1271.29,-658.57 1150,-618 1150,-618 1150,-618 1045,-597.96 973.62,-584.33"/>
<polygon fill="black" stroke="black" stroke-width="1.5" points="961.59,-582.04 974.39,-578.98 967.53,-582.92 973.42,-584.04 973.38,-584.29 973.33,-584.53 967.44,-583.41 972.37,-589.59 961.59,-582.04 961.59,-582.04"/>
</a>
</g>
<text text-anchor="start" x="1176" y="-620.6" font-family="Courier New" font-size="8.00" fill="red">p10 CCGT&#45;95CC_2030</text>
</g>
<!-- p10 CCGT&#45;95CC_2030 (multi&#45;link)&#45;&gt;p10 (bus) -->
<g id="edge28" class="edge">
<title>p10 CCGT&#45;95CC_2030 (multi&#45;link)&#45;&gt;p10 (bus)</title>
<g id="a_edge28"><a xlink:title="Multi&#45;link: p10 CCGT&#45;95CC_2030&#10;From: CA gas (bus0)&#10;To: p10 (bus1)&#10;Carrier: &#10;Extendable nominal power: False&#10;Nominal power: 0.00 MW&#10;Efficiency: 1.00&#10;Capital cost: 0.00 currency/MW&#10;Marginal cost: 0.00 currency/MWh&#10;&#10;Optimised nominal power: 0.00 MW&#10;Power time series (p0): N/A MW&#10;Power time series (p1): N/A MW">
<path fill="none" stroke="black" stroke-width="1.5" d="M1287.7,-663.02C1285.86,-655.91 1276,-618 1276,-618 1276,-618 1229,-515 1229,-515 1229,-515 1203.14,-480.23 1185.96,-457.12"/>
<polygon fill="black" stroke="black" stroke-width="1.5" points="1178.58,-447.2 1190.08,-453.6 1182.36,-451.86 1185.94,-456.68 1185.74,-456.83 1185.54,-456.98 1181.96,-452.16 1181.41,-460.05 1178.58,-447.2 1178.58,-447.2"/>
</a>
</g>
<text text-anchor="start" x="1259" y="-569.1" font-family="Courier New" font-size="8.00" fill="red">p10 CCGT&#45;95CC_2030</text>
</g>
<!-- p10 CCGT&#45;95CC_2030 (multi&#45;link)&#45;&gt;p10 co2 capture (bus) -->
<g id="edge31" class="edge">
<title>p10 CCGT&#45;95CC_2030 (multi&#45;link)&#45;&gt;p10 co2 capture (bus)</title>
<g id="a_edge31"><a xlink:title="Multi&#45;link: p10 CCGT&#45;95CC_2030&#10;From: CA gas (bus0)&#10;To: p10 co2 capture (bus4)&#10;Carrier: &#10;Extendable nominal power: False&#10;Nominal power: 0.00 MW&#10;Efficiency: 1.00&#10;Capital cost: 0.00 currency/MW&#10;Marginal cost: 0.00 currency/MWh&#10;&#10;Optimised nominal power: 0.00 MW&#10;Power time series (p0): N/A MW&#10;Power time series (p4): N/A MW">
<path fill="none" stroke="black" stroke-width="1.5" d="M1289.69,-663.66C1314.49,-656.41 1603,-572 1603,-572 1603,-572 1603,-572 1603,-268 1603,-268 1464,-226 1464,-226 1464,-226 1197.23,-167.12 1077.25,-140.64"/>
<polygon fill="black" stroke="black" stroke-width="1.5" points="1065.43,-138.03 1078.31,-135.34 1071.34,-139.08 1077.2,-140.37 1077.15,-140.61 1077.09,-140.86 1071.23,-139.56 1075.98,-145.89 1065.43,-138.03 1065.43,-138.03"/>
</a>
</g>
<text text-anchor="start" x="1603" y="-434.1" font-family="Courier New" font-size="8.00" fill="red">p10 CCGT&#45;95CC_2030</text>
</g>
<!-- p10 CCGT&#45;95CC_2030 (multi&#45;link)&#45;&gt;CA pwr atmosphere (bus) -->
<g id="edge30" class="edge">
<title>p10 CCGT&#45;95CC_2030 (multi&#45;link)&#45;&gt;CA pwr atmosphere (bus)</title>
<g id="a_edge30"><a xlink:title="Multi&#45;link: p10 CCGT&#45;95CC_2030&#10;From: CA gas (bus0)&#10;To: CA pwr atmosphere (bus2)&#10;Carrier: &#10;Extendable nominal power: False&#10;Nominal power: 0.00 MW&#10;Efficiency: 1.00&#10;Capital cost: 0.00 currency/MW&#10;Marginal cost: 0.00 currency/MWh&#10;&#10;Optimised nominal power: 0.00 MW&#10;Power time series (p0): N/A MW&#10;Power time series (p2): N/A MW">
<path fill="none" stroke="black" stroke-width="1.5" d="M1285.92,-663.87C1258.15,-659.93 962,-618 962,-618 962,-618 797.46,-597.21 689.63,-583.58"/>
<polygon fill="black" stroke="black" stroke-width="1.5" points="677.43,-582.04 690.01,-578.19 683.42,-582.54 689.37,-583.29 689.34,-583.54 689.31,-583.79 683.35,-583.04 688.66,-588.9 677.43,-582.04 677.43,-582.04"/>
</a>
</g>
<text text-anchor="start" x="1024" y="-620.6" font-family="Courier New" font-size="8.00" fill="red">p10 CCGT&#45;95CC_2030</text>
</g>
<!-- p9 pwr dac (multi&#45;link)&#45;&gt;p9 co2 capture (bus) -->
<g id="edge33" class="edge">
<title>p9 pwr dac (multi&#45;link)&#45;&gt;p9 co2 capture (bus)</title>
<g id="a_edge33"><a xlink:title="Multi&#45;link: p9 pwr dac&#10;From: CA pwr atmosphere (bus0)&#10;To: p9 co2 capture (bus2)&#10;Carrier: &#10;Extendable nominal power: False&#10;Nominal power: 0.00 MW&#10;Efficiency: 1.00&#10;Capital cost: 0.00 currency/MW&#10;Marginal cost: 0.00 currency/MWh&#10;&#10;Optimised nominal power: 0.00 MW&#10;Power time series (p0): N/A MW&#10;Power time series (p2): N/A MW">
<path fill="none" stroke="black" stroke-width="1.5" d="M444,-433.57C444,-421.38 444,-334.09 444,-292.25"/>
<polygon fill="black" stroke="black" stroke-width="1.5" points="444,-280.2 449.4,-292.2 444.25,-286.2 444.25,-292.2 444,-292.2 443.75,-292.2 443.75,-286.2 438.6,-292.2 444,-280.2 444,-280.2"/>
</a>
</g>
<text text-anchor="start" x="444" y="-350.6" font-family="Courier New" font-size="8.00" fill="red">p9 pwr dac</text>
</g>
<!-- p10 pwr dac (multi&#45;link)&#45;&gt;p10 co2 capture (bus) -->
<g id="edge35" class="edge">
<title>p10 pwr dac (multi&#45;link)&#45;&gt;p10 co2 capture (bus)</title>
<g id="a_edge35"><a xlink:title="Multi&#45;link: p10 pwr dac&#10;From: CA pwr atmosphere (bus0)&#10;To: p10 co2 capture (bus2)&#10;Carrier: &#10;Extendable nominal power: False&#10;Nominal power: 0.00 MW&#10;Efficiency: 1.00&#10;Capital cost: 0.00 currency/MW&#10;Marginal cost: 0.00 currency/MWh&#10;&#10;Optimised nominal power: 0.00 MW&#10;Power time series (p0): N/A MW&#10;Power time series (p2): N/A MW">
<path fill="none" stroke="black" stroke-width="1.5" d="M1020,-266.43C1020,-255.19 1020,-186.44 1020,-150.24"/>
<polygon fill="black" stroke="black" stroke-width="1.5" points="1020,-138.15 1025.4,-150.15 1020.25,-144.15 1020.25,-150.15 1020,-150.15 1019.75,-150.15 1019.75,-144.15 1014.6,-150.15 1020,-138.15 1020,-138.15"/>
</a>
</g>
<text text-anchor="start" x="1020" y="-183.6" font-family="Courier New" font-size="8.00" fill="red">p10 pwr dac</text>
</g>
</g>
</svg>
