<?xml version="1.0" encoding="UTF-8" standalone="no"?>
<!DOCTYPE svg PUBLIC "-//W3C//DTD SVG 1.1//EN"
 "http://www.w3.org/Graphics/SVG/1.1/DTD/svg11.dtd">
<!-- Generated by graphviz version 2.43.0 (0)
 -->
<!-- Title: Sector&#45;less network (with underground CO2 storage and CO2 transport and DAC nation&#45;based) Pages: 1 -->
<svg width="1435pt" height="1153pt"
 viewBox="0.00 0.00 1434.50 1153.35" xmlns="http://www.w3.org/2000/svg" xmlns:xlink="http://www.w3.org/1999/xlink">
<g id="graph0" class="graph" transform="scale(1 1) rotate(0) translate(4 1149.35)">
<title>Sector&#45;less network (with underground CO2 storage and CO2 transport and DAC nation&#45;based)</title>
<g id="a_graph0"><a xlink:title="Network: Sector&#45;less network (with underground CO2 storage and CO2 transport and DAC nation&#45;based)&#10;Buses: 7 (out of 7)&#10;Generators: 6 (out of 6)&#10;Loads: 2 (out of 2)&#10;Stores: 3 (out of 3)&#10;Storage units: 2 (out of 2)&#10;Links: 6 (out of 6)&#10;Lines: 0 (out of 0)&#10;Snapshots: 1">
<text text-anchor="middle" x="713.25" y="-1130.15" font-family="Times,serif" font-size="14.00">Sector&#45;less network (with underground CO2 storage and CO2 transport and DAC nation&#45;based)</text>
<text text-anchor="middle" x="713.25" y="-1083.15" font-family="Times,serif" font-size="14.00"> &#160;&#160;&#160;&#160;&#160;&#160;&#160;&#160;&#160;&#160;</text>
</a>
</g>
<!-- p9 (bus) -->
<g id="node1" class="node">
<title>p9 (bus)</title>
<g id="a_node1"><a xlink:title="Bus: p9&#10;Carrier: AC&#10;Unit: &#10;Generators: 2&#10;Loads: 1&#10;Stores: 0&#10;Storage units: 1&#10;Incoming links: 1&#10;Outgoing links: 2&#10;Lines: 0&#10;&#10;Power time series: N/A ">
<polygon fill="none" stroke="transparent" stroke-width="7.3" points="898,-610.5 660,-610.5 660,-588.5 898,-588.5 898,-610.5"/>
<polyline fill="none" stroke="black" stroke-width="7.3" points="660,-588.5 898,-588.5 "/>
<text text-anchor="start" x="774" y="-597.6" font-family="Courier New" font-size="8.00" fill="red">p9</text>
</a>
</g>
</g>
<!-- p10 (bus) -->
<g id="node4" class="node">
<title>p10 (bus)</title>
<g id="a_node4"><a xlink:title="Bus: p10&#10;Carrier: AC&#10;Unit: &#10;Generators: 2&#10;Loads: 1&#10;Stores: 0&#10;Storage units: 1&#10;Incoming links: 2&#10;Outgoing links: 1&#10;Lines: 0&#10;&#10;Power time series: N/A ">
<polygon fill="none" stroke="transparent" stroke-width="7.3" points="1329,-447 1091,-447 1091,-425 1329,-425 1329,-447"/>
<polyline fill="none" stroke="black" stroke-width="7.3" points="1091,-425 1329,-425 "/>
<text text-anchor="start" x="1203" y="-434.1" font-family="Courier New" font-size="8.00" fill="red">p10</text>
</a>
</g>
</g>
<!-- p9 (bus)&#45;&gt;p10 (bus) -->
<g id="edge14" class="edge">
<title>p9 (bus)&#45;&gt;p10 (bus)</title>
<g id="a_edge14"><a xlink:title="Link: p9||p10&#10;From: p9 (bus0)&#10;To: p10 (bus1)&#10;Carrier: &#10;Extendable nominal power: False&#10;Nominal power: 0.00 MW&#10;Efficiency: 1.00&#10;Capital cost: 0.00 currency/MW&#10;Marginal cost: 0.00 currency/MWh&#10;&#10;Optimised nominal power: 0.00 MW&#10;Power time series (p0): N/A MW&#10;Power time series (p1): N/A MW">
<path fill="none" stroke="black" stroke-width="1.5" d="M800.23,-588.43C847.04,-566.22 955,-515 955,-515 955,-515 1092.57,-472.92 1165.62,-450.58"/>
<polygon fill="black" stroke="black" stroke-width="1.5" points="1177.19,-447.04 1167.29,-455.71 1171.52,-449.03 1165.78,-450.79 1165.71,-450.55 1165.64,-450.31 1171.37,-448.55 1164.13,-445.38 1177.19,-447.04 1177.19,-447.04"/>
</a>
</g>
<text text-anchor="start" x="955" y="-517.6" font-family="Courier New" font-size="8.00" fill="red">p9||p10</text>
</g>
<!-- p9 AC (load) -->
<g id="node14" class="node">
<title>p9 AC (load)</title>
<g id="a_node14"><a xlink:title="Load: p9 AC&#10;Bus: p9&#10;Carrier: &#10;Power set: 0.00 ">
<polygon fill="none" stroke="black" stroke-width="2" points="759,-393 813,-457.5 705,-457.5 759,-393"/>
<text text-anchor="start" x="747.5" y="-434.1" font-family="Courier New" font-size="8.00" fill="red">p9 AC</text>
</a>
</g>
</g>
<!-- p9 (bus)&#45;&gt;p9 AC (load) -->
<g id="edge7" class="edge">
<title>p9 (bus)&#45;&gt;p9 AC (load)</title>
<path fill="none" stroke="black" stroke-width="1.5" d="M777.75,-588.4C774.52,-562.36 765.88,-492.58 761.55,-457.6"/>
</g>
<!-- p9 battery (storage unit) -->
<g id="node19" class="node">
<title>p9 battery (storage unit)</title>
<g id="a_node19"><a xlink:title="Storage unit: p9 battery&#10;Bus: p9&#10;Carrier: &#10;Extendable nominal power: False&#10;Nominal power: 0.00 &#10;Power set: 0.00 &#10;Charge cyclic state: False&#10;Capital cost: 0.00 currency/&#10;Marginal cost: 0.00 currency/h&#10;&#10;Optimised nominal power: 0.00 &#10;Power time series: N/A ">
<polygon fill="none" stroke="black" stroke-width="2" points="1019.28,-454 912.25,-454 884.72,-418 991.75,-418 1019.28,-454"/>
<text text-anchor="start" x="929" y="-434.1" font-family="Courier New" font-size="8.00" fill="red">p9 battery</text>
</a>
</g>
</g>
<!-- p9 (bus)&#45;&gt;p9 battery (storage unit) -->
<g id="edge12" class="edge">
<title>p9 (bus)&#45;&gt;p9 battery (storage unit)</title>
<path fill="none" stroke="black" stroke-width="1.5" d="M798.74,-580.07C829.62,-551.25 889.41,-495.43 924.48,-462.69"/>
<polygon fill="black" stroke="black" stroke-width="1.5" points="789.82,-588.4 794.91,-576.26 794.04,-584.12 798.42,-580.03 798.59,-580.21 798.76,-580.39 794.38,-584.49 802.28,-584.16 789.82,-588.4 789.82,-588.4"/>
<polygon fill="black" stroke="black" stroke-width="1.5" points="933.68,-454.1 928.59,-466.24 929.46,-458.38 925.08,-462.48 924.91,-462.29 924.74,-462.11 929.12,-458.02 921.22,-458.35 933.68,-454.1 933.68,-454.1"/>
</g>
<!-- p9 dac (multi&#45;link) -->
<g id="node23" class="node">
<title>p9 dac (multi&#45;link)</title>
<g id="a_node23"><a xlink:title="Multi&#45;link: p9 dac&#10;From: atmosphere (bus0)&#10;To: p9 (bus1)&#10;To: p9 co2 capture (bus2)&#10;Carrier: &#10;Extendable nominal energy: False&#10;Nominal power: 0.00 MW&#10;Capital cost: 0.00 currency/MW&#10;Marginal cost: 0.00 currency/MWh&#10;&#10;Optimised nominal power: 0.00 MW&#10;Power time series (p0): N/A MW">
<ellipse fill="black" stroke="black" cx="229" cy="-436" rx="2.16" ry="2.16"/>
</a>
</g>
</g>
<!-- p9 (bus)&#45;&gt;p9 dac (multi&#45;link) -->
<g id="edge26" class="edge">
<title>p9 (bus)&#45;&gt;p9 dac (multi&#45;link)</title>
<g id="a_edge26"><a xlink:title="Multi&#45;link: p9 dac (inverted)&#10;From: p9 (bus1)&#10;To: atmosphere (bus0)&#10;Carrier: &#10;Extendable nominal power: False&#10;Nominal power: 0.00 MW&#10;Efficiency: 1.00&#10;Capital cost: 0.00 currency/MW&#10;Marginal cost: 0.00 currency/MWh&#10;&#10;Optimised nominal power: 0.00 MW&#10;Power time series (p1): N/A MW&#10;Power time series (p0): N/A MW">
<path fill="none" stroke="black" stroke-width="1.5" d="M737.31,-588.41C618.21,-559.6 285,-479 285,-479 285,-479 256.36,-457.52 240.05,-445.29"/>
<polygon fill="black" stroke="black" stroke-width="1.5" points="230.38,-438.04 243.22,-440.92 235.33,-441.44 240.13,-445.04 239.98,-445.24 239.83,-445.44 235.03,-441.84 236.74,-449.56 230.38,-438.04 230.38,-438.04"/>
</a>
</g>
<text text-anchor="start" x="459" y="-517.6" font-family="Courier New" font-size="8.00" fill="red">p9 dac</text>
</g>
<!-- p9 CCGT&#45;95CC_2030 (bus) -->
<g id="node2" class="node">
<title>p9 CCGT&#45;95CC_2030 (bus)</title>
<g id="a_node2"><a xlink:title="Bus: p9 CCGT&#45;95CC_2030&#10;Carrier: AC&#10;Unit: &#10;Generators: 1&#10;Loads: 0&#10;Stores: 0&#10;Storage units: 0&#10;Incoming links: 0&#10;Outgoing links: 3&#10;Lines: 0&#10;&#10;Power time series: N/A ">
<polygon fill="none" stroke="transparent" stroke-width="7.3" points="238,-902 0,-902 0,-880 238,-880 238,-902"/>
<polyline fill="none" stroke="black" stroke-width="7.3" points="0,-880 238,-880 "/>
<text text-anchor="start" x="80.5" y="-889.1" font-family="Courier New" font-size="8.00" fill="red">p9 CCGT&#45;95CC_2030</text>
</a>
</g>
</g>
<!-- p9 CCGT&#45;95CC_2030 (multi&#45;link) -->
<g id="node21" class="node">
<title>p9 CCGT&#45;95CC_2030 (multi&#45;link)</title>
<g id="a_node21"><a xlink:title="Multi&#45;link: p9 CCGT&#45;95CC_2030&#10;From: p9 CCGT&#45;95CC_2030 (bus0)&#10;To: p9 (bus1)&#10;To: atmosphere (bus3)&#10;To: p9 co2 capture (bus2)&#10;Carrier: &#10;Extendable nominal energy: False&#10;Nominal power: 0.00 MW&#10;Capital cost: 0.00 currency/MW&#10;Marginal cost: 0.00 currency/MWh&#10;&#10;Optimised nominal power: 0.00 MW&#10;Power time series (p0): N/A MW">
<ellipse fill="black" stroke="black" cx="119" cy="-759.5" rx="2.16" ry="2.16"/>
</a>
</g>
</g>
<!-- p9 CCGT&#45;95CC_2030 (bus)&#45;&gt;p9 CCGT&#45;95CC_2030 (multi&#45;link) -->
<g id="edge16" class="edge">
<title>p9 CCGT&#45;95CC_2030 (bus)&#45;&gt;p9 CCGT&#45;95CC_2030 (multi&#45;link)</title>
<g id="a_edge16"><a xlink:title="Multi&#45;link: p9 CCGT&#45;95CC_2030&#10;From: p9 CCGT&#45;95CC_2030 (bus0)&#10;To: p9 (bus1)&#10;To: atmosphere (bus3)&#10;To: p9 co2 capture (bus2)&#10;Carrier: &#10;Extendable nominal power: False&#10;Nominal power: 0.00 MW&#10;Capital cost: 0.00 currency/MW&#10;Marginal cost: 0.00 currency/MWh&#10;&#10;Optimised nominal power: 0.00 MW&#10;Power time series (p0): N/A MW">
<path fill="none" stroke="black" stroke-width="1.5" d="M119,-879.84C119,-851.46 119,-772.7 119,-761.77"/>
</a>
</g>
<text text-anchor="start" x="119" y="-837.6" font-family="Courier New" font-size="8.00" fill="red">p9 CCGT&#45;95CC_2030</text>
</g>
<!-- p9 co2 capture (bus) -->
<g id="node3" class="node">
<title>p9 co2 capture (bus)</title>
<g id="a_node3"><a xlink:title="Bus: p9 co2 capture&#10;Carrier: AC&#10;Unit: &#10;Generators: 0&#10;Loads: 0&#10;Stores: 1&#10;Storage units: 0&#10;Incoming links: 3&#10;Outgoing links: 1&#10;Lines: 0&#10;&#10;Power time series: N/A ">
<polygon fill="none" stroke="transparent" stroke-width="7.3" points="301,-280 63,-280 63,-258 301,-258 301,-280"/>
<polyline fill="none" stroke="black" stroke-width="7.3" points="63,-258 301,-258 "/>
<text text-anchor="start" x="150" y="-267.1" font-family="Courier New" font-size="8.00" fill="red">p9 co2 capture</text>
</a>
</g>
</g>
<!-- p10 co2 capture (bus) -->
<g id="node6" class="node">
<title>p10 co2 capture (bus)</title>
<g id="a_node6"><a xlink:title="Bus: p10 co2 capture&#10;Carrier: AC&#10;Unit: &#10;Generators: 0&#10;Loads: 0&#10;Stores: 1&#10;Storage units: 0&#10;Incoming links: 3&#10;Outgoing links: 1&#10;Lines: 0&#10;&#10;Power time series: N/A ">
<polygon fill="none" stroke="transparent" stroke-width="7.3" points="578,-138 340,-138 340,-116 578,-116 578,-138"/>
<polyline fill="none" stroke="black" stroke-width="7.3" points="340,-116 578,-116 "/>
<text text-anchor="start" x="425" y="-125.1" font-family="Courier New" font-size="8.00" fill="red">p10 co2 capture</text>
</a>
</g>
</g>
<!-- p9 co2 capture (bus)&#45;&gt;p10 co2 capture (bus) -->
<g id="edge15" class="edge">
<title>p9 co2 capture (bus)&#45;&gt;p10 co2 capture (bus)</title>
<g id="a_edge15"><a xlink:title="Bidirectional link: p9||p10 co2 transport&#10;From: p9 co2 capture (bus0)&#10;To: p10 co2 capture (bus1)&#10;Carrier: &#10;Extendable nominal power: False&#10;Nominal power: 0.00 MW&#10;Efficiency: 1.00&#10;Capital cost: 0.00 currency/MW&#10;Marginal cost: 0.00 currency/MWh&#10;&#10;Optimised nominal power: 0.00 MW&#10;Power time series (p0): N/A MW&#10;Power time series (p1): N/A MW">
<path fill="none" stroke="black" stroke-width="1.5" d="M210.79,-251.94C255.86,-226.81 338,-181 338,-181 338,-181 389.17,-158.59 424.96,-142.91"/>
<polygon fill="black" stroke="black" stroke-width="1.5" points="200.2,-257.85 208.05,-247.29 205.32,-254.71 210.56,-251.79 210.68,-252 210.8,-252.22 205.56,-255.15 213.31,-256.72 200.2,-257.85 200.2,-257.85"/>
<polygon fill="black" stroke="black" stroke-width="1.5" points="435.96,-138.09 427.13,-147.85 430.56,-140.73 425.06,-143.14 424.96,-142.91 424.86,-142.68 430.36,-140.27 422.8,-137.96 435.96,-138.09 435.96,-138.09"/>
</a>
</g>
<text text-anchor="start" x="338" y="-183.6" font-family="Courier New" font-size="8.00" fill="red">p9||p10 co2 transport</text>
</g>
<!-- p9 co2 storage (store) -->
<g id="node16" class="node">
<title>p9 co2 storage (store)</title>
<g id="a_node16"><a xlink:title="Store: p9 co2 storage&#10;Bus: p9 co2 capture&#10;Carrier: &#10;Extendable nominal energy: False&#10;Nominal energy: 0.00 h&#10;Power set: 0.00 &#10;Cyclic energy: False&#10;Capital cost: 0.00 currency/&#10;Marginal cost: 0.00 currency/h&#10;&#10;Optimised nominal energy: 0.00 h&#10;Energy time series: N/A h&#10;Power time series: N/A ">
<polygon fill="none" stroke="black" stroke-width="2" points="223.5,-145 122.5,-145 122.5,-109 223.5,-109 223.5,-145"/>
<text text-anchor="start" x="141" y="-125.1" font-family="Courier New" font-size="8.00" fill="red">p9 co2 storage</text>
</a>
</g>
</g>
<!-- p9 co2 capture (bus)&#45;&gt;p9 co2 storage (store) -->
<g id="edge9" class="edge">
<title>p9 co2 capture (bus)&#45;&gt;p9 co2 storage (store)</title>
<path fill="none" stroke="black" stroke-width="1.5" d="M180.56,-245.61C179.02,-221.69 176.58,-183.68 174.89,-157.38"/>
<polygon fill="black" stroke="black" stroke-width="1.5" points="181.35,-257.93 175.19,-246.3 180.72,-251.96 180.33,-245.97 180.58,-245.96 180.83,-245.94 181.22,-251.93 185.97,-245.61 181.35,-257.93 181.35,-257.93"/>
<polygon fill="black" stroke="black" stroke-width="1.5" points="174.1,-145.17 180.26,-156.8 174.74,-151.14 175.12,-157.13 174.87,-157.15 174.62,-157.16 174.24,-151.17 169.48,-157.49 174.1,-145.17 174.1,-145.17"/>
</g>
<!-- p10 AC (load) -->
<g id="node15" class="node">
<title>p10 AC (load)</title>
<g id="a_node15"><a xlink:title="Load: p10 AC&#10;Bus: p10&#10;Carrier: &#10;Power set: 0.00 ">
<polygon fill="none" stroke="black" stroke-width="2" points="1306,-226 1360,-290.5 1252,-290.5 1306,-226"/>
<text text-anchor="start" x="1292" y="-267.1" font-family="Courier New" font-size="8.00" fill="red">p10 AC</text>
</a>
</g>
</g>
<!-- p10 (bus)&#45;&gt;p10 AC (load) -->
<g id="edge8" class="edge">
<title>p10 (bus)&#45;&gt;p10 AC (load)</title>
<path fill="none" stroke="black" stroke-width="1.5" d="M1216.01,-424.68C1231.52,-398.01 1273.18,-326.41 1293.92,-290.76"/>
</g>
<!-- p10 battery (storage unit) -->
<g id="node20" class="node">
<title>p10 battery (storage unit)</title>
<g id="a_node20"><a xlink:title="Storage unit: p10 battery&#10;Bus: p10&#10;Carrier: &#10;Extendable nominal power: False&#10;Nominal power: 0.00 &#10;Power set: 0.00 &#10;Charge cyclic state: False&#10;Capital cost: 0.00 currency/&#10;Marginal cost: 0.00 currency/h&#10;&#10;Optimised nominal power: 0.00 &#10;Power time series: N/A ">
<polygon fill="none" stroke="black" stroke-width="2" points="1180.28,-287 1073.25,-287 1045.72,-251 1152.75,-251 1180.28,-287"/>
<text text-anchor="start" x="1088" y="-267.1" font-family="Courier New" font-size="8.00" fill="red">p10 battery</text>
</a>
</g>
</g>
<!-- p10 (bus)&#45;&gt;p10 battery (storage unit) -->
<g id="edge13" class="edge">
<title>p10 (bus)&#45;&gt;p10 battery (storage unit)</title>
<path fill="none" stroke="black" stroke-width="1.5" d="M1197.67,-414.02C1180.32,-384.52 1148.69,-330.71 1129.39,-297.88"/>
<polygon fill="black" stroke="black" stroke-width="1.5" points="1203.93,-424.68 1193.2,-417.07 1200.68,-419.63 1197.64,-414.46 1197.85,-414.33 1198.07,-414.21 1201.11,-419.38 1202.51,-411.6 1203.93,-424.68 1203.93,-424.68"/>
<polygon fill="black" stroke="black" stroke-width="1.5" points="1123.12,-287.21 1133.86,-294.82 1126.37,-292.26 1129.42,-297.43 1129.2,-297.56 1128.98,-297.68 1125.94,-292.51 1124.54,-300.29 1123.12,-287.21 1123.12,-287.21"/>
</g>
<!-- p10 dac (multi&#45;link) -->
<g id="node24" class="node">
<title>p10 dac (multi&#45;link)</title>
<g id="a_node24"><a xlink:title="Multi&#45;link: p10 dac&#10;From: atmosphere (bus0)&#10;To: p10 (bus1)&#10;To: p10 co2 capture (bus2)&#10;Carrier: &#10;Extendable nominal energy: False&#10;Nominal power: 0.00 MW&#10;Capital cost: 0.00 currency/MW&#10;Marginal cost: 0.00 currency/MWh&#10;&#10;Optimised nominal power: 0.00 MW&#10;Power time series (p0): N/A MW">
<ellipse fill="black" stroke="black" cx="440" cy="-269" rx="2.16" ry="2.16"/>
</a>
</g>
</g>
<!-- p10 (bus)&#45;&gt;p10 dac (multi&#45;link) -->
<g id="edge28" class="edge">
<title>p10 (bus)&#45;&gt;p10 dac (multi&#45;link)</title>
<g id="a_edge28"><a xlink:title="Multi&#45;link: p10 dac (inverted)&#10;From: p10 (bus1)&#10;To: atmosphere (bus0)&#10;Carrier: &#10;Extendable nominal power: False&#10;Nominal power: 0.00 MW&#10;Efficiency: 1.00&#10;Capital cost: 0.00 currency/MW&#10;Marginal cost: 0.00 currency/MWh&#10;&#10;Optimised nominal power: 0.00 MW&#10;Power time series (p1): N/A MW&#10;Power time series (p0): N/A MW">
<path fill="none" stroke="black" stroke-width="1.5" d="M1172.87,-424.94C1127.02,-412.51 1055,-393 1055,-393 1055,-393 544.55,-290.91 453.73,-272.75"/>
<polygon fill="black" stroke="black" stroke-width="1.5" points="441.76,-270.35 454.59,-267.41 447.7,-271.28 453.58,-272.46 453.53,-272.71 453.48,-272.95 447.6,-271.77 452.47,-278 441.76,-270.35 441.76,-270.35"/>
</a>
</g>
<text text-anchor="start" x="874" y="-350.6" font-family="Courier New" font-size="8.00" fill="red">p10 dac</text>
</g>
<!-- p10 CCGT&#45;95CC_2030 (bus) -->
<g id="node5" class="node">
<title>p10 CCGT&#45;95CC_2030 (bus)</title>
<g id="a_node5"><a xlink:title="Bus: p10 CCGT&#45;95CC_2030&#10;Carrier: AC&#10;Unit: &#10;Generators: 1&#10;Loads: 0&#10;Stores: 0&#10;Storage units: 0&#10;Incoming links: 0&#10;Outgoing links: 3&#10;Lines: 0&#10;&#10;Power time series: N/A ">
<polygon fill="none" stroke="transparent" stroke-width="7.3" points="670,-902 432,-902 432,-880 670,-880 670,-902"/>
<polyline fill="none" stroke="black" stroke-width="7.3" points="432,-880 670,-880 "/>
<text text-anchor="start" x="510" y="-889.1" font-family="Courier New" font-size="8.00" fill="red">p10 CCGT&#45;95CC_2030</text>
</a>
</g>
</g>
<!-- p10 CCGT&#45;95CC_2030 (multi&#45;link) -->
<g id="node22" class="node">
<title>p10 CCGT&#45;95CC_2030 (multi&#45;link)</title>
<g id="a_node22"><a xlink:title="Multi&#45;link: p10 CCGT&#45;95CC_2030&#10;From: p10 CCGT&#45;95CC_2030 (bus0)&#10;To: p10 (bus1)&#10;To: atmosphere (bus3)&#10;To: p10 co2 capture (bus2)&#10;Carrier: &#10;Extendable nominal energy: False&#10;Nominal power: 0.00 MW&#10;Capital cost: 0.00 currency/MW&#10;Marginal cost: 0.00 currency/MWh&#10;&#10;Optimised nominal power: 0.00 MW&#10;Power time series (p0): N/A MW">
<ellipse fill="black" stroke="black" cx="551" cy="-759.5" rx="2.16" ry="2.16"/>
</a>
</g>
</g>
<!-- p10 CCGT&#45;95CC_2030 (bus)&#45;&gt;p10 CCGT&#45;95CC_2030 (multi&#45;link) -->
<g id="edge17" class="edge">
<title>p10 CCGT&#45;95CC_2030 (bus)&#45;&gt;p10 CCGT&#45;95CC_2030 (multi&#45;link)</title>
<g id="a_edge17"><a xlink:title="Multi&#45;link: p10 CCGT&#45;95CC_2030&#10;From: p10 CCGT&#45;95CC_2030 (bus0)&#10;To: p10 (bus1)&#10;To: atmosphere (bus3)&#10;To: p10 co2 capture (bus2)&#10;Carrier: &#10;Extendable nominal power: False&#10;Nominal power: 0.00 MW&#10;Capital cost: 0.00 currency/MW&#10;Marginal cost: 0.00 currency/MWh&#10;&#10;Optimised nominal power: 0.00 MW&#10;Power time series (p0): N/A MW">
<path fill="none" stroke="black" stroke-width="1.5" d="M551,-879.84C551,-851.46 551,-772.7 551,-761.77"/>
</a>
</g>
<text text-anchor="start" x="551" y="-837.6" font-family="Courier New" font-size="8.00" fill="red">p10 CCGT&#45;95CC_2030</text>
</g>
<!-- p10 co2 storage (store) -->
<g id="node17" class="node">
<title>p10 co2 storage (store)</title>
<g id="a_node17"><a xlink:title="Store: p10 co2 storage&#10;Bus: p10 co2 capture&#10;Carrier: &#10;Extendable nominal energy: False&#10;Nominal energy: 0.00 h&#10;Power set: 0.00 &#10;Cyclic energy: False&#10;Capital cost: 0.00 currency/&#10;Marginal cost: 0.00 currency/h&#10;&#10;Optimised nominal energy: 0.00 h&#10;Energy time series: N/A h&#10;Power time series: N/A ">
<polygon fill="none" stroke="black" stroke-width="2" points="509.5,-36 408.5,-36 408.5,0 509.5,0 509.5,-36"/>
<text text-anchor="start" x="425" y="-16.1" font-family="Courier New" font-size="8.00" fill="red">p10 co2 storage</text>
</a>
</g>
</g>
<!-- p10 co2 capture (bus)&#45;&gt;p10 co2 storage (store) -->
<g id="edge10" class="edge">
<title>p10 co2 capture (bus)&#45;&gt;p10 co2 storage (store)</title>
<path fill="none" stroke="black" stroke-width="1.5" d="M459,-103.47C459,-87.36 459,-65.52 459,-48.08"/>
<polygon fill="black" stroke="black" stroke-width="1.5" points="459,-115.74 453.6,-103.74 458.75,-109.74 458.75,-103.74 459,-103.74 459.25,-103.74 459.25,-109.74 464.4,-103.74 459,-115.74 459,-115.74"/>
<polygon fill="black" stroke="black" stroke-width="1.5" points="459,-36.04 464.4,-48.04 459.25,-42.04 459.25,-48.04 459,-48.04 458.75,-48.04 458.75,-42.04 453.6,-48.04 459,-36.04 459,-36.04"/>
</g>
<!-- atmosphere (bus) -->
<g id="node7" class="node">
<title>atmosphere (bus)</title>
<g id="a_node7"><a xlink:title="Bus: atmosphere&#10;Carrier: AC&#10;Unit: &#10;Generators: 0&#10;Loads: 0&#10;Stores: 1&#10;Storage units: 0&#10;Incoming links: 4&#10;Outgoing links: 2&#10;Lines: 0&#10;&#10;Power time series: N/A ">
<polygon fill="none" stroke="transparent" stroke-width="7.3" points="348,-610.5 110,-610.5 110,-588.5 348,-588.5 348,-610.5"/>
<polyline fill="none" stroke="black" stroke-width="7.3" points="110,-588.5 348,-588.5 "/>
<text text-anchor="start" x="206" y="-597.6" font-family="Courier New" font-size="8.00" fill="red">atmosphere</text>
</a>
</g>
</g>
<!-- atmosphere (store) -->
<g id="node18" class="node">
<title>atmosphere (store)</title>
<g id="a_node18"><a xlink:title="Store: atmosphere&#10;Bus: atmosphere&#10;Carrier: &#10;Extendable nominal energy: False&#10;Nominal energy: 0.00 h&#10;Power set: 0.00 &#10;Cyclic energy: False&#10;Capital cost: 0.00 currency/&#10;Marginal cost: 0.00 currency/h&#10;&#10;Optimised nominal energy: 0.00 h&#10;Energy time series: N/A h&#10;Power time series: N/A ">
<polygon fill="none" stroke="black" stroke-width="2" points="154.5,-454 53.5,-454 53.5,-418 154.5,-418 154.5,-454"/>
<text text-anchor="start" x="81" y="-434.1" font-family="Courier New" font-size="8.00" fill="red">atmosphere</text>
</a>
</g>
</g>
<!-- atmosphere (bus)&#45;&gt;atmosphere (store) -->
<g id="edge11" class="edge">
<title>atmosphere (bus)&#45;&gt;atmosphere (store)</title>
<path fill="none" stroke="black" stroke-width="1.5" d="M213.78,-578.83C191.48,-550.02 149.85,-496.24 124.76,-463.82"/>
<polygon fill="black" stroke="black" stroke-width="1.5" points="221.18,-588.4 209.57,-582.21 217.31,-583.81 213.64,-579.06 213.84,-578.91 214.03,-578.75 217.71,-583.5 218.11,-575.6 221.18,-588.4 221.18,-588.4"/>
<polygon fill="black" stroke="black" stroke-width="1.5" points="117.24,-454.1 128.85,-460.29 121.11,-458.7 124.78,-463.44 124.58,-463.59 124.39,-463.75 120.71,-459 120.31,-466.9 117.24,-454.1 117.24,-454.1"/>
</g>
<!-- atmosphere (bus)&#45;&gt;p9 dac (multi&#45;link) -->
<g id="edge18" class="edge">
<title>atmosphere (bus)&#45;&gt;p9 dac (multi&#45;link)</title>
<g id="a_edge18"><a xlink:title="Multi&#45;link: p9 dac&#10;From: atmosphere (bus0)&#10;To: p9 (bus1)&#10;To: p9 co2 capture (bus2)&#10;Carrier: &#10;Extendable nominal power: False&#10;Nominal power: 0.00 MW&#10;Capital cost: 0.00 currency/MW&#10;Marginal cost: 0.00 currency/MWh&#10;&#10;Optimised nominal power: 0.00 MW&#10;Power time series (p0): N/A MW">
<path fill="none" stroke="black" stroke-width="1.5" d="M229,-588.4C229,-555.25 229,-451.19 229,-438.31"/>
</a>
</g>
<text text-anchor="start" x="229" y="-517.6" font-family="Courier New" font-size="8.00" fill="red">p9 dac</text>
</g>
<!-- atmosphere (bus)&#45;&gt;p10 dac (multi&#45;link) -->
<g id="edge19" class="edge">
<title>atmosphere (bus)&#45;&gt;p10 dac (multi&#45;link)</title>
<g id="a_edge19"><a xlink:title="Multi&#45;link: p10 dac&#10;From: atmosphere (bus0)&#10;To: p10 (bus1)&#10;To: p10 co2 capture (bus2)&#10;Carrier: &#10;Extendable nominal power: False&#10;Nominal power: 0.00 MW&#10;Capital cost: 0.00 currency/MW&#10;Marginal cost: 0.00 currency/MWh&#10;&#10;Optimised nominal power: 0.00 MW&#10;Power time series (p0): N/A MW">
<path fill="none" stroke="black" stroke-width="1.5" d="M235.55,-588.31C269.77,-535.03 427.01,-290.22 439.25,-271.18"/>
</a>
</g>
<text text-anchor="start" x="359" y="-434.1" font-family="Courier New" font-size="8.00" fill="red">p10 dac</text>
</g>
<!-- p9 onwind (generator) -->
<g id="node8" class="node">
<title>p9 onwind (generator)</title>
<g id="a_node8"><a xlink:title="Generator: p9 onwind&#10;Bus: p9&#10;Carrier: &#10;Extendable nominal power: False&#10;Nominal power: 0.00 &#10;Power set: 0.00 &#10;Efficiency: 1.00&#10;Capital cost: 0.00 currency/&#10;Marginal cost: 0.00 currency/h&#10;&#10;Optimised nominal power: 0.00 &#10;Power time series: N/A ">
<ellipse fill="none" stroke="black" stroke-width="2" cx="779" cy="-759.5" rx="39.5" ry="39.5"/>
<text text-anchor="start" x="758.5" y="-757.6" font-family="Courier New" font-size="8.00" fill="red">p9 onwind</text>
</a>
</g>
</g>
<!-- p9 onwind (generator)&#45;&gt;p9 (bus) -->
<g id="edge1" class="edge">
<title>p9 onwind (generator)&#45;&gt;p9 (bus)</title>
<path fill="none" stroke="black" stroke-width="1.5" d="M779,-719.85C779,-683.67 779,-632.06 779,-610.53"/>
</g>
<!-- p9 solar (generator) -->
<g id="node9" class="node">
<title>p9 solar (generator)</title>
<g id="a_node9"><a xlink:title="Generator: p9 solar&#10;Bus: p9&#10;Carrier: &#10;Extendable nominal power: False&#10;Nominal power: 0.00 &#10;Power set: 0.00 &#10;Efficiency: 1.00&#10;Capital cost: 0.00 currency/&#10;Marginal cost: 0.00 currency/h&#10;&#10;Optimised nominal power: 0.00 &#10;Power time series: N/A ">
<ellipse fill="none" stroke="black" stroke-width="2" cx="1121" cy="-759.5" rx="39.5" ry="39.5"/>
<text text-anchor="start" x="1102.5" y="-757.6" font-family="Courier New" font-size="8.00" fill="red">p9 solar</text>
</a>
</g>
</g>
<!-- p9 solar (generator)&#45;&gt;p9 (bus) -->
<g id="edge2" class="edge">
<title>p9 solar (generator)&#45;&gt;p9 (bus)</title>
<path fill="none" stroke="black" stroke-width="1.5" d="M1085.37,-742.04C1014.71,-709.4 858.7,-637.32 801.01,-610.67"/>
</g>
<!-- p9 CCGT&#45;95CC_2030 (generator) -->
<g id="node10" class="node">
<title>p9 CCGT&#45;95CC_2030 (generator)</title>
<g id="a_node10"><a xlink:title="Generator: p9 CCGT&#45;95CC_2030&#10;Bus: p9 CCGT&#45;95CC_2030&#10;Carrier: &#10;Extendable nominal power: False&#10;Nominal power: 0.00 &#10;Power set: 0.00 &#10;Efficiency: 1.00&#10;Capital cost: 0.00 currency/&#10;Marginal cost: 0.00 currency/h&#10;&#10;Optimised nominal power: 0.00 &#10;Power time series: N/A ">
<ellipse fill="none" stroke="black" stroke-width="2" cx="119" cy="-1025.18" rx="47.73" ry="47.73"/>
<text text-anchor="start" x="80.5" y="-1023.28" font-family="Courier New" font-size="8.00" fill="red">p9 CCGT&#45;95CC_2030</text>
</a>
</g>
</g>
<!-- p9 CCGT&#45;95CC_2030 (generator)&#45;&gt;p9 CCGT&#45;95CC_2030 (bus) -->
<g id="edge3" class="edge">
<title>p9 CCGT&#45;95CC_2030 (generator)&#45;&gt;p9 CCGT&#45;95CC_2030 (bus)</title>
<path fill="none" stroke="black" stroke-width="1.5" d="M119,-977.2C119,-950.05 119,-918.18 119,-902.21"/>
</g>
<!-- p10 onwind (generator) -->
<g id="node11" class="node">
<title>p10 onwind (generator)</title>
<g id="a_node11"><a xlink:title="Generator: p10 onwind&#10;Bus: p10&#10;Carrier: &#10;Extendable nominal power: False&#10;Nominal power: 0.00 &#10;Power set: 0.00 &#10;Efficiency: 1.00&#10;Capital cost: 0.00 currency/&#10;Marginal cost: 0.00 currency/h&#10;&#10;Optimised nominal power: 0.00 &#10;Power time series: N/A ">
<ellipse fill="none" stroke="black" stroke-width="2" cx="1236" cy="-599.5" rx="39.5" ry="39.5"/>
<text text-anchor="start" x="1213" y="-597.6" font-family="Courier New" font-size="8.00" fill="red">p10 onwind</text>
</a>
</g>
</g>
<!-- p10 onwind (generator)&#45;&gt;p10 (bus) -->
<g id="edge4" class="edge">
<title>p10 onwind (generator)&#45;&gt;p10 (bus)</title>
<path fill="none" stroke="black" stroke-width="1.5" d="M1229.84,-560.23C1223.86,-523.1 1215.19,-469.23 1211.62,-447.09"/>
</g>
<!-- p10 solar (generator) -->
<g id="node12" class="node">
<title>p10 solar (generator)</title>
<g id="a_node12"><a xlink:title="Generator: p10 solar&#10;Bus: p10&#10;Carrier: &#10;Extendable nominal power: False&#10;Nominal power: 0.00 &#10;Power set: 0.00 &#10;Efficiency: 1.00&#10;Capital cost: 0.00 currency/&#10;Marginal cost: 0.00 currency/h&#10;&#10;Optimised nominal power: 0.00 &#10;Power time series: N/A ">
<ellipse fill="none" stroke="black" stroke-width="2" cx="1387" cy="-599.5" rx="39.5" ry="39.5"/>
<text text-anchor="start" x="1366.5" y="-597.6" font-family="Courier New" font-size="8.00" fill="red">p10 solar</text>
</a>
</g>
</g>
<!-- p10 solar (generator)&#45;&gt;p10 (bus) -->
<g id="edge5" class="edge">
<title>p10 solar (generator)&#45;&gt;p10 (bus)</title>
<path fill="none" stroke="black" stroke-width="1.5" d="M1358.17,-572.19C1318.4,-535.9 1248.53,-472.16 1221.31,-447.32"/>
</g>
<!-- p10 CCGT&#45;95CC_2030 (generator) -->
<g id="node13" class="node">
<title>p10 CCGT&#45;95CC_2030 (generator)</title>
<g id="a_node13"><a xlink:title="Generator: p10 CCGT&#45;95CC_2030&#10;Bus: p10 CCGT&#45;95CC_2030&#10;Carrier: &#10;Extendable nominal power: False&#10;Nominal power: 0.00 &#10;Power set: 0.00 &#10;Efficiency: 1.00&#10;Capital cost: 0.00 currency/&#10;Marginal cost: 0.00 currency/h&#10;&#10;Optimised nominal power: 0.00 &#10;Power time series: N/A ">
<ellipse fill="none" stroke="black" stroke-width="2" cx="551" cy="-1025.18" rx="50.35" ry="50.35"/>
<text text-anchor="start" x="510" y="-1023.28" font-family="Courier New" font-size="8.00" fill="red">p10 CCGT&#45;95CC_2030</text>
</a>
</g>
</g>
<!-- p10 CCGT&#45;95CC_2030 (generator)&#45;&gt;p10 CCGT&#45;95CC_2030 (bus) -->
<g id="edge6" class="edge">
<title>p10 CCGT&#45;95CC_2030 (generator)&#45;&gt;p10 CCGT&#45;95CC_2030 (bus)</title>
<path fill="none" stroke="black" stroke-width="1.5" d="M551,-974.96C551,-948.24 551,-917.58 551,-902.09"/>
</g>
<!-- p9 CCGT&#45;95CC_2030 (multi&#45;link)&#45;&gt;p9 (bus) -->
<g id="edge20" class="edge">
<title>p9 CCGT&#45;95CC_2030 (multi&#45;link)&#45;&gt;p9 (bus)</title>
<g id="a_edge20"><a xlink:title="Multi&#45;link: p9 CCGT&#45;95CC_2030&#10;From: p9 CCGT&#45;95CC_2030 (bus0)&#10;To: p9 (bus1)&#10;Carrier: &#10;Extendable nominal power: False&#10;Nominal power: 0.00 MW&#10;Efficiency: 1.00&#10;Capital cost: 0.00 currency/MW&#10;Marginal cost: 0.00 currency/MWh&#10;&#10;Optimised nominal power: 0.00 MW&#10;Power time series (p0): N/A MW&#10;Power time series (p1): N/A MW">
<path fill="none" stroke="black" stroke-width="1.5" d="M120.89,-758.05C152.59,-750.46 573.44,-649.71 725.05,-613.42"/>
<polygon fill="black" stroke="black" stroke-width="1.5" points="736.76,-610.61 726.34,-618.66 730.98,-612.25 725.15,-613.65 725.09,-613.41 725.03,-613.16 730.86,-611.77 723.83,-608.15 736.76,-610.61 736.76,-610.61"/>
</a>
</g>
<text text-anchor="start" x="449" y="-677.6" font-family="Courier New" font-size="8.00" fill="red">p9 CCGT&#45;95CC_2030</text>
</g>
<!-- p9 CCGT&#45;95CC_2030 (multi&#45;link)&#45;&gt;p9 co2 capture (bus) -->
<g id="edge22" class="edge">
<title>p9 CCGT&#45;95CC_2030 (multi&#45;link)&#45;&gt;p9 co2 capture (bus)</title>
<g id="a_edge22"><a xlink:title="Multi&#45;link: p9 CCGT&#45;95CC_2030&#10;From: p9 CCGT&#45;95CC_2030 (bus0)&#10;To: p9 co2 capture (bus2)&#10;Carrier: &#10;Extendable nominal power: False&#10;Nominal power: 0.00 MW&#10;Efficiency: 1.00&#10;Capital cost: 0.00 currency/MW&#10;Marginal cost: 0.00 currency/MWh&#10;&#10;Optimised nominal power: 0.00 MW&#10;Power time series (p0): N/A MW&#10;Power time series (p2): N/A MW">
<path fill="none" stroke="black" stroke-width="1.5" d="M118.46,-757.21C114.35,-747.31 88,-684 88,-684 88,-684 17,-479 17,-479 17,-479 17,-393 17,-393 17,-393 113.07,-321.38 158.6,-287.45"/>
<polygon fill="black" stroke="black" stroke-width="1.5" points="168.5,-280.07 162.1,-291.57 163.84,-283.85 159.03,-287.44 158.88,-287.24 158.73,-287.04 163.54,-283.45 155.65,-282.91 168.5,-280.07 168.5,-280.07"/>
</a>
</g>
<text text-anchor="start" x="33" y="-517.6" font-family="Courier New" font-size="8.00" fill="red">p9 CCGT&#45;95CC_2030</text>
</g>
<!-- p9 CCGT&#45;95CC_2030 (multi&#45;link)&#45;&gt;atmosphere (bus) -->
<g id="edge21" class="edge">
<title>p9 CCGT&#45;95CC_2030 (multi&#45;link)&#45;&gt;atmosphere (bus)</title>
<g id="a_edge21"><a xlink:title="Multi&#45;link: p9 CCGT&#45;95CC_2030&#10;From: p9 CCGT&#45;95CC_2030 (bus0)&#10;To: atmosphere (bus3)&#10;Carrier: &#10;Extendable nominal power: False&#10;Nominal power: 0.00 MW&#10;Efficiency: 1.00&#10;Capital cost: 0.00 currency/MW&#10;Marginal cost: 0.00 currency/MWh&#10;&#10;Optimised nominal power: 0.00 MW&#10;Power time series (p0): N/A MW&#10;Power time series (p3): N/A MW">
<path fill="none" stroke="black" stroke-width="1.5" d="M118.77,-757.21C117.05,-747.31 106,-684 106,-684 106,-684 106,-675 106,-675 106,-675 165.82,-638.77 202.03,-616.84"/>
<polygon fill="black" stroke="black" stroke-width="1.5" points="212.41,-610.55 204.95,-621.38 207.41,-613.87 202.28,-616.98 202.15,-616.76 202.02,-616.55 207.15,-613.44 199.35,-612.15 212.41,-610.55 212.41,-610.55"/>
</a>
</g>
<text text-anchor="start" x="106" y="-677.6" font-family="Courier New" font-size="8.00" fill="red">p9 CCGT&#45;95CC_2030</text>
</g>
<!-- p10 CCGT&#45;95CC_2030 (multi&#45;link)&#45;&gt;p10 (bus) -->
<g id="edge23" class="edge">
<title>p10 CCGT&#45;95CC_2030 (multi&#45;link)&#45;&gt;p10 (bus)</title>
<g id="a_edge23"><a xlink:title="Multi&#45;link: p10 CCGT&#45;95CC_2030&#10;From: p10 CCGT&#45;95CC_2030 (bus0)&#10;To: p10 (bus1)&#10;Carrier: &#10;Extendable nominal power: False&#10;Nominal power: 0.00 MW&#10;Efficiency: 1.00&#10;Capital cost: 0.00 currency/MW&#10;Marginal cost: 0.00 currency/MWh&#10;&#10;Optimised nominal power: 0.00 MW&#10;Power time series (p0): N/A MW&#10;Power time series (p1): N/A MW">
<path fill="none" stroke="black" stroke-width="1.5" d="M552.71,-757.97C580.34,-749.35 934,-639 934,-639 934,-639 1119.4,-503.31 1186.3,-454.35"/>
<polygon fill="black" stroke="black" stroke-width="1.5" points="1196.31,-447.02 1189.82,-458.46 1191.62,-450.76 1186.78,-454.31 1186.63,-454.1 1186.48,-453.9 1191.32,-450.36 1183.44,-449.75 1196.31,-447.02 1196.31,-447.02"/>
</a>
</g>
<text text-anchor="start" x="1041" y="-597.6" font-family="Courier New" font-size="8.00" fill="red">p10 CCGT&#45;95CC_2030</text>
</g>
<!-- p10 CCGT&#45;95CC_2030 (multi&#45;link)&#45;&gt;p10 co2 capture (bus) -->
<g id="edge25" class="edge">
<title>p10 CCGT&#45;95CC_2030 (multi&#45;link)&#45;&gt;p10 co2 capture (bus)</title>
<g id="a_edge25"><a xlink:title="Multi&#45;link: p10 CCGT&#45;95CC_2030&#10;From: p10 CCGT&#45;95CC_2030 (bus0)&#10;To: p10 co2 capture (bus2)&#10;Carrier: &#10;Extendable nominal power: False&#10;Nominal power: 0.00 MW&#10;Efficiency: 1.00&#10;Capital cost: 0.00 currency/MW&#10;Marginal cost: 0.00 currency/MWh&#10;&#10;Optimised nominal power: 0.00 MW&#10;Power time series (p0): N/A MW&#10;Power time series (p2): N/A MW">
<path fill="none" stroke="black" stroke-width="1.5" d="M551,-757.13C551,-741.69 551,-600.5 551,-600.5 551,-600.5 551,-600.5 551,-268 551,-268 502,-181 502,-181 502,-181 487.34,-162.92 475.13,-147.89"/>
<polygon fill="black" stroke="black" stroke-width="1.5" points="467.29,-138.22 479.04,-144.14 471.27,-142.72 475.05,-147.38 474.85,-147.54 474.66,-147.7 470.88,-143.04 470.66,-150.94 467.29,-138.22 467.29,-138.22"/>
</a>
</g>
<text text-anchor="start" x="551" y="-434.1" font-family="Courier New" font-size="8.00" fill="red">p10 CCGT&#45;95CC_2030</text>
</g>
<!-- p10 CCGT&#45;95CC_2030 (multi&#45;link)&#45;&gt;atmosphere (bus) -->
<g id="edge24" class="edge">
<title>p10 CCGT&#45;95CC_2030 (multi&#45;link)&#45;&gt;atmosphere (bus)</title>
<g id="a_edge24"><a xlink:title="Multi&#45;link: p10 CCGT&#45;95CC_2030&#10;From: p10 CCGT&#45;95CC_2030 (bus0)&#10;To: atmosphere (bus3)&#10;Carrier: &#10;Extendable nominal power: False&#10;Nominal power: 0.00 MW&#10;Efficiency: 1.00&#10;Capital cost: 0.00 currency/MW&#10;Marginal cost: 0.00 currency/MWh&#10;&#10;Optimised nominal power: 0.00 MW&#10;Power time series (p0): N/A MW&#10;Power time series (p3): N/A MW">
<path fill="none" stroke="black" stroke-width="1.5" d="M549.14,-758.02C524.36,-751.68 260,-684 260,-684 260,-684 246.28,-647.04 237.09,-622.3"/>
<polygon fill="black" stroke="black" stroke-width="1.5" points="232.8,-610.74 242.04,-620.11 235.12,-616.28 237.21,-621.9 236.98,-621.99 236.74,-622.08 234.66,-616.45 231.92,-623.87 232.8,-610.74 232.8,-610.74"/>
</a>
</g>
<text text-anchor="start" x="260" y="-677.6" font-family="Courier New" font-size="8.00" fill="red">p10 CCGT&#45;95CC_2030</text>
</g>
<!-- p9 dac (multi&#45;link)&#45;&gt;p9 co2 capture (bus) -->
<g id="edge27" class="edge">
<title>p9 dac (multi&#45;link)&#45;&gt;p9 co2 capture (bus)</title>
<g id="a_edge27"><a xlink:title="Multi&#45;link: p9 dac&#10;From: atmosphere (bus0)&#10;To: p9 co2 capture (bus2)&#10;Carrier: &#10;Extendable nominal power: False&#10;Nominal power: 0.00 MW&#10;Efficiency: 1.00&#10;Capital cost: 0.00 currency/MW&#10;Marginal cost: 0.00 currency/MWh&#10;&#10;Optimised nominal power: 0.00 MW&#10;Power time series (p0): N/A MW&#10;Power time series (p2): N/A MW">
<path fill="none" stroke="black" stroke-width="1.5" d="M228.59,-433.57C225.11,-421.35 200.15,-333.71 188.26,-291.98"/>
<polygon fill="black" stroke="black" stroke-width="1.5" points="184.91,-280.2 193.39,-290.26 186.79,-285.9 188.43,-291.67 188.19,-291.74 187.95,-291.81 186.31,-286.04 183,-293.22 184.91,-280.2 184.91,-280.2"/>
</a>
</g>
<text text-anchor="start" x="206" y="-350.6" font-family="Courier New" font-size="8.00" fill="red">p9 dac</text>
</g>
<!-- p10 dac (multi&#45;link)&#45;&gt;p10 co2 capture (bus) -->
<g id="edge29" class="edge">
<title>p10 dac (multi&#45;link)&#45;&gt;p10 co2 capture (bus)</title>
<g id="a_edge29"><a xlink:title="Multi&#45;link: p10 dac&#10;From: atmosphere (bus0)&#10;To: p10 co2 capture (bus2)&#10;Carrier: &#10;Extendable nominal power: False&#10;Nominal power: 0.00 MW&#10;Efficiency: 1.00&#10;Capital cost: 0.00 currency/MW&#10;Marginal cost: 0.00 currency/MWh&#10;&#10;Optimised nominal power: 0.00 MW&#10;Power time series (p0): N/A MW&#10;Power time series (p2): N/A MW">
<path fill="none" stroke="black" stroke-width="1.5" d="M440.21,-266.43C441.74,-255.19 451.07,-186.44 455.98,-150.24"/>
<polygon fill="black" stroke="black" stroke-width="1.5" points="457.62,-138.15 461.36,-150.77 457.06,-144.13 456.26,-150.08 456.01,-150.04 455.76,-150.01 456.57,-144.06 450.66,-149.32 457.62,-138.15 457.62,-138.15"/>
</a>
</g>
<text text-anchor="start" x="452" y="-183.6" font-family="Courier New" font-size="8.00" fill="red">p10 dac</text>
</g>
</g>
</svg>
