<?xml version="1.0" encoding="UTF-8" standalone="no"?>
<!DOCTYPE svg PUBLIC "-//W3C//DTD SVG 1.1//EN"
 "http://www.w3.org/Graphics/SVG/1.1/DTD/svg11.dtd">
<!-- Generated by graphviz version 2.43.0 (0)
 -->
<!-- Title: Sector&#45;less network (with underground CO2 storage and CO2 transport) Pages: 1 -->
<svg width="1715pt" height="993pt"
 viewBox="0.00 0.00 1714.50 992.58" xmlns="http://www.w3.org/2000/svg" xmlns:xlink="http://www.w3.org/1999/xlink">
<g id="graph0" class="graph" transform="scale(1 1) rotate(0) translate(4 988.58)">
<title>Sector&#45;less network (with underground CO2 storage and CO2 transport)</title>
<g id="a_graph0"><a xlink:title="Network: Sector&#45;less network (with underground CO2 storage and CO2 transport)&#10;Buses: 8 (out of 8)&#10;Generators: 6 (out of 6)&#10;Loads: 2 (out of 2)&#10;Stores: 4 (out of 4)&#10;Storage units: 2 (out of 2)&#10;Links: 4 (out of 4)&#10;Lines: 0 (out of 0)&#10;Snapshots: 1">
<text text-anchor="middle" x="853.25" y="-969.38" font-family="Times,serif" font-size="14.00">Sector&#45;less network (with underground CO2 storage and CO2 transport)</text>
<text text-anchor="middle" x="853.25" y="-922.38" font-family="Times,serif" font-size="14.00"> &#160;&#160;&#160;&#160;&#160;&#160;&#160;&#160;&#160;&#160;</text>
</a>
</g>
<!-- p9 (bus) -->
<g id="node1" class="node">
<title>p9 (bus)</title>
<g id="a_node1"><a xlink:title="Bus: p9&#10;Carrier: AC&#10;Unit: &#10;Generators: 2&#10;Loads: 1&#10;Stores: 0&#10;Storage units: 1&#10;Incoming links: 1&#10;Outgoing links: 1&#10;Lines: 0&#10;&#10;Power time series: N/A ">
<polygon fill="none" stroke="transparent" stroke-width="7.3" points="572.5,-376.5 334.5,-376.5 334.5,-354.5 572.5,-354.5 572.5,-376.5"/>
<polyline fill="none" stroke="black" stroke-width="7.3" points="334.5,-354.5 572.5,-354.5 "/>
<text text-anchor="start" x="448.5" y="-363.6" font-family="Courier New" font-size="8.00" fill="red">p9</text>
</a>
</g>
</g>
<!-- p10 (bus) -->
<g id="node5" class="node">
<title>p10 (bus)</title>
<g id="a_node5"><a xlink:title="Bus: p10&#10;Carrier: AC&#10;Unit: &#10;Generators: 2&#10;Loads: 1&#10;Stores: 0&#10;Storage units: 1&#10;Incoming links: 2&#10;Outgoing links: 0&#10;Lines: 0&#10;&#10;Power time series: N/A ">
<polygon fill="none" stroke="transparent" stroke-width="7.3" points="301.5,-213 63.5,-213 63.5,-191 301.5,-191 301.5,-213"/>
<polyline fill="none" stroke="black" stroke-width="7.3" points="63.5,-191 301.5,-191 "/>
<text text-anchor="start" x="175.5" y="-200.1" font-family="Courier New" font-size="8.00" fill="red">p10</text>
</a>
</g>
</g>
<!-- p9 (bus)&#45;&gt;p10 (bus) -->
<g id="edge15" class="edge">
<title>p9 (bus)&#45;&gt;p10 (bus)</title>
<g id="a_edge15"><a xlink:title="Link: p9||p10&#10;From: p9 (bus0)&#10;To: p10 (bus1)&#10;Carrier: &#10;Extendable nominal power: False&#10;Nominal power: 0.00 MW&#10;Efficiency: 1.00&#10;Capital cost: 0.00 currency/MW&#10;Marginal cost: 0.00 currency/MWh&#10;&#10;Optimised nominal power: 0.00 MW&#10;Power time series (p0): N/A MW&#10;Power time series (p1): N/A MW">
<path fill="none" stroke="black" stroke-width="1.5" d="M436.55,-354.4C391.02,-327.26 265.75,-252.61 209.94,-219.35"/>
<polygon fill="black" stroke="black" stroke-width="1.5" points="199.45,-213.1 212.52,-214.6 204.73,-215.96 209.88,-219.03 209.75,-219.24 209.63,-219.46 204.47,-216.39 206.99,-223.88 199.45,-213.1 199.45,-213.1"/>
</a>
</g>
<text text-anchor="start" x="326.5" y="-283.6" font-family="Courier New" font-size="8.00" fill="red">p9||p10</text>
</g>
<!-- p9 AC (load) -->
<g id="node15" class="node">
<title>p9 AC (load)</title>
<g id="a_node15"><a xlink:title="Load: p9 AC&#10;Bus: p9&#10;Carrier: &#10;Power set: 0.00 ">
<polygon fill="none" stroke="black" stroke-width="2" points="633.5,-159 687.5,-223.5 579.5,-223.5 633.5,-159"/>
<text text-anchor="start" x="622" y="-200.1" font-family="Courier New" font-size="8.00" fill="red">p9 AC</text>
</a>
</g>
</g>
<!-- p9 (bus)&#45;&gt;p9 AC (load) -->
<g id="edge7" class="edge">
<title>p9 (bus)&#45;&gt;p9 AC (load)</title>
<path fill="none" stroke="black" stroke-width="1.5" d="M464.76,-354.4C493.78,-328.36 571.55,-258.58 610.54,-223.6"/>
</g>
<!-- p9 battery (storage unit) -->
<g id="node21" class="node">
<title>p9 battery (storage unit)</title>
<g id="a_node21"><a xlink:title="Storage unit: p9 battery&#10;Bus: p9&#10;Carrier: &#10;Extendable nominal power: False&#10;Nominal power: 0.00 &#10;Power set: 0.00 &#10;Charge cyclic state: False&#10;Capital cost: 0.00 currency/&#10;Marginal cost: 0.00 currency/h&#10;&#10;Optimised nominal power: 0.00 &#10;Power time series: N/A ">
<polygon fill="none" stroke="black" stroke-width="2" points="507.78,-220 400.75,-220 373.22,-184 480.25,-184 507.78,-220"/>
<text text-anchor="start" x="417.5" y="-200.1" font-family="Courier New" font-size="8.00" fill="red">p9 battery</text>
</a>
</g>
</g>
<!-- p9 (bus)&#45;&gt;p9 battery (storage unit) -->
<g id="edge13" class="edge">
<title>p9 (bus)&#45;&gt;p9 battery (storage unit)</title>
<path fill="none" stroke="black" stroke-width="1.5" d="M451.71,-342.27C449.41,-313.73 445.42,-264.12 442.87,-232.46"/>
<polygon fill="black" stroke="black" stroke-width="1.5" points="452.69,-354.4 446.34,-342.87 451.96,-348.44 451.47,-342.46 451.72,-342.44 451.97,-342.42 452.45,-348.4 457.11,-342 452.69,-354.4 452.69,-354.4"/>
<polygon fill="black" stroke="black" stroke-width="1.5" points="441.88,-220.1 448.22,-231.63 442.61,-226.06 443.09,-232.05 442.84,-232.07 442.59,-232.09 442.11,-226.1 437.46,-232.5 441.88,-220.1 441.88,-220.1"/>
</g>
<!-- p9 CCGT&#45;95CC_2030 (bus) -->
<g id="node2" class="node">
<title>p9 CCGT&#45;95CC_2030 (bus)</title>
<g id="a_node2"><a xlink:title="Bus: p9 CCGT&#45;95CC_2030&#10;Carrier: AC&#10;Unit: &#10;Generators: 1&#10;Loads: 0&#10;Stores: 0&#10;Storage units: 0&#10;Incoming links: 0&#10;Outgoing links: 3&#10;Lines: 0&#10;&#10;Power time series: N/A ">
<polygon fill="none" stroke="transparent" stroke-width="7.3" points="898.5,-707.18 660.5,-707.18 660.5,-685.18 898.5,-685.18 898.5,-707.18"/>
<polyline fill="none" stroke="black" stroke-width="7.3" points="660.5,-685.18 898.5,-685.18 "/>
<text text-anchor="start" x="741" y="-694.28" font-family="Courier New" font-size="8.00" fill="red">p9 CCGT&#45;95CC_2030</text>
</a>
</g>
</g>
<!-- p9 CCGT&#45;95CC_2030 (multi&#45;link) -->
<g id="node23" class="node">
<title>p9 CCGT&#45;95CC_2030 (multi&#45;link)</title>
<g id="a_node23"><a xlink:title="Multi&#45;link: p9 CCGT&#45;95CC_2030&#10;From: p9 CCGT&#45;95CC_2030 (bus0)&#10;To: p9 (bus1)&#10;To: p9 atmosphere (bus3)&#10;To: p9 co2 capture (bus2)&#10;Carrier: &#10;Extendable nominal energy: False&#10;Nominal power: 0.00 MW&#10;Capital cost: 0.00 currency/MW&#10;Marginal cost: 0.00 currency/MWh&#10;&#10;Optimised nominal power: 0.00 MW&#10;Power time series (p0): N/A MW">
<ellipse fill="black" stroke="black" cx="779.5" cy="-525.5" rx="2.16" ry="2.16"/>
</a>
</g>
</g>
<!-- p9 CCGT&#45;95CC_2030 (bus)&#45;&gt;p9 CCGT&#45;95CC_2030 (multi&#45;link) -->
<g id="edge17" class="edge">
<title>p9 CCGT&#45;95CC_2030 (bus)&#45;&gt;p9 CCGT&#45;95CC_2030 (multi&#45;link)</title>
<g id="a_edge17"><a xlink:title="Multi&#45;link: p9 CCGT&#45;95CC_2030&#10;From: p9 CCGT&#45;95CC_2030 (bus0)&#10;To: p9 (bus1)&#10;To: p9 atmosphere (bus3)&#10;To: p9 co2 capture (bus2)&#10;Carrier: &#10;Extendable nominal power: False&#10;Nominal power: 0.00 MW&#10;Capital cost: 0.00 currency/MW&#10;Marginal cost: 0.00 currency/MWh&#10;&#10;Optimised nominal power: 0.00 MW&#10;Power time series (p0): N/A MW">
<path fill="none" stroke="black" stroke-width="1.5" d="M779.5,-685.13C779.5,-651.09 779.5,-541.45 779.5,-527.88"/>
</a>
</g>
<text text-anchor="start" x="779.5" y="-603.6" font-family="Courier New" font-size="8.00" fill="red">p9 CCGT&#45;95CC_2030</text>
</g>
<!-- p9 co2 capture (bus) -->
<g id="node3" class="node">
<title>p9 co2 capture (bus)</title>
<g id="a_node3"><a xlink:title="Bus: p9 co2 capture&#10;Carrier: AC&#10;Unit: &#10;Generators: 0&#10;Loads: 0&#10;Stores: 1&#10;Storage units: 0&#10;Incoming links: 2&#10;Outgoing links: 1&#10;Lines: 0&#10;&#10;Power time series: N/A ">
<polygon fill="none" stroke="transparent" stroke-width="7.3" points="1208.5,-376.5 970.5,-376.5 970.5,-354.5 1208.5,-354.5 1208.5,-376.5"/>
<polyline fill="none" stroke="black" stroke-width="7.3" points="970.5,-354.5 1208.5,-354.5 "/>
<text text-anchor="start" x="1057.5" y="-363.6" font-family="Courier New" font-size="8.00" fill="red">p9 co2 capture</text>
</a>
</g>
</g>
<!-- p10 co2 capture (bus) -->
<g id="node7" class="node">
<title>p10 co2 capture (bus)</title>
<g id="a_node7"><a xlink:title="Bus: p10 co2 capture&#10;Carrier: AC&#10;Unit: &#10;Generators: 0&#10;Loads: 0&#10;Stores: 1&#10;Storage units: 0&#10;Incoming links: 2&#10;Outgoing links: 1&#10;Lines: 0&#10;&#10;Power time series: N/A ">
<polygon fill="none" stroke="transparent" stroke-width="7.3" points="1370.5,-213 1132.5,-213 1132.5,-191 1370.5,-191 1370.5,-213"/>
<polyline fill="none" stroke="black" stroke-width="7.3" points="1132.5,-191 1370.5,-191 "/>
<text text-anchor="start" x="1217.5" y="-200.1" font-family="Courier New" font-size="8.00" fill="red">p10 co2 capture</text>
</a>
</g>
</g>
<!-- p9 co2 capture (bus)&#45;&gt;p10 co2 capture (bus) -->
<g id="edge16" class="edge">
<title>p9 co2 capture (bus)&#45;&gt;p10 co2 capture (bus)</title>
<g id="a_edge16"><a xlink:title="Bidirectional link: p9||p10 co2 transport&#10;From: p9 co2 capture (bus0)&#10;To: p10 co2 capture (bus1)&#10;Carrier: &#10;Extendable nominal power: False&#10;Nominal power: 0.00 MW&#10;Efficiency: 1.00&#10;Capital cost: 0.00 currency/MW&#10;Marginal cost: 0.00 currency/MWh&#10;&#10;Optimised nominal power: 0.00 MW&#10;Power time series (p0): N/A MW&#10;Power time series (p1): N/A MW">
<path fill="none" stroke="black" stroke-width="1.5" d="M1088,-342.2C1086.53,-320.26 1084.5,-290 1084.5,-290 1084.5,-290 1084.5,-281 1084.5,-281 1084.5,-281 1170.55,-240.81 1219.12,-218.13"/>
<polygon fill="black" stroke="black" stroke-width="1.5" points="1088.83,-354.45 1082.63,-342.84 1088.17,-348.48 1087.77,-342.5 1088.02,-342.48 1088.27,-342.46 1088.67,-348.45 1093.41,-342.12 1088.83,-354.45 1088.83,-354.45"/>
<polygon fill="black" stroke="black" stroke-width="1.5" points="1230.01,-213.04 1221.42,-223.01 1224.68,-215.8 1219.24,-218.34 1219.14,-218.12 1219.03,-217.89 1224.47,-215.35 1216.85,-213.22 1230.01,-213.04 1230.01,-213.04"/>
</a>
</g>
<text text-anchor="start" x="1084.5" y="-283.6" font-family="Courier New" font-size="8.00" fill="red">p9||p10 co2 transport</text>
</g>
<!-- p9 co2 storage (store) -->
<g id="node17" class="node">
<title>p9 co2 storage (store)</title>
<g id="a_node17"><a xlink:title="Store: p9 co2 storage&#10;Bus: p9 co2 capture&#10;Carrier: &#10;Extendable nominal energy: False&#10;Nominal energy: 0.00 h&#10;Power set: 0.00 &#10;Cyclic energy: False&#10;Capital cost: 0.00 currency/&#10;Marginal cost: 0.00 currency/h&#10;&#10;Optimised nominal energy: 0.00 h&#10;Energy time series: N/A h&#10;Power time series: N/A ">
<polygon fill="none" stroke="black" stroke-width="2" points="1034,-220 933,-220 933,-184 1034,-184 1034,-220"/>
<text text-anchor="start" x="951.5" y="-200.1" font-family="Courier New" font-size="8.00" fill="red">p9 co2 storage</text>
</a>
</g>
</g>
<!-- p9 co2 capture (bus)&#45;&gt;p9 co2 storage (store) -->
<g id="edge9" class="edge">
<title>p9 co2 capture (bus)&#45;&gt;p9 co2 storage (store)</title>
<path fill="none" stroke="black" stroke-width="1.5" d="M1072.71,-345.25C1053.45,-323.18 1024.5,-290 1024.5,-290 1024.5,-290 1008.74,-256.57 996.77,-231.15"/>
<polygon fill="black" stroke="black" stroke-width="1.5" points="1080.73,-354.45 1068.78,-348.96 1076.6,-350.1 1072.66,-345.57 1072.84,-345.41 1073.03,-345.25 1076.98,-349.77 1076.91,-341.86 1080.73,-354.45 1080.73,-354.45"/>
<polygon fill="black" stroke="black" stroke-width="1.5" points="991.6,-220.19 1001.6,-228.74 994.38,-225.51 996.94,-230.94 996.72,-231.04 996.49,-231.15 993.93,-225.72 991.83,-233.35 991.6,-220.19 991.6,-220.19"/>
</g>
<!-- p9 atmosphere (bus) -->
<g id="node4" class="node">
<title>p9 atmosphere (bus)</title>
<g id="a_node4"><a xlink:title="Bus: p9 atmosphere&#10;Carrier: AC&#10;Unit: &#10;Generators: 0&#10;Loads: 0&#10;Stores: 1&#10;Storage units: 0&#10;Incoming links: 1&#10;Outgoing links: 0&#10;Lines: 0&#10;&#10;Power time series: N/A ">
<polygon fill="none" stroke="transparent" stroke-width="7.3" points="898.5,-376.5 660.5,-376.5 660.5,-354.5 898.5,-354.5 898.5,-376.5"/>
<polyline fill="none" stroke="black" stroke-width="7.3" points="660.5,-354.5 898.5,-354.5 "/>
<text text-anchor="start" x="750" y="-363.6" font-family="Courier New" font-size="8.00" fill="red">p9 atmosphere</text>
</a>
</g>
</g>
<!-- p9 atmosphere (store) -->
<g id="node18" class="node">
<title>p9 atmosphere (store)</title>
<g id="a_node18"><a xlink:title="Store: p9 atmosphere&#10;Bus: p9 atmosphere&#10;Carrier: &#10;Extendable nominal energy: False&#10;Nominal energy: 0.00 h&#10;Power set: 0.00 &#10;Cyclic energy: False&#10;Capital cost: 0.00 currency/&#10;Marginal cost: 0.00 currency/h&#10;&#10;Optimised nominal energy: 0.00 h&#10;Energy time series: N/A h&#10;Power time series: N/A ">
<polygon fill="none" stroke="black" stroke-width="2" points="861,-220 760,-220 760,-184 861,-184 861,-220"/>
<text text-anchor="start" x="781" y="-200.1" font-family="Courier New" font-size="8.00" fill="red">p9 atmosphere</text>
</a>
</g>
</g>
<!-- p9 atmosphere (bus)&#45;&gt;p9 atmosphere (store) -->
<g id="edge10" class="edge">
<title>p9 atmosphere (bus)&#45;&gt;p9 atmosphere (store)</title>
<path fill="none" stroke="black" stroke-width="1.5" d="M783.77,-342.27C789.27,-313.61 798.85,-263.68 804.93,-232.04"/>
<polygon fill="black" stroke="black" stroke-width="1.5" points="781.44,-354.4 778.4,-341.59 782.32,-348.46 783.46,-342.57 783.7,-342.61 783.95,-342.66 782.82,-348.55 789,-343.63 781.44,-354.4 781.44,-354.4"/>
<polygon fill="black" stroke="black" stroke-width="1.5" points="807.22,-220.1 810.26,-232.91 806.33,-226.04 805.2,-231.94 804.95,-231.89 804.71,-231.84 805.84,-225.95 799.65,-230.87 807.22,-220.1 807.22,-220.1"/>
</g>
<!-- p10 AC (load) -->
<g id="node16" class="node">
<title>p10 AC (load)</title>
<g id="a_node16"><a xlink:title="Load: p10 AC&#10;Bus: p10&#10;Carrier: &#10;Power set: 0.00 ">
<polygon fill="none" stroke="black" stroke-width="2" points="86.5,0 140.5,-64.5 32.5,-64.5 86.5,0"/>
<text text-anchor="start" x="72.5" y="-41.1" font-family="Courier New" font-size="8.00" fill="red">p10 AC</text>
</a>
</g>
</g>
<!-- p10 (bus)&#45;&gt;p10 AC (load) -->
<g id="edge8" class="edge">
<title>p10 (bus)&#45;&gt;p10 AC (load)</title>
<path fill="none" stroke="black" stroke-width="1.5" d="M176.2,-190.7C160.6,-165.18 119.93,-98.67 99.14,-64.67"/>
</g>
<!-- p10 battery (storage unit) -->
<g id="node22" class="node">
<title>p10 battery (storage unit)</title>
<g id="a_node22"><a xlink:title="Storage unit: p10 battery&#10;Bus: p10&#10;Carrier: &#10;Extendable nominal power: False&#10;Nominal power: 0.00 &#10;Power set: 0.00 &#10;Charge cyclic state: False&#10;Capital cost: 0.00 currency/&#10;Marginal cost: 0.00 currency/h&#10;&#10;Optimised nominal power: 0.00 &#10;Power time series: N/A ">
<polygon fill="none" stroke="black" stroke-width="2" points="346.78,-61 239.75,-61 212.22,-25 319.25,-25 346.78,-61"/>
<text text-anchor="start" x="254.5" y="-41.1" font-family="Courier New" font-size="8.00" fill="red">p10 battery</text>
</a>
</g>
</g>
<!-- p10 (bus)&#45;&gt;p10 battery (storage unit) -->
<g id="edge14" class="edge">
<title>p10 (bus)&#45;&gt;p10 battery (storage unit)</title>
<path fill="none" stroke="black" stroke-width="1.5" d="M195.38,-180.15C212.6,-152.28 243.19,-102.77 262.35,-71.76"/>
<polygon fill="black" stroke="black" stroke-width="1.5" points="188.86,-190.7 190.58,-177.65 191.81,-185.46 194.96,-180.36 195.17,-180.49 195.38,-180.62 192.23,-185.73 199.77,-183.33 188.86,-190.7 188.86,-190.7"/>
<polygon fill="black" stroke="black" stroke-width="1.5" points="268.85,-61.24 267.13,-74.29 265.91,-66.48 262.75,-71.58 262.54,-71.45 262.33,-71.32 265.48,-66.21 257.95,-68.61 268.85,-61.24 268.85,-61.24"/>
</g>
<!-- p10 CCGT&#45;95CC_2030 (bus) -->
<g id="node6" class="node">
<title>p10 CCGT&#45;95CC_2030 (bus)</title>
<g id="a_node6"><a xlink:title="Bus: p10 CCGT&#45;95CC_2030&#10;Carrier: AC&#10;Unit: &#10;Generators: 1&#10;Loads: 0&#10;Stores: 0&#10;Storage units: 0&#10;Incoming links: 0&#10;Outgoing links: 3&#10;Lines: 0&#10;&#10;Power time series: N/A ">
<polygon fill="none" stroke="transparent" stroke-width="7.3" points="1547.5,-536.5 1309.5,-536.5 1309.5,-514.5 1547.5,-514.5 1547.5,-536.5"/>
<polyline fill="none" stroke="black" stroke-width="7.3" points="1309.5,-514.5 1547.5,-514.5 "/>
<text text-anchor="start" x="1387.5" y="-523.6" font-family="Courier New" font-size="8.00" fill="red">p10 CCGT&#45;95CC_2030</text>
</a>
</g>
</g>
<!-- p10 CCGT&#45;95CC_2030 (multi&#45;link) -->
<g id="node24" class="node">
<title>p10 CCGT&#45;95CC_2030 (multi&#45;link)</title>
<g id="a_node24"><a xlink:title="Multi&#45;link: p10 CCGT&#45;95CC_2030&#10;From: p10 CCGT&#45;95CC_2030 (bus0)&#10;To: p10 (bus1)&#10;To: p10 atmosphere (bus3)&#10;To: p10 co2 capture (bus2)&#10;Carrier: &#10;Extendable nominal energy: False&#10;Nominal power: 0.00 MW&#10;Capital cost: 0.00 currency/MW&#10;Marginal cost: 0.00 currency/MWh&#10;&#10;Optimised nominal power: 0.00 MW&#10;Power time series (p0): N/A MW">
<ellipse fill="black" stroke="black" cx="1428.5" cy="-365.5" rx="2.16" ry="2.16"/>
</a>
</g>
</g>
<!-- p10 CCGT&#45;95CC_2030 (bus)&#45;&gt;p10 CCGT&#45;95CC_2030 (multi&#45;link) -->
<g id="edge18" class="edge">
<title>p10 CCGT&#45;95CC_2030 (bus)&#45;&gt;p10 CCGT&#45;95CC_2030 (multi&#45;link)</title>
<g id="a_edge18"><a xlink:title="Multi&#45;link: p10 CCGT&#45;95CC_2030&#10;From: p10 CCGT&#45;95CC_2030 (bus0)&#10;To: p10 (bus1)&#10;To: p10 atmosphere (bus3)&#10;To: p10 co2 capture (bus2)&#10;Carrier: &#10;Extendable nominal power: False&#10;Nominal power: 0.00 MW&#10;Capital cost: 0.00 currency/MW&#10;Marginal cost: 0.00 currency/MWh&#10;&#10;Optimised nominal power: 0.00 MW&#10;Power time series (p0): N/A MW">
<path fill="none" stroke="black" stroke-width="1.5" d="M1428.5,-514.13C1428.5,-481.18 1428.5,-380.26 1428.5,-367.77"/>
</a>
</g>
<text text-anchor="start" x="1428.5" y="-443.6" font-family="Courier New" font-size="8.00" fill="red">p10 CCGT&#45;95CC_2030</text>
</g>
<!-- p10 co2 storage (store) -->
<g id="node19" class="node">
<title>p10 co2 storage (store)</title>
<g id="a_node19"><a xlink:title="Store: p10 co2 storage&#10;Bus: p10 co2 capture&#10;Carrier: &#10;Extendable nominal energy: False&#10;Nominal energy: 0.00 h&#10;Power set: 0.00 &#10;Cyclic energy: False&#10;Capital cost: 0.00 currency/&#10;Marginal cost: 0.00 currency/h&#10;&#10;Optimised nominal energy: 0.00 h&#10;Energy time series: N/A h&#10;Power time series: N/A ">
<polygon fill="none" stroke="black" stroke-width="2" points="1302,-61 1201,-61 1201,-25 1302,-25 1302,-61"/>
<text text-anchor="start" x="1217.5" y="-41.1" font-family="Courier New" font-size="8.00" fill="red">p10 co2 storage</text>
</a>
</g>
</g>
<!-- p10 co2 capture (bus)&#45;&gt;p10 co2 storage (store) -->
<g id="edge11" class="edge">
<title>p10 co2 capture (bus)&#45;&gt;p10 co2 storage (store)</title>
<path fill="none" stroke="black" stroke-width="1.5" d="M1251.5,-178.48C1251.5,-150.88 1251.5,-104.05 1251.5,-73.58"/>
<polygon fill="black" stroke="black" stroke-width="1.5" points="1251.5,-190.7 1246.1,-178.7 1251.25,-184.7 1251.25,-178.7 1251.5,-178.7 1251.75,-178.7 1251.75,-184.7 1256.9,-178.7 1251.5,-190.7 1251.5,-190.7"/>
<polygon fill="black" stroke="black" stroke-width="1.5" points="1251.5,-61.24 1256.9,-73.24 1251.75,-67.24 1251.75,-73.24 1251.5,-73.24 1251.25,-73.24 1251.25,-67.24 1246.1,-73.24 1251.5,-61.24 1251.5,-61.24"/>
</g>
<!-- p10 atmosphere (bus) -->
<g id="node8" class="node">
<title>p10 atmosphere (bus)</title>
<g id="a_node8"><a xlink:title="Bus: p10 atmosphere&#10;Carrier: AC&#10;Unit: &#10;Generators: 0&#10;Loads: 0&#10;Stores: 1&#10;Storage units: 0&#10;Incoming links: 1&#10;Outgoing links: 0&#10;Lines: 0&#10;&#10;Power time series: N/A ">
<polygon fill="none" stroke="transparent" stroke-width="7.3" points="1706.5,-213 1468.5,-213 1468.5,-191 1706.5,-191 1706.5,-213"/>
<polyline fill="none" stroke="black" stroke-width="7.3" points="1468.5,-191 1706.5,-191 "/>
<text text-anchor="start" x="1555.5" y="-200.1" font-family="Courier New" font-size="8.00" fill="red">p10 atmosphere</text>
</a>
</g>
</g>
<!-- p10 atmosphere (store) -->
<g id="node20" class="node">
<title>p10 atmosphere (store)</title>
<g id="a_node20"><a xlink:title="Store: p10 atmosphere&#10;Bus: p10 atmosphere&#10;Carrier: &#10;Extendable nominal energy: False&#10;Nominal energy: 0.00 h&#10;Power set: 0.00 &#10;Cyclic energy: False&#10;Capital cost: 0.00 currency/&#10;Marginal cost: 0.00 currency/h&#10;&#10;Optimised nominal energy: 0.00 h&#10;Energy time series: N/A h&#10;Power time series: N/A ">
<polygon fill="none" stroke="black" stroke-width="2" points="1638,-61 1537,-61 1537,-25 1638,-25 1638,-61"/>
<text text-anchor="start" x="1555.5" y="-41.1" font-family="Courier New" font-size="8.00" fill="red">p10 atmosphere</text>
</a>
</g>
</g>
<!-- p10 atmosphere (bus)&#45;&gt;p10 atmosphere (store) -->
<g id="edge12" class="edge">
<title>p10 atmosphere (bus)&#45;&gt;p10 atmosphere (store)</title>
<path fill="none" stroke="black" stroke-width="1.5" d="M1587.5,-178.48C1587.5,-150.88 1587.5,-104.05 1587.5,-73.58"/>
<polygon fill="black" stroke="black" stroke-width="1.5" points="1587.5,-190.7 1582.1,-178.7 1587.25,-184.7 1587.25,-178.7 1587.5,-178.7 1587.75,-178.7 1587.75,-184.7 1592.9,-178.7 1587.5,-190.7 1587.5,-190.7"/>
<polygon fill="black" stroke="black" stroke-width="1.5" points="1587.5,-61.24 1592.9,-73.24 1587.75,-67.24 1587.75,-73.24 1587.5,-73.24 1587.25,-73.24 1587.25,-67.24 1582.1,-73.24 1587.5,-61.24 1587.5,-61.24"/>
</g>
<!-- p9 onwind (generator) -->
<g id="node9" class="node">
<title>p9 onwind (generator)</title>
<g id="a_node9"><a xlink:title="Generator: p9 onwind&#10;Bus: p9&#10;Carrier: &#10;Extendable nominal power: False&#10;Nominal power: 0.00 &#10;Power set: 0.00 &#10;Efficiency: 1.00&#10;Capital cost: 0.00 currency/&#10;Marginal cost: 0.00 currency/h&#10;&#10;Optimised nominal power: 0.00 &#10;Power time series: N/A ">
<ellipse fill="none" stroke="black" stroke-width="2" cx="320.5" cy="-525.5" rx="39.5" ry="39.5"/>
<text text-anchor="start" x="300" y="-523.6" font-family="Courier New" font-size="8.00" fill="red">p9 onwind</text>
</a>
</g>
</g>
<!-- p9 onwind (generator)&#45;&gt;p9 (bus) -->
<g id="edge1" class="edge">
<title>p9 onwind (generator)&#45;&gt;p9 (bus)</title>
<path fill="none" stroke="black" stroke-width="1.5" d="M345.52,-494.78C375.77,-458.85 425.08,-400.26 444.88,-376.74"/>
</g>
<!-- p9 solar (generator) -->
<g id="node10" class="node">
<title>p9 solar (generator)</title>
<g id="a_node10"><a xlink:title="Generator: p9 solar&#10;Bus: p9&#10;Carrier: &#10;Extendable nominal power: False&#10;Nominal power: 0.00 &#10;Power set: 0.00 &#10;Efficiency: 1.00&#10;Capital cost: 0.00 currency/&#10;Marginal cost: 0.00 currency/h&#10;&#10;Optimised nominal power: 0.00 &#10;Power time series: N/A ">
<ellipse fill="none" stroke="black" stroke-width="2" cx="471.5" cy="-525.5" rx="39.5" ry="39.5"/>
<text text-anchor="start" x="453" y="-523.6" font-family="Courier New" font-size="8.00" fill="red">p9 solar</text>
</a>
</g>
</g>
<!-- p9 solar (generator)&#45;&gt;p9 (bus) -->
<g id="edge2" class="edge">
<title>p9 solar (generator)&#45;&gt;p9 (bus)</title>
<path fill="none" stroke="black" stroke-width="1.5" d="M467.1,-485.85C462.98,-449.67 457.1,-398.06 454.64,-376.53"/>
</g>
<!-- p9 CCGT&#45;95CC_2030 (generator) -->
<g id="node11" class="node">
<title>p9 CCGT&#45;95CC_2030 (generator)</title>
<g id="a_node11"><a xlink:title="Generator: p9 CCGT&#45;95CC_2030&#10;Bus: p9 CCGT&#45;95CC_2030&#10;Carrier: &#10;Extendable nominal power: False&#10;Nominal power: 0.00 &#10;Power set: 0.00 &#10;Efficiency: 1.00&#10;Capital cost: 0.00 currency/&#10;Marginal cost: 0.00 currency/h&#10;&#10;Optimised nominal power: 0.00 &#10;Power time series: N/A ">
<ellipse fill="none" stroke="black" stroke-width="2" cx="779.5" cy="-866.97" rx="47.73" ry="47.73"/>
<text text-anchor="start" x="741" y="-865.07" font-family="Courier New" font-size="8.00" fill="red">p9 CCGT&#45;95CC_2030</text>
</a>
</g>
</g>
<!-- p9 CCGT&#45;95CC_2030 (generator)&#45;&gt;p9 CCGT&#45;95CC_2030 (bus) -->
<g id="edge3" class="edge">
<title>p9 CCGT&#45;95CC_2030 (generator)&#45;&gt;p9 CCGT&#45;95CC_2030 (bus)</title>
<path fill="none" stroke="black" stroke-width="1.5" d="M779.5,-818.95C779.5,-780.52 779.5,-729.12 779.5,-707.47"/>
</g>
<!-- p10 onwind (generator) -->
<g id="node12" class="node">
<title>p10 onwind (generator)</title>
<g id="a_node12"><a xlink:title="Generator: p10 onwind&#10;Bus: p10&#10;Carrier: &#10;Extendable nominal power: False&#10;Nominal power: 0.00 &#10;Power set: 0.00 &#10;Efficiency: 1.00&#10;Capital cost: 0.00 currency/&#10;Marginal cost: 0.00 currency/h&#10;&#10;Optimised nominal power: 0.00 &#10;Power time series: N/A ">
<ellipse fill="none" stroke="black" stroke-width="2" cx="190.5" cy="-365.5" rx="39.5" ry="39.5"/>
<text text-anchor="start" x="167.5" y="-363.6" font-family="Courier New" font-size="8.00" fill="red">p10 onwind</text>
</a>
</g>
</g>
<!-- p10 onwind (generator)&#45;&gt;p10 (bus) -->
<g id="edge4" class="edge">
<title>p10 onwind (generator)&#45;&gt;p10 (bus)</title>
<path fill="none" stroke="black" stroke-width="1.5" d="M188.58,-325.82C186.74,-288.68 184.09,-235.06 183,-213.03"/>
</g>
<!-- p10 solar (generator) -->
<g id="node13" class="node">
<title>p10 solar (generator)</title>
<g id="a_node13"><a xlink:title="Generator: p10 solar&#10;Bus: p10&#10;Carrier: &#10;Extendable nominal power: False&#10;Nominal power: 0.00 &#10;Power set: 0.00 &#10;Efficiency: 1.00&#10;Capital cost: 0.00 currency/&#10;Marginal cost: 0.00 currency/h&#10;&#10;Optimised nominal power: 0.00 &#10;Power time series: N/A ">
<ellipse fill="none" stroke="black" stroke-width="2" cx="39.5" cy="-365.5" rx="39.5" ry="39.5"/>
<text text-anchor="start" x="19" y="-363.6" font-family="Courier New" font-size="8.00" fill="red">p10 solar</text>
</a>
</g>
</g>
<!-- p10 solar (generator)&#45;&gt;p10 (bus) -->
<g id="edge5" class="edge">
<title>p10 solar (generator)&#45;&gt;p10 (bus)</title>
<path fill="none" stroke="black" stroke-width="1.5" d="M65.4,-335.25C97.91,-298.53 152.03,-237.42 173.41,-213.27"/>
</g>
<!-- p10 CCGT&#45;95CC_2030 (generator) -->
<g id="node14" class="node">
<title>p10 CCGT&#45;95CC_2030 (generator)</title>
<g id="a_node14"><a xlink:title="Generator: p10 CCGT&#45;95CC_2030&#10;Bus: p10 CCGT&#45;95CC_2030&#10;Carrier: &#10;Extendable nominal power: False&#10;Nominal power: 0.00 &#10;Power set: 0.00 &#10;Efficiency: 1.00&#10;Capital cost: 0.00 currency/&#10;Marginal cost: 0.00 currency/h&#10;&#10;Optimised nominal power: 0.00 &#10;Power time series: N/A ">
<ellipse fill="none" stroke="black" stroke-width="2" cx="1428.5" cy="-696.18" rx="50.35" ry="50.35"/>
<text text-anchor="start" x="1387.5" y="-694.28" font-family="Courier New" font-size="8.00" fill="red">p10 CCGT&#45;95CC_2030</text>
</a>
</g>
</g>
<!-- p10 CCGT&#45;95CC_2030 (generator)&#45;&gt;p10 CCGT&#45;95CC_2030 (bus) -->
<g id="edge6" class="edge">
<title>p10 CCGT&#45;95CC_2030 (generator)&#45;&gt;p10 CCGT&#45;95CC_2030 (bus)</title>
<path fill="none" stroke="black" stroke-width="1.5" d="M1428.5,-645.93C1428.5,-607.62 1428.5,-557.55 1428.5,-536.5"/>
</g>
<!-- p9 CCGT&#45;95CC_2030 (multi&#45;link)&#45;&gt;p9 (bus) -->
<g id="edge19" class="edge">
<title>p9 CCGT&#45;95CC_2030 (multi&#45;link)&#45;&gt;p9 (bus)</title>
<g id="a_edge19"><a xlink:title="Multi&#45;link: p9 CCGT&#45;95CC_2030&#10;From: p9 CCGT&#45;95CC_2030 (bus0)&#10;To: p9 (bus1)&#10;Carrier: &#10;Extendable nominal power: False&#10;Nominal power: 0.00 MW&#10;Efficiency: 1.00&#10;Capital cost: 0.00 currency/MW&#10;Marginal cost: 0.00 currency/MWh&#10;&#10;Optimised nominal power: 0.00 MW&#10;Power time series (p0): N/A MW&#10;Power time series (p1): N/A MW">
<path fill="none" stroke="black" stroke-width="1.5" d="M778.05,-523.8C759.26,-514.69 563.38,-419.76 485.34,-381.93"/>
<polygon fill="black" stroke="black" stroke-width="1.5" points="474.29,-376.57 487.44,-376.95 479.8,-378.97 485.2,-381.58 485.09,-381.81 484.98,-382.03 479.58,-379.42 482.73,-386.67 474.29,-376.57 474.29,-376.57"/>
</a>
</g>
<text text-anchor="start" x="616.5" y="-443.6" font-family="Courier New" font-size="8.00" fill="red">p9 CCGT&#45;95CC_2030</text>
</g>
<!-- p9 CCGT&#45;95CC_2030 (multi&#45;link)&#45;&gt;p9 co2 capture (bus) -->
<g id="edge21" class="edge">
<title>p9 CCGT&#45;95CC_2030 (multi&#45;link)&#45;&gt;p9 co2 capture (bus)</title>
<g id="a_edge21"><a xlink:title="Multi&#45;link: p9 CCGT&#45;95CC_2030&#10;From: p9 CCGT&#45;95CC_2030 (bus0)&#10;To: p9 co2 capture (bus2)&#10;Carrier: &#10;Extendable nominal power: False&#10;Nominal power: 0.00 MW&#10;Efficiency: 1.00&#10;Capital cost: 0.00 currency/MW&#10;Marginal cost: 0.00 currency/MWh&#10;&#10;Optimised nominal power: 0.00 MW&#10;Power time series (p0): N/A MW&#10;Power time series (p2): N/A MW">
<path fill="none" stroke="black" stroke-width="1.5" d="M780.88,-523.8C798.71,-514.71 984.25,-420.15 1058.77,-382.16"/>
<polygon fill="black" stroke="black" stroke-width="1.5" points="1069.73,-376.57 1061.49,-386.84 1064.5,-379.52 1059.15,-382.25 1059.04,-382.02 1058.93,-381.8 1064.27,-379.08 1056.59,-377.21 1069.73,-376.57 1069.73,-376.57"/>
</a>
</g>
<text text-anchor="start" x="934.5" y="-443.6" font-family="Courier New" font-size="8.00" fill="red">p9 CCGT&#45;95CC_2030</text>
</g>
<!-- p9 CCGT&#45;95CC_2030 (multi&#45;link)&#45;&gt;p9 atmosphere (bus) -->
<g id="edge20" class="edge">
<title>p9 CCGT&#45;95CC_2030 (multi&#45;link)&#45;&gt;p9 atmosphere (bus)</title>
<g id="a_edge20"><a xlink:title="Multi&#45;link: p9 CCGT&#45;95CC_2030&#10;From: p9 CCGT&#45;95CC_2030 (bus0)&#10;To: p9 atmosphere (bus3)&#10;Carrier: &#10;Extendable nominal power: False&#10;Nominal power: 0.00 MW&#10;Efficiency: 1.00&#10;Capital cost: 0.00 currency/MW&#10;Marginal cost: 0.00 currency/MWh&#10;&#10;Optimised nominal power: 0.00 MW&#10;Power time series (p0): N/A MW&#10;Power time series (p3): N/A MW">
<path fill="none" stroke="black" stroke-width="1.5" d="M779.5,-523.13C779.5,-511.56 779.5,-429.37 779.5,-388.9"/>
<polygon fill="black" stroke="black" stroke-width="1.5" points="779.5,-376.72 784.9,-388.72 779.75,-382.72 779.75,-388.72 779.5,-388.72 779.25,-388.72 779.25,-382.72 774.1,-388.72 779.5,-376.72 779.5,-376.72"/>
</a>
</g>
<text text-anchor="start" x="779.5" y="-443.6" font-family="Courier New" font-size="8.00" fill="red">p9 CCGT&#45;95CC_2030</text>
</g>
<!-- p10 CCGT&#45;95CC_2030 (multi&#45;link)&#45;&gt;p10 (bus) -->
<g id="edge22" class="edge">
<title>p10 CCGT&#45;95CC_2030 (multi&#45;link)&#45;&gt;p10 (bus)</title>
<g id="a_edge22"><a xlink:title="Multi&#45;link: p10 CCGT&#45;95CC_2030&#10;From: p10 CCGT&#45;95CC_2030 (bus0)&#10;To: p10 (bus1)&#10;Carrier: &#10;Extendable nominal power: False&#10;Nominal power: 0.00 MW&#10;Efficiency: 1.00&#10;Capital cost: 0.00 currency/MW&#10;Marginal cost: 0.00 currency/MWh&#10;&#10;Optimised nominal power: 0.00 MW&#10;Power time series (p0): N/A MW&#10;Power time series (p1): N/A MW">
<path fill="none" stroke="black" stroke-width="1.5" d="M1426.74,-363.88C1405.24,-356.23 1193.5,-281 1193.5,-281 1193.5,-281 337.5,-245 337.5,-245 337.5,-245 276.81,-228.56 231.39,-216.25"/>
<polygon fill="black" stroke="black" stroke-width="1.5" points="219.63,-213.06 232.62,-210.99 225.48,-214.39 231.27,-215.96 231.21,-216.2 231.14,-216.44 225.35,-214.87 229.8,-221.41 219.63,-213.06 219.63,-213.06"/>
</a>
</g>
<text text-anchor="start" x="1217.5" y="-283.6" font-family="Courier New" font-size="8.00" fill="red">p10 CCGT&#45;95CC_2030</text>
</g>
<!-- p10 CCGT&#45;95CC_2030 (multi&#45;link)&#45;&gt;p10 co2 capture (bus) -->
<g id="edge24" class="edge">
<title>p10 CCGT&#45;95CC_2030 (multi&#45;link)&#45;&gt;p10 co2 capture (bus)</title>
<g id="a_edge24"><a xlink:title="Multi&#45;link: p10 CCGT&#45;95CC_2030&#10;From: p10 CCGT&#45;95CC_2030 (bus0)&#10;To: p10 co2 capture (bus2)&#10;Carrier: &#10;Extendable nominal power: False&#10;Nominal power: 0.00 MW&#10;Efficiency: 1.00&#10;Capital cost: 0.00 currency/MW&#10;Marginal cost: 0.00 currency/MWh&#10;&#10;Optimised nominal power: 0.00 MW&#10;Power time series (p0): N/A MW&#10;Power time series (p2): N/A MW">
<path fill="none" stroke="black" stroke-width="1.5" d="M1427.43,-363.32C1418.19,-353.17 1352.5,-281 1352.5,-281 1352.5,-281 1304.15,-243.66 1274.36,-220.65"/>
<polygon fill="black" stroke="black" stroke-width="1.5" points="1264.7,-213.2 1277.5,-216.26 1269.61,-216.67 1274.35,-220.33 1274.2,-220.53 1274.05,-220.73 1269.3,-217.06 1270.9,-224.81 1264.7,-213.2 1264.7,-213.2"/>
</a>
</g>
<text text-anchor="start" x="1359.5" y="-283.6" font-family="Courier New" font-size="8.00" fill="red">p10 CCGT&#45;95CC_2030</text>
</g>
<!-- p10 CCGT&#45;95CC_2030 (multi&#45;link)&#45;&gt;p10 atmosphere (bus) -->
<g id="edge23" class="edge">
<title>p10 CCGT&#45;95CC_2030 (multi&#45;link)&#45;&gt;p10 atmosphere (bus)</title>
<g id="a_edge23"><a xlink:title="Multi&#45;link: p10 CCGT&#45;95CC_2030&#10;From: p10 CCGT&#45;95CC_2030 (bus0)&#10;To: p10 atmosphere (bus3)&#10;Carrier: &#10;Extendable nominal power: False&#10;Nominal power: 0.00 MW&#10;Efficiency: 1.00&#10;Capital cost: 0.00 currency/MW&#10;Marginal cost: 0.00 currency/MWh&#10;&#10;Optimised nominal power: 0.00 MW&#10;Power time series (p0): N/A MW&#10;Power time series (p3): N/A MW">
<path fill="none" stroke="black" stroke-width="1.5" d="M1429.67,-363.45C1439.76,-354.39 1511.5,-290 1511.5,-290 1511.5,-290 1548.01,-248.2 1570.42,-222.55"/>
<polygon fill="black" stroke="black" stroke-width="1.5" points="1578.48,-213.32 1574.66,-225.91 1574.72,-218 1570.78,-222.52 1570.59,-222.36 1570.4,-222.19 1574.35,-217.68 1566.52,-218.81 1578.48,-213.32 1578.48,-213.32"/>
</a>
</g>
<text text-anchor="start" x="1517.5" y="-283.6" font-family="Courier New" font-size="8.00" fill="red">p10 CCGT&#45;95CC_2030</text>
</g>
</g>
</svg>
