<?xml version="1.0" encoding="UTF-8" standalone="no"?>
<!DOCTYPE svg PUBLIC "-//W3C//DTD SVG 1.1//EN"
 "http://www.w3.org/Graphics/SVG/1.1/DTD/svg11.dtd">
<!-- Generated by graphviz version 2.43.0 (0)
 -->
<!-- Title: Sector&#45;based network (with underground CO2 storage and CO2 transport and DAC node&#45;based) Pages: 1 -->
<svg width="1827pt" height="848pt"
 viewBox="0.00 0.00 1827.00 848.32" xmlns="http://www.w3.org/2000/svg" xmlns:xlink="http://www.w3.org/1999/xlink">
<g id="graph0" class="graph" transform="scale(1 1) rotate(0) translate(4 844.32)">
<title>Sector&#45;based network (with underground CO2 storage and CO2 transport and DAC node&#45;based)</title>
<g id="a_graph0"><a xlink:title="Network: Sector&#45;based network (with underground CO2 storage and CO2 transport and DAC node&#45;based)&#10;Buses: 9 (out of 9)&#10;Generators: 0 (out of 0)&#10;Loads: 2 (out of 2)&#10;Stores: 3 (out of 3)&#10;Storage units: 2 (out of 2)&#10;Links: 10 (out of 10)&#10;Lines: 0 (out of 0)&#10;Snapshots: 1">
<text text-anchor="middle" x="909.5" y="-825.12" font-family="Times,serif" font-size="14.00">Sector&#45;based network (with underground CO2 storage and CO2 transport and DAC node&#45;based)</text>
<text text-anchor="middle" x="909.5" y="-778.12" font-family="Times,serif" font-size="14.00"> &#160;&#160;&#160;&#160;&#160;&#160;&#160;&#160;&#160;&#160;</text>
</a>
</g>
<!-- CA gas (bus) -->
<g id="node1" class="node">
<title>CA gas (bus)</title>
<g id="a_node1"><a xlink:title="Bus: CA gas&#10;Carrier: AC&#10;Unit: &#10;Generators: 0&#10;Loads: 0&#10;Stores: 0&#10;Storage units: 0&#10;Incoming links: 0&#10;Outgoing links: 14&#10;Lines: 0&#10;&#10;Power time series: N/A ">
<polygon fill="none" stroke="transparent" stroke-width="7.3" points="1095,-770.32 857,-770.32 857,-748.32 1095,-748.32 1095,-770.32"/>
<polyline fill="none" stroke="black" stroke-width="7.3" points="857,-748.32 1095,-748.32 "/>
<text text-anchor="start" x="962" y="-757.42" font-family="Courier New" font-size="8.00" fill="red">CA gas</text>
</a>
</g>
</g>
<!-- p9 OCGT (multi&#45;link) -->
<g id="node17" class="node">
<title>p9 OCGT (multi&#45;link)</title>
<g id="a_node17"><a xlink:title="Multi&#45;link: p9 OCGT&#10;From: CA gas (bus0)&#10;To: p9 (bus1)&#10;To: CA gas&#45;ch4 (bus3)&#10;To: p9 pwr atmosphere (bus2)&#10;Carrier: &#10;Extendable nominal energy: False&#10;Nominal power: 0.00 MW&#10;Capital cost: 0.00 currency/MW&#10;Marginal cost: 0.00 currency/MWh&#10;&#10;Optimised nominal power: 0.00 MW&#10;Power time series (p0): N/A MW">
<ellipse fill="black" stroke="black" cx="1165" cy="-665.16" rx="2.16" ry="2.16"/>
</a>
</g>
</g>
<!-- CA gas (bus)&#45;&gt;p9 OCGT (multi&#45;link) -->
<g id="edge12" class="edge">
<title>CA gas (bus)&#45;&gt;p9 OCGT (multi&#45;link)</title>
<g id="a_edge12"><a xlink:title="Multi&#45;link: p9 OCGT&#10;From: CA gas (bus0)&#10;To: p9 (bus1)&#10;To: CA gas&#45;ch4 (bus3)&#10;To: p9 pwr atmosphere (bus2)&#10;Carrier: &#10;Extendable nominal power: False&#10;Nominal power: 0.00 MW&#10;Capital cost: 0.00 currency/MW&#10;Marginal cost: 0.00 currency/MWh&#10;&#10;Optimised nominal power: 0.00 MW&#10;Power time series (p0): N/A MW">
<path fill="none" stroke="black" stroke-width="1.5" d="M996.59,-748.28C1042.13,-726.08 1148.55,-674.18 1163.29,-666.99"/>
</a>
</g>
<text text-anchor="start" x="1088" y="-705.92" font-family="Courier New" font-size="8.00" fill="red">p9 OCGT</text>
</g>
<!-- p9 CCGT&#45;95CC_2030 (multi&#45;link) -->
<g id="node18" class="node">
<title>p9 CCGT&#45;95CC_2030 (multi&#45;link)</title>
<g id="a_node18"><a xlink:title="Multi&#45;link: p9 CCGT&#45;95CC_2030&#10;From: CA gas (bus0)&#10;To: p9 (bus1)&#10;To: CA gas&#45;ch4 (bus3)&#10;To: p9 pwr atmosphere (bus2)&#10;To: p9 co2 capture (bus4)&#10;Carrier: &#10;Extendable nominal energy: False&#10;Nominal power: 0.00 MW&#10;Capital cost: 0.00 currency/MW&#10;Marginal cost: 0.00 currency/MWh&#10;&#10;Optimised nominal power: 0.00 MW&#10;Power time series (p0): N/A MW">
<ellipse fill="black" stroke="black" cx="1449" cy="-665.16" rx="2.16" ry="2.16"/>
</a>
</g>
</g>
<!-- CA gas (bus)&#45;&gt;p9 CCGT&#45;95CC_2030 (multi&#45;link) -->
<g id="edge13" class="edge">
<title>CA gas (bus)&#45;&gt;p9 CCGT&#45;95CC_2030 (multi&#45;link)</title>
<g id="a_edge13"><a xlink:title="Multi&#45;link: p9 CCGT&#45;95CC_2030&#10;From: CA gas (bus0)&#10;To: p9 (bus1)&#10;To: CA gas&#45;ch4 (bus3)&#10;To: p9 pwr atmosphere (bus2)&#10;To: p9 co2 capture (bus4)&#10;Carrier: &#10;Extendable nominal power: False&#10;Nominal power: 0.00 MW&#10;Capital cost: 0.00 currency/MW&#10;Marginal cost: 0.00 currency/MWh&#10;&#10;Optimised nominal power: 0.00 MW&#10;Power time series (p0): N/A MW">
<path fill="none" stroke="black" stroke-width="1.5" d="M1027.52,-748.28C1144.36,-725.52 1421.37,-671.54 1447.08,-666.53"/>
</a>
</g>
<text text-anchor="start" x="1255" y="-705.92" font-family="Courier New" font-size="8.00" fill="red">p9 CCGT&#45;95CC_2030</text>
</g>
<!-- p10 OCGT (multi&#45;link) -->
<g id="node19" class="node">
<title>p10 OCGT (multi&#45;link)</title>
<g id="a_node19"><a xlink:title="Multi&#45;link: p10 OCGT&#10;From: CA gas (bus0)&#10;To: p10 (bus1)&#10;To: CA gas&#45;ch4 (bus3)&#10;To: p10 pwr atmosphere (bus2)&#10;Carrier: &#10;Extendable nominal energy: False&#10;Nominal power: 0.00 MW&#10;Capital cost: 0.00 currency/MW&#10;Marginal cost: 0.00 currency/MWh&#10;&#10;Optimised nominal power: 0.00 MW&#10;Power time series (p0): N/A MW">
<ellipse fill="black" stroke="black" cx="804" cy="-665.16" rx="2.16" ry="2.16"/>
</a>
</g>
</g>
<!-- CA gas (bus)&#45;&gt;p10 OCGT (multi&#45;link) -->
<g id="edge14" class="edge">
<title>CA gas (bus)&#45;&gt;p10 OCGT (multi&#45;link)</title>
<g id="a_edge14"><a xlink:title="Multi&#45;link: p10 OCGT&#10;From: CA gas (bus0)&#10;To: p10 (bus1)&#10;To: CA gas&#45;ch4 (bus3)&#10;To: p10 pwr atmosphere (bus2)&#10;Carrier: &#10;Extendable nominal power: False&#10;Nominal power: 0.00 MW&#10;Capital cost: 0.00 currency/MW&#10;Marginal cost: 0.00 currency/MWh&#10;&#10;Optimised nominal power: 0.00 MW&#10;Power time series (p0): N/A MW">
<path fill="none" stroke="black" stroke-width="1.5" d="M957.27,-748.28C915.82,-726.08 818.97,-674.18 805.55,-666.99"/>
</a>
</g>
<text text-anchor="start" x="890" y="-705.92" font-family="Courier New" font-size="8.00" fill="red">p10 OCGT</text>
</g>
<!-- p10 CCGT&#45;95CC_2030 (multi&#45;link) -->
<g id="node20" class="node">
<title>p10 CCGT&#45;95CC_2030 (multi&#45;link)</title>
<g id="a_node20"><a xlink:title="Multi&#45;link: p10 CCGT&#45;95CC_2030&#10;From: CA gas (bus0)&#10;To: p10 (bus1)&#10;To: CA gas&#45;ch4 (bus3)&#10;To: p10 pwr atmosphere (bus2)&#10;To: p10 co2 capture (bus4)&#10;Carrier: &#10;Extendable nominal energy: False&#10;Nominal power: 0.00 MW&#10;Capital cost: 0.00 currency/MW&#10;Marginal cost: 0.00 currency/MWh&#10;&#10;Optimised nominal power: 0.00 MW&#10;Power time series (p0): N/A MW">
<ellipse fill="black" stroke="black" cx="452" cy="-665.16" rx="2.16" ry="2.16"/>
</a>
</g>
</g>
<!-- CA gas (bus)&#45;&gt;p10 CCGT&#45;95CC_2030 (multi&#45;link) -->
<g id="edge15" class="edge">
<title>CA gas (bus)&#45;&gt;p10 CCGT&#45;95CC_2030 (multi&#45;link)</title>
<g id="a_edge15"><a xlink:title="Multi&#45;link: p10 CCGT&#45;95CC_2030&#10;From: CA gas (bus0)&#10;To: p10 (bus1)&#10;To: CA gas&#45;ch4 (bus3)&#10;To: p10 pwr atmosphere (bus2)&#10;To: p10 co2 capture (bus4)&#10;Carrier: &#10;Extendable nominal power: False&#10;Nominal power: 0.00 MW&#10;Capital cost: 0.00 currency/MW&#10;Marginal cost: 0.00 currency/MWh&#10;&#10;Optimised nominal power: 0.00 MW&#10;Power time series (p0): N/A MW">
<path fill="none" stroke="black" stroke-width="1.5" d="M918.93,-748.28C788.95,-725.42 480.09,-671.1 453.79,-666.48"/>
</a>
</g>
<text text-anchor="start" x="714" y="-705.92" font-family="Courier New" font-size="8.00" fill="red">p10 CCGT&#45;95CC_2030</text>
</g>
<!-- CA pwr&#45;co2 (bus) -->
<g id="node2" class="node">
<title>CA pwr&#45;co2 (bus)</title>
<g id="a_node2"><a xlink:title="Bus: CA pwr&#45;co2&#10;Carrier: AC&#10;Unit: &#10;Generators: 0&#10;Loads: 0&#10;Stores: 1&#10;Storage units: 0&#10;Incoming links: 2&#10;Outgoing links: 0&#10;Lines: 0&#10;&#10;Power time series: N/A ">
<polygon fill="none" stroke="transparent" stroke-width="7.3" points="1137,-447 899,-447 899,-425 1137,-425 1137,-447"/>
<polyline fill="none" stroke="black" stroke-width="7.3" points="899,-425 1137,-425 "/>
<text text-anchor="start" x="995" y="-434.1" font-family="Courier New" font-size="8.00" fill="red">CA pwr&#45;co2</text>
</a>
</g>
</g>
<!-- CA pwr&#45;co2 (store) -->
<g id="node12" class="node">
<title>CA pwr&#45;co2 (store)</title>
<g id="a_node12"><a xlink:title="Store: CA pwr&#45;co2&#10;Bus: CA pwr&#45;co2&#10;Carrier: &#10;Extendable nominal energy: False&#10;Nominal energy: 0.00 h&#10;Power set: 0.00 &#10;Cyclic energy: False&#10;Capital cost: 0.00 currency/&#10;Marginal cost: 0.00 currency/h&#10;&#10;Optimised nominal energy: 0.00 h&#10;Energy time series: N/A h&#10;Power time series: N/A ">
<polygon fill="none" stroke="black" stroke-width="2" points="1080.5,-287 979.5,-287 979.5,-251 1080.5,-251 1080.5,-287"/>
<text text-anchor="start" x="1007" y="-267.1" font-family="Courier New" font-size="8.00" fill="red">CA pwr&#45;co2</text>
</a>
</g>
</g>
<!-- CA pwr&#45;co2 (bus)&#45;&gt;CA pwr&#45;co2 (store) -->
<g id="edge3" class="edge">
<title>CA pwr&#45;co2 (bus)&#45;&gt;CA pwr&#45;co2 (store)</title>
<path fill="none" stroke="black" stroke-width="1.5" d="M1019.62,-412.7C1021.75,-383.41 1025.5,-331.9 1027.86,-299.44"/>
<polygon fill="black" stroke="black" stroke-width="1.5" points="1018.75,-424.68 1014.24,-412.32 1018.94,-418.68 1019.37,-412.69 1019.62,-412.71 1019.87,-412.73 1019.44,-418.71 1025.01,-413.1 1018.75,-424.68 1018.75,-424.68"/>
<polygon fill="black" stroke="black" stroke-width="1.5" points="1028.75,-287.21 1033.26,-299.57 1028.56,-293.21 1028.13,-299.2 1027.88,-299.18 1027.63,-299.16 1028.06,-293.18 1022.49,-298.79 1028.75,-287.21 1028.75,-287.21"/>
</g>
<!-- CA gas&#45;ch4 (bus) -->
<g id="node3" class="node">
<title>CA gas&#45;ch4 (bus)</title>
<g id="a_node3"><a xlink:title="Bus: CA gas&#45;ch4&#10;Carrier: AC&#10;Unit: &#10;Generators: 0&#10;Loads: 0&#10;Stores: 0&#10;Storage units: 0&#10;Incoming links: 4&#10;Outgoing links: 0&#10;Lines: 0&#10;&#10;Power time series: N/A ">
<polygon fill="none" stroke="transparent" stroke-width="7.3" points="1092,-582 854,-582 854,-560 1092,-560 1092,-582"/>
<polyline fill="none" stroke="black" stroke-width="7.3" points="854,-560 1092,-560 "/>
<text text-anchor="start" x="950" y="-569.1" font-family="Courier New" font-size="8.00" fill="red">CA gas&#45;ch4</text>
</a>
</g>
</g>
<!-- p9 (bus) -->
<g id="node4" class="node">
<title>p9 (bus)</title>
<g id="a_node4"><a xlink:title="Bus: p9&#10;Carrier: AC&#10;Unit: &#10;Generators: 0&#10;Loads: 1&#10;Stores: 0&#10;Storage units: 1&#10;Incoming links: 2&#10;Outgoing links: 2&#10;Lines: 0&#10;&#10;Power time series: N/A ">
<polygon fill="none" stroke="transparent" stroke-width="7.3" points="1412,-582 1174,-582 1174,-560 1412,-560 1412,-582"/>
<polyline fill="none" stroke="black" stroke-width="7.3" points="1174,-560 1412,-560 "/>
<text text-anchor="start" x="1288" y="-569.1" font-family="Courier New" font-size="8.00" fill="red">p9</text>
</a>
</g>
</g>
<!-- p10 (bus) -->
<g id="node6" class="node">
<title>p10 (bus)</title>
<g id="a_node6"><a xlink:title="Bus: p10&#10;Carrier: AC&#10;Unit: &#10;Generators: 0&#10;Loads: 1&#10;Stores: 0&#10;Storage units: 1&#10;Incoming links: 3&#10;Outgoing links: 1&#10;Lines: 0&#10;&#10;Power time series: N/A ">
<polygon fill="none" stroke="transparent" stroke-width="7.3" points="817,-447 579,-447 579,-425 817,-425 817,-447"/>
<polyline fill="none" stroke="black" stroke-width="7.3" points="579,-425 817,-425 "/>
<text text-anchor="start" x="691" y="-434.1" font-family="Courier New" font-size="8.00" fill="red">p10</text>
</a>
</g>
</g>
<!-- p9 (bus)&#45;&gt;p10 (bus) -->
<g id="edge8" class="edge">
<title>p9 (bus)&#45;&gt;p10 (bus)</title>
<g id="a_edge8"><a xlink:title="Link: p9||p10&#10;From: p9 (bus0)&#10;To: p10 (bus1)&#10;Carrier: &#10;Extendable nominal power: False&#10;Nominal power: 0.00 MW&#10;Efficiency: 1.00&#10;Capital cost: 0.00 currency/MW&#10;Marginal cost: 0.00 currency/MWh&#10;&#10;Optimised nominal power: 0.00 MW&#10;Power time series (p0): N/A MW&#10;Power time series (p1): N/A MW">
<path fill="none" stroke="black" stroke-width="1.5" d="M1196.82,-559.99C1066.8,-546.46 851,-524 851,-524 851,-524 770.78,-478.39 726.52,-453.22"/>
<polygon fill="black" stroke="black" stroke-width="1.5" points="715.85,-447.15 728.95,-448.39 721.19,-449.9 726.41,-452.86 726.28,-453.08 726.16,-453.3 720.94,-450.33 723.61,-457.78 715.85,-447.15 715.85,-447.15"/>
</a>
</g>
<text text-anchor="start" x="851" y="-517.6" font-family="Courier New" font-size="8.00" fill="red">p9||p10</text>
</g>
<!-- p9 AC (load) -->
<g id="node10" class="node">
<title>p9 AC (load)</title>
<g id="a_node10"><a xlink:title="Load: p9 AC&#10;Bus: p9&#10;Carrier: &#10;Power set: 0.00 ">
<polygon fill="none" stroke="black" stroke-width="2" points="1469,-393 1523,-457.5 1415,-457.5 1469,-393"/>
<text text-anchor="start" x="1457.5" y="-434.1" font-family="Courier New" font-size="8.00" fill="red">p9 AC</text>
</a>
</g>
</g>
<!-- p9 (bus)&#45;&gt;p9 AC (load) -->
<g id="edge1" class="edge">
<title>p9 (bus)&#45;&gt;p9 AC (load)</title>
<path fill="none" stroke="black" stroke-width="1.5" d="M1306.52,-559.78C1335.33,-538.01 1403.29,-486.65 1441.56,-457.73"/>
</g>
<!-- p9 battery (storage unit) -->
<g id="node15" class="node">
<title>p9 battery (storage unit)</title>
<g id="a_node15"><a xlink:title="Storage unit: p9 battery&#10;Bus: p9&#10;Carrier: &#10;Extendable nominal power: False&#10;Nominal power: 0.00 &#10;Power set: 0.00 &#10;Charge cyclic state: False&#10;Capital cost: 0.00 currency/&#10;Marginal cost: 0.00 currency/h&#10;&#10;Optimised nominal power: 0.00 &#10;Power time series: N/A ">
<polygon fill="none" stroke="black" stroke-width="2" points="1343.28,-454 1236.25,-454 1208.72,-418 1315.75,-418 1343.28,-454"/>
<text text-anchor="start" x="1253" y="-434.1" font-family="Courier New" font-size="8.00" fill="red">p9 battery</text>
</a>
</g>
</g>
<!-- p9 (bus)&#45;&gt;p9 battery (storage unit) -->
<g id="edge6" class="edge">
<title>p9 (bus)&#45;&gt;p9 battery (storage unit)</title>
<path fill="none" stroke="black" stroke-width="1.5" d="M1290.13,-547.52C1287.28,-525.23 1282.9,-490.95 1279.77,-466.48"/>
<polygon fill="black" stroke="black" stroke-width="1.5" points="1291.67,-559.56 1284.79,-548.35 1290.66,-553.64 1289.9,-547.69 1290.14,-547.66 1290.39,-547.63 1291.15,-553.58 1295.5,-546.98 1291.67,-559.56 1291.67,-559.56"/>
<polygon fill="black" stroke="black" stroke-width="1.5" points="1278.22,-454.37 1285.1,-465.59 1279.23,-460.29 1279.99,-466.24 1279.74,-466.27 1279.49,-466.31 1278.73,-460.35 1274.39,-466.96 1278.22,-454.37 1278.22,-454.37"/>
</g>
<!-- p9 pwr dac (multi&#45;link) -->
<g id="node21" class="node">
<title>p9 pwr dac (multi&#45;link)</title>
<g id="a_node21"><a xlink:title="Multi&#45;link: p9 pwr dac&#10;From: p9 pwr atmosphere (bus0)&#10;To: p9 (bus1)&#10;To: p9 co2 capture (bus2)&#10;Carrier: &#10;Extendable nominal energy: False&#10;Nominal power: 0.00 MW&#10;Capital cost: 0.00 currency/MW&#10;Marginal cost: 0.00 currency/MWh&#10;&#10;Optimised nominal power: 0.00 MW&#10;Power time series (p0): N/A MW">
<ellipse fill="black" stroke="black" cx="1602" cy="-436" rx="2.16" ry="2.16"/>
</a>
</g>
</g>
<!-- p9 (bus)&#45;&gt;p9 pwr dac (multi&#45;link) -->
<g id="edge32" class="edge">
<title>p9 (bus)&#45;&gt;p9 pwr dac (multi&#45;link)</title>
<g id="a_edge32"><a xlink:title="Multi&#45;link: p9 pwr dac (inverted)&#10;From: p9 (bus1)&#10;To: p9 pwr atmosphere (bus0)&#10;Carrier: &#10;Extendable nominal power: False&#10;Nominal power: 0.00 MW&#10;Efficiency: 1.00&#10;Capital cost: 0.00 currency/MW&#10;Marginal cost: 0.00 currency/MWh&#10;&#10;Optimised nominal power: 0.00 MW&#10;Power time series (p1): N/A MW&#10;Power time series (p0): N/A MW">
<path fill="none" stroke="black" stroke-width="1.5" d="M1322.48,-559.91C1391.74,-536.22 1559,-479 1559,-479 1559,-479 1579.28,-459.19 1591.99,-446.78"/>
<polygon fill="black" stroke="black" stroke-width="1.5" points="1600.94,-438.04 1596.13,-450.29 1596.82,-442.41 1592.53,-446.6 1592.35,-446.42 1592.18,-446.24 1596.47,-442.05 1588.58,-442.56 1600.94,-438.04 1600.94,-438.04"/>
</a>
</g>
<text text-anchor="start" x="1450" y="-517.6" font-family="Courier New" font-size="8.00" fill="red">p9 pwr dac</text>
</g>
<!-- p9 co2 capture (bus) -->
<g id="node5" class="node">
<title>p9 co2 capture (bus)</title>
<g id="a_node5"><a xlink:title="Bus: p9 co2 capture&#10;Carrier: AC&#10;Unit: &#10;Generators: 0&#10;Loads: 0&#10;Stores: 1&#10;Storage units: 0&#10;Incoming links: 3&#10;Outgoing links: 1&#10;Lines: 0&#10;&#10;Power time series: N/A ">
<polygon fill="none" stroke="transparent" stroke-width="7.3" points="1721,-280 1483,-280 1483,-258 1721,-258 1721,-280"/>
<polyline fill="none" stroke="black" stroke-width="7.3" points="1483,-258 1721,-258 "/>
<text text-anchor="start" x="1570" y="-267.1" font-family="Courier New" font-size="8.00" fill="red">p9 co2 capture</text>
</a>
</g>
</g>
<!-- p10 co2 capture (bus) -->
<g id="node7" class="node">
<title>p10 co2 capture (bus)</title>
<g id="a_node7"><a xlink:title="Bus: p10 co2 capture&#10;Carrier: AC&#10;Unit: &#10;Generators: 0&#10;Loads: 0&#10;Stores: 1&#10;Storage units: 0&#10;Incoming links: 3&#10;Outgoing links: 1&#10;Lines: 0&#10;&#10;Power time series: N/A ">
<polygon fill="none" stroke="transparent" stroke-width="7.3" points="593,-138 355,-138 355,-116 593,-116 593,-138"/>
<polyline fill="none" stroke="black" stroke-width="7.3" points="355,-116 593,-116 "/>
<text text-anchor="start" x="440" y="-125.1" font-family="Courier New" font-size="8.00" fill="red">p10 co2 capture</text>
</a>
</g>
</g>
<!-- p9 co2 capture (bus)&#45;&gt;p10 co2 capture (bus) -->
<g id="edge9" class="edge">
<title>p9 co2 capture (bus)&#45;&gt;p10 co2 capture (bus)</title>
<g id="a_edge9"><a xlink:title="Bidirectional link: p9||p10 co2 transport&#10;From: p9 co2 capture (bus0)&#10;To: p10 co2 capture (bus1)&#10;Carrier: &#10;Extendable nominal power: False&#10;Nominal power: 0.00 MW&#10;Efficiency: 1.00&#10;Capital cost: 0.00 currency/MW&#10;Marginal cost: 0.00 currency/MWh&#10;&#10;Optimised nominal power: 0.00 MW&#10;Power time series (p0): N/A MW&#10;Power time series (p1): N/A MW">
<path fill="none" stroke="black" stroke-width="1.5" d="M1509.1,-256.47C1296.96,-230.14 778.95,-165.85 566.86,-139.52"/>
<polygon fill="black" stroke="black" stroke-width="1.5" points="1521.33,-257.99 1508.76,-261.87 1515.34,-257.5 1509.39,-256.76 1509.42,-256.51 1509.45,-256.26 1515.41,-257 1510.09,-251.15 1521.33,-257.99 1521.33,-257.99"/>
<polygon fill="black" stroke="black" stroke-width="1.5" points="554.85,-138.04 567.43,-134.15 560.84,-138.53 566.79,-139.27 566.76,-139.51 566.73,-139.76 560.78,-139.02 566.1,-144.87 554.85,-138.04 554.85,-138.04"/>
</a>
</g>
<text text-anchor="start" x="971" y="-183.6" font-family="Courier New" font-size="8.00" fill="red">p9||p10 co2 transport</text>
</g>
<!-- p9 co2 storage (store) -->
<g id="node13" class="node">
<title>p9 co2 storage (store)</title>
<g id="a_node13"><a xlink:title="Store: p9 co2 storage&#10;Bus: p9 co2 capture&#10;Carrier: &#10;Extendable nominal energy: False&#10;Nominal energy: 0.00 h&#10;Power set: 0.00 &#10;Cyclic energy: False&#10;Capital cost: 0.00 currency/&#10;Marginal cost: 0.00 currency/h&#10;&#10;Optimised nominal energy: 0.00 h&#10;Energy time series: N/A h&#10;Power time series: N/A ">
<polygon fill="none" stroke="black" stroke-width="2" points="1652.5,-145 1551.5,-145 1551.5,-109 1652.5,-109 1652.5,-145"/>
<text text-anchor="start" x="1570" y="-125.1" font-family="Courier New" font-size="8.00" fill="red">p9 co2 storage</text>
</a>
</g>
</g>
<!-- p9 co2 capture (bus)&#45;&gt;p9 co2 storage (store) -->
<g id="edge4" class="edge">
<title>p9 co2 capture (bus)&#45;&gt;p9 co2 storage (store)</title>
<path fill="none" stroke="black" stroke-width="1.5" d="M1602,-245.61C1602,-221.69 1602,-183.68 1602,-157.38"/>
<polygon fill="black" stroke="black" stroke-width="1.5" points="1602,-257.93 1596.6,-245.93 1601.75,-251.93 1601.75,-245.93 1602,-245.93 1602.25,-245.93 1602.25,-251.93 1607.4,-245.93 1602,-257.93 1602,-257.93"/>
<polygon fill="black" stroke="black" stroke-width="1.5" points="1602,-145.17 1607.4,-157.17 1602.25,-151.17 1602.25,-157.17 1602,-157.17 1601.75,-157.17 1601.75,-151.17 1596.6,-157.17 1602,-145.17 1602,-145.17"/>
</g>
<!-- p10 AC (load) -->
<g id="node11" class="node">
<title>p10 AC (load)</title>
<g id="a_node11"><a xlink:title="Load: p10 AC&#10;Bus: p10&#10;Carrier: &#10;Power set: 0.00 ">
<polygon fill="none" stroke="black" stroke-width="2" points="647,-226 701,-290.5 593,-290.5 647,-226"/>
<text text-anchor="start" x="633" y="-267.1" font-family="Courier New" font-size="8.00" fill="red">p10 AC</text>
</a>
</g>
</g>
<!-- p10 (bus)&#45;&gt;p10 AC (load) -->
<g id="edge2" class="edge">
<title>p10 (bus)&#45;&gt;p10 AC (load)</title>
<path fill="none" stroke="black" stroke-width="1.5" d="M694.81,-424.68C686.57,-398.01 664.44,-326.41 653.42,-290.76"/>
</g>
<!-- p10 battery (storage unit) -->
<g id="node16" class="node">
<title>p10 battery (storage unit)</title>
<g id="a_node16"><a xlink:title="Storage unit: p10 battery&#10;Bus: p10&#10;Carrier: &#10;Extendable nominal power: False&#10;Nominal power: 0.00 &#10;Power set: 0.00 &#10;Charge cyclic state: False&#10;Capital cost: 0.00 currency/&#10;Marginal cost: 0.00 currency/h&#10;&#10;Optimised nominal power: 0.00 &#10;Power time series: N/A ">
<polygon fill="none" stroke="black" stroke-width="2" points="907.28,-287 800.25,-287 772.72,-251 879.75,-251 907.28,-287"/>
<text text-anchor="start" x="815" y="-267.1" font-family="Courier New" font-size="8.00" fill="red">p10 battery</text>
</a>
</g>
</g>
<!-- p10 (bus)&#45;&gt;p10 battery (storage unit) -->
<g id="edge7" class="edge">
<title>p10 (bus)&#45;&gt;p10 battery (storage unit)</title>
<path fill="none" stroke="black" stroke-width="1.5" d="M714.95,-415.3C740.37,-385.77 788.43,-329.93 816.99,-296.73"/>
<polygon fill="black" stroke="black" stroke-width="1.5" points="706.88,-424.68 710.62,-412.06 710.61,-419.97 714.52,-415.42 714.71,-415.58 714.9,-415.75 710.99,-420.29 718.8,-419.11 706.88,-424.68 706.88,-424.68"/>
<polygon fill="black" stroke="black" stroke-width="1.5" points="825.19,-287.21 821.45,-299.83 821.46,-291.92 817.55,-296.47 817.36,-296.31 817.17,-296.14 821.08,-291.6 813.27,-292.78 825.19,-287.21 825.19,-287.21"/>
</g>
<!-- p10 pwr dac (multi&#45;link) -->
<g id="node22" class="node">
<title>p10 pwr dac (multi&#45;link)</title>
<g id="a_node22"><a xlink:title="Multi&#45;link: p10 pwr dac&#10;From: p10 pwr atmosphere (bus0)&#10;To: p10 (bus1)&#10;To: p10 co2 capture (bus2)&#10;Carrier: &#10;Extendable nominal energy: False&#10;Nominal power: 0.00 MW&#10;Capital cost: 0.00 currency/MW&#10;Marginal cost: 0.00 currency/MWh&#10;&#10;Optimised nominal power: 0.00 MW&#10;Power time series (p0): N/A MW">
<ellipse fill="black" stroke="black" cx="474" cy="-269" rx="2.16" ry="2.16"/>
</a>
</g>
</g>
<!-- p10 (bus)&#45;&gt;p10 pwr dac (multi&#45;link) -->
<g id="edge34" class="edge">
<title>p10 (bus)&#45;&gt;p10 pwr dac (multi&#45;link)</title>
<g id="a_edge34"><a xlink:title="Multi&#45;link: p10 pwr dac (inverted)&#10;From: p10 (bus1)&#10;To: p10 pwr atmosphere (bus0)&#10;Carrier: &#10;Extendable nominal power: False&#10;Nominal power: 0.00 MW&#10;Efficiency: 1.00&#10;Capital cost: 0.00 currency/MW&#10;Marginal cost: 0.00 currency/MWh&#10;&#10;Optimised nominal power: 0.00 MW&#10;Power time series (p1): N/A MW&#10;Power time series (p0): N/A MW">
<path fill="none" stroke="black" stroke-width="1.5" d="M684.32,-424.93C643.47,-394.83 522.83,-305.97 485.28,-278.31"/>
<polygon fill="black" stroke="black" stroke-width="1.5" points="475.41,-271.04 488.27,-273.8 480.38,-274.39 485.22,-277.95 485.07,-278.15 484.92,-278.35 480.09,-274.8 481.86,-282.5 475.41,-271.04 475.41,-271.04"/>
</a>
</g>
<text text-anchor="start" x="586" y="-350.6" font-family="Courier New" font-size="8.00" fill="red">p10 pwr dac</text>
</g>
<!-- p10 co2 storage (store) -->
<g id="node14" class="node">
<title>p10 co2 storage (store)</title>
<g id="a_node14"><a xlink:title="Store: p10 co2 storage&#10;Bus: p10 co2 capture&#10;Carrier: &#10;Extendable nominal energy: False&#10;Nominal energy: 0.00 h&#10;Power set: 0.00 &#10;Cyclic energy: False&#10;Capital cost: 0.00 currency/&#10;Marginal cost: 0.00 currency/h&#10;&#10;Optimised nominal energy: 0.00 h&#10;Energy time series: N/A h&#10;Power time series: N/A ">
<polygon fill="none" stroke="black" stroke-width="2" points="524.5,-36 423.5,-36 423.5,0 524.5,0 524.5,-36"/>
<text text-anchor="start" x="440" y="-16.1" font-family="Courier New" font-size="8.00" fill="red">p10 co2 storage</text>
</a>
</g>
</g>
<!-- p10 co2 capture (bus)&#45;&gt;p10 co2 storage (store) -->
<g id="edge5" class="edge">
<title>p10 co2 capture (bus)&#45;&gt;p10 co2 storage (store)</title>
<path fill="none" stroke="black" stroke-width="1.5" d="M474,-103.47C474,-87.36 474,-65.52 474,-48.08"/>
<polygon fill="black" stroke="black" stroke-width="1.5" points="474,-115.74 468.6,-103.74 473.75,-109.74 473.75,-103.74 474,-103.74 474.25,-103.74 474.25,-109.74 479.4,-103.74 474,-115.74 474,-115.74"/>
<polygon fill="black" stroke="black" stroke-width="1.5" points="474,-36.04 479.4,-48.04 474.25,-42.04 474.25,-48.04 474,-48.04 473.75,-48.04 473.75,-42.04 468.6,-48.04 474,-36.04 474,-36.04"/>
</g>
<!-- p9 pwr atmosphere (bus) -->
<g id="node8" class="node">
<title>p9 pwr atmosphere (bus)</title>
<g id="a_node8"><a xlink:title="Bus: p9 pwr atmosphere&#10;Carrier: AC&#10;Unit: &#10;Generators: 0&#10;Loads: 0&#10;Stores: 0&#10;Storage units: 0&#10;Incoming links: 3&#10;Outgoing links: 2&#10;Lines: 0&#10;&#10;Power time series: N/A ">
<polygon fill="none" stroke="transparent" stroke-width="7.3" points="1722,-582 1484,-582 1484,-560 1722,-560 1722,-582"/>
<polyline fill="none" stroke="black" stroke-width="7.3" points="1484,-560 1722,-560 "/>
<text text-anchor="start" x="1564.5" y="-569.1" font-family="Courier New" font-size="8.00" fill="red">p9 pwr atmosphere</text>
</a>
</g>
</g>
<!-- p9 pwr atmosphere (bus)&#45;&gt;CA pwr&#45;co2 (bus) -->
<g id="edge10" class="edge">
<title>p9 pwr atmosphere (bus)&#45;&gt;CA pwr&#45;co2 (bus)</title>
<g id="a_edge10"><a xlink:title="Link: p9 pwr atmosphere&#10;From: p9 pwr atmosphere (bus0)&#10;To: CA pwr&#45;co2 (bus1)&#10;Carrier: &#10;Extendable nominal power: False&#10;Nominal power: 0.00 MW&#10;Efficiency: 1.00&#10;Capital cost: 0.00 currency/MW&#10;Marginal cost: 0.00 currency/MWh&#10;&#10;Optimised nominal power: 0.00 MW&#10;Power time series (p0): N/A MW&#10;Power time series (p1): N/A MW">
<path fill="none" stroke="black" stroke-width="1.5" d="M1545.39,-559.96C1467.71,-546.43 1339,-524 1339,-524 1339,-524 1156.77,-474.61 1066.91,-450.26"/>
<polygon fill="black" stroke="black" stroke-width="1.5" points="1055.14,-447.06 1068.13,-444.99 1060.99,-448.39 1066.78,-449.96 1066.72,-450.2 1066.65,-450.45 1060.86,-448.88 1065.31,-455.42 1055.14,-447.06 1055.14,-447.06"/>
</a>
</g>
<text text-anchor="start" x="1339" y="-517.6" font-family="Courier New" font-size="8.00" fill="red">p9 pwr atmosphere</text>
</g>
<!-- p9 pwr atmosphere (bus)&#45;&gt;p9 pwr dac (multi&#45;link) -->
<g id="edge16" class="edge">
<title>p9 pwr atmosphere (bus)&#45;&gt;p9 pwr dac (multi&#45;link)</title>
<g id="a_edge16"><a xlink:title="Multi&#45;link: p9 pwr dac&#10;From: p9 pwr atmosphere (bus0)&#10;To: p9 (bus1)&#10;To: p9 co2 capture (bus2)&#10;Carrier: &#10;Extendable nominal power: False&#10;Nominal power: 0.00 MW&#10;Capital cost: 0.00 currency/MW&#10;Marginal cost: 0.00 currency/MWh&#10;&#10;Optimised nominal power: 0.00 MW&#10;Power time series (p0): N/A MW">
<path fill="none" stroke="black" stroke-width="1.5" d="M1602.92,-559.56C1602.7,-530.41 1602.09,-449.53 1602.01,-438.3"/>
</a>
</g>
<text text-anchor="start" x="1603" y="-517.6" font-family="Courier New" font-size="8.00" fill="red">p9 pwr dac</text>
</g>
<!-- p10 pwr atmosphere (bus) -->
<g id="node9" class="node">
<title>p10 pwr atmosphere (bus)</title>
<g id="a_node9"><a xlink:title="Bus: p10 pwr atmosphere&#10;Carrier: AC&#10;Unit: &#10;Generators: 0&#10;Loads: 0&#10;Stores: 0&#10;Storage units: 0&#10;Incoming links: 3&#10;Outgoing links: 2&#10;Lines: 0&#10;&#10;Power time series: N/A ">
<polygon fill="none" stroke="transparent" stroke-width="7.3" points="573,-582 335,-582 335,-560 573,-560 573,-582"/>
<polyline fill="none" stroke="black" stroke-width="7.3" points="335,-560 573,-560 "/>
<text text-anchor="start" x="413" y="-569.1" font-family="Courier New" font-size="8.00" fill="red">p10 pwr atmosphere</text>
</a>
</g>
</g>
<!-- p10 pwr atmosphere (bus)&#45;&gt;CA pwr&#45;co2 (bus) -->
<g id="edge11" class="edge">
<title>p10 pwr atmosphere (bus)&#45;&gt;CA pwr&#45;co2 (bus)</title>
<g id="a_edge11"><a xlink:title="Link: p10 pwr atmosphere&#10;From: p10 pwr atmosphere (bus0)&#10;To: CA pwr&#45;co2 (bus1)&#10;Carrier: &#10;Extendable nominal power: False&#10;Nominal power: 0.00 MW&#10;Efficiency: 1.00&#10;Capital cost: 0.00 currency/MW&#10;Marginal cost: 0.00 currency/MWh&#10;&#10;Optimised nominal power: 0.00 MW&#10;Power time series (p0): N/A MW&#10;Power time series (p1): N/A MW">
<path fill="none" stroke="black" stroke-width="1.5" d="M551.27,-559.99C682.76,-546.46 901,-524 901,-524 901,-524 960.24,-479.95 994.41,-454.54"/>
<polygon fill="black" stroke="black" stroke-width="1.5" points="1004.12,-447.32 997.71,-458.82 999.45,-451.1 994.64,-454.68 994.49,-454.48 994.34,-454.28 999.16,-450.7 991.27,-450.15 1004.12,-447.32 1004.12,-447.32"/>
</a>
</g>
<text text-anchor="start" x="912" y="-517.6" font-family="Courier New" font-size="8.00" fill="red">p10 pwr atmosphere</text>
</g>
<!-- p10 pwr atmosphere (bus)&#45;&gt;p10 pwr dac (multi&#45;link) -->
<g id="edge17" class="edge">
<title>p10 pwr atmosphere (bus)&#45;&gt;p10 pwr dac (multi&#45;link)</title>
<g id="a_edge17"><a xlink:title="Multi&#45;link: p10 pwr dac&#10;From: p10 pwr atmosphere (bus0)&#10;To: p10 (bus1)&#10;To: p10 co2 capture (bus2)&#10;Carrier: &#10;Extendable nominal power: False&#10;Nominal power: 0.00 MW&#10;Capital cost: 0.00 currency/MW&#10;Marginal cost: 0.00 currency/MWh&#10;&#10;Optimised nominal power: 0.00 MW&#10;Power time series (p0): N/A MW">
<path fill="none" stroke="black" stroke-width="1.5" d="M454.69,-559.67C458.04,-509.39 472.55,-291.81 473.9,-271.52"/>
</a>
</g>
<text text-anchor="start" x="466" y="-434.1" font-family="Courier New" font-size="8.00" fill="red">p10 pwr dac</text>
</g>
<!-- p9 OCGT (multi&#45;link)&#45;&gt;CA gas&#45;ch4 (bus) -->
<g id="edge19" class="edge">
<title>p9 OCGT (multi&#45;link)&#45;&gt;CA gas&#45;ch4 (bus)</title>
<g id="a_edge19"><a xlink:title="Multi&#45;link: p9 OCGT&#10;From: CA gas (bus0)&#10;To: CA gas&#45;ch4 (bus3)&#10;Carrier: &#10;Extendable nominal power: False&#10;Nominal power: 0.00 MW&#10;Efficiency: 1.00&#10;Capital cost: 0.00 currency/MW&#10;Marginal cost: 0.00 currency/MWh&#10;&#10;Optimised nominal power: 0.00 MW&#10;Power time series (p0): N/A MW&#10;Power time series (p3): N/A MW">
<path fill="none" stroke="black" stroke-width="1.5" d="M1163.25,-663.52C1149.84,-658.58 1064,-627 1064,-627 1064,-627 1026.89,-604.57 1000.07,-588.36"/>
<polygon fill="black" stroke="black" stroke-width="1.5" points="989.69,-582.09 1002.75,-583.67 994.96,-584.98 1000.09,-588.08 999.96,-588.3 999.83,-588.51 994.7,-585.41 997.17,-592.92 989.69,-582.09 989.69,-582.09"/>
</a>
</g>
<text text-anchor="start" x="1064" y="-620.6" font-family="Courier New" font-size="8.00" fill="red">p9 OCGT</text>
</g>
<!-- p9 OCGT (multi&#45;link)&#45;&gt;p9 (bus) -->
<g id="edge18" class="edge">
<title>p9 OCGT (multi&#45;link)&#45;&gt;p9 (bus)</title>
<g id="a_edge18"><a xlink:title="Multi&#45;link: p9 OCGT&#10;From: CA gas (bus0)&#10;To: p9 (bus1)&#10;Carrier: &#10;Extendable nominal power: False&#10;Nominal power: 0.00 MW&#10;Efficiency: 1.00&#10;Capital cost: 0.00 currency/MW&#10;Marginal cost: 0.00 currency/MWh&#10;&#10;Optimised nominal power: 0.00 MW&#10;Power time series (p0): N/A MW&#10;Power time series (p1): N/A MW">
<path fill="none" stroke="black" stroke-width="1.5" d="M1166.72,-663.52C1179.86,-658.58 1264,-627 1264,-627 1264,-627 1273.72,-608.56 1281.91,-593.04"/>
<polygon fill="black" stroke="black" stroke-width="1.5" points="1287.68,-582.09 1286.86,-595.22 1285.1,-587.51 1282.31,-592.82 1282.08,-592.7 1281.86,-592.59 1284.66,-587.28 1277.31,-590.18 1287.68,-582.09 1287.68,-582.09"/>
</a>
</g>
<text text-anchor="start" x="1269" y="-620.6" font-family="Courier New" font-size="8.00" fill="red">p9 OCGT</text>
</g>
<!-- p9 OCGT (multi&#45;link)&#45;&gt;p9 pwr atmosphere (bus) -->
<g id="edge20" class="edge">
<title>p9 OCGT (multi&#45;link)&#45;&gt;p9 pwr atmosphere (bus)</title>
<g id="a_edge20"><a xlink:title="Multi&#45;link: p9 OCGT&#10;From: CA gas (bus0)&#10;To: p9 pwr atmosphere (bus2)&#10;Carrier: &#10;Extendable nominal power: False&#10;Nominal power: 0.00 MW&#10;Efficiency: 1.00&#10;Capital cost: 0.00 currency/MW&#10;Marginal cost: 0.00 currency/MWh&#10;&#10;Optimised nominal power: 0.00 MW&#10;Power time series (p0): N/A MW&#10;Power time series (p2): N/A MW">
<path fill="none" stroke="black" stroke-width="1.5" d="M1167.01,-663.92C1193.84,-660.76 1480,-627 1480,-627 1480,-627 1532.87,-603.36 1569.28,-587.08"/>
<polygon fill="black" stroke="black" stroke-width="1.5" points="1580.44,-582.09 1571.69,-591.92 1575.06,-584.77 1569.59,-587.21 1569.49,-586.99 1569.38,-586.76 1574.86,-584.31 1567.28,-582.06 1580.44,-582.09 1580.44,-582.09"/>
</a>
</g>
<text text-anchor="start" x="1498" y="-620.6" font-family="Courier New" font-size="8.00" fill="red">p9 OCGT</text>
</g>
<!-- p9 CCGT&#45;95CC_2030 (multi&#45;link)&#45;&gt;CA gas&#45;ch4 (bus) -->
<g id="edge22" class="edge">
<title>p9 CCGT&#45;95CC_2030 (multi&#45;link)&#45;&gt;CA gas&#45;ch4 (bus)</title>
<g id="a_edge22"><a xlink:title="Multi&#45;link: p9 CCGT&#45;95CC_2030&#10;From: CA gas (bus0)&#10;To: CA gas&#45;ch4 (bus3)&#10;Carrier: &#10;Extendable nominal power: False&#10;Nominal power: 0.00 MW&#10;Efficiency: 1.00&#10;Capital cost: 0.00 currency/MW&#10;Marginal cost: 0.00 currency/MWh&#10;&#10;Optimised nominal power: 0.00 MW&#10;Power time series (p0): N/A MW&#10;Power time series (p3): N/A MW">
<path fill="none" stroke="black" stroke-width="1.5" d="M1447.21,-663.92C1423.37,-660.76 1169,-627 1169,-627 1169,-627 1078.82,-601.69 1020.8,-585.41"/>
<polygon fill="black" stroke="black" stroke-width="1.5" points="1008.95,-582.09 1021.96,-580.13 1014.79,-583.47 1020.57,-585.09 1020.5,-585.33 1020.44,-585.57 1014.66,-583.95 1019.04,-590.53 1008.95,-582.09 1008.95,-582.09"/>
</a>
</g>
<text text-anchor="start" x="1169" y="-620.6" font-family="Courier New" font-size="8.00" fill="red">p9 CCGT&#45;95CC_2030</text>
</g>
<!-- p9 CCGT&#45;95CC_2030 (multi&#45;link)&#45;&gt;p9 (bus) -->
<g id="edge21" class="edge">
<title>p9 CCGT&#45;95CC_2030 (multi&#45;link)&#45;&gt;p9 (bus)</title>
<g id="a_edge21"><a xlink:title="Multi&#45;link: p9 CCGT&#45;95CC_2030&#10;From: CA gas (bus0)&#10;To: p9 (bus1)&#10;Carrier: &#10;Extendable nominal power: False&#10;Nominal power: 0.00 MW&#10;Efficiency: 1.00&#10;Capital cost: 0.00 currency/MW&#10;Marginal cost: 0.00 currency/MWh&#10;&#10;Optimised nominal power: 0.00 MW&#10;Power time series (p0): N/A MW&#10;Power time series (p1): N/A MW">
<path fill="none" stroke="black" stroke-width="1.5" d="M1447.65,-663.36C1436.71,-656.9 1361.87,-612.69 1320.45,-588.21"/>
<polygon fill="black" stroke="black" stroke-width="1.5" points="1309.97,-582.03 1323.05,-583.48 1315.26,-584.86 1320.43,-587.91 1320.3,-588.13 1320.18,-588.34 1315.01,-585.29 1317.56,-592.78 1309.97,-582.03 1309.97,-582.03"/>
</a>
</g>
<text text-anchor="start" x="1385" y="-620.6" font-family="Courier New" font-size="8.00" fill="red">p9 CCGT&#45;95CC_2030</text>
</g>
<!-- p9 CCGT&#45;95CC_2030 (multi&#45;link)&#45;&gt;p9 co2 capture (bus) -->
<g id="edge24" class="edge">
<title>p9 CCGT&#45;95CC_2030 (multi&#45;link)&#45;&gt;p9 co2 capture (bus)</title>
<g id="a_edge24"><a xlink:title="Multi&#45;link: p9 CCGT&#45;95CC_2030&#10;From: CA gas (bus0)&#10;To: p9 co2 capture (bus4)&#10;Carrier: &#10;Extendable nominal power: False&#10;Nominal power: 0.00 MW&#10;Efficiency: 1.00&#10;Capital cost: 0.00 currency/MW&#10;Marginal cost: 0.00 currency/MWh&#10;&#10;Optimised nominal power: 0.00 MW&#10;Power time series (p0): N/A MW&#10;Power time series (p4): N/A MW">
<path fill="none" stroke="black" stroke-width="1.5" d="M1450.8,-663.92C1474.82,-660.76 1731,-627 1731,-627 1731,-627 1758,-582 1758,-582 1758,-582 1758,-560 1758,-560 1758,-560 1666,-348 1666,-348 1666,-348 1636.95,-312.59 1617.99,-289.49"/>
<polygon fill="black" stroke="black" stroke-width="1.5" points="1610.37,-280.2 1622.15,-286.05 1614.37,-284.68 1618.17,-289.32 1617.98,-289.47 1617.79,-289.63 1613.98,-284.99 1613.8,-292.9 1610.37,-280.2 1610.37,-280.2"/>
</a>
</g>
<text text-anchor="start" x="1742" y="-517.6" font-family="Courier New" font-size="8.00" fill="red">p9 CCGT&#45;95CC_2030</text>
</g>
<!-- p9 CCGT&#45;95CC_2030 (multi&#45;link)&#45;&gt;p9 pwr atmosphere (bus) -->
<g id="edge23" class="edge">
<title>p9 CCGT&#45;95CC_2030 (multi&#45;link)&#45;&gt;p9 pwr atmosphere (bus)</title>
<g id="a_edge23"><a xlink:title="Multi&#45;link: p9 CCGT&#45;95CC_2030&#10;From: CA gas (bus0)&#10;To: p9 pwr atmosphere (bus2)&#10;Carrier: &#10;Extendable nominal power: False&#10;Nominal power: 0.00 MW&#10;Efficiency: 1.00&#10;Capital cost: 0.00 currency/MW&#10;Marginal cost: 0.00 currency/MWh&#10;&#10;Optimised nominal power: 0.00 MW&#10;Power time series (p0): N/A MW&#10;Power time series (p2): N/A MW">
<path fill="none" stroke="black" stroke-width="1.5" d="M1451.1,-663.74C1471.64,-659.66 1636,-627 1636,-627 1636,-627 1636,-618 1636,-618 1636,-618 1626.26,-604.43 1617.37,-592.03"/>
<polygon fill="black" stroke="black" stroke-width="1.5" points="1610.32,-582.21 1621.71,-588.81 1614.02,-586.94 1617.52,-591.81 1617.32,-591.96 1617.12,-592.11 1613.62,-587.23 1612.93,-595.11 1610.32,-582.21 1610.32,-582.21"/>
</a>
</g>
<text text-anchor="start" x="1636" y="-620.6" font-family="Courier New" font-size="8.00" fill="red">p9 CCGT&#45;95CC_2030</text>
</g>
<!-- p10 OCGT (multi&#45;link)&#45;&gt;CA gas&#45;ch4 (bus) -->
<g id="edge26" class="edge">
<title>p10 OCGT (multi&#45;link)&#45;&gt;CA gas&#45;ch4 (bus)</title>
<g id="a_edge26"><a xlink:title="Multi&#45;link: p10 OCGT&#10;From: CA gas (bus0)&#10;To: CA gas&#45;ch4 (bus3)&#10;Carrier: &#10;Extendable nominal power: False&#10;Nominal power: 0.00 MW&#10;Efficiency: 1.00&#10;Capital cost: 0.00 currency/MW&#10;Marginal cost: 0.00 currency/MWh&#10;&#10;Optimised nominal power: 0.00 MW&#10;Power time series (p0): N/A MW&#10;Power time series (p3): N/A MW">
<path fill="none" stroke="black" stroke-width="1.5" d="M805.44,-663.52C816.46,-658.58 887,-627 887,-627 887,-627 921.76,-604.77 947.08,-588.58"/>
<polygon fill="black" stroke="black" stroke-width="1.5" points="957.23,-582.09 950.03,-593.1 952.31,-585.53 947.25,-588.76 947.12,-588.55 946.98,-588.34 952.04,-585.11 944.21,-584 957.23,-582.09 957.23,-582.09"/>
</a>
</g>
<text text-anchor="start" x="900" y="-620.6" font-family="Courier New" font-size="8.00" fill="red">p10 OCGT</text>
</g>
<!-- p10 OCGT (multi&#45;link)&#45;&gt;p10 (bus) -->
<g id="edge25" class="edge">
<title>p10 OCGT (multi&#45;link)&#45;&gt;p10 (bus)</title>
<g id="a_edge25"><a xlink:title="Multi&#45;link: p10 OCGT&#10;From: CA gas (bus0)&#10;To: p10 (bus1)&#10;Carrier: &#10;Extendable nominal power: False&#10;Nominal power: 0.00 MW&#10;Efficiency: 1.00&#10;Capital cost: 0.00 currency/MW&#10;Marginal cost: 0.00 currency/MWh&#10;&#10;Optimised nominal power: 0.00 MW&#10;Power time series (p0): N/A MW&#10;Power time series (p1): N/A MW">
<path fill="none" stroke="black" stroke-width="1.5" d="M802.48,-663.38C791.99,-658.05 731,-627 731,-627 731,-627 710.55,-509.26 701.85,-459.15"/>
<polygon fill="black" stroke="black" stroke-width="1.5" points="699.77,-447.22 707.15,-458.11 701.05,-453.08 702.07,-459 701.83,-459.04 701.58,-459.08 700.55,-453.17 696.51,-459.96 699.77,-447.22 699.77,-447.22"/>
</a>
</g>
<text text-anchor="start" x="723" y="-569.1" font-family="Courier New" font-size="8.00" fill="red">p10 OCGT</text>
</g>
<!-- p10 OCGT (multi&#45;link)&#45;&gt;p10 pwr atmosphere (bus) -->
<g id="edge27" class="edge">
<title>p10 OCGT (multi&#45;link)&#45;&gt;p10 pwr atmosphere (bus)</title>
<g id="a_edge27"><a xlink:title="Multi&#45;link: p10 OCGT&#10;From: CA gas (bus0)&#10;To: p10 pwr atmosphere (bus2)&#10;Carrier: &#10;Extendable nominal power: False&#10;Nominal power: 0.00 MW&#10;Efficiency: 1.00&#10;Capital cost: 0.00 currency/MW&#10;Marginal cost: 0.00 currency/MWh&#10;&#10;Optimised nominal power: 0.00 MW&#10;Power time series (p0): N/A MW&#10;Power time series (p2): N/A MW">
<path fill="none" stroke="black" stroke-width="1.5" d="M802.22,-663.84C782.08,-660.21 598,-627 598,-627 598,-627 534.49,-602.74 491.82,-586.45"/>
<polygon fill="black" stroke="black" stroke-width="1.5" points="480.41,-582.09 493.55,-581.32 486.11,-584 491.71,-586.14 491.62,-586.37 491.53,-586.6 485.93,-584.46 489.7,-591.41 480.41,-582.09 480.41,-582.09"/>
</a>
</g>
<text text-anchor="start" x="598" y="-620.6" font-family="Courier New" font-size="8.00" fill="red">p10 OCGT</text>
</g>
<!-- p10 CCGT&#45;95CC_2030 (multi&#45;link)&#45;&gt;CA gas&#45;ch4 (bus) -->
<g id="edge29" class="edge">
<title>p10 CCGT&#45;95CC_2030 (multi&#45;link)&#45;&gt;CA gas&#45;ch4 (bus)</title>
<g id="a_edge29"><a xlink:title="Multi&#45;link: p10 CCGT&#45;95CC_2030&#10;From: CA gas (bus0)&#10;To: CA gas&#45;ch4 (bus3)&#10;Carrier: &#10;Extendable nominal power: False&#10;Nominal power: 0.00 MW&#10;Efficiency: 1.00&#10;Capital cost: 0.00 currency/MW&#10;Marginal cost: 0.00 currency/MWh&#10;&#10;Optimised nominal power: 0.00 MW&#10;Power time series (p0): N/A MW&#10;Power time series (p3): N/A MW">
<path fill="none" stroke="black" stroke-width="1.5" d="M453.89,-663.83C479.92,-659.22 768.64,-608.15 903.88,-584.23"/>
<polygon fill="black" stroke="black" stroke-width="1.5" points="916.08,-582.07 905.21,-589.48 910.22,-583.36 904.31,-584.4 904.27,-584.16 904.22,-583.91 910.13,-582.87 903.33,-578.84 916.08,-582.07 916.08,-582.07"/>
</a>
</g>
<text text-anchor="start" x="713" y="-620.6" font-family="Courier New" font-size="8.00" fill="red">p10 CCGT&#45;95CC_2030</text>
</g>
<!-- p10 CCGT&#45;95CC_2030 (multi&#45;link)&#45;&gt;p10 (bus) -->
<g id="edge28" class="edge">
<title>p10 CCGT&#45;95CC_2030 (multi&#45;link)&#45;&gt;p10 (bus)</title>
<g id="a_edge28"><a xlink:title="Multi&#45;link: p10 CCGT&#45;95CC_2030&#10;From: CA gas (bus0)&#10;To: p10 (bus1)&#10;Carrier: &#10;Extendable nominal power: False&#10;Nominal power: 0.00 MW&#10;Efficiency: 1.00&#10;Capital cost: 0.00 currency/MW&#10;Marginal cost: 0.00 currency/MWh&#10;&#10;Optimised nominal power: 0.00 MW&#10;Power time series (p0): N/A MW&#10;Power time series (p1): N/A MW">
<path fill="none" stroke="black" stroke-width="1.5" d="M450.24,-663.55C428.74,-656.03 217,-582 217,-582 217,-582 217,-560 217,-560 217,-560 534,-479 534,-479 534,-479 598.76,-462.42 646.89,-450.09"/>
<polygon fill="black" stroke="black" stroke-width="1.5" points="658.72,-447.06 648.43,-455.27 652.97,-448.79 647.16,-450.28 647.09,-450.04 647.03,-449.8 652.84,-448.31 645.75,-444.81 658.72,-447.06 658.72,-447.06"/>
</a>
</g>
<text text-anchor="start" x="217" y="-569.1" font-family="Courier New" font-size="8.00" fill="red">p10 CCGT&#45;95CC_2030</text>
</g>
<!-- p10 CCGT&#45;95CC_2030 (multi&#45;link)&#45;&gt;p10 co2 capture (bus) -->
<g id="edge31" class="edge">
<title>p10 CCGT&#45;95CC_2030 (multi&#45;link)&#45;&gt;p10 co2 capture (bus)</title>
<g id="a_edge31"><a xlink:title="Multi&#45;link: p10 CCGT&#45;95CC_2030&#10;From: CA gas (bus0)&#10;To: p10 co2 capture (bus4)&#10;Carrier: &#10;Extendable nominal power: False&#10;Nominal power: 0.00 MW&#10;Efficiency: 1.00&#10;Capital cost: 0.00 currency/MW&#10;Marginal cost: 0.00 currency/MWh&#10;&#10;Optimised nominal power: 0.00 MW&#10;Power time series (p0): N/A MW&#10;Power time series (p4): N/A MW">
<path fill="none" stroke="black" stroke-width="1.5" d="M449.98,-663.75C417.38,-657.1 0,-572 0,-572 0,-572 0,-572 0,-268 0,-268 309.6,-176.56 428.37,-141.48"/>
<polygon fill="black" stroke="black" stroke-width="1.5" points="439.91,-138.07 429.93,-146.65 434.23,-140.01 428.47,-141.71 428.4,-141.47 428.33,-141.23 434.09,-139.53 426.87,-136.29 439.91,-138.07 439.91,-138.07"/>
</a>
</g>
<text text-anchor="start" x="0" y="-434.1" font-family="Courier New" font-size="8.00" fill="red">p10 CCGT&#45;95CC_2030</text>
</g>
<!-- p10 CCGT&#45;95CC_2030 (multi&#45;link)&#45;&gt;p10 pwr atmosphere (bus) -->
<g id="edge30" class="edge">
<title>p10 CCGT&#45;95CC_2030 (multi&#45;link)&#45;&gt;p10 pwr atmosphere (bus)</title>
<g id="a_edge30"><a xlink:title="Multi&#45;link: p10 CCGT&#45;95CC_2030&#10;From: CA gas (bus0)&#10;To: p10 pwr atmosphere (bus2)&#10;Carrier: &#10;Extendable nominal power: False&#10;Nominal power: 0.00 MW&#10;Efficiency: 1.00&#10;Capital cost: 0.00 currency/MW&#10;Marginal cost: 0.00 currency/MWh&#10;&#10;Optimised nominal power: 0.00 MW&#10;Power time series (p0): N/A MW&#10;Power time series (p2): N/A MW">
<path fill="none" stroke="black" stroke-width="1.5" d="M451.57,-662.92C449.31,-656.48 439,-627 439,-627 439,-627 439,-618 439,-618 439,-618 442.99,-605.75 446.86,-593.89"/>
<polygon fill="black" stroke="black" stroke-width="1.5" points="450.67,-582.21 452.08,-595.29 449.05,-587.99 447.19,-593.7 446.95,-593.62 446.71,-593.54 448.57,-587.84 441.82,-591.94 450.67,-582.21 450.67,-582.21"/>
</a>
</g>
<text text-anchor="start" x="439" y="-620.6" font-family="Courier New" font-size="8.00" fill="red">p10 CCGT&#45;95CC_2030</text>
</g>
<!-- p9 pwr dac (multi&#45;link)&#45;&gt;p9 co2 capture (bus) -->
<g id="edge33" class="edge">
<title>p9 pwr dac (multi&#45;link)&#45;&gt;p9 co2 capture (bus)</title>
<g id="a_edge33"><a xlink:title="Multi&#45;link: p9 pwr dac&#10;From: p9 pwr atmosphere (bus0)&#10;To: p9 co2 capture (bus2)&#10;Carrier: &#10;Extendable nominal power: False&#10;Nominal power: 0.00 MW&#10;Efficiency: 1.00&#10;Capital cost: 0.00 currency/MW&#10;Marginal cost: 0.00 currency/MWh&#10;&#10;Optimised nominal power: 0.00 MW&#10;Power time series (p0): N/A MW&#10;Power time series (p2): N/A MW">
<path fill="none" stroke="black" stroke-width="1.5" d="M1602,-433.57C1602,-421.38 1602,-334.09 1602,-292.25"/>
<polygon fill="black" stroke="black" stroke-width="1.5" points="1602,-280.2 1607.4,-292.2 1602.25,-286.2 1602.25,-292.2 1602,-292.2 1601.75,-292.2 1601.75,-286.2 1596.6,-292.2 1602,-280.2 1602,-280.2"/>
</a>
</g>
<text text-anchor="start" x="1602" y="-350.6" font-family="Courier New" font-size="8.00" fill="red">p9 pwr dac</text>
</g>
<!-- p10 pwr dac (multi&#45;link)&#45;&gt;p10 co2 capture (bus) -->
<g id="edge35" class="edge">
<title>p10 pwr dac (multi&#45;link)&#45;&gt;p10 co2 capture (bus)</title>
<g id="a_edge35"><a xlink:title="Multi&#45;link: p10 pwr dac&#10;From: p10 pwr atmosphere (bus0)&#10;To: p10 co2 capture (bus2)&#10;Carrier: &#10;Extendable nominal power: False&#10;Nominal power: 0.00 MW&#10;Efficiency: 1.00&#10;Capital cost: 0.00 currency/MW&#10;Marginal cost: 0.00 currency/MWh&#10;&#10;Optimised nominal power: 0.00 MW&#10;Power time series (p0): N/A MW&#10;Power time series (p2): N/A MW">
<path fill="none" stroke="black" stroke-width="1.5" d="M474,-266.43C474,-255.19 474,-186.44 474,-150.24"/>
<polygon fill="black" stroke="black" stroke-width="1.5" points="474,-138.15 479.4,-150.15 474.25,-144.15 474.25,-150.15 474,-150.15 473.75,-150.15 473.75,-144.15 468.6,-150.15 474,-138.15 474,-138.15"/>
</a>
</g>
<text text-anchor="start" x="474" y="-183.6" font-family="Courier New" font-size="8.00" fill="red">p10 pwr dac</text>
</g>
</g>
</svg>
