<?xml version="1.0" encoding="UTF-8" standalone="no"?>
<!DOCTYPE svg PUBLIC "-//W3C//DTD SVG 1.1//EN"
 "http://www.w3.org/Graphics/SVG/1.1/DTD/svg11.dtd">
<!-- Generated by graphviz version 2.43.0 (0)
 -->
<!-- Title: Sector&#45;less network (with underground CO2 storage and CO2 transport and DAC node&#45;based) Pages: 1 -->
<svg width="1488pt" height="1227pt"
 viewBox="0.00 0.00 1487.50 1226.58" xmlns="http://www.w3.org/2000/svg" xmlns:xlink="http://www.w3.org/1999/xlink">
<g id="graph0" class="graph" transform="scale(1 1) rotate(0) translate(4 1222.58)">
<title>Sector&#45;less network (with underground CO2 storage and CO2 transport and DAC node&#45;based)</title>
<g id="a_graph0"><a xlink:title="Network: Sector&#45;less network (with underground CO2 storage and CO2 transport and DAC node&#45;based)&#10;Buses: 8 (out of 8)&#10;Generators: 6 (out of 6)&#10;Loads: 2 (out of 2)&#10;Stores: 4 (out of 4)&#10;Storage units: 2 (out of 2)&#10;Links: 6 (out of 6)&#10;Lines: 0 (out of 0)&#10;Snapshots: 1">
<text text-anchor="middle" x="739.75" y="-1203.38" font-family="Times,serif" font-size="14.00">Sector&#45;less network (with underground CO2 storage and CO2 transport and DAC node&#45;based)</text>
<text text-anchor="middle" x="739.75" y="-1156.38" font-family="Times,serif" font-size="14.00"> &#160;&#160;&#160;&#160;&#160;&#160;&#160;&#160;&#160;&#160;</text>
</a>
</g>
<!-- p9 (bus) -->
<g id="node1" class="node">
<title>p9 (bus)</title>
<g id="a_node1"><a xlink:title="Bus: p9&#10;Carrier: AC&#10;Unit: &#10;Generators: 2&#10;Loads: 1&#10;Stores: 0&#10;Storage units: 1&#10;Incoming links: 1&#10;Outgoing links: 2&#10;Lines: 0&#10;&#10;Power time series: N/A ">
<polygon fill="none" stroke="transparent" stroke-width="7.3" points="1060,-610.5 822,-610.5 822,-588.5 1060,-588.5 1060,-610.5"/>
<polyline fill="none" stroke="black" stroke-width="7.3" points="822,-588.5 1060,-588.5 "/>
<text text-anchor="start" x="936" y="-597.6" font-family="Courier New" font-size="8.00" fill="red">p9</text>
</a>
</g>
</g>
<!-- p10 (bus) -->
<g id="node5" class="node">
<title>p10 (bus)</title>
<g id="a_node5"><a xlink:title="Bus: p10&#10;Carrier: AC&#10;Unit: &#10;Generators: 2&#10;Loads: 1&#10;Stores: 0&#10;Storage units: 1&#10;Incoming links: 2&#10;Outgoing links: 1&#10;Lines: 0&#10;&#10;Power time series: N/A ">
<polygon fill="none" stroke="transparent" stroke-width="7.3" points="1426,-447 1188,-447 1188,-425 1426,-425 1426,-447"/>
<polyline fill="none" stroke="black" stroke-width="7.3" points="1188,-425 1426,-425 "/>
<text text-anchor="start" x="1300" y="-434.1" font-family="Courier New" font-size="8.00" fill="red">p10</text>
</a>
</g>
</g>
<!-- p9 (bus)&#45;&gt;p10 (bus) -->
<g id="edge15" class="edge">
<title>p9 (bus)&#45;&gt;p10 (bus)</title>
<g id="a_edge15"><a xlink:title="Link: p9||p10&#10;From: p9 (bus0)&#10;To: p10 (bus1)&#10;Carrier: &#10;Extendable nominal power: False&#10;Nominal power: 0.00 MW&#10;Efficiency: 1.00&#10;Capital cost: 0.00 currency/MW&#10;Marginal cost: 0.00 currency/MWh&#10;&#10;Optimised nominal power: 0.00 MW&#10;Power time series (p0): N/A MW&#10;Power time series (p1): N/A MW">
<path fill="none" stroke="black" stroke-width="1.5" d="M963.89,-588.4C1026.16,-560.92 1198.83,-484.73 1272.73,-452.12"/>
<polygon fill="black" stroke="black" stroke-width="1.5" points="1284.11,-447.1 1275.32,-456.88 1278.73,-449.75 1273.24,-452.17 1273.14,-451.94 1273.03,-451.71 1278.52,-449.29 1270.96,-447 1284.11,-447.1 1284.11,-447.1"/>
</a>
</g>
<text text-anchor="start" x="1124" y="-517.6" font-family="Courier New" font-size="8.00" fill="red">p9||p10</text>
</g>
<!-- p9 AC (load) -->
<g id="node15" class="node">
<title>p9 AC (load)</title>
<g id="a_node15"><a xlink:title="Load: p9 AC&#10;Bus: p9&#10;Carrier: &#10;Power set: 0.00 ">
<polygon fill="none" stroke="black" stroke-width="2" points="856,-393 910,-457.5 802,-457.5 856,-393"/>
<text text-anchor="start" x="844.5" y="-434.1" font-family="Courier New" font-size="8.00" fill="red">p9 AC</text>
</a>
</g>
</g>
<!-- p9 (bus)&#45;&gt;p9 AC (load) -->
<g id="edge7" class="edge">
<title>p9 (bus)&#45;&gt;p9 AC (load)</title>
<path fill="none" stroke="black" stroke-width="1.5" d="M935.68,-588.4C921.98,-562.36 885.25,-492.58 866.84,-457.6"/>
</g>
<!-- p9 battery (storage unit) -->
<g id="node21" class="node">
<title>p9 battery (storage unit)</title>
<g id="a_node21"><a xlink:title="Storage unit: p9 battery&#10;Bus: p9&#10;Carrier: &#10;Extendable nominal power: False&#10;Nominal power: 0.00 &#10;Power set: 0.00 &#10;Charge cyclic state: False&#10;Capital cost: 0.00 currency/&#10;Marginal cost: 0.00 currency/h&#10;&#10;Optimised nominal power: 0.00 &#10;Power time series: N/A ">
<polygon fill="none" stroke="black" stroke-width="2" points="1116.28,-454 1009.25,-454 981.72,-418 1088.75,-418 1116.28,-454"/>
<text text-anchor="start" x="1026" y="-434.1" font-family="Courier New" font-size="8.00" fill="red">p9 battery</text>
</a>
</g>
</g>
<!-- p9 (bus)&#45;&gt;p9 battery (storage unit) -->
<g id="edge13" class="edge">
<title>p9 (bus)&#45;&gt;p9 battery (storage unit)</title>
<path fill="none" stroke="black" stroke-width="1.5" d="M954.43,-578.42C973.69,-549.61 1009.21,-496.49 1030.81,-464.19"/>
<polygon fill="black" stroke="black" stroke-width="1.5" points="947.76,-588.4 949.94,-575.42 950.88,-583.27 954.22,-578.28 954.43,-578.42 954.63,-578.56 951.3,-583.55 958.92,-581.42 947.76,-588.4 947.76,-588.4"/>
<polygon fill="black" stroke="black" stroke-width="1.5" points="1037.56,-454.1 1035.38,-467.08 1034.43,-459.23 1031.1,-464.22 1030.89,-464.08 1030.68,-463.94 1034.02,-458.95 1026.4,-461.08 1037.56,-454.1 1037.56,-454.1"/>
</g>
<!-- p9 dac (multi&#45;link) -->
<g id="node24" class="node">
<title>p9 dac (multi&#45;link)</title>
<g id="a_node24"><a xlink:title="Multi&#45;link: p9 dac&#10;From: p9 atmosphere (bus0)&#10;To: p9 (bus1)&#10;To: p9 co2 capture (bus2)&#10;Carrier: &#10;Extendable nominal energy: False&#10;Nominal power: 0.00 MW&#10;Capital cost: 0.00 currency/MW&#10;Marginal cost: 0.00 currency/MWh&#10;&#10;Optimised nominal power: 0.00 MW&#10;Power time series (p0): N/A MW">
<ellipse fill="black" stroke="black" cx="272" cy="-436" rx="2.16" ry="2.16"/>
</a>
</g>
</g>
<!-- p9 (bus)&#45;&gt;p9 dac (multi&#45;link) -->
<g id="edge24" class="edge">
<title>p9 (bus)&#45;&gt;p9 dac (multi&#45;link)</title>
<g id="a_edge24"><a xlink:title="Multi&#45;link: p9 dac (inverted)&#10;From: p9 (bus1)&#10;To: p9 atmosphere (bus0)&#10;Carrier: &#10;Extendable nominal power: False&#10;Nominal power: 0.00 MW&#10;Efficiency: 1.00&#10;Capital cost: 0.00 currency/MW&#10;Marginal cost: 0.00 currency/MWh&#10;&#10;Optimised nominal power: 0.00 MW&#10;Power time series (p1): N/A MW&#10;Power time series (p0): N/A MW">
<path fill="none" stroke="black" stroke-width="1.5" d="M893.47,-588.43C788.68,-566.22 547,-515 547,-515 547,-515 310,-479 310,-479 310,-479 292.44,-459.6 281.2,-447.17"/>
<polygon fill="black" stroke="black" stroke-width="1.5" points="272.94,-438.04 284.99,-443.31 277.15,-442.32 281.18,-446.77 280.99,-446.94 280.8,-447.1 276.78,-442.66 276.99,-450.56 272.94,-438.04 272.94,-438.04"/>
</a>
</g>
<text text-anchor="start" x="588" y="-517.6" font-family="Courier New" font-size="8.00" fill="red">p9 dac</text>
</g>
<!-- p9 CCGT&#45;95CC_2030 (bus) -->
<g id="node2" class="node">
<title>p9 CCGT&#45;95CC_2030 (bus)</title>
<g id="a_node2"><a xlink:title="Bus: p9 CCGT&#45;95CC_2030&#10;Carrier: AC&#10;Unit: &#10;Generators: 1&#10;Loads: 0&#10;Stores: 0&#10;Storage units: 0&#10;Incoming links: 0&#10;Outgoing links: 3&#10;Lines: 0&#10;&#10;Power time series: N/A ">
<polygon fill="none" stroke="transparent" stroke-width="7.3" points="358,-941.18 120,-941.18 120,-919.18 358,-919.18 358,-941.18"/>
<polyline fill="none" stroke="black" stroke-width="7.3" points="120,-919.18 358,-919.18 "/>
<text text-anchor="start" x="200.5" y="-928.28" font-family="Courier New" font-size="8.00" fill="red">p9 CCGT&#45;95CC_2030</text>
</a>
</g>
</g>
<!-- p9 CCGT&#45;95CC_2030 (multi&#45;link) -->
<g id="node23" class="node">
<title>p9 CCGT&#45;95CC_2030 (multi&#45;link)</title>
<g id="a_node23"><a xlink:title="Multi&#45;link: p9 CCGT&#45;95CC_2030&#10;From: p9 CCGT&#45;95CC_2030 (bus0)&#10;To: p9 (bus1)&#10;To: p9 atmosphere (bus3)&#10;To: p9 co2 capture (bus2)&#10;Carrier: &#10;Extendable nominal energy: False&#10;Nominal power: 0.00 MW&#10;Capital cost: 0.00 currency/MW&#10;Marginal cost: 0.00 currency/MWh&#10;&#10;Optimised nominal power: 0.00 MW&#10;Power time series (p0): N/A MW">
<ellipse fill="black" stroke="black" cx="239" cy="-759.5" rx="2.16" ry="2.16"/>
</a>
</g>
</g>
<!-- p9 CCGT&#45;95CC_2030 (bus)&#45;&gt;p9 CCGT&#45;95CC_2030 (multi&#45;link) -->
<g id="edge17" class="edge">
<title>p9 CCGT&#45;95CC_2030 (bus)&#45;&gt;p9 CCGT&#45;95CC_2030 (multi&#45;link)</title>
<g id="a_edge17"><a xlink:title="Multi&#45;link: p9 CCGT&#45;95CC_2030&#10;From: p9 CCGT&#45;95CC_2030 (bus0)&#10;To: p9 (bus1)&#10;To: p9 atmosphere (bus3)&#10;To: p9 co2 capture (bus2)&#10;Carrier: &#10;Extendable nominal power: False&#10;Nominal power: 0.00 MW&#10;Capital cost: 0.00 currency/MW&#10;Marginal cost: 0.00 currency/MWh&#10;&#10;Optimised nominal power: 0.00 MW&#10;Power time series (p0): N/A MW">
<path fill="none" stroke="black" stroke-width="1.5" d="M239,-919.13C239,-885.09 239,-775.45 239,-761.88"/>
</a>
</g>
<text text-anchor="start" x="239" y="-837.6" font-family="Courier New" font-size="8.00" fill="red">p9 CCGT&#45;95CC_2030</text>
</g>
<!-- p9 co2 capture (bus) -->
<g id="node3" class="node">
<title>p9 co2 capture (bus)</title>
<g id="a_node3"><a xlink:title="Bus: p9 co2 capture&#10;Carrier: AC&#10;Unit: &#10;Generators: 0&#10;Loads: 0&#10;Stores: 1&#10;Storage units: 0&#10;Incoming links: 3&#10;Outgoing links: 1&#10;Lines: 0&#10;&#10;Power time series: N/A ">
<polygon fill="none" stroke="transparent" stroke-width="7.3" points="238,-280 0,-280 0,-258 238,-258 238,-280"/>
<polyline fill="none" stroke="black" stroke-width="7.3" points="0,-258 238,-258 "/>
<text text-anchor="start" x="87" y="-267.1" font-family="Courier New" font-size="8.00" fill="red">p9 co2 capture</text>
</a>
</g>
</g>
<!-- p10 co2 capture (bus) -->
<g id="node7" class="node">
<title>p10 co2 capture (bus)</title>
<g id="a_node7"><a xlink:title="Bus: p10 co2 capture&#10;Carrier: AC&#10;Unit: &#10;Generators: 0&#10;Loads: 0&#10;Stores: 1&#10;Storage units: 0&#10;Incoming links: 3&#10;Outgoing links: 1&#10;Lines: 0&#10;&#10;Power time series: N/A ">
<polygon fill="none" stroke="transparent" stroke-width="7.3" points="657,-138 419,-138 419,-116 657,-116 657,-138"/>
<polyline fill="none" stroke="black" stroke-width="7.3" points="419,-116 657,-116 "/>
<text text-anchor="start" x="504" y="-125.1" font-family="Courier New" font-size="8.00" fill="red">p10 co2 capture</text>
</a>
</g>
</g>
<!-- p9 co2 capture (bus)&#45;&gt;p10 co2 capture (bus) -->
<g id="edge16" class="edge">
<title>p9 co2 capture (bus)&#45;&gt;p10 co2 capture (bus)</title>
<g id="a_edge16"><a xlink:title="Bidirectional link: p9||p10 co2 transport&#10;From: p9 co2 capture (bus0)&#10;To: p10 co2 capture (bus1)&#10;Carrier: &#10;Extendable nominal power: False&#10;Nominal power: 0.00 MW&#10;Efficiency: 1.00&#10;Capital cost: 0.00 currency/MW&#10;Marginal cost: 0.00 currency/MWh&#10;&#10;Optimised nominal power: 0.00 MW&#10;Power time series (p0): N/A MW&#10;Power time series (p1): N/A MW">
<path fill="none" stroke="black" stroke-width="1.5" d="M160.54,-254.12C240.72,-227.33 415.94,-168.78 496.26,-141.95"/>
<polygon fill="black" stroke="black" stroke-width="1.5" points="149.13,-257.93 158.8,-249.01 154.74,-255.79 160.44,-253.89 160.51,-254.13 160.59,-254.37 154.9,-256.27 162.23,-259.25 149.13,-257.93 149.13,-257.93"/>
<polygon fill="black" stroke="black" stroke-width="1.5" points="507.86,-138.07 498.19,-147 502.25,-140.21 496.56,-142.11 496.48,-141.87 496.4,-141.64 502.09,-139.74 494.77,-136.75 507.86,-138.07 507.86,-138.07"/>
</a>
</g>
<text text-anchor="start" x="379" y="-183.6" font-family="Courier New" font-size="8.00" fill="red">p9||p10 co2 transport</text>
</g>
<!-- p9 co2 storage (store) -->
<g id="node17" class="node">
<title>p9 co2 storage (store)</title>
<g id="a_node17"><a xlink:title="Store: p9 co2 storage&#10;Bus: p9 co2 capture&#10;Carrier: &#10;Extendable nominal energy: False&#10;Nominal energy: 0.00 h&#10;Power set: 0.00 &#10;Cyclic energy: False&#10;Capital cost: 0.00 currency/&#10;Marginal cost: 0.00 currency/h&#10;&#10;Optimised nominal energy: 0.00 h&#10;Energy time series: N/A h&#10;Power time series: N/A ">
<polygon fill="none" stroke="black" stroke-width="2" points="169.5,-145 68.5,-145 68.5,-109 169.5,-109 169.5,-145"/>
<text text-anchor="start" x="87" y="-125.1" font-family="Courier New" font-size="8.00" fill="red">p9 co2 storage</text>
</a>
</g>
</g>
<!-- p9 co2 capture (bus)&#45;&gt;p9 co2 storage (store) -->
<g id="edge9" class="edge">
<title>p9 co2 capture (bus)&#45;&gt;p9 co2 storage (store)</title>
<path fill="none" stroke="black" stroke-width="1.5" d="M119,-245.61C119,-221.69 119,-183.68 119,-157.38"/>
<polygon fill="black" stroke="black" stroke-width="1.5" points="119,-257.93 113.6,-245.93 118.75,-251.93 118.75,-245.93 119,-245.93 119.25,-245.93 119.25,-251.93 124.4,-245.93 119,-257.93 119,-257.93"/>
<polygon fill="black" stroke="black" stroke-width="1.5" points="119,-145.17 124.4,-157.17 119.25,-151.17 119.25,-157.17 119,-157.17 118.75,-157.17 118.75,-151.17 113.6,-157.17 119,-145.17 119,-145.17"/>
</g>
<!-- p9 atmosphere (bus) -->
<g id="node4" class="node">
<title>p9 atmosphere (bus)</title>
<g id="a_node4"><a xlink:title="Bus: p9 atmosphere&#10;Carrier: AC&#10;Unit: &#10;Generators: 0&#10;Loads: 0&#10;Stores: 1&#10;Storage units: 0&#10;Incoming links: 2&#10;Outgoing links: 1&#10;Lines: 0&#10;&#10;Power time series: N/A ">
<polygon fill="none" stroke="transparent" stroke-width="7.3" points="358,-610.5 120,-610.5 120,-588.5 358,-588.5 358,-610.5"/>
<polyline fill="none" stroke="black" stroke-width="7.3" points="120,-588.5 358,-588.5 "/>
<text text-anchor="start" x="209.5" y="-597.6" font-family="Courier New" font-size="8.00" fill="red">p9 atmosphere</text>
</a>
</g>
</g>
<!-- p9 atmosphere (store) -->
<g id="node18" class="node">
<title>p9 atmosphere (store)</title>
<g id="a_node18"><a xlink:title="Store: p9 atmosphere&#10;Bus: p9 atmosphere&#10;Carrier: &#10;Extendable nominal energy: False&#10;Nominal energy: 0.00 h&#10;Power set: 0.00 &#10;Cyclic energy: False&#10;Capital cost: 0.00 currency/&#10;Marginal cost: 0.00 currency/h&#10;&#10;Optimised nominal energy: 0.00 h&#10;Energy time series: N/A h&#10;Power time series: N/A ">
<polygon fill="none" stroke="black" stroke-width="2" points="197.5,-454 96.5,-454 96.5,-418 197.5,-418 197.5,-454"/>
<text text-anchor="start" x="117.5" y="-434.1" font-family="Courier New" font-size="8.00" fill="red">p9 atmosphere</text>
</a>
</g>
</g>
<!-- p9 atmosphere (bus)&#45;&gt;p9 atmosphere (store) -->
<g id="edge10" class="edge">
<title>p9 atmosphere (bus)&#45;&gt;p9 atmosphere (store)</title>
<path fill="none" stroke="black" stroke-width="1.5" d="M227.08,-577.57C210.69,-548.81 181.17,-496.99 162.92,-464.94"/>
<polygon fill="black" stroke="black" stroke-width="1.5" points="233.24,-588.4 222.61,-580.64 230.06,-583.31 227.09,-578.09 227.31,-577.97 227.52,-577.85 230.49,-583.06 232,-575.3 233.24,-588.4 233.24,-588.4"/>
<polygon fill="black" stroke="black" stroke-width="1.5" points="156.74,-454.1 167.38,-461.86 159.93,-459.19 162.9,-464.41 162.68,-464.53 162.47,-464.65 159.5,-459.44 157.99,-467.2 156.74,-454.1 156.74,-454.1"/>
</g>
<!-- p9 atmosphere (bus)&#45;&gt;p9 dac (multi&#45;link) -->
<g id="edge18" class="edge">
<title>p9 atmosphere (bus)&#45;&gt;p9 dac (multi&#45;link)</title>
<g id="a_edge18"><a xlink:title="Multi&#45;link: p9 dac&#10;From: p9 atmosphere (bus0)&#10;To: p9 (bus1)&#10;To: p9 co2 capture (bus2)&#10;Carrier: &#10;Extendable nominal power: False&#10;Nominal power: 0.00 MW&#10;Capital cost: 0.00 currency/MW&#10;Marginal cost: 0.00 currency/MWh&#10;&#10;Optimised nominal power: 0.00 MW&#10;Power time series (p0): N/A MW">
<path fill="none" stroke="black" stroke-width="1.5" d="M241.06,-588.4C247.84,-555.25 269.1,-451.19 271.73,-438.31"/>
</a>
</g>
<text text-anchor="start" x="256" y="-517.6" font-family="Courier New" font-size="8.00" fill="red">p9 dac</text>
</g>
<!-- p10 AC (load) -->
<g id="node16" class="node">
<title>p10 AC (load)</title>
<g id="a_node16"><a xlink:title="Load: p10 AC&#10;Bus: p10&#10;Carrier: &#10;Power set: 0.00 ">
<polygon fill="none" stroke="black" stroke-width="2" points="1210,-226 1264,-290.5 1156,-290.5 1210,-226"/>
<text text-anchor="start" x="1196" y="-267.1" font-family="Courier New" font-size="8.00" fill="red">p10 AC</text>
</a>
</g>
</g>
<!-- p10 (bus)&#45;&gt;p10 AC (load) -->
<g id="edge8" class="edge">
<title>p10 (bus)&#45;&gt;p10 AC (load)</title>
<path fill="none" stroke="black" stroke-width="1.5" d="M1300.93,-424.68C1285.25,-398.01 1243.16,-326.41 1222.2,-290.76"/>
</g>
<!-- p10 battery (storage unit) -->
<g id="node22" class="node">
<title>p10 battery (storage unit)</title>
<g id="a_node22"><a xlink:title="Storage unit: p10 battery&#10;Bus: p10&#10;Carrier: &#10;Extendable nominal power: False&#10;Nominal power: 0.00 &#10;Power set: 0.00 &#10;Charge cyclic state: False&#10;Capital cost: 0.00 currency/&#10;Marginal cost: 0.00 currency/h&#10;&#10;Optimised nominal power: 0.00 &#10;Power time series: N/A ">
<polygon fill="none" stroke="black" stroke-width="2" points="1470.28,-287 1363.25,-287 1335.72,-251 1442.75,-251 1470.28,-287"/>
<text text-anchor="start" x="1378" y="-267.1" font-family="Courier New" font-size="8.00" fill="red">p10 battery</text>
</a>
</g>
</g>
<!-- p10 (bus)&#45;&gt;p10 battery (storage unit) -->
<g id="edge14" class="edge">
<title>p10 (bus)&#45;&gt;p10 battery (storage unit)</title>
<path fill="none" stroke="black" stroke-width="1.5" d="M1319.21,-414.02C1336.37,-384.52 1367.68,-330.71 1386.78,-297.88"/>
<polygon fill="black" stroke="black" stroke-width="1.5" points="1313.01,-424.68 1314.37,-411.59 1315.81,-419.37 1318.82,-414.18 1319.04,-414.31 1319.26,-414.43 1316.24,-419.62 1323.71,-417.02 1313.01,-424.68 1313.01,-424.68"/>
<polygon fill="black" stroke="black" stroke-width="1.5" points="1392.99,-287.21 1391.62,-300.3 1390.18,-292.52 1387.17,-297.71 1386.95,-297.58 1386.74,-297.46 1389.75,-292.27 1382.28,-294.87 1392.99,-287.21 1392.99,-287.21"/>
</g>
<!-- p10 dac (multi&#45;link) -->
<g id="node26" class="node">
<title>p10 dac (multi&#45;link)</title>
<g id="a_node26"><a xlink:title="Multi&#45;link: p10 dac&#10;From: p10 atmosphere (bus0)&#10;To: p10 (bus1)&#10;To: p10 co2 capture (bus2)&#10;Carrier: &#10;Extendable nominal energy: False&#10;Nominal power: 0.00 MW&#10;Capital cost: 0.00 currency/MW&#10;Marginal cost: 0.00 currency/MWh&#10;&#10;Optimised nominal power: 0.00 MW&#10;Power time series (p0): N/A MW">
<ellipse fill="black" stroke="black" cx="538" cy="-269" rx="2.16" ry="2.16"/>
</a>
</g>
</g>
<!-- p10 (bus)&#45;&gt;p10 dac (multi&#45;link) -->
<g id="edge29" class="edge">
<title>p10 (bus)&#45;&gt;p10 dac (multi&#45;link)</title>
<g id="a_edge29"><a xlink:title="Multi&#45;link: p10 dac (inverted)&#10;From: p10 (bus1)&#10;To: p10 atmosphere (bus0)&#10;Carrier: &#10;Extendable nominal power: False&#10;Nominal power: 0.00 MW&#10;Efficiency: 1.00&#10;Capital cost: 0.00 currency/MW&#10;Marginal cost: 0.00 currency/MWh&#10;&#10;Optimised nominal power: 0.00 MW&#10;Power time series (p1): N/A MW&#10;Power time series (p0): N/A MW">
<path fill="none" stroke="black" stroke-width="1.5" d="M1269.87,-424.94C1224.02,-412.51 1152,-393 1152,-393 1152,-393 571,-357 571,-357 571,-357 551.99,-306.88 542.83,-282.72"/>
<polygon fill="black" stroke="black" stroke-width="1.5" points="538.47,-271.23 547.77,-280.53 540.83,-276.75 542.96,-282.36 542.72,-282.45 542.49,-282.54 540.36,-276.93 537.67,-284.36 538.47,-271.23 538.47,-271.23"/>
</a>
</g>
<text text-anchor="start" x="571" y="-350.6" font-family="Courier New" font-size="8.00" fill="red">p10 dac</text>
</g>
<!-- p10 CCGT&#45;95CC_2030 (bus) -->
<g id="node6" class="node">
<title>p10 CCGT&#45;95CC_2030 (bus)</title>
<g id="a_node6"><a xlink:title="Bus: p10 CCGT&#45;95CC_2030&#10;Carrier: AC&#10;Unit: &#10;Generators: 1&#10;Loads: 0&#10;Stores: 0&#10;Storage units: 0&#10;Incoming links: 0&#10;Outgoing links: 3&#10;Lines: 0&#10;&#10;Power time series: N/A ">
<polygon fill="none" stroke="transparent" stroke-width="7.3" points="782,-770.5 544,-770.5 544,-748.5 782,-748.5 782,-770.5"/>
<polyline fill="none" stroke="black" stroke-width="7.3" points="544,-748.5 782,-748.5 "/>
<text text-anchor="start" x="622" y="-757.6" font-family="Courier New" font-size="8.00" fill="red">p10 CCGT&#45;95CC_2030</text>
</a>
</g>
</g>
<!-- p10 CCGT&#45;95CC_2030 (multi&#45;link) -->
<g id="node25" class="node">
<title>p10 CCGT&#45;95CC_2030 (multi&#45;link)</title>
<g id="a_node25"><a xlink:title="Multi&#45;link: p10 CCGT&#45;95CC_2030&#10;From: p10 CCGT&#45;95CC_2030 (bus0)&#10;To: p10 (bus1)&#10;To: p10 atmosphere (bus3)&#10;To: p10 co2 capture (bus2)&#10;Carrier: &#10;Extendable nominal energy: False&#10;Nominal power: 0.00 MW&#10;Capital cost: 0.00 currency/MW&#10;Marginal cost: 0.00 currency/MWh&#10;&#10;Optimised nominal power: 0.00 MW&#10;Power time series (p0): N/A MW">
<ellipse fill="black" stroke="black" cx="683" cy="-599.5" rx="2.16" ry="2.16"/>
</a>
</g>
</g>
<!-- p10 CCGT&#45;95CC_2030 (bus)&#45;&gt;p10 CCGT&#45;95CC_2030 (multi&#45;link) -->
<g id="edge19" class="edge">
<title>p10 CCGT&#45;95CC_2030 (bus)&#45;&gt;p10 CCGT&#45;95CC_2030 (multi&#45;link)</title>
<g id="a_edge19"><a xlink:title="Multi&#45;link: p10 CCGT&#45;95CC_2030&#10;From: p10 CCGT&#45;95CC_2030 (bus0)&#10;To: p10 (bus1)&#10;To: p10 atmosphere (bus3)&#10;To: p10 co2 capture (bus2)&#10;Carrier: &#10;Extendable nominal power: False&#10;Nominal power: 0.00 MW&#10;Capital cost: 0.00 currency/MW&#10;Marginal cost: 0.00 currency/MWh&#10;&#10;Optimised nominal power: 0.00 MW&#10;Power time series (p0): N/A MW">
<path fill="none" stroke="black" stroke-width="1.5" d="M661.25,-748.45C657.7,-728.12 650,-684 650,-684 650,-684 650,-675 650,-675 650,-675 678.05,-611.69 682.43,-601.79"/>
</a>
</g>
<text text-anchor="start" x="650" y="-677.6" font-family="Courier New" font-size="8.00" fill="red">p10 CCGT&#45;95CC_2030</text>
</g>
<!-- p10 co2 storage (store) -->
<g id="node19" class="node">
<title>p10 co2 storage (store)</title>
<g id="a_node19"><a xlink:title="Store: p10 co2 storage&#10;Bus: p10 co2 capture&#10;Carrier: &#10;Extendable nominal energy: False&#10;Nominal energy: 0.00 h&#10;Power set: 0.00 &#10;Cyclic energy: False&#10;Capital cost: 0.00 currency/&#10;Marginal cost: 0.00 currency/h&#10;&#10;Optimised nominal energy: 0.00 h&#10;Energy time series: N/A h&#10;Power time series: N/A ">
<polygon fill="none" stroke="black" stroke-width="2" points="588.5,-36 487.5,-36 487.5,0 588.5,0 588.5,-36"/>
<text text-anchor="start" x="504" y="-16.1" font-family="Courier New" font-size="8.00" fill="red">p10 co2 storage</text>
</a>
</g>
</g>
<!-- p10 co2 capture (bus)&#45;&gt;p10 co2 storage (store) -->
<g id="edge11" class="edge">
<title>p10 co2 capture (bus)&#45;&gt;p10 co2 storage (store)</title>
<path fill="none" stroke="black" stroke-width="1.5" d="M538,-103.47C538,-87.36 538,-65.52 538,-48.08"/>
<polygon fill="black" stroke="black" stroke-width="1.5" points="538,-115.74 532.6,-103.74 537.75,-109.74 537.75,-103.74 538,-103.74 538.25,-103.74 538.25,-109.74 543.4,-103.74 538,-115.74 538,-115.74"/>
<polygon fill="black" stroke="black" stroke-width="1.5" points="538,-36.04 543.4,-48.04 538.25,-42.04 538.25,-48.04 538,-48.04 537.75,-48.04 537.75,-42.04 532.6,-48.04 538,-36.04 538,-36.04"/>
</g>
<!-- p10 atmosphere (bus) -->
<g id="node8" class="node">
<title>p10 atmosphere (bus)</title>
<g id="a_node8"><a xlink:title="Bus: p10 atmosphere&#10;Carrier: AC&#10;Unit: &#10;Generators: 0&#10;Loads: 0&#10;Stores: 1&#10;Storage units: 0&#10;Incoming links: 2&#10;Outgoing links: 1&#10;Lines: 0&#10;&#10;Power time series: N/A ">
<polygon fill="none" stroke="transparent" stroke-width="7.3" points="584,-447 346,-447 346,-425 584,-425 584,-447"/>
<polyline fill="none" stroke="black" stroke-width="7.3" points="346,-425 584,-425 "/>
<text text-anchor="start" x="433" y="-434.1" font-family="Courier New" font-size="8.00" fill="red">p10 atmosphere</text>
</a>
</g>
</g>
<!-- p10 atmosphere (store) -->
<g id="node20" class="node">
<title>p10 atmosphere (store)</title>
<g id="a_node20"><a xlink:title="Store: p10 atmosphere&#10;Bus: p10 atmosphere&#10;Carrier: &#10;Extendable nominal energy: False&#10;Nominal energy: 0.00 h&#10;Power set: 0.00 &#10;Cyclic energy: False&#10;Capital cost: 0.00 currency/&#10;Marginal cost: 0.00 currency/h&#10;&#10;Optimised nominal energy: 0.00 h&#10;Energy time series: N/A h&#10;Power time series: N/A ">
<polygon fill="none" stroke="black" stroke-width="2" points="411.5,-287 310.5,-287 310.5,-251 411.5,-251 411.5,-287"/>
<text text-anchor="start" x="329" y="-267.1" font-family="Courier New" font-size="8.00" fill="red">p10 atmosphere</text>
</a>
</g>
</g>
<!-- p10 atmosphere (bus)&#45;&gt;p10 atmosphere (store) -->
<g id="edge12" class="edge">
<title>p10 atmosphere (bus)&#45;&gt;p10 atmosphere (store)</title>
<path fill="none" stroke="black" stroke-width="1.5" d="M452.05,-414.45C433.44,-384.93 399.11,-330.46 378.33,-297.5"/>
<polygon fill="black" stroke="black" stroke-width="1.5" points="458.49,-424.68 447.53,-417.41 455.08,-419.74 451.88,-414.66 452.1,-414.53 452.31,-414.39 455.51,-419.47 456.66,-411.65 458.49,-424.68 458.49,-424.68"/>
<polygon fill="black" stroke="black" stroke-width="1.5" points="371.85,-287.21 382.82,-294.48 375.26,-292.15 378.46,-297.23 378.25,-297.36 378.04,-297.5 374.84,-292.42 373.68,-300.24 371.85,-287.21 371.85,-287.21"/>
</g>
<!-- p10 atmosphere (bus)&#45;&gt;p10 dac (multi&#45;link) -->
<g id="edge20" class="edge">
<title>p10 atmosphere (bus)&#45;&gt;p10 dac (multi&#45;link)</title>
<g id="a_edge20"><a xlink:title="Multi&#45;link: p10 dac&#10;From: p10 atmosphere (bus0)&#10;To: p10 (bus1)&#10;To: p10 co2 capture (bus2)&#10;Carrier: &#10;Extendable nominal power: False&#10;Nominal power: 0.00 MW&#10;Capital cost: 0.00 currency/MW&#10;Marginal cost: 0.00 currency/MWh&#10;&#10;Optimised nominal power: 0.00 MW&#10;Power time series (p0): N/A MW">
<path fill="none" stroke="black" stroke-width="1.5" d="M464.61,-424.8C463.79,-403.66 462,-357 462,-357 462,-357 462,-348 462,-348 462,-348 527.69,-280.58 536.93,-271.1"/>
</a>
</g>
<text text-anchor="start" x="462" y="-350.6" font-family="Courier New" font-size="8.00" fill="red">p10 dac</text>
</g>
<!-- p9 onwind (generator) -->
<g id="node9" class="node">
<title>p9 onwind (generator)</title>
<g id="a_node9"><a xlink:title="Generator: p9 onwind&#10;Bus: p9&#10;Carrier: &#10;Extendable nominal power: False&#10;Nominal power: 0.00 &#10;Power set: 0.00 &#10;Efficiency: 1.00&#10;Capital cost: 0.00 currency/&#10;Marginal cost: 0.00 currency/h&#10;&#10;Optimised nominal power: 0.00 &#10;Power time series: N/A ">
<ellipse fill="none" stroke="black" stroke-width="2" cx="941" cy="-759.5" rx="39.5" ry="39.5"/>
<text text-anchor="start" x="920.5" y="-757.6" font-family="Courier New" font-size="8.00" fill="red">p9 onwind</text>
</a>
</g>
</g>
<!-- p9 onwind (generator)&#45;&gt;p9 (bus) -->
<g id="edge1" class="edge">
<title>p9 onwind (generator)&#45;&gt;p9 (bus)</title>
<path fill="none" stroke="black" stroke-width="1.5" d="M941,-719.85C941,-683.67 941,-632.06 941,-610.53"/>
</g>
<!-- p9 solar (generator) -->
<g id="node10" class="node">
<title>p9 solar (generator)</title>
<g id="a_node10"><a xlink:title="Generator: p9 solar&#10;Bus: p9&#10;Carrier: &#10;Extendable nominal power: False&#10;Nominal power: 0.00 &#10;Power set: 0.00 &#10;Efficiency: 1.00&#10;Capital cost: 0.00 currency/&#10;Marginal cost: 0.00 currency/h&#10;&#10;Optimised nominal power: 0.00 &#10;Power time series: N/A ">
<ellipse fill="none" stroke="black" stroke-width="2" cx="1092" cy="-759.5" rx="39.5" ry="39.5"/>
<text text-anchor="start" x="1073.5" y="-757.6" font-family="Courier New" font-size="8.00" fill="red">p9 solar</text>
</a>
</g>
</g>
<!-- p9 solar (generator)&#45;&gt;p9 (bus) -->
<g id="edge2" class="edge">
<title>p9 solar (generator)&#45;&gt;p9 (bus)</title>
<path fill="none" stroke="black" stroke-width="1.5" d="M1065,-730.25C1030.73,-694.39 973.34,-634.34 950.65,-610.6"/>
</g>
<!-- p9 CCGT&#45;95CC_2030 (generator) -->
<g id="node11" class="node">
<title>p9 CCGT&#45;95CC_2030 (generator)</title>
<g id="a_node11"><a xlink:title="Generator: p9 CCGT&#45;95CC_2030&#10;Bus: p9 CCGT&#45;95CC_2030&#10;Carrier: &#10;Extendable nominal power: False&#10;Nominal power: 0.00 &#10;Power set: 0.00 &#10;Efficiency: 1.00&#10;Capital cost: 0.00 currency/&#10;Marginal cost: 0.00 currency/h&#10;&#10;Optimised nominal power: 0.00 &#10;Power time series: N/A ">
<ellipse fill="none" stroke="black" stroke-width="2" cx="239" cy="-1100.97" rx="47.73" ry="47.73"/>
<text text-anchor="start" x="200.5" y="-1099.07" font-family="Courier New" font-size="8.00" fill="red">p9 CCGT&#45;95CC_2030</text>
</a>
</g>
</g>
<!-- p9 CCGT&#45;95CC_2030 (generator)&#45;&gt;p9 CCGT&#45;95CC_2030 (bus) -->
<g id="edge3" class="edge">
<title>p9 CCGT&#45;95CC_2030 (generator)&#45;&gt;p9 CCGT&#45;95CC_2030 (bus)</title>
<path fill="none" stroke="black" stroke-width="1.5" d="M239,-1052.95C239,-1014.52 239,-963.12 239,-941.47"/>
</g>
<!-- p10 onwind (generator) -->
<g id="node12" class="node">
<title>p10 onwind (generator)</title>
<g id="a_node12"><a xlink:title="Generator: p10 onwind&#10;Bus: p10&#10;Carrier: &#10;Extendable nominal power: False&#10;Nominal power: 0.00 &#10;Power set: 0.00 &#10;Efficiency: 1.00&#10;Capital cost: 0.00 currency/&#10;Marginal cost: 0.00 currency/h&#10;&#10;Optimised nominal power: 0.00 &#10;Power time series: N/A ">
<ellipse fill="none" stroke="black" stroke-width="2" cx="1289" cy="-599.5" rx="39.5" ry="39.5"/>
<text text-anchor="start" x="1266" y="-597.6" font-family="Courier New" font-size="8.00" fill="red">p10 onwind</text>
</a>
</g>
</g>
<!-- p10 onwind (generator)&#45;&gt;p10 (bus) -->
<g id="edge4" class="edge">
<title>p10 onwind (generator)&#45;&gt;p10 (bus)</title>
<path fill="none" stroke="black" stroke-width="1.5" d="M1293.27,-560.23C1297.4,-523.1 1303.41,-469.23 1305.88,-447.09"/>
</g>
<!-- p10 solar (generator) -->
<g id="node13" class="node">
<title>p10 solar (generator)</title>
<g id="a_node13"><a xlink:title="Generator: p10 solar&#10;Bus: p10&#10;Carrier: &#10;Extendable nominal power: False&#10;Nominal power: 0.00 &#10;Power set: 0.00 &#10;Efficiency: 1.00&#10;Capital cost: 0.00 currency/&#10;Marginal cost: 0.00 currency/h&#10;&#10;Optimised nominal power: 0.00 &#10;Power time series: N/A ">
<ellipse fill="none" stroke="black" stroke-width="2" cx="1440" cy="-599.5" rx="39.5" ry="39.5"/>
<text text-anchor="start" x="1419.5" y="-597.6" font-family="Courier New" font-size="8.00" fill="red">p10 solar</text>
</a>
</g>
</g>
<!-- p10 solar (generator)&#45;&gt;p10 (bus) -->
<g id="edge5" class="edge">
<title>p10 solar (generator)&#45;&gt;p10 (bus)</title>
<path fill="none" stroke="black" stroke-width="1.5" d="M1415.3,-568.5C1384.95,-531.65 1335.06,-471.08 1315.37,-447.17"/>
</g>
<!-- p10 CCGT&#45;95CC_2030 (generator) -->
<g id="node14" class="node">
<title>p10 CCGT&#45;95CC_2030 (generator)</title>
<g id="a_node14"><a xlink:title="Generator: p10 CCGT&#45;95CC_2030&#10;Bus: p10 CCGT&#45;95CC_2030&#10;Carrier: &#10;Extendable nominal power: False&#10;Nominal power: 0.00 &#10;Power set: 0.00 &#10;Efficiency: 1.00&#10;Capital cost: 0.00 currency/&#10;Marginal cost: 0.00 currency/h&#10;&#10;Optimised nominal power: 0.00 &#10;Power time series: N/A ">
<ellipse fill="none" stroke="black" stroke-width="2" cx="663" cy="-930.18" rx="50.35" ry="50.35"/>
<text text-anchor="start" x="622" y="-928.28" font-family="Courier New" font-size="8.00" fill="red">p10 CCGT&#45;95CC_2030</text>
</a>
</g>
</g>
<!-- p10 CCGT&#45;95CC_2030 (generator)&#45;&gt;p10 CCGT&#45;95CC_2030 (bus) -->
<g id="edge6" class="edge">
<title>p10 CCGT&#45;95CC_2030 (generator)&#45;&gt;p10 CCGT&#45;95CC_2030 (bus)</title>
<path fill="none" stroke="black" stroke-width="1.5" d="M663,-879.93C663,-841.62 663,-791.55 663,-770.5"/>
</g>
<!-- p9 CCGT&#45;95CC_2030 (multi&#45;link)&#45;&gt;p9 (bus) -->
<g id="edge21" class="edge">
<title>p9 CCGT&#45;95CC_2030 (multi&#45;link)&#45;&gt;p9 (bus)</title>
<g id="a_edge21"><a xlink:title="Multi&#45;link: p9 CCGT&#45;95CC_2030&#10;From: p9 CCGT&#45;95CC_2030 (bus0)&#10;To: p9 (bus1)&#10;Carrier: &#10;Extendable nominal power: False&#10;Nominal power: 0.00 MW&#10;Efficiency: 1.00&#10;Capital cost: 0.00 currency/MW&#10;Marginal cost: 0.00 currency/MWh&#10;&#10;Optimised nominal power: 0.00 MW&#10;Power time series (p0): N/A MW&#10;Power time series (p1): N/A MW">
<path fill="none" stroke="black" stroke-width="1.5" d="M240.84,-758.23C274.02,-753.35 746,-684 746,-684 746,-684 850.26,-639.36 906.3,-615.36"/>
<polygon fill="black" stroke="black" stroke-width="1.5" points="917.48,-610.57 908.57,-620.26 912.06,-613.16 906.55,-615.53 906.45,-615.3 906.35,-615.07 911.86,-612.7 904.32,-610.33 917.48,-610.57 917.48,-610.57"/>
</a>
</g>
<text text-anchor="start" x="767" y="-677.6" font-family="Courier New" font-size="8.00" fill="red">p9 CCGT&#45;95CC_2030</text>
</g>
<!-- p9 CCGT&#45;95CC_2030 (multi&#45;link)&#45;&gt;p9 co2 capture (bus) -->
<g id="edge23" class="edge">
<title>p9 CCGT&#45;95CC_2030 (multi&#45;link)&#45;&gt;p9 co2 capture (bus)</title>
<g id="a_edge23"><a xlink:title="Multi&#45;link: p9 CCGT&#45;95CC_2030&#10;From: p9 CCGT&#45;95CC_2030 (bus0)&#10;To: p9 co2 capture (bus2)&#10;Carrier: &#10;Extendable nominal power: False&#10;Nominal power: 0.00 MW&#10;Efficiency: 1.00&#10;Capital cost: 0.00 currency/MW&#10;Marginal cost: 0.00 currency/MWh&#10;&#10;Optimised nominal power: 0.00 MW&#10;Power time series (p0): N/A MW&#10;Power time series (p2): N/A MW">
<path fill="none" stroke="black" stroke-width="1.5" d="M237.66,-757.47C222.51,-745.79 84,-639 84,-639 84,-639 60,-479 60,-479 60,-479 60,-393 60,-393 60,-393 92.07,-326.14 108.92,-291.01"/>
<polygon fill="black" stroke="black" stroke-width="1.5" points="114.17,-280.07 113.85,-293.22 111.8,-285.58 109.21,-290.99 108.98,-290.89 108.76,-290.78 111.35,-285.37 104.11,-288.55 114.17,-280.07 114.17,-280.07"/>
</a>
</g>
<text text-anchor="start" x="67" y="-517.6" font-family="Courier New" font-size="8.00" fill="red">p9 CCGT&#45;95CC_2030</text>
</g>
<!-- p9 CCGT&#45;95CC_2030 (multi&#45;link)&#45;&gt;p9 atmosphere (bus) -->
<g id="edge22" class="edge">
<title>p9 CCGT&#45;95CC_2030 (multi&#45;link)&#45;&gt;p9 atmosphere (bus)</title>
<g id="a_edge22"><a xlink:title="Multi&#45;link: p9 CCGT&#45;95CC_2030&#10;From: p9 CCGT&#45;95CC_2030 (bus0)&#10;To: p9 atmosphere (bus3)&#10;Carrier: &#10;Extendable nominal power: False&#10;Nominal power: 0.00 MW&#10;Efficiency: 1.00&#10;Capital cost: 0.00 currency/MW&#10;Marginal cost: 0.00 currency/MWh&#10;&#10;Optimised nominal power: 0.00 MW&#10;Power time series (p0): N/A MW&#10;Power time series (p3): N/A MW">
<path fill="none" stroke="black" stroke-width="1.5" d="M239,-757.13C239,-745.56 239,-663.37 239,-622.9"/>
<polygon fill="black" stroke="black" stroke-width="1.5" points="239,-610.72 244.4,-622.72 239.25,-616.72 239.25,-622.72 239,-622.72 238.75,-622.72 238.75,-616.72 233.6,-622.72 239,-610.72 239,-610.72"/>
</a>
</g>
<text text-anchor="start" x="239" y="-677.6" font-family="Courier New" font-size="8.00" fill="red">p9 CCGT&#45;95CC_2030</text>
</g>
<!-- p9 dac (multi&#45;link)&#45;&gt;p9 co2 capture (bus) -->
<g id="edge25" class="edge">
<title>p9 dac (multi&#45;link)&#45;&gt;p9 co2 capture (bus)</title>
<g id="a_edge25"><a xlink:title="Multi&#45;link: p9 dac&#10;From: p9 atmosphere (bus0)&#10;To: p9 co2 capture (bus2)&#10;Carrier: &#10;Extendable nominal power: False&#10;Nominal power: 0.00 MW&#10;Efficiency: 1.00&#10;Capital cost: 0.00 currency/MW&#10;Marginal cost: 0.00 currency/MWh&#10;&#10;Optimised nominal power: 0.00 MW&#10;Power time series (p0): N/A MW&#10;Power time series (p2): N/A MW">
<path fill="none" stroke="black" stroke-width="1.5" d="M271.02,-433.95C260.91,-423.04 174.98,-330.37 136.96,-289.37"/>
<polygon fill="black" stroke="black" stroke-width="1.5" points="128.61,-280.36 140.73,-285.49 132.87,-284.59 136.95,-288.99 136.77,-289.16 136.58,-289.33 132.5,-284.93 132.81,-292.83 128.61,-280.36 128.61,-280.36"/>
</a>
</g>
<text text-anchor="start" x="196" y="-350.6" font-family="Courier New" font-size="8.00" fill="red">p9 dac</text>
</g>
<!-- p10 CCGT&#45;95CC_2030 (multi&#45;link)&#45;&gt;p10 (bus) -->
<g id="edge26" class="edge">
<title>p10 CCGT&#45;95CC_2030 (multi&#45;link)&#45;&gt;p10 (bus)</title>
<g id="a_edge26"><a xlink:title="Multi&#45;link: p10 CCGT&#45;95CC_2030&#10;From: p10 CCGT&#45;95CC_2030 (bus0)&#10;To: p10 (bus1)&#10;Carrier: &#10;Extendable nominal power: False&#10;Nominal power: 0.00 MW&#10;Efficiency: 1.00&#10;Capital cost: 0.00 currency/MW&#10;Marginal cost: 0.00 currency/MWh&#10;&#10;Optimised nominal power: 0.00 MW&#10;Power time series (p0): N/A MW&#10;Power time series (p1): N/A MW">
<path fill="none" stroke="black" stroke-width="1.5" d="M684.79,-597.83C698.47,-592.72 786,-560 786,-560 786,-560 1152,-479 1152,-479 1152,-479 1212.69,-462.56 1258.11,-450.25"/>
<polygon fill="black" stroke="black" stroke-width="1.5" points="1269.87,-447.06 1259.7,-455.41 1264.15,-448.87 1258.36,-450.44 1258.29,-450.2 1258.23,-449.96 1264.02,-448.39 1256.88,-444.99 1269.87,-447.06 1269.87,-447.06"/>
</a>
</g>
<text text-anchor="start" x="980" y="-517.6" font-family="Courier New" font-size="8.00" fill="red">p10 CCGT&#45;95CC_2030</text>
</g>
<!-- p10 CCGT&#45;95CC_2030 (multi&#45;link)&#45;&gt;p10 co2 capture (bus) -->
<g id="edge28" class="edge">
<title>p10 CCGT&#45;95CC_2030 (multi&#45;link)&#45;&gt;p10 co2 capture (bus)</title>
<g id="a_edge28"><a xlink:title="Multi&#45;link: p10 CCGT&#45;95CC_2030&#10;From: p10 CCGT&#45;95CC_2030 (bus0)&#10;To: p10 co2 capture (bus2)&#10;Carrier: &#10;Extendable nominal power: False&#10;Nominal power: 0.00 MW&#10;Efficiency: 1.00&#10;Capital cost: 0.00 currency/MW&#10;Marginal cost: 0.00 currency/MWh&#10;&#10;Optimised nominal power: 0.00 MW&#10;Power time series (p0): N/A MW&#10;Power time series (p2): N/A MW">
<path fill="none" stroke="black" stroke-width="1.5" d="M682.73,-597.3C677.16,-572.81 588,-181 588,-181 588,-181 570.29,-162.22 555.95,-147.02"/>
<polygon fill="black" stroke="black" stroke-width="1.5" points="547.64,-138.22 559.8,-143.24 551.94,-142.41 556.06,-146.78 555.88,-146.95 555.69,-147.12 551.58,-142.75 551.95,-150.65 547.64,-138.22 547.64,-138.22"/>
</a>
</g>
<text text-anchor="start" x="628" y="-350.6" font-family="Courier New" font-size="8.00" fill="red">p10 CCGT&#45;95CC_2030</text>
</g>
<!-- p10 CCGT&#45;95CC_2030 (multi&#45;link)&#45;&gt;p10 atmosphere (bus) -->
<g id="edge27" class="edge">
<title>p10 CCGT&#45;95CC_2030 (multi&#45;link)&#45;&gt;p10 atmosphere (bus)</title>
<g id="a_edge27"><a xlink:title="Multi&#45;link: p10 CCGT&#45;95CC_2030&#10;From: p10 CCGT&#45;95CC_2030 (bus0)&#10;To: p10 atmosphere (bus3)&#10;Carrier: &#10;Extendable nominal power: False&#10;Nominal power: 0.00 MW&#10;Efficiency: 1.00&#10;Capital cost: 0.00 currency/MW&#10;Marginal cost: 0.00 currency/MWh&#10;&#10;Optimised nominal power: 0.00 MW&#10;Power time series (p0): N/A MW&#10;Power time series (p3): N/A MW">
<path fill="none" stroke="black" stroke-width="1.5" d="M681.27,-597.94C660.04,-591.13 451,-524 451,-524 451,-524 451,-515 451,-515 451,-515 456.91,-482.09 461.05,-459.02"/>
<polygon fill="black" stroke="black" stroke-width="1.5" points="463.17,-447.2 466.36,-459.96 462.36,-453.15 461.3,-459.05 461.05,-459.01 460.8,-458.96 461.86,-453.06 455.73,-458.05 463.17,-447.2 463.17,-447.2"/>
</a>
</g>
<text text-anchor="start" x="451" y="-517.6" font-family="Courier New" font-size="8.00" fill="red">p10 CCGT&#45;95CC_2030</text>
</g>
<!-- p10 dac (multi&#45;link)&#45;&gt;p10 co2 capture (bus) -->
<g id="edge30" class="edge">
<title>p10 dac (multi&#45;link)&#45;&gt;p10 co2 capture (bus)</title>
<g id="a_edge30"><a xlink:title="Multi&#45;link: p10 dac&#10;From: p10 atmosphere (bus0)&#10;To: p10 co2 capture (bus2)&#10;Carrier: &#10;Extendable nominal power: False&#10;Nominal power: 0.00 MW&#10;Efficiency: 1.00&#10;Capital cost: 0.00 currency/MW&#10;Marginal cost: 0.00 currency/MWh&#10;&#10;Optimised nominal power: 0.00 MW&#10;Power time series (p0): N/A MW&#10;Power time series (p2): N/A MW">
<path fill="none" stroke="black" stroke-width="1.5" d="M538,-266.43C538,-255.19 538,-186.44 538,-150.24"/>
<polygon fill="black" stroke="black" stroke-width="1.5" points="538,-138.15 543.4,-150.15 538.25,-144.15 538.25,-150.15 538,-150.15 537.75,-150.15 537.75,-144.15 532.6,-150.15 538,-138.15 538,-138.15"/>
</a>
</g>
<text text-anchor="start" x="538" y="-183.6" font-family="Courier New" font-size="8.00" fill="red">p10 dac</text>
</g>
</g>
</svg>
