<?xml version="1.0" encoding="UTF-8" standalone="no"?>
<!DOCTYPE svg PUBLIC "-//W3C//DTD SVG 1.1//EN"
 "http://www.w3.org/Graphics/SVG/1.1/DTD/svg11.dtd">
<!-- Generated by graphviz version 2.43.0 (0)
 -->
<!-- Title: Sector&#45;based network (without CCTS) Pages: 1 -->
<svg width="1393pt" height="614pt"
 viewBox="0.00 0.00 1393.39 614.32" xmlns="http://www.w3.org/2000/svg" xmlns:xlink="http://www.w3.org/1999/xlink">
<g id="graph0" class="graph" transform="scale(1 1) rotate(0) translate(4 610.32)">
<title>Sector&#45;based network (without CCTS)</title>
<g id="a_graph0"><a xlink:title="Network: Sector&#45;based network (without CCTS)&#10;Buses: 5 (out of 5)&#10;Generators: 0 (out of 0)&#10;Loads: 2 (out of 2)&#10;Stores: 1 (out of 1)&#10;Storage units: 2 (out of 2)&#10;Links: 5 (out of 5)&#10;Lines: 0 (out of 0)&#10;Snapshots: 1">
<text text-anchor="middle" x="692.69" y="-591.12" font-family="Times,serif" font-size="14.00">Sector&#45;based network (without CCTS)</text>
<text text-anchor="middle" x="692.69" y="-544.12" font-family="Times,serif" font-size="14.00"> &#160;&#160;&#160;&#160;&#160;&#160;&#160;&#160;&#160;&#160;</text>
</a>
</g>
<!-- CA gas (bus) -->
<g id="node1" class="node">
<title>CA gas (bus)</title>
<g id="a_node1"><a xlink:title="Bus: CA gas&#10;Carrier: AC&#10;Unit: &#10;Generators: 0&#10;Loads: 0&#10;Stores: 0&#10;Storage units: 0&#10;Incoming links: 0&#10;Outgoing links: 12&#10;Lines: 0&#10;&#10;Power time series: N/A ">
<polygon fill="none" stroke="transparent" stroke-width="7.3" points="613,-536.32 375,-536.32 375,-514.32 613,-514.32 613,-536.32"/>
<polyline fill="none" stroke="black" stroke-width="7.3" points="375,-514.32 613,-514.32 "/>
<text text-anchor="start" x="480" y="-523.42" font-family="Courier New" font-size="8.00" fill="red">CA gas</text>
</a>
</g>
</g>
<!-- p9 OCGT (multi&#45;link) -->
<g id="node11" class="node">
<title>p9 OCGT (multi&#45;link)</title>
<g id="a_node11"><a xlink:title="Multi&#45;link: p9 OCGT&#10;From: CA gas (bus0)&#10;To: p9 (bus1)&#10;To: CA gas&#45;ch4 (bus3)&#10;To: CA pwr&#45;co2 (bus2)&#10;Carrier: &#10;Extendable nominal energy: False&#10;Nominal power: 0.00 MW&#10;Capital cost: 0.00 currency/MW&#10;Marginal cost: 0.00 currency/MWh&#10;&#10;Optimised nominal power: 0.00 MW&#10;Power time series (p0): N/A MW">
<ellipse fill="black" stroke="black" cx="440" cy="-431.16" rx="2.16" ry="2.16"/>
</a>
</g>
</g>
<!-- CA gas (bus)&#45;&gt;p9 OCGT (multi&#45;link) -->
<g id="edge7" class="edge">
<title>CA gas (bus)&#45;&gt;p9 OCGT (multi&#45;link)</title>
<g id="a_edge7"><a xlink:title="Multi&#45;link: p9 OCGT&#10;From: CA gas (bus0)&#10;To: p9 (bus1)&#10;To: CA gas&#45;ch4 (bus3)&#10;To: CA pwr&#45;co2 (bus2)&#10;Carrier: &#10;Extendable nominal power: False&#10;Nominal power: 0.00 MW&#10;Capital cost: 0.00 currency/MW&#10;Marginal cost: 0.00 currency/MWh&#10;&#10;Optimised nominal power: 0.00 MW&#10;Power time series (p0): N/A MW">
<path fill="none" stroke="black" stroke-width="1.5" d="M488.01,-514.11C475.27,-492.36 446.19,-442.73 440.85,-433.61"/>
</a>
</g>
<text text-anchor="start" x="467" y="-471.92" font-family="Courier New" font-size="8.00" fill="red">p9 OCGT</text>
</g>
<!-- p9 CCGT&#45;95CCS_2030 (multi&#45;link) -->
<g id="node12" class="node">
<title>p9 CCGT&#45;95CCS_2030 (multi&#45;link)</title>
<g id="a_node12"><a xlink:title="Multi&#45;link: p9 CCGT&#45;95CCS_2030&#10;From: CA gas (bus0)&#10;To: p9 (bus1)&#10;To: CA gas&#45;ch4 (bus3)&#10;To: CA pwr&#45;co2 (bus2)&#10;Carrier: &#10;Extendable nominal energy: False&#10;Nominal power: 0.00 MW&#10;Capital cost: 0.00 currency/MW&#10;Marginal cost: 0.00 currency/MWh&#10;&#10;Optimised nominal power: 0.00 MW&#10;Power time series (p0): N/A MW">
<ellipse fill="black" stroke="black" cx="199" cy="-431.16" rx="2.16" ry="2.16"/>
</a>
</g>
</g>
<!-- CA gas (bus)&#45;&gt;p9 CCGT&#45;95CCS_2030 (multi&#45;link) -->
<g id="edge8" class="edge">
<title>CA gas (bus)&#45;&gt;p9 CCGT&#45;95CCS_2030 (multi&#45;link)</title>
<g id="a_edge8"><a xlink:title="Multi&#45;link: p9 CCGT&#45;95CCS_2030&#10;From: CA gas (bus0)&#10;To: p9 (bus1)&#10;To: CA gas&#45;ch4 (bus3)&#10;To: CA pwr&#45;co2 (bus2)&#10;Carrier: &#10;Extendable nominal power: False&#10;Nominal power: 0.00 MW&#10;Capital cost: 0.00 currency/MW&#10;Marginal cost: 0.00 currency/MWh&#10;&#10;Optimised nominal power: 0.00 MW&#10;Power time series (p0): N/A MW">
<path fill="none" stroke="black" stroke-width="1.5" d="M461.87,-514.28C389.59,-491.7 219.06,-438.43 200.62,-432.67"/>
</a>
</g>
<text text-anchor="start" x="347" y="-471.92" font-family="Courier New" font-size="8.00" fill="red">p9 CCGT&#45;95CCS_2030</text>
</g>
<!-- p10 OCGT (multi&#45;link) -->
<g id="node13" class="node">
<title>p10 OCGT (multi&#45;link)</title>
<g id="a_node13"><a xlink:title="Multi&#45;link: p10 OCGT&#10;From: CA gas (bus0)&#10;To: p10 (bus1)&#10;To: CA gas&#45;ch4 (bus3)&#10;To: CA pwr&#45;co2 (bus2)&#10;Carrier: &#10;Extendable nominal energy: False&#10;Nominal power: 0.00 MW&#10;Capital cost: 0.00 currency/MW&#10;Marginal cost: 0.00 currency/MWh&#10;&#10;Optimised nominal power: 0.00 MW&#10;Power time series (p0): N/A MW">
<ellipse fill="black" stroke="black" cx="1239" cy="-431.16" rx="2.16" ry="2.16"/>
</a>
</g>
</g>
<!-- CA gas (bus)&#45;&gt;p10 OCGT (multi&#45;link) -->
<g id="edge9" class="edge">
<title>CA gas (bus)&#45;&gt;p10 OCGT (multi&#45;link)</title>
<g id="a_edge9"><a xlink:title="Multi&#45;link: p10 OCGT&#10;From: CA gas (bus0)&#10;To: p10 (bus1)&#10;To: CA gas&#45;ch4 (bus3)&#10;To: CA pwr&#45;co2 (bus2)&#10;Carrier: &#10;Extendable nominal power: False&#10;Nominal power: 0.00 MW&#10;Capital cost: 0.00 currency/MW&#10;Marginal cost: 0.00 currency/MWh&#10;&#10;Optimised nominal power: 0.00 MW&#10;Power time series (p0): N/A MW">
<path fill="none" stroke="black" stroke-width="1.5" d="M575.15,-514.28C760.69,-491.33 1202.65,-436.66 1236.89,-432.42"/>
</a>
</g>
<text text-anchor="start" x="933" y="-471.92" font-family="Courier New" font-size="8.00" fill="red">p10 OCGT</text>
</g>
<!-- p10 CCGT&#45;95CCS_2030 (multi&#45;link) -->
<g id="node14" class="node">
<title>p10 CCGT&#45;95CCS_2030 (multi&#45;link)</title>
<g id="a_node14"><a xlink:title="Multi&#45;link: p10 CCGT&#45;95CCS_2030&#10;From: CA gas (bus0)&#10;To: p10 (bus1)&#10;To: CA gas&#45;ch4 (bus3)&#10;To: CA pwr&#45;co2 (bus2)&#10;Carrier: &#10;Extendable nominal energy: False&#10;Nominal power: 0.00 MW&#10;Capital cost: 0.00 currency/MW&#10;Marginal cost: 0.00 currency/MWh&#10;&#10;Optimised nominal power: 0.00 MW&#10;Power time series (p0): N/A MW">
<ellipse fill="black" stroke="black" cx="764" cy="-431.16" rx="2.16" ry="2.16"/>
</a>
</g>
</g>
<!-- CA gas (bus)&#45;&gt;p10 CCGT&#45;95CCS_2030 (multi&#45;link) -->
<g id="edge10" class="edge">
<title>CA gas (bus)&#45;&gt;p10 CCGT&#45;95CCS_2030 (multi&#45;link)</title>
<g id="a_edge10"><a xlink:title="Multi&#45;link: p10 CCGT&#45;95CCS_2030&#10;From: CA gas (bus0)&#10;To: p10 (bus1)&#10;To: CA gas&#45;ch4 (bus3)&#10;To: CA pwr&#45;co2 (bus2)&#10;Carrier: &#10;Extendable nominal power: False&#10;Nominal power: 0.00 MW&#10;Capital cost: 0.00 currency/MW&#10;Marginal cost: 0.00 currency/MWh&#10;&#10;Optimised nominal power: 0.00 MW&#10;Power time series (p0): N/A MW">
<path fill="none" stroke="black" stroke-width="1.5" d="M523.41,-514.28C589.01,-491.89 743.07,-439.31 762.07,-432.82"/>
</a>
</g>
<text text-anchor="start" x="653" y="-471.92" font-family="Courier New" font-size="8.00" fill="red">p10 CCGT&#45;95CCS_2030</text>
</g>
<!-- CA pwr&#45;co2 (bus) -->
<g id="node2" class="node">
<title>CA pwr&#45;co2 (bus)</title>
<g id="a_node2"><a xlink:title="Bus: CA pwr&#45;co2&#10;Carrier: AC&#10;Unit: &#10;Generators: 0&#10;Loads: 0&#10;Stores: 1&#10;Storage units: 0&#10;Incoming links: 4&#10;Outgoing links: 0&#10;Lines: 0&#10;&#10;Power time series: N/A ">
<polygon fill="none" stroke="transparent" stroke-width="7.3" points="668,-348 430,-348 430,-326 668,-326 668,-348"/>
<polyline fill="none" stroke="black" stroke-width="7.3" points="430,-326 668,-326 "/>
<text text-anchor="start" x="526" y="-335.1" font-family="Courier New" font-size="8.00" fill="red">CA pwr&#45;co2</text>
</a>
</g>
</g>
<!-- CA pwr&#45;co2 (store) -->
<g id="node8" class="node">
<title>CA pwr&#45;co2 (store)</title>
<g id="a_node8"><a xlink:title="Store: CA pwr&#45;co2&#10;Bus: CA pwr&#45;co2&#10;Carrier: &#10;Extendable nominal energy: False&#10;Nominal energy: 0.00 h&#10;Power set: 0.00 &#10;Cyclic energy: False&#10;Capital cost: 0.00 currency/&#10;Marginal cost: 0.00 currency/h&#10;&#10;Optimised nominal energy: 0.00 h&#10;Energy time series: N/A h&#10;Power time series: N/A ">
<polygon fill="none" stroke="black" stroke-width="2" points="599.5,-220 498.5,-220 498.5,-184 599.5,-184 599.5,-220"/>
<text text-anchor="start" x="526" y="-200.1" font-family="Courier New" font-size="8.00" fill="red">CA pwr&#45;co2</text>
</a>
</g>
</g>
<!-- CA pwr&#45;co2 (bus)&#45;&gt;CA pwr&#45;co2 (store) -->
<g id="edge3" class="edge">
<title>CA pwr&#45;co2 (bus)&#45;&gt;CA pwr&#45;co2 (store)</title>
<path fill="none" stroke="black" stroke-width="1.5" d="M549,-313.52C549,-291.23 549,-256.95 549,-232.48"/>
<polygon fill="black" stroke="black" stroke-width="1.5" points="549,-325.56 543.6,-313.56 548.75,-319.56 548.75,-313.56 549,-313.56 549.25,-313.56 549.25,-319.56 554.4,-313.56 549,-325.56 549,-325.56"/>
<polygon fill="black" stroke="black" stroke-width="1.5" points="549,-220.37 554.4,-232.37 549.25,-226.37 549.25,-232.37 549,-232.37 548.75,-232.37 548.75,-226.37 543.6,-232.37 549,-220.37 549,-220.37"/>
</g>
<!-- CA gas&#45;ch4 (bus) -->
<g id="node3" class="node">
<title>CA gas&#45;ch4 (bus)</title>
<g id="a_node3"><a xlink:title="Bus: CA gas&#45;ch4&#10;Carrier: AC&#10;Unit: &#10;Generators: 0&#10;Loads: 0&#10;Stores: 0&#10;Storage units: 0&#10;Incoming links: 4&#10;Outgoing links: 0&#10;Lines: 0&#10;&#10;Power time series: N/A ">
<polygon fill="none" stroke="transparent" stroke-width="7.3" points="1034,-348 796,-348 796,-326 1034,-326 1034,-348"/>
<polyline fill="none" stroke="black" stroke-width="7.3" points="796,-326 1034,-326 "/>
<text text-anchor="start" x="892" y="-335.1" font-family="Courier New" font-size="8.00" fill="red">CA gas&#45;ch4</text>
</a>
</g>
</g>
<!-- p9 (bus) -->
<g id="node4" class="node">
<title>p9 (bus)</title>
<g id="a_node4"><a xlink:title="Bus: p9&#10;Carrier: AC&#10;Unit: &#10;Generators: 0&#10;Loads: 1&#10;Stores: 0&#10;Storage units: 1&#10;Incoming links: 2&#10;Outgoing links: 1&#10;Lines: 0&#10;&#10;Power time series: N/A ">
<polygon fill="none" stroke="transparent" stroke-width="7.3" points="358,-348 120,-348 120,-326 358,-326 358,-348"/>
<polyline fill="none" stroke="black" stroke-width="7.3" points="120,-326 358,-326 "/>
<text text-anchor="start" x="234" y="-335.1" font-family="Courier New" font-size="8.00" fill="red">p9</text>
</a>
</g>
</g>
<!-- p10 (bus) -->
<g id="node5" class="node">
<title>p10 (bus)</title>
<g id="a_node5"><a xlink:title="Bus: p10&#10;Carrier: AC&#10;Unit: &#10;Generators: 0&#10;Loads: 1&#10;Stores: 0&#10;Storage units: 1&#10;Incoming links: 3&#10;Outgoing links: 0&#10;Lines: 0&#10;&#10;Power time series: N/A ">
<polygon fill="none" stroke="transparent" stroke-width="7.3" points="1341,-213 1103,-213 1103,-191 1341,-191 1341,-213"/>
<polyline fill="none" stroke="black" stroke-width="7.3" points="1103,-191 1341,-191 "/>
<text text-anchor="start" x="1215" y="-200.1" font-family="Courier New" font-size="8.00" fill="red">p10</text>
</a>
</g>
</g>
<!-- p9 (bus)&#45;&gt;p10 (bus) -->
<g id="edge6" class="edge">
<title>p9 (bus)&#45;&gt;p10 (bus)</title>
<g id="a_edge6"><a xlink:title="Link: p9||p10&#10;From: p9 (bus0)&#10;To: p10 (bus1)&#10;Carrier: &#10;Extendable nominal power: False&#10;Nominal power: 0.00 MW&#10;Efficiency: 1.00&#10;Capital cost: 0.00 currency/MW&#10;Marginal cost: 0.00 currency/MWh&#10;&#10;Optimised nominal power: 0.00 MW&#10;Power time series (p0): N/A MW&#10;Power time series (p1): N/A MW">
<path fill="none" stroke="black" stroke-width="1.5" d="M313.29,-325.95C492.07,-301.76 945.57,-240.4 1135.86,-214.65"/>
<polygon fill="black" stroke="black" stroke-width="1.5" points="1148.01,-213.01 1136.84,-219.97 1142.1,-214.06 1136.15,-214.87 1136.12,-214.62 1136.09,-214.37 1142.03,-213.57 1135.4,-209.27 1148.01,-213.01 1148.01,-213.01"/>
</a>
</g>
<text text-anchor="start" x="642" y="-283.6" font-family="Courier New" font-size="8.00" fill="red">p9||p10</text>
</g>
<!-- p9 AC (load) -->
<g id="node6" class="node">
<title>p9 AC (load)</title>
<g id="a_node6"><a xlink:title="Load: p9 AC&#10;Bus: p9&#10;Carrier: &#10;Power set: 0.00 ">
<polygon fill="none" stroke="black" stroke-width="2" points="106,-159 160,-223.5 52,-223.5 106,-159"/>
<text text-anchor="start" x="94.5" y="-200.1" font-family="Courier New" font-size="8.00" fill="red">p9 AC</text>
</a>
</g>
</g>
<!-- p9 (bus)&#45;&gt;p9 AC (load) -->
<g id="edge1" class="edge">
<title>p9 (bus)&#45;&gt;p9 AC (load)</title>
<path fill="none" stroke="black" stroke-width="1.5" d="M228.56,-325.56C206.64,-303.64 155.45,-252.45 126.64,-223.64"/>
</g>
<!-- p9 battery (storage unit) -->
<g id="node9" class="node">
<title>p9 battery (storage unit)</title>
<g id="a_node9"><a xlink:title="Storage unit: p9 battery&#10;Bus: p9&#10;Carrier: &#10;Extendable nominal power: False&#10;Nominal power: 0.00 &#10;Power set: 0.00 &#10;Charge cyclic state: False&#10;Capital cost: 0.00 currency/&#10;Marginal cost: 0.00 currency/h&#10;&#10;Optimised nominal power: 0.00 &#10;Power time series: N/A ">
<polygon fill="none" stroke="black" stroke-width="2" points="366.28,-220 259.25,-220 231.72,-184 338.75,-184 366.28,-220"/>
<text text-anchor="start" x="276" y="-200.1" font-family="Courier New" font-size="8.00" fill="red">p9 battery</text>
</a>
</g>
</g>
<!-- p9 (bus)&#45;&gt;p9 battery (storage unit) -->
<g id="edge4" class="edge">
<title>p9 (bus)&#45;&gt;p9 battery (storage unit)</title>
<path fill="none" stroke="black" stroke-width="1.5" d="M248.66,-314.6C258.81,-292.09 274.84,-256.55 286.08,-231.64"/>
<polygon fill="black" stroke="black" stroke-width="1.5" points="243.71,-325.56 243.72,-312.4 245.95,-319.99 248.41,-314.52 248.64,-314.63 248.87,-314.73 246.4,-320.2 253.57,-316.85 243.71,-325.56 243.71,-325.56"/>
<polygon fill="black" stroke="black" stroke-width="1.5" points="291.16,-220.37 291.15,-233.53 288.92,-225.94 286.46,-231.41 286.23,-231.31 286,-231.21 288.47,-225.74 281.31,-229.09 291.16,-220.37 291.16,-220.37"/>
</g>
<!-- p10 AC (load) -->
<g id="node7" class="node">
<title>p10 AC (load)</title>
<g id="a_node7"><a xlink:title="Load: p10 AC&#10;Bus: p10&#10;Carrier: &#10;Power set: 0.00 ">
<polygon fill="none" stroke="black" stroke-width="2" points="1125,0 1179,-64.5 1071,-64.5 1125,0"/>
<text text-anchor="start" x="1111" y="-41.1" font-family="Courier New" font-size="8.00" fill="red">p10 AC</text>
</a>
</g>
</g>
<!-- p10 (bus)&#45;&gt;p10 AC (load) -->
<g id="edge2" class="edge">
<title>p10 (bus)&#45;&gt;p10 AC (load)</title>
<path fill="none" stroke="black" stroke-width="1.5" d="M1215.64,-190.7C1199.87,-165.18 1158.78,-98.67 1137.77,-64.67"/>
</g>
<!-- p10 battery (storage unit) -->
<g id="node10" class="node">
<title>p10 battery (storage unit)</title>
<g id="a_node10"><a xlink:title="Storage unit: p10 battery&#10;Bus: p10&#10;Carrier: &#10;Extendable nominal power: False&#10;Nominal power: 0.00 &#10;Power set: 0.00 &#10;Charge cyclic state: False&#10;Capital cost: 0.00 currency/&#10;Marginal cost: 0.00 currency/h&#10;&#10;Optimised nominal power: 0.00 &#10;Power time series: N/A ">
<polygon fill="none" stroke="black" stroke-width="2" points="1385.28,-61 1278.25,-61 1250.72,-25 1357.75,-25 1385.28,-61"/>
<text text-anchor="start" x="1293" y="-41.1" font-family="Courier New" font-size="8.00" fill="red">p10 battery</text>
</a>
</g>
</g>
<!-- p10 (bus)&#45;&gt;p10 battery (storage unit) -->
<g id="edge5" class="edge">
<title>p10 (bus)&#45;&gt;p10 battery (storage unit)</title>
<path fill="none" stroke="black" stroke-width="1.5" d="M1234.75,-180.15C1251.79,-152.28 1282.06,-102.77 1301.03,-71.76"/>
<polygon fill="black" stroke="black" stroke-width="1.5" points="1228.3,-190.7 1229.95,-177.64 1231.22,-185.45 1234.35,-180.33 1234.56,-180.46 1234.77,-180.59 1231.64,-185.71 1239.17,-183.28 1228.3,-190.7 1228.3,-190.7"/>
<polygon fill="black" stroke="black" stroke-width="1.5" points="1307.46,-61.24 1305.8,-74.3 1304.54,-66.49 1301.41,-71.61 1301.2,-71.48 1300.98,-71.35 1304.11,-66.23 1296.59,-68.66 1307.46,-61.24 1307.46,-61.24"/>
</g>
<!-- p9 OCGT (multi&#45;link)&#45;&gt;CA pwr&#45;co2 (bus) -->
<g id="edge13" class="edge">
<title>p9 OCGT (multi&#45;link)&#45;&gt;CA pwr&#45;co2 (bus)</title>
<g id="a_edge13"><a xlink:title="Multi&#45;link: p9 OCGT&#10;From: CA gas (bus0)&#10;To: CA pwr&#45;co2 (bus2)&#10;Carrier: &#10;Extendable nominal power: False&#10;Nominal power: 0.00 MW&#10;Efficiency: 1.00&#10;Capital cost: 0.00 currency/MW&#10;Marginal cost: 0.00 currency/MWh&#10;&#10;Optimised nominal power: 0.00 MW&#10;Power time series (p0): N/A MW&#10;Power time series (p2): N/A MW">
<path fill="none" stroke="black" stroke-width="1.5" d="M439.57,-428.92C437.31,-422.48 427,-393 427,-393 427,-393 427,-384 427,-384 427,-384 474.88,-365.95 510.65,-352.46"/>
<polygon fill="black" stroke="black" stroke-width="1.5" points="522.23,-348.09 512.9,-357.38 516.7,-350.45 511.09,-352.56 511,-352.33 510.91,-352.09 516.52,-349.98 509.09,-347.28 522.23,-348.09 522.23,-348.09"/>
</a>
</g>
<text text-anchor="start" x="427" y="-386.6" font-family="Courier New" font-size="8.00" fill="red">p9 OCGT</text>
</g>
<!-- p9 OCGT (multi&#45;link)&#45;&gt;CA gas&#45;ch4 (bus) -->
<g id="edge12" class="edge">
<title>p9 OCGT (multi&#45;link)&#45;&gt;CA gas&#45;ch4 (bus)</title>
<g id="a_edge12"><a xlink:title="Multi&#45;link: p9 OCGT&#10;From: CA gas (bus0)&#10;To: CA gas&#45;ch4 (bus3)&#10;Carrier: &#10;Extendable nominal power: False&#10;Nominal power: 0.00 MW&#10;Efficiency: 1.00&#10;Capital cost: 0.00 currency/MW&#10;Marginal cost: 0.00 currency/MWh&#10;&#10;Optimised nominal power: 0.00 MW&#10;Power time series (p0): N/A MW&#10;Power time series (p3): N/A MW">
<path fill="none" stroke="black" stroke-width="1.5" d="M441.91,-429.96C469.85,-427.04 795,-393 795,-393 795,-393 846.13,-369.56 881.64,-353.29"/>
<polygon fill="black" stroke="black" stroke-width="1.5" points="892.99,-348.09 884.33,-358 887.64,-350.82 882.19,-353.32 882.08,-353.09 881.98,-352.86 887.43,-350.36 879.83,-348.18 892.99,-348.09 892.99,-348.09"/>
</a>
</g>
<text text-anchor="start" x="812" y="-386.6" font-family="Courier New" font-size="8.00" fill="red">p9 OCGT</text>
</g>
<!-- p9 OCGT (multi&#45;link)&#45;&gt;p9 (bus) -->
<g id="edge11" class="edge">
<title>p9 OCGT (multi&#45;link)&#45;&gt;p9 (bus)</title>
<g id="a_edge11"><a xlink:title="Multi&#45;link: p9 OCGT&#10;From: CA gas (bus0)&#10;To: p9 (bus1)&#10;Carrier: &#10;Extendable nominal power: False&#10;Nominal power: 0.00 MW&#10;Efficiency: 1.00&#10;Capital cost: 0.00 currency/MW&#10;Marginal cost: 0.00 currency/MWh&#10;&#10;Optimised nominal power: 0.00 MW&#10;Power time series (p0): N/A MW&#10;Power time series (p1): N/A MW">
<path fill="none" stroke="black" stroke-width="1.5" d="M438.26,-429.36C423.96,-422.8 324.84,-377.36 272,-353.13"/>
<polygon fill="black" stroke="black" stroke-width="1.5" points="260.87,-348.03 274.02,-348.12 266.42,-350.3 271.88,-352.8 271.77,-353.03 271.67,-353.25 266.22,-350.75 269.52,-357.94 260.87,-348.03 260.87,-348.03"/>
</a>
</g>
<text text-anchor="start" x="358" y="-386.6" font-family="Courier New" font-size="8.00" fill="red">p9 OCGT</text>
</g>
<!-- p9 CCGT&#45;95CCS_2030 (multi&#45;link)&#45;&gt;CA pwr&#45;co2 (bus) -->
<g id="edge16" class="edge">
<title>p9 CCGT&#45;95CCS_2030 (multi&#45;link)&#45;&gt;CA pwr&#45;co2 (bus)</title>
<g id="a_edge16"><a xlink:title="Multi&#45;link: p9 CCGT&#45;95CCS_2030&#10;From: CA gas (bus0)&#10;To: CA pwr&#45;co2 (bus2)&#10;Carrier: &#10;Extendable nominal power: False&#10;Nominal power: 0.00 MW&#10;Efficiency: 1.00&#10;Capital cost: 0.00 currency/MW&#10;Marginal cost: 0.00 currency/MWh&#10;&#10;Optimised nominal power: 0.00 MW&#10;Power time series (p0): N/A MW&#10;Power time series (p2): N/A MW">
<path fill="none" stroke="black" stroke-width="1.5" d="M200.01,-429.02C206.33,-421.91 240,-384 240,-384 240,-384 377.98,-363.46 469.54,-349.83"/>
<polygon fill="black" stroke="black" stroke-width="1.5" points="481.57,-348.04 470.5,-355.15 475.67,-349.17 469.74,-350.05 469.7,-349.81 469.66,-349.56 475.6,-348.67 468.91,-344.46 481.57,-348.04 481.57,-348.04"/>
</a>
</g>
<text text-anchor="start" x="240" y="-386.6" font-family="Courier New" font-size="8.00" fill="red">p9 CCGT&#45;95CCS_2030</text>
</g>
<!-- p9 CCGT&#45;95CCS_2030 (multi&#45;link)&#45;&gt;CA gas&#45;ch4 (bus) -->
<g id="edge15" class="edge">
<title>p9 CCGT&#45;95CCS_2030 (multi&#45;link)&#45;&gt;CA gas&#45;ch4 (bus)</title>
<g id="a_edge15"><a xlink:title="Multi&#45;link: p9 CCGT&#45;95CCS_2030&#10;From: CA gas (bus0)&#10;To: CA gas&#45;ch4 (bus3)&#10;Carrier: &#10;Extendable nominal power: False&#10;Nominal power: 0.00 MW&#10;Efficiency: 1.00&#10;Capital cost: 0.00 currency/MW&#10;Marginal cost: 0.00 currency/MWh&#10;&#10;Optimised nominal power: 0.00 MW&#10;Power time series (p0): N/A MW&#10;Power time series (p3): N/A MW">
<path fill="none" stroke="black" stroke-width="1.5" d="M200.95,-429.99C232.47,-427.31 636,-393 636,-393 636,-393 769.88,-366.61 852.16,-350.39"/>
<polygon fill="black" stroke="black" stroke-width="1.5" points="864.15,-348.02 853.42,-355.64 858.31,-349.43 852.43,-350.59 852.38,-350.34 852.33,-350.1 858.22,-348.94 851.33,-345.05 864.15,-348.02 864.15,-348.02"/>
</a>
</g>
<text text-anchor="start" x="676" y="-386.6" font-family="Courier New" font-size="8.00" fill="red">p9 CCGT&#45;95CCS_2030</text>
</g>
<!-- p9 CCGT&#45;95CCS_2030 (multi&#45;link)&#45;&gt;p9 (bus) -->
<g id="edge14" class="edge">
<title>p9 CCGT&#45;95CCS_2030 (multi&#45;link)&#45;&gt;p9 (bus)</title>
<g id="a_edge14"><a xlink:title="Multi&#45;link: p9 CCGT&#45;95CCS_2030&#10;From: CA gas (bus0)&#10;To: p9 (bus1)&#10;Carrier: &#10;Extendable nominal power: False&#10;Nominal power: 0.00 MW&#10;Efficiency: 1.00&#10;Capital cost: 0.00 currency/MW&#10;Marginal cost: 0.00 currency/MWh&#10;&#10;Optimised nominal power: 0.00 MW&#10;Power time series (p0): N/A MW&#10;Power time series (p1): N/A MW">
<path fill="none" stroke="black" stroke-width="1.5" d="M197.28,-429.84C177.83,-426.21 0,-393 0,-393 0,-393 0,-384 0,-384 0,-384 104.13,-363.96 174.92,-350.33"/>
<polygon fill="black" stroke="black" stroke-width="1.5" points="186.85,-348.04 176.08,-355.61 181,-349.42 175.11,-350.55 175.06,-350.31 175.01,-350.06 180.91,-348.93 174.04,-345 186.85,-348.04 186.85,-348.04"/>
</a>
</g>
<text text-anchor="start" x="0" y="-386.6" font-family="Courier New" font-size="8.00" fill="red">p9 CCGT&#45;95CCS_2030</text>
</g>
<!-- p10 OCGT (multi&#45;link)&#45;&gt;CA pwr&#45;co2 (bus) -->
<g id="edge19" class="edge">
<title>p10 OCGT (multi&#45;link)&#45;&gt;CA pwr&#45;co2 (bus)</title>
<g id="a_edge19"><a xlink:title="Multi&#45;link: p10 OCGT&#10;From: CA gas (bus0)&#10;To: CA pwr&#45;co2 (bus2)&#10;Carrier: &#10;Extendable nominal power: False&#10;Nominal power: 0.00 MW&#10;Efficiency: 1.00&#10;Capital cost: 0.00 currency/MW&#10;Marginal cost: 0.00 currency/MWh&#10;&#10;Optimised nominal power: 0.00 MW&#10;Power time series (p0): N/A MW&#10;Power time series (p2): N/A MW">
<path fill="none" stroke="black" stroke-width="1.5" d="M1237.28,-429.81C1216.23,-425.59 1009,-384 1009,-384 1009,-384 797.38,-362.84 661.21,-349.22"/>
<polygon fill="black" stroke="black" stroke-width="1.5" points="649.1,-348.01 661.57,-343.83 655.09,-348.36 661.06,-348.96 661.04,-349.2 661.01,-349.45 655.04,-348.86 660.5,-354.58 649.1,-348.01 649.1,-348.01"/>
</a>
</g>
<text text-anchor="start" x="1052" y="-386.6" font-family="Courier New" font-size="8.00" fill="red">p10 OCGT</text>
</g>
<!-- p10 OCGT (multi&#45;link)&#45;&gt;CA gas&#45;ch4 (bus) -->
<g id="edge18" class="edge">
<title>p10 OCGT (multi&#45;link)&#45;&gt;CA gas&#45;ch4 (bus)</title>
<g id="a_edge18"><a xlink:title="Multi&#45;link: p10 OCGT&#10;From: CA gas (bus0)&#10;To: CA gas&#45;ch4 (bus3)&#10;Carrier: &#10;Extendable nominal power: False&#10;Nominal power: 0.00 MW&#10;Efficiency: 1.00&#10;Capital cost: 0.00 currency/MW&#10;Marginal cost: 0.00 currency/MWh&#10;&#10;Optimised nominal power: 0.00 MW&#10;Power time series (p0): N/A MW&#10;Power time series (p3): N/A MW">
<path fill="none" stroke="black" stroke-width="1.5" d="M1237.99,-429.02C1231.67,-421.91 1198,-384 1198,-384 1198,-384 1072.66,-363.63 988.81,-350"/>
<polygon fill="black" stroke="black" stroke-width="1.5" points="976.76,-348.04 989.47,-344.63 982.72,-348.75 988.64,-349.72 988.6,-349.96 988.56,-350.21 982.64,-349.25 987.73,-355.29 976.76,-348.04 976.76,-348.04"/>
</a>
</g>
<text text-anchor="start" x="1205" y="-386.6" font-family="Courier New" font-size="8.00" fill="red">p10 OCGT</text>
</g>
<!-- p10 OCGT (multi&#45;link)&#45;&gt;p10 (bus) -->
<g id="edge17" class="edge">
<title>p10 OCGT (multi&#45;link)&#45;&gt;p10 (bus)</title>
<g id="a_edge17"><a xlink:title="Multi&#45;link: p10 OCGT&#10;From: CA gas (bus0)&#10;To: p10 (bus1)&#10;Carrier: &#10;Extendable nominal power: False&#10;Nominal power: 0.00 MW&#10;Efficiency: 1.00&#10;Capital cost: 0.00 currency/MW&#10;Marginal cost: 0.00 currency/MWh&#10;&#10;Optimised nominal power: 0.00 MW&#10;Power time series (p0): N/A MW&#10;Power time series (p1): N/A MW">
<path fill="none" stroke="black" stroke-width="1.5" d="M1240.23,-429C1250.8,-419.01 1326,-348 1326,-348 1326,-348 1326,-326 1326,-326 1326,-326 1267.98,-257.37 1238.61,-222.64"/>
<polygon fill="black" stroke="black" stroke-width="1.5" points="1230.51,-213.07 1242.38,-218.74 1234.58,-217.49 1238.45,-222.07 1238.26,-222.23 1238.07,-222.39 1234.19,-217.81 1234.14,-225.72 1230.51,-213.07 1230.51,-213.07"/>
</a>
</g>
<text text-anchor="start" x="1326" y="-335.1" font-family="Courier New" font-size="8.00" fill="red">p10 OCGT</text>
</g>
<!-- p10 CCGT&#45;95CCS_2030 (multi&#45;link)&#45;&gt;CA pwr&#45;co2 (bus) -->
<g id="edge22" class="edge">
<title>p10 CCGT&#45;95CCS_2030 (multi&#45;link)&#45;&gt;CA pwr&#45;co2 (bus)</title>
<g id="a_edge22"><a xlink:title="Multi&#45;link: p10 CCGT&#45;95CCS_2030&#10;From: CA gas (bus0)&#10;To: CA pwr&#45;co2 (bus2)&#10;Carrier: &#10;Extendable nominal power: False&#10;Nominal power: 0.00 MW&#10;Efficiency: 1.00&#10;Capital cost: 0.00 currency/MW&#10;Marginal cost: 0.00 currency/MWh&#10;&#10;Optimised nominal power: 0.00 MW&#10;Power time series (p0): N/A MW&#10;Power time series (p2): N/A MW">
<path fill="none" stroke="black" stroke-width="1.5" d="M762.03,-429.84C739.74,-426.21 536,-393 536,-393 536,-393 536,-384 536,-384 536,-384 539.46,-371.75 542.81,-359.89"/>
<polygon fill="black" stroke="black" stroke-width="1.5" points="546.11,-348.21 548.05,-361.23 544.72,-354.05 543.09,-359.82 542.85,-359.76 542.61,-359.69 544.24,-353.91 537.65,-358.29 546.11,-348.21 546.11,-348.21"/>
</a>
</g>
<text text-anchor="start" x="536" y="-386.6" font-family="Courier New" font-size="8.00" fill="red">p10 CCGT&#45;95CCS_2030</text>
</g>
<!-- p10 CCGT&#45;95CCS_2030 (multi&#45;link)&#45;&gt;CA gas&#45;ch4 (bus) -->
<g id="edge21" class="edge">
<title>p10 CCGT&#45;95CCS_2030 (multi&#45;link)&#45;&gt;CA gas&#45;ch4 (bus)</title>
<g id="a_edge21"><a xlink:title="Multi&#45;link: p10 CCGT&#45;95CCS_2030&#10;From: CA gas (bus0)&#10;To: CA gas&#45;ch4 (bus3)&#10;Carrier: &#10;Extendable nominal power: False&#10;Nominal power: 0.00 MW&#10;Efficiency: 1.00&#10;Capital cost: 0.00 currency/MW&#10;Marginal cost: 0.00 currency/MWh&#10;&#10;Optimised nominal power: 0.00 MW&#10;Power time series (p0): N/A MW&#10;Power time series (p3): N/A MW">
<path fill="none" stroke="black" stroke-width="1.5" d="M765.98,-429.63C783,-425.12 904,-393 904,-393 904,-393 907.54,-375.28 910.61,-359.95"/>
<polygon fill="black" stroke="black" stroke-width="1.5" points="912.98,-348.09 915.92,-360.91 912.05,-354.02 910.87,-359.9 910.63,-359.85 910.38,-359.81 911.56,-353.92 905.33,-358.8 912.98,-348.09 912.98,-348.09"/>
</a>
</g>
<text text-anchor="start" x="905" y="-386.6" font-family="Courier New" font-size="8.00" fill="red">p10 CCGT&#45;95CCS_2030</text>
</g>
<!-- p10 CCGT&#45;95CCS_2030 (multi&#45;link)&#45;&gt;p10 (bus) -->
<g id="edge20" class="edge">
<title>p10 CCGT&#45;95CCS_2030 (multi&#45;link)&#45;&gt;p10 (bus)</title>
<g id="a_edge20"><a xlink:title="Multi&#45;link: p10 CCGT&#45;95CCS_2030&#10;From: CA gas (bus0)&#10;To: p10 (bus1)&#10;Carrier: &#10;Extendable nominal power: False&#10;Nominal power: 0.00 MW&#10;Efficiency: 1.00&#10;Capital cost: 0.00 currency/MW&#10;Marginal cost: 0.00 currency/MWh&#10;&#10;Optimised nominal power: 0.00 MW&#10;Power time series (p0): N/A MW&#10;Power time series (p1): N/A MW">
<path fill="none" stroke="black" stroke-width="1.5" d="M765.85,-429.96C792.84,-427.04 1107,-393 1107,-393 1107,-393 1179.79,-272.74 1209.55,-223.57"/>
<polygon fill="black" stroke="black" stroke-width="1.5" points="1215.82,-213.22 1214.22,-226.28 1212.92,-218.48 1209.82,-223.61 1209.6,-223.48 1209.39,-223.35 1212.5,-218.22 1204.98,-220.69 1215.82,-213.22 1215.82,-213.22"/>
</a>
</g>
<text text-anchor="start" x="1147" y="-335.1" font-family="Courier New" font-size="8.00" fill="red">p10 CCGT&#45;95CCS_2030</text>
</g>
</g>
</svg>
