<?xml version="1.0" encoding="UTF-8" standalone="no"?>
<!DOCTYPE svg PUBLIC "-//W3C//DTD SVG 1.1//EN"
 "http://www.w3.org/Graphics/SVG/1.1/DTD/svg11.dtd">
<!-- Generated by graphviz version 2.43.0 (0)
 -->
<!-- Title: Sector&#45;based network (with underground CO2 storage) Pages: 1 -->
<svg width="2075pt" height="614pt"
 viewBox="0.00 0.00 2075.39 614.32" xmlns="http://www.w3.org/2000/svg" xmlns:xlink="http://www.w3.org/1999/xlink">
<g id="graph0" class="graph" transform="scale(1 1) rotate(0) translate(4 610.32)">
<title>Sector&#45;based network (with underground CO2 storage)</title>
<g id="a_graph0"><a xlink:title="Network: Sector&#45;based network (with underground CO2 storage)&#10;Buses: 7 (out of 7)&#10;Generators: 0 (out of 0)&#10;Loads: 2 (out of 2)&#10;Stores: 3 (out of 3)&#10;Storage units: 2 (out of 2)&#10;Links: 5 (out of 5)&#10;Lines: 0 (out of 0)&#10;Snapshots: 1">
<text text-anchor="middle" x="1033.69" y="-591.12" font-family="Times,serif" font-size="14.00">Sector&#45;based network (with underground CO2 storage)</text>
<text text-anchor="middle" x="1033.69" y="-544.12" font-family="Times,serif" font-size="14.00"> &#160;&#160;&#160;&#160;&#160;&#160;&#160;&#160;&#160;&#160;</text>
</a>
</g>
<!-- CA gas (bus) -->
<g id="node1" class="node">
<title>CA gas (bus)</title>
<g id="a_node1"><a xlink:title="Bus: CA gas&#10;Carrier: AC&#10;Unit: &#10;Generators: 0&#10;Loads: 0&#10;Stores: 0&#10;Storage units: 0&#10;Incoming links: 0&#10;Outgoing links: 14&#10;Lines: 0&#10;&#10;Power time series: N/A ">
<polygon fill="none" stroke="transparent" stroke-width="7.3" points="973.39,-536.32 735.39,-536.32 735.39,-514.32 973.39,-514.32 973.39,-536.32"/>
<polyline fill="none" stroke="black" stroke-width="7.3" points="735.39,-514.32 973.39,-514.32 "/>
<text text-anchor="start" x="840.39" y="-523.42" font-family="Courier New" font-size="8.00" fill="red">CA gas</text>
</a>
</g>
</g>
<!-- p9 OCGT (multi&#45;link) -->
<g id="node15" class="node">
<title>p9 OCGT (multi&#45;link)</title>
<g id="a_node15"><a xlink:title="Multi&#45;link: p9 OCGT&#10;From: CA gas (bus0)&#10;To: p9 (bus1)&#10;To: CA gas&#45;ch4 (bus3)&#10;To: CA pwr&#45;co2 (bus2)&#10;Carrier: &#10;Extendable nominal energy: False&#10;Nominal power: 0.00 MW&#10;Capital cost: 0.00 currency/MW&#10;Marginal cost: 0.00 currency/MWh&#10;&#10;Optimised nominal power: 0.00 MW&#10;Power time series (p0): N/A MW">
<ellipse fill="black" stroke="black" cx="586.39" cy="-431.16" rx="2.16" ry="2.16"/>
</a>
</g>
</g>
<!-- CA gas (bus)&#45;&gt;p9 OCGT (multi&#45;link) -->
<g id="edge9" class="edge">
<title>CA gas (bus)&#45;&gt;p9 OCGT (multi&#45;link)</title>
<g id="a_edge9"><a xlink:title="Multi&#45;link: p9 OCGT&#10;From: CA gas (bus0)&#10;To: p9 (bus1)&#10;To: CA gas&#45;ch4 (bus3)&#10;To: CA pwr&#45;co2 (bus2)&#10;Carrier: &#10;Extendable nominal power: False&#10;Nominal power: 0.00 MW&#10;Capital cost: 0.00 currency/MW&#10;Marginal cost: 0.00 currency/MWh&#10;&#10;Optimised nominal power: 0.00 MW&#10;Power time series (p0): N/A MW">
<path fill="none" stroke="black" stroke-width="1.5" d="M825.2,-514.28C760.08,-491.89 607.17,-439.31 588.31,-432.82"/>
</a>
</g>
<text text-anchor="start" x="720.39" y="-471.92" font-family="Courier New" font-size="8.00" fill="red">p9 OCGT</text>
</g>
<!-- p9 CCGT&#45;95CC_2030 (multi&#45;link) -->
<g id="node16" class="node">
<title>p9 CCGT&#45;95CC_2030 (multi&#45;link)</title>
<g id="a_node16"><a xlink:title="Multi&#45;link: p9 CCGT&#45;95CC_2030&#10;From: CA gas (bus0)&#10;To: p9 (bus1)&#10;To: CA gas&#45;ch4 (bus3)&#10;To: CA pwr&#45;co2 (bus2)&#10;To: p9 co2 capture (bus4)&#10;Carrier: &#10;Extendable nominal energy: False&#10;Nominal power: 0.00 MW&#10;Capital cost: 0.00 currency/MW&#10;Marginal cost: 0.00 currency/MWh&#10;&#10;Optimised nominal power: 0.00 MW&#10;Power time series (p0): N/A MW">
<ellipse fill="black" stroke="black" cx="777.39" cy="-431.16" rx="2.16" ry="2.16"/>
</a>
</g>
</g>
<!-- CA gas (bus)&#45;&gt;p9 CCGT&#45;95CC_2030 (multi&#45;link) -->
<g id="edge10" class="edge">
<title>CA gas (bus)&#45;&gt;p9 CCGT&#45;95CC_2030 (multi&#45;link)</title>
<g id="a_edge10"><a xlink:title="Multi&#45;link: p9 CCGT&#45;95CC_2030&#10;From: CA gas (bus0)&#10;To: p9 (bus1)&#10;To: CA gas&#45;ch4 (bus3)&#10;To: CA pwr&#45;co2 (bus2)&#10;To: p9 co2 capture (bus4)&#10;Carrier: &#10;Extendable nominal power: False&#10;Nominal power: 0.00 MW&#10;Capital cost: 0.00 currency/MW&#10;Marginal cost: 0.00 currency/MWh&#10;&#10;Optimised nominal power: 0.00 MW&#10;Power time series (p0): N/A MW">
<path fill="none" stroke="black" stroke-width="1.5" d="M845.85,-514.11C827.37,-491.98 784.78,-441.01 778.24,-433.18"/>
</a>
</g>
<text text-anchor="start" x="816.39" y="-471.92" font-family="Courier New" font-size="8.00" fill="red">p9 CCGT&#45;95CC_2030</text>
</g>
<!-- p10 OCGT (multi&#45;link) -->
<g id="node17" class="node">
<title>p10 OCGT (multi&#45;link)</title>
<g id="a_node17"><a xlink:title="Multi&#45;link: p10 OCGT&#10;From: CA gas (bus0)&#10;To: p10 (bus1)&#10;To: CA gas&#45;ch4 (bus3)&#10;To: CA pwr&#45;co2 (bus2)&#10;Carrier: &#10;Extendable nominal energy: False&#10;Nominal power: 0.00 MW&#10;Capital cost: 0.00 currency/MW&#10;Marginal cost: 0.00 currency/MWh&#10;&#10;Optimised nominal power: 0.00 MW&#10;Power time series (p0): N/A MW">
<ellipse fill="black" stroke="black" cx="1144.39" cy="-431.16" rx="2.16" ry="2.16"/>
</a>
</g>
</g>
<!-- CA gas (bus)&#45;&gt;p10 OCGT (multi&#45;link) -->
<g id="edge11" class="edge">
<title>CA gas (bus)&#45;&gt;p10 OCGT (multi&#45;link)</title>
<g id="a_edge11"><a xlink:title="Multi&#45;link: p10 OCGT&#10;From: CA gas (bus0)&#10;To: p10 (bus1)&#10;To: CA gas&#45;ch4 (bus3)&#10;To: CA pwr&#45;co2 (bus2)&#10;Carrier: &#10;Extendable nominal power: False&#10;Nominal power: 0.00 MW&#10;Capital cost: 0.00 currency/MW&#10;Marginal cost: 0.00 currency/MWh&#10;&#10;Optimised nominal power: 0.00 MW&#10;Power time series (p0): N/A MW">
<path fill="none" stroke="black" stroke-width="1.5" d="M885.98,-514.28C957.03,-491.7 1124.67,-438.43 1142.79,-432.67"/>
</a>
</g>
<text text-anchor="start" x="1024.39" y="-471.92" font-family="Courier New" font-size="8.00" fill="red">p10 OCGT</text>
</g>
<!-- p10 CCGT&#45;95CC_2030 (multi&#45;link) -->
<g id="node18" class="node">
<title>p10 CCGT&#45;95CC_2030 (multi&#45;link)</title>
<g id="a_node18"><a xlink:title="Multi&#45;link: p10 CCGT&#45;95CC_2030&#10;From: CA gas (bus0)&#10;To: p10 (bus1)&#10;To: CA gas&#45;ch4 (bus3)&#10;To: CA pwr&#45;co2 (bus2)&#10;To: p10 co2 capture (bus4)&#10;Carrier: &#10;Extendable nominal energy: False&#10;Nominal power: 0.00 MW&#10;Capital cost: 0.00 currency/MW&#10;Marginal cost: 0.00 currency/MWh&#10;&#10;Optimised nominal power: 0.00 MW&#10;Power time series (p0): N/A MW">
<ellipse fill="black" stroke="black" cx="1551.39" cy="-431.16" rx="2.16" ry="2.16"/>
</a>
</g>
</g>
<!-- CA gas (bus)&#45;&gt;p10 CCGT&#45;95CC_2030 (multi&#45;link) -->
<g id="edge12" class="edge">
<title>CA gas (bus)&#45;&gt;p10 CCGT&#45;95CC_2030 (multi&#45;link)</title>
<g id="a_edge12"><a xlink:title="Multi&#45;link: p10 CCGT&#45;95CC_2030&#10;From: CA gas (bus0)&#10;To: p10 (bus1)&#10;To: CA gas&#45;ch4 (bus3)&#10;To: CA pwr&#45;co2 (bus2)&#10;To: p10 co2 capture (bus4)&#10;Carrier: &#10;Extendable nominal power: False&#10;Nominal power: 0.00 MW&#10;Capital cost: 0.00 currency/MW&#10;Marginal cost: 0.00 currency/MWh&#10;&#10;Optimised nominal power: 0.00 MW&#10;Power time series (p0): N/A MW">
<path fill="none" stroke="black" stroke-width="1.5" d="M930.31,-514.28C1103.9,-491.33 1517.38,-436.66 1549.41,-432.42"/>
</a>
</g>
<text text-anchor="start" x="1264.39" y="-471.92" font-family="Courier New" font-size="8.00" fill="red">p10 CCGT&#45;95CC_2030</text>
</g>
<!-- CA pwr&#45;co2 (bus) -->
<g id="node2" class="node">
<title>CA pwr&#45;co2 (bus)</title>
<g id="a_node2"><a xlink:title="Bus: CA pwr&#45;co2&#10;Carrier: AC&#10;Unit: &#10;Generators: 0&#10;Loads: 0&#10;Stores: 1&#10;Storage units: 0&#10;Incoming links: 4&#10;Outgoing links: 0&#10;Lines: 0&#10;&#10;Power time series: N/A ">
<polygon fill="none" stroke="transparent" stroke-width="7.3" points="939.39,-348 701.39,-348 701.39,-326 939.39,-326 939.39,-348"/>
<polyline fill="none" stroke="black" stroke-width="7.3" points="701.39,-326 939.39,-326 "/>
<text text-anchor="start" x="797.39" y="-335.1" font-family="Courier New" font-size="8.00" fill="red">CA pwr&#45;co2</text>
</a>
</g>
</g>
<!-- CA pwr&#45;co2 (store) -->
<g id="node10" class="node">
<title>CA pwr&#45;co2 (store)</title>
<g id="a_node10"><a xlink:title="Store: CA pwr&#45;co2&#10;Bus: CA pwr&#45;co2&#10;Carrier: &#10;Extendable nominal energy: False&#10;Nominal energy: 0.00 h&#10;Power set: 0.00 &#10;Cyclic energy: False&#10;Capital cost: 0.00 currency/&#10;Marginal cost: 0.00 currency/h&#10;&#10;Optimised nominal energy: 0.00 h&#10;Energy time series: N/A h&#10;Power time series: N/A ">
<polygon fill="none" stroke="black" stroke-width="2" points="870.89,-220 769.89,-220 769.89,-184 870.89,-184 870.89,-220"/>
<text text-anchor="start" x="797.39" y="-200.1" font-family="Courier New" font-size="8.00" fill="red">CA pwr&#45;co2</text>
</a>
</g>
</g>
<!-- CA pwr&#45;co2 (bus)&#45;&gt;CA pwr&#45;co2 (store) -->
<g id="edge3" class="edge">
<title>CA pwr&#45;co2 (bus)&#45;&gt;CA pwr&#45;co2 (store)</title>
<path fill="none" stroke="black" stroke-width="1.5" d="M820.39,-313.52C820.39,-291.23 820.39,-256.95 820.39,-232.48"/>
<polygon fill="black" stroke="black" stroke-width="1.5" points="820.39,-325.56 814.99,-313.56 820.14,-319.56 820.14,-313.56 820.39,-313.56 820.64,-313.56 820.64,-319.56 825.79,-313.56 820.39,-325.56 820.39,-325.56"/>
<polygon fill="black" stroke="black" stroke-width="1.5" points="820.39,-220.37 825.79,-232.37 820.64,-226.37 820.64,-232.37 820.39,-232.37 820.14,-232.37 820.14,-226.37 814.99,-232.37 820.39,-220.37 820.39,-220.37"/>
</g>
<!-- CA gas&#45;ch4 (bus) -->
<g id="node3" class="node">
<title>CA gas&#45;ch4 (bus)</title>
<g id="a_node3"><a xlink:title="Bus: CA gas&#45;ch4&#10;Carrier: AC&#10;Unit: &#10;Generators: 0&#10;Loads: 0&#10;Stores: 0&#10;Storage units: 0&#10;Incoming links: 4&#10;Outgoing links: 0&#10;Lines: 0&#10;&#10;Power time series: N/A ">
<polygon fill="none" stroke="transparent" stroke-width="7.3" points="1293.39,-348 1055.39,-348 1055.39,-326 1293.39,-326 1293.39,-348"/>
<polyline fill="none" stroke="black" stroke-width="7.3" points="1055.39,-326 1293.39,-326 "/>
<text text-anchor="start" x="1151.39" y="-335.1" font-family="Courier New" font-size="8.00" fill="red">CA gas&#45;ch4</text>
</a>
</g>
</g>
<!-- p9 (bus) -->
<g id="node4" class="node">
<title>p9 (bus)</title>
<g id="a_node4"><a xlink:title="Bus: p9&#10;Carrier: AC&#10;Unit: &#10;Generators: 0&#10;Loads: 1&#10;Stores: 0&#10;Storage units: 1&#10;Incoming links: 2&#10;Outgoing links: 1&#10;Lines: 0&#10;&#10;Power time series: N/A ">
<polygon fill="none" stroke="transparent" stroke-width="7.3" points="312.39,-348 74.39,-348 74.39,-326 312.39,-326 312.39,-348"/>
<polyline fill="none" stroke="black" stroke-width="7.3" points="74.39,-326 312.39,-326 "/>
<text text-anchor="start" x="188.39" y="-335.1" font-family="Courier New" font-size="8.00" fill="red">p9</text>
</a>
</g>
</g>
<!-- p10 (bus) -->
<g id="node6" class="node">
<title>p10 (bus)</title>
<g id="a_node6"><a xlink:title="Bus: p10&#10;Carrier: AC&#10;Unit: &#10;Generators: 0&#10;Loads: 1&#10;Stores: 0&#10;Storage units: 1&#10;Incoming links: 3&#10;Outgoing links: 0&#10;Lines: 0&#10;&#10;Power time series: N/A ">
<polygon fill="none" stroke="transparent" stroke-width="7.3" points="1556.39,-213 1318.39,-213 1318.39,-191 1556.39,-191 1556.39,-213"/>
<polyline fill="none" stroke="black" stroke-width="7.3" points="1318.39,-191 1556.39,-191 "/>
<text text-anchor="start" x="1430.39" y="-200.1" font-family="Courier New" font-size="8.00" fill="red">p10</text>
</a>
</g>
</g>
<!-- p9 (bus)&#45;&gt;p10 (bus) -->
<g id="edge8" class="edge">
<title>p9 (bus)&#45;&gt;p10 (bus)</title>
<g id="a_edge8"><a xlink:title="Link: p9||p10&#10;From: p9 (bus0)&#10;To: p10 (bus1)&#10;Carrier: &#10;Extendable nominal power: False&#10;Nominal power: 0.00 MW&#10;Efficiency: 1.00&#10;Capital cost: 0.00 currency/MW&#10;Marginal cost: 0.00 currency/MWh&#10;&#10;Optimised nominal power: 0.00 MW&#10;Power time series (p0): N/A MW&#10;Power time series (p1): N/A MW">
<path fill="none" stroke="black" stroke-width="1.5" d="M287.15,-325.98C514.22,-301.7 1092.54,-239.87 1331.55,-214.32"/>
<polygon fill="black" stroke="black" stroke-width="1.5" points="1343.7,-213.02 1332.35,-219.66 1337.76,-213.9 1331.8,-214.54 1331.77,-214.29 1331.74,-214.04 1337.71,-213.41 1331.2,-208.92 1343.7,-213.02 1343.7,-213.02"/>
</a>
</g>
<text text-anchor="start" x="704.39" y="-283.6" font-family="Courier New" font-size="8.00" fill="red">p9||p10</text>
</g>
<!-- p9 AC (load) -->
<g id="node8" class="node">
<title>p9 AC (load)</title>
<g id="a_node8"><a xlink:title="Load: p9 AC&#10;Bus: p9&#10;Carrier: &#10;Power set: 0.00 ">
<polygon fill="none" stroke="black" stroke-width="2" points="260.39,-159 314.39,-223.5 206.39,-223.5 260.39,-159"/>
<text text-anchor="start" x="248.89" y="-200.1" font-family="Courier New" font-size="8.00" fill="red">p9 AC</text>
</a>
</g>
</g>
<!-- p9 (bus)&#45;&gt;p9 AC (load) -->
<g id="edge1" class="edge">
<title>p9 (bus)&#45;&gt;p9 AC (load)</title>
<path fill="none" stroke="black" stroke-width="1.5" d="M198.65,-325.56C209.69,-303.64 235.48,-252.45 249.99,-223.64"/>
</g>
<!-- p9 battery (storage unit) -->
<g id="node13" class="node">
<title>p9 battery (storage unit)</title>
<g id="a_node13"><a xlink:title="Storage unit: p9 battery&#10;Bus: p9&#10;Carrier: &#10;Extendable nominal power: False&#10;Nominal power: 0.00 &#10;Power set: 0.00 &#10;Charge cyclic state: False&#10;Capital cost: 0.00 currency/&#10;Marginal cost: 0.00 currency/h&#10;&#10;Optimised nominal power: 0.00 &#10;Power time series: N/A ">
<polygon fill="none" stroke="black" stroke-width="2" points="134.67,-220 27.64,-220 0.11,-184 107.14,-184 134.67,-220"/>
<text text-anchor="start" x="44.39" y="-200.1" font-family="Courier New" font-size="8.00" fill="red">p9 battery</text>
</a>
</g>
</g>
<!-- p9 (bus)&#45;&gt;p9 battery (storage unit) -->
<g id="edge6" class="edge">
<title>p9 (bus)&#45;&gt;p9 battery (storage unit)</title>
<path fill="none" stroke="black" stroke-width="1.5" d="M175.1,-316.69C153.25,-293.63 116.62,-254.96 92.23,-229.22"/>
<polygon fill="black" stroke="black" stroke-width="1.5" points="183.5,-325.56 171.33,-320.57 179.19,-321.38 175.07,-317.02 175.25,-316.85 175.43,-316.68 179.56,-321.04 179.17,-313.14 183.5,-325.56 183.5,-325.56"/>
<polygon fill="black" stroke="black" stroke-width="1.5" points="83.85,-220.37 96.02,-225.37 88.15,-224.55 92.28,-228.91 92.1,-229.08 91.92,-229.25 87.79,-224.9 88.18,-232.8 83.85,-220.37 83.85,-220.37"/>
</g>
<!-- p9 co2 capture (bus) -->
<g id="node5" class="node">
<title>p9 co2 capture (bus)</title>
<g id="a_node5"><a xlink:title="Bus: p9 co2 capture&#10;Carrier: AC&#10;Unit: &#10;Generators: 0&#10;Loads: 0&#10;Stores: 1&#10;Storage units: 0&#10;Incoming links: 1&#10;Outgoing links: 0&#10;Lines: 0&#10;&#10;Power time series: N/A ">
<polygon fill="none" stroke="transparent" stroke-width="7.3" points="622.39,-348 384.39,-348 384.39,-326 622.39,-326 622.39,-348"/>
<polyline fill="none" stroke="black" stroke-width="7.3" points="384.39,-326 622.39,-326 "/>
<text text-anchor="start" x="471.39" y="-335.1" font-family="Courier New" font-size="8.00" fill="red">p9 co2 capture</text>
</a>
</g>
</g>
<!-- p9 co2 storage (store) -->
<g id="node11" class="node">
<title>p9 co2 storage (store)</title>
<g id="a_node11"><a xlink:title="Store: p9 co2 storage&#10;Bus: p9 co2 capture&#10;Carrier: &#10;Extendable nominal energy: False&#10;Nominal energy: 0.00 h&#10;Power set: 0.00 &#10;Cyclic energy: False&#10;Capital cost: 0.00 currency/&#10;Marginal cost: 0.00 currency/h&#10;&#10;Optimised nominal energy: 0.00 h&#10;Energy time series: N/A h&#10;Power time series: N/A ">
<polygon fill="none" stroke="black" stroke-width="2" points="553.89,-220 452.89,-220 452.89,-184 553.89,-184 553.89,-220"/>
<text text-anchor="start" x="471.39" y="-200.1" font-family="Courier New" font-size="8.00" fill="red">p9 co2 storage</text>
</a>
</g>
</g>
<!-- p9 co2 capture (bus)&#45;&gt;p9 co2 storage (store) -->
<g id="edge4" class="edge">
<title>p9 co2 capture (bus)&#45;&gt;p9 co2 storage (store)</title>
<path fill="none" stroke="black" stroke-width="1.5" d="M503.39,-313.52C503.39,-291.23 503.39,-256.95 503.39,-232.48"/>
<polygon fill="black" stroke="black" stroke-width="1.5" points="503.39,-325.56 497.99,-313.56 503.14,-319.56 503.14,-313.56 503.39,-313.56 503.64,-313.56 503.64,-319.56 508.79,-313.56 503.39,-325.56 503.39,-325.56"/>
<polygon fill="black" stroke="black" stroke-width="1.5" points="503.39,-220.37 508.79,-232.37 503.64,-226.37 503.64,-232.37 503.39,-232.37 503.14,-232.37 503.14,-226.37 497.99,-232.37 503.39,-220.37 503.39,-220.37"/>
</g>
<!-- p10 AC (load) -->
<g id="node9" class="node">
<title>p10 AC (load)</title>
<g id="a_node9"><a xlink:title="Load: p10 AC&#10;Bus: p10&#10;Carrier: &#10;Power set: 0.00 ">
<polygon fill="none" stroke="black" stroke-width="2" points="1340.39,0 1394.39,-64.5 1286.39,-64.5 1340.39,0"/>
<text text-anchor="start" x="1326.39" y="-41.1" font-family="Courier New" font-size="8.00" fill="red">p10 AC</text>
</a>
</g>
</g>
<!-- p10 (bus)&#45;&gt;p10 AC (load) -->
<g id="edge2" class="edge">
<title>p10 (bus)&#45;&gt;p10 AC (load)</title>
<path fill="none" stroke="black" stroke-width="1.5" d="M1431.02,-190.7C1415.26,-165.18 1374.17,-98.67 1353.16,-64.67"/>
</g>
<!-- p10 battery (storage unit) -->
<g id="node14" class="node">
<title>p10 battery (storage unit)</title>
<g id="a_node14"><a xlink:title="Storage unit: p10 battery&#10;Bus: p10&#10;Carrier: &#10;Extendable nominal power: False&#10;Nominal power: 0.00 &#10;Power set: 0.00 &#10;Charge cyclic state: False&#10;Capital cost: 0.00 currency/&#10;Marginal cost: 0.00 currency/h&#10;&#10;Optimised nominal power: 0.00 &#10;Power time series: N/A ">
<polygon fill="none" stroke="black" stroke-width="2" points="1600.67,-61 1493.64,-61 1466.11,-25 1573.14,-25 1600.67,-61"/>
<text text-anchor="start" x="1508.39" y="-41.1" font-family="Courier New" font-size="8.00" fill="red">p10 battery</text>
</a>
</g>
</g>
<!-- p10 (bus)&#45;&gt;p10 battery (storage unit) -->
<g id="edge7" class="edge">
<title>p10 (bus)&#45;&gt;p10 battery (storage unit)</title>
<path fill="none" stroke="black" stroke-width="1.5" d="M1450.14,-180.15C1467.18,-152.28 1497.45,-102.77 1516.42,-71.76"/>
<polygon fill="black" stroke="black" stroke-width="1.5" points="1443.69,-190.7 1445.34,-177.64 1446.6,-185.45 1449.73,-180.33 1449.95,-180.46 1450.16,-180.59 1447.03,-185.71 1454.55,-183.28 1443.69,-190.7 1443.69,-190.7"/>
<polygon fill="black" stroke="black" stroke-width="1.5" points="1522.85,-61.24 1521.19,-74.3 1519.93,-66.49 1516.8,-71.61 1516.59,-71.48 1516.37,-71.35 1519.5,-66.23 1511.98,-68.66 1522.85,-61.24 1522.85,-61.24"/>
</g>
<!-- p10 co2 capture (bus) -->
<g id="node7" class="node">
<title>p10 co2 capture (bus)</title>
<g id="a_node7"><a xlink:title="Bus: p10 co2 capture&#10;Carrier: AC&#10;Unit: &#10;Generators: 0&#10;Loads: 0&#10;Stores: 1&#10;Storage units: 0&#10;Incoming links: 1&#10;Outgoing links: 0&#10;Lines: 0&#10;&#10;Power time series: N/A ">
<polygon fill="none" stroke="transparent" stroke-width="7.3" points="2067.39,-348 1829.39,-348 1829.39,-326 2067.39,-326 2067.39,-348"/>
<polyline fill="none" stroke="black" stroke-width="7.3" points="1829.39,-326 2067.39,-326 "/>
<text text-anchor="start" x="1914.39" y="-335.1" font-family="Courier New" font-size="8.00" fill="red">p10 co2 capture</text>
</a>
</g>
</g>
<!-- p10 co2 storage (store) -->
<g id="node12" class="node">
<title>p10 co2 storage (store)</title>
<g id="a_node12"><a xlink:title="Store: p10 co2 storage&#10;Bus: p10 co2 capture&#10;Carrier: &#10;Extendable nominal energy: False&#10;Nominal energy: 0.00 h&#10;Power set: 0.00 &#10;Cyclic energy: False&#10;Capital cost: 0.00 currency/&#10;Marginal cost: 0.00 currency/h&#10;&#10;Optimised nominal energy: 0.00 h&#10;Energy time series: N/A h&#10;Power time series: N/A ">
<polygon fill="none" stroke="black" stroke-width="2" points="1998.89,-220 1897.89,-220 1897.89,-184 1998.89,-184 1998.89,-220"/>
<text text-anchor="start" x="1914.39" y="-200.1" font-family="Courier New" font-size="8.00" fill="red">p10 co2 storage</text>
</a>
</g>
</g>
<!-- p10 co2 capture (bus)&#45;&gt;p10 co2 storage (store) -->
<g id="edge5" class="edge">
<title>p10 co2 capture (bus)&#45;&gt;p10 co2 storage (store)</title>
<path fill="none" stroke="black" stroke-width="1.5" d="M1948.39,-313.52C1948.39,-291.23 1948.39,-256.95 1948.39,-232.48"/>
<polygon fill="black" stroke="black" stroke-width="1.5" points="1948.39,-325.56 1942.99,-313.56 1948.14,-319.56 1948.14,-313.56 1948.39,-313.56 1948.64,-313.56 1948.64,-319.56 1953.79,-313.56 1948.39,-325.56 1948.39,-325.56"/>
<polygon fill="black" stroke="black" stroke-width="1.5" points="1948.39,-220.37 1953.79,-232.37 1948.64,-226.37 1948.64,-232.37 1948.39,-232.37 1948.14,-232.37 1948.14,-226.37 1942.99,-232.37 1948.39,-220.37 1948.39,-220.37"/>
</g>
<!-- p9 OCGT (multi&#45;link)&#45;&gt;CA pwr&#45;co2 (bus) -->
<g id="edge15" class="edge">
<title>p9 OCGT (multi&#45;link)&#45;&gt;CA pwr&#45;co2 (bus)</title>
<g id="a_edge15"><a xlink:title="Multi&#45;link: p9 OCGT&#10;From: CA gas (bus0)&#10;To: CA pwr&#45;co2 (bus2)&#10;Carrier: &#10;Extendable nominal power: False&#10;Nominal power: 0.00 MW&#10;Efficiency: 1.00&#10;Capital cost: 0.00 currency/MW&#10;Marginal cost: 0.00 currency/MWh&#10;&#10;Optimised nominal power: 0.00 MW&#10;Power time series (p0): N/A MW&#10;Power time series (p2): N/A MW">
<path fill="none" stroke="black" stroke-width="1.5" d="M585.06,-428.92C578.12,-422.48 546.39,-393 546.39,-393 546.39,-393 546.39,-384 546.39,-384 546.39,-384 667.5,-363.67 748.68,-350.04"/>
<polygon fill="black" stroke="black" stroke-width="1.5" points="760.6,-348.04 749.66,-355.35 754.72,-349.28 748.8,-350.27 748.76,-350.02 748.72,-349.78 754.64,-348.78 747.87,-344.7 760.6,-348.04 760.6,-348.04"/>
</a>
</g>
<text text-anchor="start" x="546.39" y="-386.6" font-family="Courier New" font-size="8.00" fill="red">p9 OCGT</text>
</g>
<!-- p9 OCGT (multi&#45;link)&#45;&gt;CA gas&#45;ch4 (bus) -->
<g id="edge14" class="edge">
<title>p9 OCGT (multi&#45;link)&#45;&gt;CA gas&#45;ch4 (bus)</title>
<g id="a_edge14"><a xlink:title="Multi&#45;link: p9 OCGT&#10;From: CA gas (bus0)&#10;To: CA gas&#45;ch4 (bus3)&#10;Carrier: &#10;Extendable nominal power: False&#10;Nominal power: 0.00 MW&#10;Efficiency: 1.00&#10;Capital cost: 0.00 currency/MW&#10;Marginal cost: 0.00 currency/MWh&#10;&#10;Optimised nominal power: 0.00 MW&#10;Power time series (p0): N/A MW&#10;Power time series (p3): N/A MW">
<path fill="none" stroke="black" stroke-width="1.5" d="M588.2,-429.51C603.76,-423.9 714.39,-384 714.39,-384 714.39,-384 926.01,-362.84 1062.18,-349.22"/>
<polygon fill="black" stroke="black" stroke-width="1.5" points="1074.29,-348.01 1062.89,-354.58 1068.35,-348.86 1062.38,-349.45 1062.35,-349.2 1062.33,-348.96 1068.3,-348.36 1061.81,-343.83 1074.29,-348.01 1074.29,-348.01"/>
</a>
</g>
<text text-anchor="start" x="714.39" y="-386.6" font-family="Courier New" font-size="8.00" fill="red">p9 OCGT</text>
</g>
<!-- p9 OCGT (multi&#45;link)&#45;&gt;p9 (bus) -->
<g id="edge13" class="edge">
<title>p9 OCGT (multi&#45;link)&#45;&gt;p9 (bus)</title>
<g id="a_edge13"><a xlink:title="Multi&#45;link: p9 OCGT&#10;From: CA gas (bus0)&#10;To: p9 (bus1)&#10;Carrier: &#10;Extendable nominal power: False&#10;Nominal power: 0.00 MW&#10;Efficiency: 1.00&#10;Capital cost: 0.00 currency/MW&#10;Marginal cost: 0.00 currency/MWh&#10;&#10;Optimised nominal power: 0.00 MW&#10;Power time series (p0): N/A MW&#10;Power time series (p1): N/A MW">
<path fill="none" stroke="black" stroke-width="1.5" d="M584.35,-429.99C551.38,-427.31 129.39,-393 129.39,-393 129.39,-393 129.39,-384 129.39,-384 129.39,-384 151.21,-368.31 169.37,-355.26"/>
<polygon fill="black" stroke="black" stroke-width="1.5" points="179.19,-348.21 172.59,-359.6 174.46,-351.91 169.59,-355.42 169.44,-355.21 169.3,-355.01 174.17,-351.51 166.29,-350.83 179.19,-348.21 179.19,-348.21"/>
</a>
</g>
<text text-anchor="start" x="129.39" y="-386.6" font-family="Courier New" font-size="8.00" fill="red">p9 OCGT</text>
</g>
<!-- p9 CCGT&#45;95CC_2030 (multi&#45;link)&#45;&gt;CA pwr&#45;co2 (bus) -->
<g id="edge18" class="edge">
<title>p9 CCGT&#45;95CC_2030 (multi&#45;link)&#45;&gt;CA pwr&#45;co2 (bus)</title>
<g id="a_edge18"><a xlink:title="Multi&#45;link: p9 CCGT&#45;95CC_2030&#10;From: CA gas (bus0)&#10;To: CA pwr&#45;co2 (bus2)&#10;Carrier: &#10;Extendable nominal power: False&#10;Nominal power: 0.00 MW&#10;Efficiency: 1.00&#10;Capital cost: 0.00 currency/MW&#10;Marginal cost: 0.00 currency/MWh&#10;&#10;Optimised nominal power: 0.00 MW&#10;Power time series (p0): N/A MW&#10;Power time series (p2): N/A MW">
<path fill="none" stroke="black" stroke-width="1.5" d="M776.96,-428.92C774.7,-422.48 764.39,-393 764.39,-393 764.39,-393 764.39,-384 764.39,-384 764.39,-384 782.61,-369.04 798.26,-356.18"/>
<polygon fill="black" stroke="black" stroke-width="1.5" points="807.96,-348.21 802.12,-360 803.48,-352.21 798.85,-356.02 798.69,-355.83 798.53,-355.63 803.17,-351.82 795.26,-351.65 807.96,-348.21 807.96,-348.21"/>
</a>
</g>
<text text-anchor="start" x="764.39" y="-386.6" font-family="Courier New" font-size="8.00" fill="red">p9 CCGT&#45;95CC_2030</text>
</g>
<!-- p9 CCGT&#45;95CC_2030 (multi&#45;link)&#45;&gt;CA gas&#45;ch4 (bus) -->
<g id="edge17" class="edge">
<title>p9 CCGT&#45;95CC_2030 (multi&#45;link)&#45;&gt;CA gas&#45;ch4 (bus)</title>
<g id="a_edge17"><a xlink:title="Multi&#45;link: p9 CCGT&#45;95CC_2030&#10;From: CA gas (bus0)&#10;To: CA gas&#45;ch4 (bus3)&#10;Carrier: &#10;Extendable nominal power: False&#10;Nominal power: 0.00 MW&#10;Efficiency: 1.00&#10;Capital cost: 0.00 currency/MW&#10;Marginal cost: 0.00 currency/MWh&#10;&#10;Optimised nominal power: 0.00 MW&#10;Power time series (p0): N/A MW&#10;Power time series (p3): N/A MW">
<path fill="none" stroke="black" stroke-width="1.5" d="M779.28,-429.96C806.9,-427.04 1128.39,-393 1128.39,-393 1128.39,-393 1144.73,-373.46 1157.93,-357.68"/>
<polygon fill="black" stroke="black" stroke-width="1.5" points="1165.95,-348.09 1162.4,-360.76 1162.29,-352.85 1158.44,-357.45 1158.25,-357.29 1158.06,-357.13 1161.91,-352.53 1154.11,-353.83 1165.95,-348.09 1165.95,-348.09"/>
</a>
</g>
<text text-anchor="start" x="1134.39" y="-386.6" font-family="Courier New" font-size="8.00" fill="red">p9 CCGT&#45;95CC_2030</text>
</g>
<!-- p9 CCGT&#45;95CC_2030 (multi&#45;link)&#45;&gt;p9 (bus) -->
<g id="edge16" class="edge">
<title>p9 CCGT&#45;95CC_2030 (multi&#45;link)&#45;&gt;p9 (bus)</title>
<g id="a_edge16"><a xlink:title="Multi&#45;link: p9 CCGT&#45;95CC_2030&#10;From: CA gas (bus0)&#10;To: p9 (bus1)&#10;Carrier: &#10;Extendable nominal power: False&#10;Nominal power: 0.00 MW&#10;Efficiency: 1.00&#10;Capital cost: 0.00 currency/MW&#10;Marginal cost: 0.00 currency/MWh&#10;&#10;Optimised nominal power: 0.00 MW&#10;Power time series (p0): N/A MW&#10;Power time series (p1): N/A MW">
<path fill="none" stroke="black" stroke-width="1.5" d="M775.51,-429.99C745.14,-427.31 356.39,-393 356.39,-393 356.39,-393 282.95,-368.22 234.66,-351.93"/>
<polygon fill="black" stroke="black" stroke-width="1.5" points="223.29,-348.09 236.38,-346.81 229.05,-349.77 234.74,-351.69 234.66,-351.92 234.58,-352.16 228.89,-350.24 232.93,-357.04 223.29,-348.09 223.29,-348.09"/>
</a>
</g>
<text text-anchor="start" x="356.39" y="-386.6" font-family="Courier New" font-size="8.00" fill="red">p9 CCGT&#45;95CC_2030</text>
</g>
<!-- p9 CCGT&#45;95CC_2030 (multi&#45;link)&#45;&gt;p9 co2 capture (bus) -->
<g id="edge19" class="edge">
<title>p9 CCGT&#45;95CC_2030 (multi&#45;link)&#45;&gt;p9 co2 capture (bus)</title>
<g id="a_edge19"><a xlink:title="Multi&#45;link: p9 CCGT&#45;95CC_2030&#10;From: CA gas (bus0)&#10;To: p9 co2 capture (bus4)&#10;Carrier: &#10;Extendable nominal power: False&#10;Nominal power: 0.00 MW&#10;Efficiency: 1.00&#10;Capital cost: 0.00 currency/MW&#10;Marginal cost: 0.00 currency/MWh&#10;&#10;Optimised nominal power: 0.00 MW&#10;Power time series (p0): N/A MW&#10;Power time series (p4): N/A MW">
<path fill="none" stroke="black" stroke-width="1.5" d="M775.31,-429.92C747.54,-426.76 451.39,-393 451.39,-393 451.39,-393 451.39,-384 451.39,-384 451.39,-384 468.31,-369.04 482.84,-356.18"/>
<polygon fill="black" stroke="black" stroke-width="1.5" points="491.85,-348.21 486.44,-360.2 487.52,-352.37 483.03,-356.35 482.86,-356.16 482.69,-355.97 487.19,-352 479.28,-352.12 491.85,-348.21 491.85,-348.21"/>
</a>
</g>
<text text-anchor="start" x="451.39" y="-386.6" font-family="Courier New" font-size="8.00" fill="red">p9 CCGT&#45;95CC_2030</text>
</g>
<!-- p10 OCGT (multi&#45;link)&#45;&gt;CA pwr&#45;co2 (bus) -->
<g id="edge22" class="edge">
<title>p10 OCGT (multi&#45;link)&#45;&gt;CA pwr&#45;co2 (bus)</title>
<g id="a_edge22"><a xlink:title="Multi&#45;link: p10 OCGT&#10;From: CA gas (bus0)&#10;To: CA pwr&#45;co2 (bus2)&#10;Carrier: &#10;Extendable nominal power: False&#10;Nominal power: 0.00 MW&#10;Efficiency: 1.00&#10;Capital cost: 0.00 currency/MW&#10;Marginal cost: 0.00 currency/MWh&#10;&#10;Optimised nominal power: 0.00 MW&#10;Power time series (p0): N/A MW&#10;Power time series (p2): N/A MW">
<path fill="none" stroke="black" stroke-width="1.5" d="M1142.44,-429.84C1120.35,-426.21 918.39,-393 918.39,-393 918.39,-393 878.07,-370.37 849.15,-354.14"/>
<polygon fill="black" stroke="black" stroke-width="1.5" points="838.36,-348.09 851.47,-349.25 843.72,-350.81 848.95,-353.74 848.83,-353.96 848.71,-354.18 843.47,-351.24 846.19,-358.67 838.36,-348.09 838.36,-348.09"/>
</a>
</g>
<text text-anchor="start" x="918.39" y="-386.6" font-family="Courier New" font-size="8.00" fill="red">p10 OCGT</text>
</g>
<!-- p10 OCGT (multi&#45;link)&#45;&gt;CA gas&#45;ch4 (bus) -->
<g id="edge21" class="edge">
<title>p10 OCGT (multi&#45;link)&#45;&gt;CA gas&#45;ch4 (bus)</title>
<g id="a_edge21"><a xlink:title="Multi&#45;link: p10 OCGT&#10;From: CA gas (bus0)&#10;To: CA gas&#45;ch4 (bus3)&#10;Carrier: &#10;Extendable nominal power: False&#10;Nominal power: 0.00 MW&#10;Efficiency: 1.00&#10;Capital cost: 0.00 currency/MW&#10;Marginal cost: 0.00 currency/MWh&#10;&#10;Optimised nominal power: 0.00 MW&#10;Power time series (p0): N/A MW&#10;Power time series (p3): N/A MW">
<path fill="none" stroke="black" stroke-width="1.5" d="M1146.34,-429.63C1163.11,-425.12 1282.39,-393 1282.39,-393 1282.39,-393 1282.39,-384 1282.39,-384 1282.39,-384 1240.74,-366.26 1209.17,-352.81"/>
<polygon fill="black" stroke="black" stroke-width="1.5" points="1198.09,-348.09 1211.25,-347.83 1203.71,-350.22 1209.23,-352.57 1209.13,-352.8 1209.03,-353.03 1203.51,-350.68 1207.01,-357.77 1198.09,-348.09 1198.09,-348.09"/>
</a>
</g>
<text text-anchor="start" x="1282.39" y="-386.6" font-family="Courier New" font-size="8.00" fill="red">p10 OCGT</text>
</g>
<!-- p10 OCGT (multi&#45;link)&#45;&gt;p10 (bus) -->
<g id="edge20" class="edge">
<title>p10 OCGT (multi&#45;link)&#45;&gt;p10 (bus)</title>
<g id="a_edge20"><a xlink:title="Multi&#45;link: p10 OCGT&#10;From: CA gas (bus0)&#10;To: p10 (bus1)&#10;Carrier: &#10;Extendable nominal power: False&#10;Nominal power: 0.00 MW&#10;Efficiency: 1.00&#10;Capital cost: 0.00 currency/MW&#10;Marginal cost: 0.00 currency/MWh&#10;&#10;Optimised nominal power: 0.00 MW&#10;Power time series (p0): N/A MW&#10;Power time series (p1): N/A MW">
<path fill="none" stroke="black" stroke-width="1.5" d="M1146.56,-429.74C1167.76,-425.66 1337.39,-393 1337.39,-393 1337.39,-393 1400.42,-273.24 1426.4,-223.88"/>
<polygon fill="black" stroke="black" stroke-width="1.5" points="1432.01,-213.22 1431.2,-226.35 1429.44,-218.64 1426.64,-223.95 1426.42,-223.83 1426.2,-223.72 1429,-218.41 1421.64,-221.32 1432.01,-213.22 1432.01,-213.22"/>
</a>
</g>
<text text-anchor="start" x="1372.39" y="-335.1" font-family="Courier New" font-size="8.00" fill="red">p10 OCGT</text>
</g>
<!-- p10 CCGT&#45;95CC_2030 (multi&#45;link)&#45;&gt;CA pwr&#45;co2 (bus) -->
<g id="edge25" class="edge">
<title>p10 CCGT&#45;95CC_2030 (multi&#45;link)&#45;&gt;CA pwr&#45;co2 (bus)</title>
<g id="a_edge25"><a xlink:title="Multi&#45;link: p10 CCGT&#45;95CC_2030&#10;From: CA gas (bus0)&#10;To: CA pwr&#45;co2 (bus2)&#10;Carrier: &#10;Extendable nominal power: False&#10;Nominal power: 0.00 MW&#10;Efficiency: 1.00&#10;Capital cost: 0.00 currency/MW&#10;Marginal cost: 0.00 currency/MWh&#10;&#10;Optimised nominal power: 0.00 MW&#10;Power time series (p0): N/A MW&#10;Power time series (p2): N/A MW">
<path fill="none" stroke="black" stroke-width="1.5" d="M1549.5,-430.03C1515.26,-427.59 1028.39,-393 1028.39,-393 1028.39,-393 931.88,-367.48 870.34,-351.21"/>
<polygon fill="black" stroke="black" stroke-width="1.5" points="858.54,-348.09 871.52,-345.93 864.4,-349.38 870.2,-350.91 870.14,-351.16 870.08,-351.4 864.28,-349.86 868.76,-356.38 858.54,-348.09 858.54,-348.09"/>
</a>
</g>
<text text-anchor="start" x="1028.39" y="-386.6" font-family="Courier New" font-size="8.00" fill="red">p10 CCGT&#45;95CC_2030</text>
</g>
<!-- p10 CCGT&#45;95CC_2030 (multi&#45;link)&#45;&gt;CA gas&#45;ch4 (bus) -->
<g id="edge24" class="edge">
<title>p10 CCGT&#45;95CC_2030 (multi&#45;link)&#45;&gt;CA gas&#45;ch4 (bus)</title>
<g id="a_edge24"><a xlink:title="Multi&#45;link: p10 CCGT&#45;95CC_2030&#10;From: CA gas (bus0)&#10;To: CA gas&#45;ch4 (bus3)&#10;Carrier: &#10;Extendable nominal power: False&#10;Nominal power: 0.00 MW&#10;Efficiency: 1.00&#10;Capital cost: 0.00 currency/MW&#10;Marginal cost: 0.00 currency/MWh&#10;&#10;Optimised nominal power: 0.00 MW&#10;Power time series (p0): N/A MW&#10;Power time series (p3): N/A MW">
<path fill="none" stroke="black" stroke-width="1.5" d="M1549.71,-429.75C1529.18,-424.73 1325.89,-375.04 1227.37,-350.95"/>
<polygon fill="black" stroke="black" stroke-width="1.5" points="1215.61,-348.08 1228.55,-345.68 1221.5,-349.26 1227.33,-350.68 1227.27,-350.93 1227.21,-351.17 1221.38,-349.75 1225.99,-356.17 1215.61,-348.08 1215.61,-348.08"/>
</a>
</g>
<text text-anchor="start" x="1396.39" y="-386.6" font-family="Courier New" font-size="8.00" fill="red">p10 CCGT&#45;95CC_2030</text>
</g>
<!-- p10 CCGT&#45;95CC_2030 (multi&#45;link)&#45;&gt;p10 (bus) -->
<g id="edge23" class="edge">
<title>p10 CCGT&#45;95CC_2030 (multi&#45;link)&#45;&gt;p10 (bus)</title>
<g id="a_edge23"><a xlink:title="Multi&#45;link: p10 CCGT&#45;95CC_2030&#10;From: CA gas (bus0)&#10;To: p10 (bus1)&#10;Carrier: &#10;Extendable nominal power: False&#10;Nominal power: 0.00 MW&#10;Efficiency: 1.00&#10;Capital cost: 0.00 currency/MW&#10;Marginal cost: 0.00 currency/MWh&#10;&#10;Optimised nominal power: 0.00 MW&#10;Power time series (p0): N/A MW&#10;Power time series (p1): N/A MW">
<path fill="none" stroke="black" stroke-width="1.5" d="M1550.88,-428.87C1545.11,-414.29 1492.39,-281 1492.39,-281 1492.39,-281 1467.87,-246.23 1451.57,-223.12"/>
<polygon fill="black" stroke="black" stroke-width="1.5" points="1444.58,-213.2 1455.91,-219.89 1448.24,-217.96 1451.7,-222.86 1451.49,-223 1451.29,-223.15 1447.83,-218.24 1447.08,-226.12 1444.58,-213.2 1444.58,-213.2"/>
</a>
</g>
<text text-anchor="start" x="1517.39" y="-335.1" font-family="Courier New" font-size="8.00" fill="red">p10 CCGT&#45;95CC_2030</text>
</g>
<!-- p10 CCGT&#45;95CC_2030 (multi&#45;link)&#45;&gt;p10 co2 capture (bus) -->
<g id="edge26" class="edge">
<title>p10 CCGT&#45;95CC_2030 (multi&#45;link)&#45;&gt;p10 co2 capture (bus)</title>
<g id="a_edge26"><a xlink:title="Multi&#45;link: p10 CCGT&#45;95CC_2030&#10;From: CA gas (bus0)&#10;To: p10 co2 capture (bus4)&#10;Carrier: &#10;Extendable nominal power: False&#10;Nominal power: 0.00 MW&#10;Efficiency: 1.00&#10;Capital cost: 0.00 currency/MW&#10;Marginal cost: 0.00 currency/MWh&#10;&#10;Optimised nominal power: 0.00 MW&#10;Power time series (p0): N/A MW&#10;Power time series (p4): N/A MW">
<path fill="none" stroke="black" stroke-width="1.5" d="M1553.4,-429.74C1573.06,-425.66 1730.39,-393 1730.39,-393 1730.39,-393 1832.23,-367.31 1896.7,-351.04"/>
<polygon fill="black" stroke="black" stroke-width="1.5" points="1908.66,-348.02 1898.34,-356.2 1902.9,-349.73 1897.08,-351.2 1897.02,-350.96 1896.96,-350.72 1902.78,-349.25 1895.7,-345.72 1908.66,-348.02 1908.66,-348.02"/>
</a>
</g>
<text text-anchor="start" x="1761.39" y="-386.6" font-family="Courier New" font-size="8.00" fill="red">p10 CCGT&#45;95CC_2030</text>
</g>
</g>
</svg>
